# Blender 4.2.3 LTS
# www.blender.org
mtllib title_2.mtl
o title_2
v 0.042500 -0.125000 -0.050000
v 0.319500 -0.125000 -0.050000
v 0.319500 -0.057000 -0.050000
v -0.323500 -0.057000 -0.050000
v -0.323500 -0.125000 -0.050000
v -0.036500 -0.125000 -0.050000
v -0.036500 -0.378000 -0.050000
v -0.425500 -0.378000 -0.050000
v -0.425500 -0.446000 -0.050000
v 0.424500 -0.446000 -0.050000
v 0.424500 -0.378000 -0.050000
v 0.042500 -0.378000 -0.050000
v -0.135001 0.174010 -0.050000
v -0.161759 0.160162 -0.050000
v -0.189406 0.145641 -0.050000
v -0.217574 0.130630 -0.050000
v -0.245895 0.115313 -0.050000
v -0.274000 0.099875 -0.050000
v -0.301522 0.084499 -0.050000
v -0.328093 0.069370 -0.050000
v -0.353344 0.054672 -0.050000
v -0.376907 0.040588 -0.050000
v -0.398416 0.027303 -0.050000
v -0.417500 0.015000 -0.050000
v -0.367500 -0.043000 -0.050000
v -0.349372 -0.030387 -0.050000
v -0.328727 -0.016681 -0.050000
v -0.305922 -0.002078 -0.050000
v -0.281315 0.013222 -0.050000
v -0.255263 0.029023 -0.050000
v -0.228125 0.045125 -0.050000
v -0.200258 0.061332 -0.050000
v -0.172019 0.077444 -0.050000
v -0.143766 0.093266 -0.050000
v -0.115856 0.108597 -0.050000
v -0.088649 0.123241 -0.050000
v -0.062500 0.137000 -0.050000
v -0.109500 0.187000 -0.050000
v 0.086112 0.126394 -0.050000
v 0.107893 0.108648 -0.050000
v 0.130766 0.090875 -0.050000
v 0.154648 0.073185 -0.050000
v 0.179461 0.055690 -0.050000
v 0.205125 0.038500 -0.050000
v 0.231560 0.021727 -0.050000
v 0.258685 0.005482 -0.050000
v 0.286422 -0.010125 -0.050000
v 0.314690 -0.024981 -0.050000
v 0.343409 -0.038977 -0.050000
v 0.372500 -0.052000 -0.050000
v 0.416500 0.013000 -0.050000
v 0.387299 0.024026 -0.050000
v 0.358727 0.036042 -0.050000
v 0.330828 0.048953 -0.050000
v 0.303648 0.062667 -0.050000
v 0.277232 0.077089 -0.050000
v 0.251625 0.092125 -0.050000
v 0.226872 0.107682 -0.050000
v 0.203019 0.123667 -0.050000
v 0.180109 0.139984 -0.050000
v 0.158190 0.156542 -0.050000
v 0.137305 0.173245 -0.050000
v 0.117500 0.190000 -0.050000
v 0.065500 0.144000 -0.050000
v -0.006075 0.435995 -0.050000
v -0.011764 0.425546 -0.050000
v -0.017516 0.414750 -0.050000
v -0.023278 0.403704 -0.050000
v -0.028998 0.392505 -0.050000
v -0.034625 0.381250 -0.050000
v -0.040106 0.370037 -0.050000
v -0.045389 0.358963 -0.050000
v -0.050422 0.348125 -0.050000
v -0.055153 0.337620 -0.050000
v -0.059530 0.327546 -0.050000
v -0.063500 0.318000 -0.050000
v -0.424500 0.318000 -0.050000
v -0.424500 0.117000 -0.050000
v -0.347500 0.117000 -0.050000
v -0.347500 0.249000 -0.050000
v 0.351500 0.249000 -0.050000
v 0.351500 0.092000 -0.050000
v 0.425500 0.092000 -0.050000
v 0.425500 0.318000 -0.050000
v 0.028500 0.318000 -0.050000
v 0.032100 0.326617 -0.050000
v 0.035880 0.335435 -0.050000
v 0.039812 0.344406 -0.050000
v 0.043870 0.353482 -0.050000
v 0.048025 0.362612 -0.050000
v 0.052250 0.371750 -0.050000
v 0.056516 0.380846 -0.050000
v 0.060796 0.389852 -0.050000
v 0.065062 0.398719 -0.050000
v 0.069287 0.407398 -0.050000
v 0.073442 0.415841 -0.050000
v 0.077500 0.424000 -0.050000
v -0.000500 0.446000 -0.050000
v 0.042500 -0.125000 0.050000
v 0.319500 -0.125000 0.050000
v 0.319500 -0.057000 0.050000
v -0.323500 -0.057000 0.050000
v -0.323500 -0.125000 0.050000
v -0.036500 -0.125000 0.050000
v -0.036500 -0.378000 0.050000
v -0.425500 -0.378000 0.050000
v -0.425500 -0.446000 0.050000
v 0.424500 -0.446000 0.050000
v 0.424500 -0.378000 0.050000
v 0.042500 -0.378000 0.050000
v -0.135001 0.174010 0.050000
v -0.161759 0.160162 0.050000
v -0.189406 0.145641 0.050000
v -0.217574 0.130630 0.050000
v -0.245895 0.115313 0.050000
v -0.274000 0.099875 0.050000
v -0.301522 0.084499 0.050000
v -0.328093 0.069370 0.050000
v -0.353344 0.054672 0.050000
v -0.376907 0.040588 0.050000
v -0.398416 0.027303 0.050000
v -0.417500 0.015000 0.050000
v -0.367500 -0.043000 0.050000
v -0.349372 -0.030387 0.050000
v -0.328727 -0.016681 0.050000
v -0.305922 -0.002078 0.050000
v -0.281315 0.013222 0.050000
v -0.255263 0.029023 0.050000
v -0.228125 0.045125 0.050000
v -0.200258 0.061332 0.050000
v -0.172019 0.077444 0.050000
v -0.143766 0.093266 0.050000
v -0.115856 0.108597 0.050000
v -0.088649 0.123241 0.050000
v -0.062500 0.137000 0.050000
v -0.109500 0.187000 0.050000
v 0.086112 0.126394 0.050000
v 0.107893 0.108648 0.050000
v 0.130766 0.090875 0.050000
v 0.154648 0.073185 0.050000
v 0.179461 0.055690 0.050000
v 0.205125 0.038500 0.050000
v 0.231560 0.021727 0.050000
v 0.258685 0.005482 0.050000
v 0.286422 -0.010125 0.050000
v 0.314690 -0.024981 0.050000
v 0.343409 -0.038977 0.050000
v 0.372500 -0.052000 0.050000
v 0.416500 0.013000 0.050000
v 0.387299 0.024026 0.050000
v 0.358727 0.036042 0.050000
v 0.330828 0.048953 0.050000
v 0.303648 0.062667 0.050000
v 0.277232 0.077089 0.050000
v 0.251625 0.092125 0.050000
v 0.226872 0.107682 0.050000
v 0.203019 0.123667 0.050000
v 0.180109 0.139984 0.050000
v 0.158190 0.156542 0.050000
v 0.137305 0.173245 0.050000
v 0.117500 0.190000 0.050000
v 0.065500 0.144000 0.050000
v -0.006075 0.435995 0.050000
v -0.011764 0.425546 0.050000
v -0.017516 0.414750 0.050000
v -0.023278 0.403704 0.050000
v -0.028998 0.392505 0.050000
v -0.034625 0.381250 0.050000
v -0.040106 0.370037 0.050000
v -0.045389 0.358963 0.050000
v -0.050422 0.348125 0.050000
v -0.055153 0.337620 0.050000
v -0.059530 0.327546 0.050000
v -0.063500 0.318000 0.050000
v -0.424500 0.318000 0.050000
v -0.424500 0.117000 0.050000
v -0.347500 0.117000 0.050000
v -0.347500 0.249000 0.050000
v 0.351500 0.249000 0.050000
v 0.351500 0.092000 0.050000
v 0.425500 0.092000 0.050000
v 0.425500 0.318000 0.050000
v 0.028500 0.318000 0.050000
v 0.032100 0.326617 0.050000
v 0.035880 0.335435 0.050000
v 0.039812 0.344406 0.050000
v 0.043870 0.353482 0.050000
v 0.048025 0.362612 0.050000
v 0.052250 0.371750 0.050000
v 0.056516 0.380846 0.050000
v 0.060796 0.389852 0.050000
v 0.065062 0.398719 0.050000
v 0.069287 0.407398 0.050000
v 0.073442 0.415841 0.050000
v 0.077500 0.424000 0.050000
v -0.000500 0.446000 0.050000
v -0.135001 0.174010 0.050000
v -0.135001 0.174010 -0.050000
v -0.161759 0.160162 0.050000
v -0.161759 0.160162 -0.050000
v -0.189406 0.145641 0.050000
v -0.189406 0.145641 -0.050000
v -0.217574 0.130630 0.050000
v -0.217574 0.130630 -0.050000
v -0.245895 0.115313 0.050000
v -0.245895 0.115313 -0.050000
v -0.274000 0.099875 0.050000
v -0.274000 0.099875 -0.050000
v -0.301522 0.084499 0.050000
v -0.301522 0.084499 -0.050000
v -0.328093 0.069370 0.050000
v -0.328093 0.069370 -0.050000
v -0.353344 0.054672 0.050000
v -0.353344 0.054672 -0.050000
v -0.376907 0.040588 0.050000
v -0.376907 0.040588 -0.050000
v -0.398416 0.027303 0.050000
v -0.398416 0.027303 -0.050000
v -0.417500 0.015000 0.050000
v -0.417500 0.015000 -0.050000
v -0.367500 -0.043000 0.050000
v -0.367500 -0.043000 -0.050000
v -0.349372 -0.030387 0.050000
v -0.349372 -0.030387 -0.050000
v -0.328727 -0.016681 0.050000
v -0.328727 -0.016681 -0.050000
v -0.305922 -0.002078 0.050000
v -0.305922 -0.002078 -0.050000
v -0.281315 0.013222 0.050000
v -0.281315 0.013222 -0.050000
v -0.255263 0.029023 0.050000
v -0.255263 0.029023 -0.050000
v -0.228125 0.045125 0.050000
v -0.228125 0.045125 -0.050000
v -0.200258 0.061332 0.050000
v -0.200258 0.061332 -0.050000
v -0.172019 0.077444 0.050000
v -0.172019 0.077444 -0.050000
v -0.143766 0.093266 0.050000
v -0.143766 0.093266 -0.050000
v -0.115856 0.108597 0.050000
v -0.115856 0.108597 -0.050000
v -0.088649 0.123241 0.050000
v -0.088649 0.123241 -0.050000
v -0.062500 0.137000 0.050000
v -0.062500 0.137000 -0.050000
v -0.109500 0.187000 0.050000
v -0.109500 0.187000 -0.050000
v 0.086112 0.126394 0.050000
v 0.086112 0.126394 -0.050000
v 0.107893 0.108648 0.050000
v 0.107893 0.108648 -0.050000
v 0.130766 0.090875 0.050000
v 0.130766 0.090875 -0.050000
v 0.154648 0.073185 0.050000
v 0.154648 0.073185 -0.050000
v 0.179461 0.055690 0.050000
v 0.179461 0.055690 -0.050000
v 0.205125 0.038500 0.050000
v 0.205125 0.038500 -0.050000
v 0.231560 0.021727 0.050000
v 0.231560 0.021727 -0.050000
v 0.258685 0.005482 0.050000
v 0.258685 0.005482 -0.050000
v 0.286422 -0.010125 0.050000
v 0.286422 -0.010125 -0.050000
v 0.314690 -0.024981 0.050000
v 0.314690 -0.024981 -0.050000
v 0.343409 -0.038977 0.050000
v 0.343409 -0.038977 -0.050000
v 0.372500 -0.052000 0.050000
v 0.372500 -0.052000 -0.050000
v 0.416500 0.013000 0.050000
v 0.416500 0.013000 -0.050000
v 0.387299 0.024026 0.050000
v 0.387299 0.024026 -0.050000
v 0.358727 0.036042 0.050000
v 0.358727 0.036042 -0.050000
v 0.330828 0.048953 0.050000
v 0.330828 0.048953 -0.050000
v 0.303648 0.062667 0.050000
v 0.303648 0.062667 -0.050000
v 0.277232 0.077089 0.050000
v 0.277232 0.077089 -0.050000
v 0.251625 0.092125 0.050000
v 0.251625 0.092125 -0.050000
v 0.226872 0.107682 0.050000
v 0.226872 0.107682 -0.050000
v 0.203019 0.123667 0.050000
v 0.203019 0.123667 -0.050000
v 0.180109 0.139984 0.050000
v 0.180109 0.139984 -0.050000
v 0.158190 0.156542 0.050000
v 0.158190 0.156542 -0.050000
v 0.137305 0.173245 0.050000
v 0.137305 0.173245 -0.050000
v 0.117500 0.190000 0.050000
v 0.117500 0.190000 -0.050000
v 0.065500 0.144000 0.050000
v 0.065500 0.144000 -0.050000
v 0.042500 -0.125000 0.050000
v 0.042500 -0.125000 -0.050000
v 0.319500 -0.125000 0.050000
v 0.319500 -0.125000 -0.050000
v 0.319500 -0.057000 0.050000
v 0.319500 -0.057000 -0.050000
v -0.323500 -0.057000 0.050000
v -0.323500 -0.057000 -0.050000
v -0.323500 -0.125000 0.050000
v -0.323500 -0.125000 -0.050000
v -0.036500 -0.125000 0.050000
v -0.036500 -0.125000 -0.050000
v -0.036500 -0.378000 0.050000
v -0.036500 -0.378000 -0.050000
v -0.425500 -0.378000 0.050000
v -0.425500 -0.378000 -0.050000
v -0.425500 -0.446000 0.050000
v -0.425500 -0.446000 -0.050000
v 0.424500 -0.446000 0.050000
v 0.424500 -0.446000 -0.050000
v 0.424500 -0.378000 0.050000
v 0.424500 -0.378000 -0.050000
v 0.042500 -0.378000 0.050000
v 0.042500 -0.378000 -0.050000
v -0.006075 0.435995 0.050000
v -0.006075 0.435995 -0.050000
v -0.011764 0.425546 0.050000
v -0.011764 0.425546 -0.050000
v -0.017516 0.414750 0.050000
v -0.017516 0.414750 -0.050000
v -0.023278 0.403704 0.050000
v -0.023278 0.403704 -0.050000
v -0.028998 0.392505 0.050000
v -0.028998 0.392505 -0.050000
v -0.034625 0.381250 0.050000
v -0.034625 0.381250 -0.050000
v -0.040106 0.370037 0.050000
v -0.040106 0.370037 -0.050000
v -0.045389 0.358963 0.050000
v -0.045389 0.358963 -0.050000
v -0.050422 0.348125 0.050000
v -0.050422 0.348125 -0.050000
v -0.055153 0.337620 0.050000
v -0.055153 0.337620 -0.050000
v -0.059530 0.327546 0.050000
v -0.059530 0.327546 -0.050000
v -0.063500 0.318000 0.050000
v -0.063500 0.318000 -0.050000
v -0.424500 0.318000 0.050000
v -0.424500 0.318000 -0.050000
v -0.424500 0.117000 0.050000
v -0.424500 0.117000 -0.050000
v -0.347500 0.117000 0.050000
v -0.347500 0.117000 -0.050000
v -0.347500 0.249000 0.050000
v -0.347500 0.249000 -0.050000
v 0.351500 0.249000 0.050000
v 0.351500 0.249000 -0.050000
v 0.351500 0.092000 0.050000
v 0.351500 0.092000 -0.050000
v 0.425500 0.092000 0.050000
v 0.425500 0.092000 -0.050000
v 0.425500 0.318000 0.050000
v 0.425500 0.318000 -0.050000
v 0.028500 0.318000 0.050000
v 0.028500 0.318000 -0.050000
v 0.032100 0.326617 0.050000
v 0.032100 0.326617 -0.050000
v 0.035880 0.335435 0.050000
v 0.035880 0.335435 -0.050000
v 0.039812 0.344406 0.050000
v 0.039812 0.344406 -0.050000
v 0.043870 0.353482 0.050000
v 0.043870 0.353482 -0.050000
v 0.048025 0.362612 0.050000
v 0.048025 0.362612 -0.050000
v 0.052250 0.371750 0.050000
v 0.052250 0.371750 -0.050000
v 0.056516 0.380846 0.050000
v 0.056516 0.380846 -0.050000
v 0.060796 0.389852 0.050000
v 0.060796 0.389852 -0.050000
v 0.065062 0.398719 0.050000
v 0.065062 0.398719 -0.050000
v 0.069287 0.407398 0.050000
v 0.069287 0.407398 -0.050000
v 0.073442 0.415841 0.050000
v 0.073442 0.415841 -0.050000
v 0.077500 0.424000 0.050000
v 0.077500 0.424000 -0.050000
v -0.000500 0.446000 0.050000
v -0.000500 0.446000 -0.050000
vn -0.0000 -0.0000 -1.0000
vn -0.0000 1.0000 -0.0000
vn -0.0000 -0.0000 1.0000
vn -0.4623 0.8867 -0.0000
vn -0.4568 0.8896 -0.0000
vn -0.4677 0.8839 -0.0000
vn -0.4730 0.8811 -0.0000
vn -0.4786 0.8780 -0.0000
vn -0.4846 0.8747 -0.0000
vn -0.4913 0.8710 -0.0000
vn -0.4989 0.8666 -0.0000
vn -0.5081 0.8613 -0.0000
vn -0.5193 0.8546 -0.0000
vn -0.5337 0.8457 -0.0000
vn -0.9897 0.1429 -0.0000
vn -0.1254 -0.9921 -0.0000
vn 0.5622 -0.8270 -0.0000
vn 0.5462 -0.8377 -0.0000
vn 0.5337 -0.8457 -0.0000
vn 0.5233 -0.8521 -0.0000
vn 0.5144 -0.8575 -0.0000
vn 0.5065 -0.8622 -0.0000
vn 0.4992 -0.8665 -0.0000
vn 0.4921 -0.8705 -0.0000
vn 0.4850 -0.8745 -0.0000
vn 0.4777 -0.8785 -0.0000
vn 0.4698 -0.8828 -0.0000
vn 0.9863 -0.1652 -0.0000
vn 0.1717 0.9851 -0.0000
vn 0.1718 0.9851 -0.0000
vn -0.6226 -0.7825 -0.0000
vn -0.6406 -0.7679 -0.0000
vn -0.6044 -0.7967 -0.0000
vn -0.5858 -0.8105 -0.0000
vn -0.5664 -0.8241 -0.0000
vn -0.5462 -0.8377 -0.0000
vn -0.5248 -0.8512 -0.0000
vn -0.5021 -0.8648 -0.0000
vn -0.4778 -0.8784 -0.0000
vn -0.4517 -0.8922 -0.0000
vn -0.4234 -0.9059 -0.0000
vn 0.2739 -0.9618 -0.0000
vn 0.9531 0.3025 -0.0000
vn 0.3705 0.9288 -0.0000
vn 0.9532 0.3025 -0.0000
vn 0.4039 0.9148 -0.0000
vn 0.4353 0.9003 -0.0000
vn 0.4649 0.8854 -0.0000
vn 0.4928 0.8701 -0.0000
vn 0.5193 0.8546 -0.0000
vn 0.5445 0.8388 -0.0000
vn 0.5685 0.8227 -0.0000
vn 0.5915 0.8063 -0.0000
vn 0.6137 0.7895 -0.0000
vn 0.6353 0.7723 -0.0000
vn -0.0111 0.9999 -0.0000
vn -1.0000 -0.0086 -0.0000
vn -0.0110 0.9999 -0.0000
vn 0.7071 -0.7071 -0.0000
vn 0.7071 0.7071 -0.0000
vn -0.7071 0.7071 -0.0000
vn -0.7071 -0.7071 -0.0000
vn -0.8804 0.4742 -0.0000
vn -0.8759 0.4825 -0.0000
vn -0.8846 0.4663 -0.0000
vn -0.8886 0.4587 -0.0000
vn -0.8925 0.4510 -0.0000
vn -0.8964 0.4432 -0.0000
vn -0.9005 0.4349 -0.0000
vn -0.9048 0.4259 -0.0000
vn -0.9094 0.4159 -0.0000
vn -0.9145 0.4046 -0.0000
vn -0.9203 0.3913 -0.0000
vn -0.5550 0.8319 -0.0000
vn 0.8323 0.5543 -0.0000
vn 0.9209 -0.3897 -0.0000
vn 0.9175 -0.3978 -0.0000
vn 0.9144 -0.4049 -0.0000
vn 0.9115 -0.4112 -0.0000
vn 0.9089 -0.4169 -0.0000
vn 0.9065 -0.4221 -0.0000
vn 0.9043 -0.4269 -0.0000
vn 0.9022 -0.4314 -0.0000
vn 0.9001 -0.4356 -0.0000
vn 0.8982 -0.4396 -0.0000
vn 0.8963 -0.4434 -0.0000
vn 0.9142 0.4052 -0.0000
vn -0.3836 0.9235 -0.0000
vn -0.3837 0.9235 -0.0000
vt 0.989691 0.000000
vt 0.659794 0.000000
vt 1.000000 0.000000
vt 0.670103 0.000000
vt 0.680412 0.000000
vt 0.979381 0.000000
vt 0.969072 0.000000
vt 0.690722 0.000000
vt 0.958763 0.000000
vt 0.701031 0.000000
vt 0.948454 0.000000
vt 0.711340 0.000000
vt 0.938144 0.000000
vt 0.721649 0.000000
vt 0.927835 0.000000
vt 0.917526 0.000000
vt 0.731959 0.000000
vt 0.907216 0.000000
vt 0.742268 0.000000
vt 0.896907 0.000000
vt 0.752577 0.000000
vt 0.886598 0.000000
vt 0.762887 0.000000
vt 0.876289 0.000000
vt 0.773196 0.000000
vt 0.865979 0.000000
vt 0.845361 0.000000
vt 0.824742 0.000000
vt 0.855670 0.000000
vt 0.783505 0.000000
vt 0.814433 0.000000
vt 0.793814 0.000000
vt 0.835052 0.000000
vt 0.804124 0.000000
vt 0.628866 0.000000
vt 0.649485 0.000000
vt 0.639175 0.000000
vt 0.371134 0.000000
vt 0.123711 0.000000
vt 0.381443 0.000000
vt 0.134021 0.000000
vt 0.618557 0.000000
vt 0.144330 0.000000
vt 0.608247 0.000000
vt 0.154639 0.000000
vt 0.391753 0.000000
vt 0.597938 0.000000
vt 0.360825 0.000000
vt 0.164948 0.000000
vt 0.402062 0.000000
vt 0.587629 0.000000
vt 0.350515 0.000000
vt 0.175258 0.000000
vt 0.412371 0.000000
vt 0.340206 0.000000
vt 0.577320 0.000000
vt 0.185567 0.000000
vt 0.329897 0.000000
vt 0.567010 0.000000
vt 0.422680 0.000000
vt 0.195876 0.000000
vt 0.319588 0.000000
vt 0.556701 0.000000
vt 0.432990 0.000000
vt 0.206186 0.000000
vt 0.546392 0.000000
vt 0.309278 0.000000
vt 0.443299 0.000000
vt 0.216495 0.000000
vt 0.536082 0.000000
vt 0.298969 0.000000
vt 0.226804 0.000000
vt 0.453608 0.000000
vt 0.525773 0.000000
vt 0.288660 0.000000
vt 0.237113 0.000000
vt 0.515464 0.000000
vt 0.463918 0.000000
vt 0.278351 0.000000
vt 0.268041 0.000000
vt 0.257732 0.000000
vt 0.247423 0.000000
vt 0.505155 0.000000
vt 0.474227 0.000000
vt 0.484536 0.000000
vt 0.494845 0.000000
vt 0.010309 0.000000
vt 0.030928 0.000000
vt 0.020619 0.000000
vt 0.041237 0.000000
vt 0.000000 0.000000
vt 0.113402 0.000000
vt 0.051546 0.000000
vt 0.061856 0.000000
vt 0.092784 0.000000
vt 0.103093 0.000000
vt 0.072165 0.000000
vt 0.082474 0.000000
vt 0.038462 1.000000
vt 0.000000 1.000000
vt 0.076923 1.000000
vt 0.038462 0.000000
vt 0.115385 1.000000
vt 0.076923 0.000000
vt 0.153846 1.000000
vt 0.115385 0.000000
vt 0.192308 1.000000
vt 0.153846 0.000000
vt 0.230769 1.000000
vt 0.192308 0.000000
vt 0.269231 1.000000
vt 0.230769 0.000000
vt 0.307692 1.000000
vt 0.269231 0.000000
vt 0.346154 1.000000
vt 0.307692 0.000000
vt 0.384615 1.000000
vt 0.346154 0.000000
vt 0.423077 1.000000
vt 0.384615 0.000000
vt 0.461538 1.000000
vt 0.423077 0.000000
vt 0.500000 1.000000
vt 0.461538 0.000000
vt 0.538462 1.000000
vt 0.500000 0.000000
vt 0.576923 1.000000
vt 0.538462 0.000000
vt 0.615385 1.000000
vt 0.576923 0.000000
vt 0.653846 1.000000
vt 0.615385 0.000000
vt 0.692308 1.000000
vt 0.653846 0.000000
vt 0.730769 1.000000
vt 0.692308 0.000000
vt 0.769231 1.000000
vt 0.730769 0.000000
vt 0.807692 1.000000
vt 0.769231 0.000000
vt 0.846154 1.000000
vt 0.807692 0.000000
vt 0.884615 1.000000
vt 0.846154 0.000000
vt 0.923077 1.000000
vt 0.884615 0.000000
vt 0.961538 1.000000
vt 0.923077 0.000000
vt 1.000000 1.000000
vt 0.961538 0.000000
vt 0.083333 1.000000
vt 0.166667 1.000000
vt 0.083333 0.000000
vt 0.250000 1.000000
vt 0.166667 0.000000
vt 0.333333 1.000000
vt 0.250000 0.000000
vt 0.416667 1.000000
vt 0.333333 0.000000
vt 0.416667 0.000000
vt 0.583333 1.000000
vt 0.666667 1.000000
vt 0.583333 0.000000
vt 0.750000 1.000000
vt 0.666667 0.000000
vt 0.833333 1.000000
vt 0.750000 0.000000
vt 0.916667 1.000000
vt 0.833333 0.000000
vt 0.916667 0.000000
vt 0.029412 1.000000
vt 0.058824 1.000000
vt 0.029412 0.000000
vt 0.088235 1.000000
vt 0.058824 0.000000
vt 0.117647 1.000000
vt 0.088235 0.000000
vt 0.147059 1.000000
vt 0.117647 0.000000
vt 0.176471 1.000000
vt 0.147059 0.000000
vt 0.205882 1.000000
vt 0.176471 0.000000
vt 0.235294 1.000000
vt 0.205882 0.000000
vt 0.264706 1.000000
vt 0.235294 0.000000
vt 0.294118 1.000000
vt 0.264706 0.000000
vt 0.323529 1.000000
vt 0.294118 0.000000
vt 0.352941 1.000000
vt 0.323529 0.000000
vt 0.382353 1.000000
vt 0.352941 0.000000
vt 0.411765 1.000000
vt 0.382353 0.000000
vt 0.441176 1.000000
vt 0.411765 0.000000
vt 0.470588 1.000000
vt 0.441176 0.000000
vt 0.470588 0.000000
vt 0.529412 1.000000
vt 0.558824 1.000000
vt 0.529412 0.000000
vt 0.588235 1.000000
vt 0.558824 0.000000
vt 0.617647 1.000000
vt 0.588235 0.000000
vt 0.647059 1.000000
vt 0.617647 0.000000
vt 0.676471 1.000000
vt 0.647059 0.000000
vt 0.705882 1.000000
vt 0.676471 0.000000
vt 0.735294 1.000000
vt 0.705882 0.000000
vt 0.764706 1.000000
vt 0.735294 0.000000
vt 0.794118 1.000000
vt 0.764706 0.000000
vt 0.823529 1.000000
vt 0.794118 0.000000
vt 0.852941 1.000000
vt 0.823529 0.000000
vt 0.882353 1.000000
vt 0.852941 0.000000
vt 0.911765 1.000000
vt 0.882353 0.000000
vt 0.941176 1.000000
vt 0.911765 0.000000
vt 0.970588 1.000000
vt 0.941176 0.000000
vt 0.970588 0.000000
s 0
usemtl マテリアル.002
f 97/1/1 65/2/1 98/3/1
f 97/1/1 66/4/1 65/2/1
f 97/1/1 67/5/1 66/4/1
f 96/6/1 67/5/1 97/1/1
f 95/7/1 67/5/1 96/6/1
f 95/7/1 68/8/1 67/5/1
f 94/9/1 68/8/1 95/7/1
f 94/9/1 69/10/1 68/8/1
f 93/11/1 69/10/1 94/9/1
f 93/11/1 70/12/1 69/10/1
f 92/13/1 70/12/1 93/11/1
f 92/13/1 71/14/1 70/12/1
f 91/15/1 71/14/1 92/13/1
f 90/16/1 71/14/1 91/15/1
f 90/16/1 72/17/1 71/14/1
f 89/18/1 72/17/1 90/16/1
f 89/18/1 73/19/1 72/17/1
f 88/20/1 73/19/1 89/18/1
f 88/20/1 74/21/1 73/19/1
f 87/22/1 74/21/1 88/20/1
f 87/22/1 75/23/1 74/21/1
f 86/24/1 75/23/1 87/22/1
f 86/24/1 76/25/1 75/23/1
f 85/26/1 76/25/1 86/24/1
f 83/27/1 81/28/1 84/29/1
f 81/28/1 85/26/1 84/29/1
f 81/28/1 76/25/1 85/26/1
f 81/28/1 77/30/1 76/25/1
f 81/28/1 80/31/1 77/30/1
f 80/31/1 78/32/1 77/30/1
f 83/27/1 82/33/1 81/28/1
f 79/34/1 78/32/1 80/31/1
f 62/35/1 64/36/1 63/37/1
f 37/38/1 13/39/1 38/40/1
f 37/38/1 14/41/1 13/39/1
f 61/42/1 64/36/1 62/35/1
f 37/38/1 15/43/1 14/41/1
f 60/44/1 64/36/1 61/42/1
f 37/38/1 16/45/1 15/43/1
f 60/44/1 39/46/1 64/36/1
f 59/47/1 39/46/1 60/44/1
f 36/48/1 16/45/1 37/38/1
f 36/48/1 17/49/1 16/45/1
f 59/47/1 40/50/1 39/46/1
f 58/51/1 40/50/1 59/47/1
f 35/52/1 17/49/1 36/48/1
f 35/52/1 18/53/1 17/49/1
f 58/51/1 41/54/1 40/50/1
f 34/55/1 18/53/1 35/52/1
f 57/56/1 41/54/1 58/51/1
f 34/55/1 19/57/1 18/53/1
f 33/58/1 19/57/1 34/55/1
f 56/59/1 41/54/1 57/56/1
f 56/59/1 42/60/1 41/54/1
f 33/58/1 20/61/1 19/57/1
f 32/62/1 20/61/1 33/58/1
f 55/63/1 42/60/1 56/59/1
f 55/63/1 43/64/1 42/60/1
f 32/62/1 21/65/1 20/61/1
f 54/66/1 43/64/1 55/63/1
f 31/67/1 21/65/1 32/62/1
f 54/66/1 44/68/1 43/64/1
f 31/67/1 22/69/1 21/65/1
f 53/70/1 44/68/1 54/66/1
f 30/71/1 22/69/1 31/67/1
f 30/71/1 23/72/1 22/69/1
f 53/70/1 45/73/1 44/68/1
f 52/74/1 45/73/1 53/70/1
f 29/75/1 23/72/1 30/71/1
f 29/75/1 24/76/1 23/72/1
f 51/77/1 45/73/1 52/74/1
f 51/77/1 46/78/1 45/73/1
f 29/75/1 28/79/1 24/76/1
f 28/79/1 27/80/1 24/76/1
f 27/80/1 26/81/1 24/76/1
f 26/81/1 25/82/1 24/76/1
f 50/83/1 46/78/1 51/77/1
f 50/83/1 47/84/1 46/78/1
f 50/83/1 48/85/1 47/84/1
f 50/83/1 49/86/1 48/85/1
f 2/87/1 4/88/1 3/89/1
f 2/87/1 5/90/1 4/88/1
f 1/91/2 5/90/2 2/87/2
f 12/92/1 6/93/1 1/91/1
f 6/93/2 5/90/2 1/91/2
f 12/92/1 7/94/1 6/93/1
f 10/95/1 12/92/1 11/96/1
f 10/95/1 7/94/1 12/92/1
f 10/95/1 8/97/1 7/94/1
f 10/95/1 9/98/1 8/97/1
f 195/1/3 196/3/3 163/2/3
f 195/1/3 163/2/3 164/4/3
f 195/1/3 164/4/3 165/5/3
f 194/6/3 195/1/3 165/5/3
f 193/7/3 194/6/3 165/5/3
f 193/7/3 165/5/3 166/8/3
f 192/9/3 193/7/3 166/8/3
f 192/9/3 166/8/3 167/10/3
f 191/11/3 192/9/3 167/10/3
f 191/11/3 167/10/3 168/12/3
f 190/13/3 191/11/3 168/12/3
f 190/13/3 168/12/3 169/14/3
f 189/15/3 190/13/3 169/14/3
f 188/16/3 189/15/3 169/14/3
f 188/16/3 169/14/3 170/17/3
f 187/18/3 188/16/3 170/17/3
f 187/18/3 170/17/3 171/19/3
f 186/20/3 187/18/3 171/19/3
f 186/20/3 171/19/3 172/21/3
f 185/22/3 186/20/3 172/21/3
f 185/22/3 172/21/3 173/23/3
f 184/24/3 185/22/3 173/23/3
f 184/24/3 173/23/3 174/25/3
f 183/26/3 184/24/3 174/25/3
f 181/27/3 182/29/3 179/28/3
f 179/28/3 182/29/3 183/26/3
f 179/28/3 183/26/3 174/25/3
f 179/28/3 174/25/3 175/30/3
f 179/28/3 175/30/3 178/31/3
f 178/31/3 175/30/3 176/32/3
f 181/27/3 179/28/3 180/33/3
f 177/34/3 178/31/3 176/32/3
f 160/35/3 161/37/3 162/36/3
f 135/38/3 136/40/3 111/39/3
f 135/38/3 111/39/3 112/41/3
f 159/42/3 160/35/3 162/36/3
f 135/38/3 112/41/3 113/43/3
f 158/44/3 159/42/3 162/36/3
f 135/38/3 113/43/3 114/45/3
f 158/44/3 162/36/3 137/46/3
f 157/47/3 158/44/3 137/46/3
f 134/48/3 135/38/3 114/45/3
f 134/48/3 114/45/3 115/49/3
f 157/47/3 137/46/3 138/50/3
f 156/51/3 157/47/3 138/50/3
f 133/52/3 134/48/3 115/49/3
f 133/52/3 115/49/3 116/53/3
f 156/51/3 138/50/3 139/54/3
f 132/55/3 133/52/3 116/53/3
f 155/56/3 156/51/3 139/54/3
f 132/55/3 116/53/3 117/57/3
f 131/58/3 132/55/3 117/57/3
f 154/59/3 155/56/3 139/54/3
f 154/59/3 139/54/3 140/60/3
f 131/58/3 117/57/3 118/61/3
f 130/62/3 131/58/3 118/61/3
f 153/63/3 154/59/3 140/60/3
f 153/63/3 140/60/3 141/64/3
f 130/62/3 118/61/3 119/65/3
f 152/66/3 153/63/3 141/64/3
f 129/67/3 130/62/3 119/65/3
f 152/66/3 141/64/3 142/68/3
f 129/67/3 119/65/3 120/69/3
f 151/70/3 152/66/3 142/68/3
f 128/71/3 129/67/3 120/69/3
f 128/71/3 120/69/3 121/72/3
f 151/70/3 142/68/3 143/73/3
f 150/74/3 151/70/3 143/73/3
f 127/75/3 128/71/3 121/72/3
f 127/75/3 121/72/3 122/76/3
f 149/77/3 150/74/3 143/73/3
f 149/77/3 143/73/3 144/78/3
f 127/75/3 122/76/3 126/79/3
f 126/79/3 122/76/3 125/80/3
f 125/80/3 122/76/3 124/81/3
f 124/81/3 122/76/3 123/82/3
f 148/83/3 149/77/3 144/78/3
f 148/83/3 144/78/3 145/84/3
f 148/83/3 145/84/3 146/85/3
f 148/83/3 146/85/3 147/86/3
f 100/87/3 101/89/3 102/88/3
f 100/87/3 102/88/3 103/90/3
f 99/91/2 100/87/2 103/90/2
f 110/92/3 99/91/3 104/93/3
f 104/93/2 99/91/2 103/90/2
f 110/92/3 104/93/3 105/94/3
f 108/95/3 109/96/3 110/92/3
f 108/95/3 110/92/3 105/94/3
f 108/95/3 105/94/3 106/97/3
f 108/95/3 106/97/3 107/98/3
s 1
f 200/99/4 197/91/5 198/100/5
f 202/101/6 199/102/4 200/99/4
f 204/103/7 201/104/6 202/101/6
f 206/105/8 203/106/7 204/103/7
f 208/107/9 205/108/8 206/105/8
f 210/109/10 207/110/9 208/107/9
f 212/111/11 209/112/10 210/109/10
f 214/113/12 211/114/11 212/111/11
f 216/115/13 213/116/12 214/113/12
f 218/117/14 215/118/13 216/115/13
f 220/119/15 217/120/14 218/117/14
f 222/121/16 219/122/15 220/119/15
f 224/123/17 221/124/16 222/121/16
f 226/125/18 223/126/17 224/123/17
f 228/127/19 225/128/18 226/125/18
f 230/129/20 227/130/19 228/127/19
f 232/131/21 229/132/20 230/129/20
f 234/133/22 231/134/21 232/131/21
f 236/135/23 233/136/22 234/133/22
f 238/137/24 235/138/23 236/135/23
f 240/139/25 237/140/24 238/137/24
f 242/141/26 239/142/25 240/139/25
f 244/143/27 241/144/26 242/141/26
f 246/145/28 243/146/27 244/143/27
f 248/147/29 245/148/28 246/145/28
f 198/149/5 247/150/30 248/147/29
f 252/99/31 249/91/32 250/100/32
f 254/101/33 251/102/31 252/99/31
f 256/103/34 253/104/33 254/101/33
f 258/105/35 255/106/34 256/103/34
f 260/107/36 257/108/35 258/105/35
f 262/109/37 259/110/36 260/107/36
f 264/111/38 261/112/37 262/109/37
f 266/113/39 263/114/38 264/111/38
f 268/115/40 265/116/39 266/113/39
f 270/117/41 267/118/40 268/115/40
f 272/119/42 269/120/41 270/117/41
f 274/121/43 271/122/42 272/119/42
f 276/123/44 273/124/45 274/121/43
f 278/125/46 275/126/44 276/123/44
f 280/127/47 277/128/46 278/125/46
f 282/129/48 279/130/47 280/127/47
f 284/131/49 281/132/48 282/129/48
f 286/133/50 283/134/49 284/131/49
f 288/135/51 285/136/50 286/133/50
f 290/137/52 287/138/51 288/135/51
f 292/139/53 289/140/52 290/137/52
f 294/141/54 291/142/53 292/139/53
f 296/143/55 293/144/54 294/141/54
f 298/145/56 295/146/55 296/143/55
f 300/147/57 297/148/58 298/145/56
f 250/149/32 299/150/57 300/147/57
f 304/151/59 301/91/59 302/100/59
f 306/152/60 303/153/59 304/151/59
f 308/154/61 305/155/60 306/152/60
f 310/156/62 307/157/61 308/154/61
f 312/158/62 309/159/62 310/156/62
f 314/123/61 311/160/62 312/158/62
f 316/161/61 313/126/61 314/123/61
f 318/162/62 315/163/61 316/161/61
f 320/164/59 317/165/62 318/162/62
f 322/166/60 319/167/59 320/164/59
f 324/168/60 321/169/60 322/166/60
f 302/149/59 323/170/60 324/168/60
f 328/171/63 325/91/64 326/100/64
f 330/172/65 327/173/63 328/171/63
f 332/174/66 329/175/65 330/172/65
f 334/176/67 331/177/66 332/174/66
f 336/178/68 333/179/67 334/176/67
f 338/180/69 335/181/68 336/178/68
f 340/182/70 337/183/69 338/180/69
f 342/184/71 339/185/70 340/182/70
f 344/186/72 341/187/71 342/184/71
f 346/188/73 343/189/72 344/186/72
f 348/190/74 345/191/73 346/188/73
f 350/192/61 347/193/74 348/190/74
f 352/194/62 349/195/61 350/192/61
f 354/196/59 351/197/62 352/194/62
f 356/198/59 353/199/59 354/196/59
f 358/200/62 355/201/59 356/198/59
f 360/123/62 357/202/62 358/200/62
f 362/203/59 359/126/62 360/123/62
f 364/204/60 361/205/59 362/203/59
f 366/206/75 363/207/60 364/204/60
f 368/208/76 365/209/75 366/206/75
f 370/210/77 367/211/76 368/208/76
f 372/212/78 369/213/77 370/210/77
f 374/214/79 371/215/78 372/212/78
f 376/216/80 373/217/79 374/214/79
f 378/218/81 375/219/80 376/216/80
f 380/220/82 377/221/81 378/218/81
f 382/222/83 379/223/82 380/220/82
f 384/224/84 381/225/83 382/222/83
f 386/226/85 383/227/84 384/224/84
f 388/228/86 385/229/85 386/226/85
f 390/230/87 387/231/86 388/228/86
f 392/232/88 389/233/87 390/230/87
f 326/149/64 391/234/89 392/232/88
f 200/99/4 199/102/4 197/91/5
f 202/101/6 201/104/6 199/102/4
f 204/103/7 203/106/7 201/104/6
f 206/105/8 205/108/8 203/106/7
f 208/107/9 207/110/9 205/108/8
f 210/109/10 209/112/10 207/110/9
f 212/111/11 211/114/11 209/112/10
f 214/113/12 213/116/12 211/114/11
f 216/115/13 215/118/13 213/116/12
f 218/117/14 217/120/14 215/118/13
f 220/119/15 219/122/15 217/120/14
f 222/121/16 221/124/16 219/122/15
f 224/123/17 223/126/17 221/124/16
f 226/125/18 225/128/18 223/126/17
f 228/127/19 227/130/19 225/128/18
f 230/129/20 229/132/20 227/130/19
f 232/131/21 231/134/21 229/132/20
f 234/133/22 233/136/22 231/134/21
f 236/135/23 235/138/23 233/136/22
f 238/137/24 237/140/24 235/138/23
f 240/139/25 239/142/25 237/140/24
f 242/141/26 241/144/26 239/142/25
f 244/143/27 243/146/27 241/144/26
f 246/145/28 245/148/28 243/146/27
f 248/147/29 247/150/30 245/148/28
f 198/149/5 197/3/5 247/150/30
f 252/99/31 251/102/31 249/91/32
f 254/101/33 253/104/33 251/102/31
f 256/103/34 255/106/34 253/104/33
f 258/105/35 257/108/35 255/106/34
f 260/107/36 259/110/36 257/108/35
f 262/109/37 261/112/37 259/110/36
f 264/111/38 263/114/38 261/112/37
f 266/113/39 265/116/39 263/114/38
f 268/115/40 267/118/40 265/116/39
f 270/117/41 269/120/41 267/118/40
f 272/119/42 271/122/42 269/120/41
f 274/121/43 273/124/45 271/122/42
f 276/123/44 275/126/44 273/124/45
f 278/125/46 277/128/46 275/126/44
f 280/127/47 279/130/47 277/128/46
f 282/129/48 281/132/48 279/130/47
f 284/131/49 283/134/49 281/132/48
f 286/133/50 285/136/50 283/134/49
f 288/135/51 287/138/51 285/136/50
f 290/137/52 289/140/52 287/138/51
f 292/139/53 291/142/53 289/140/52
f 294/141/54 293/144/54 291/142/53
f 296/143/55 295/146/55 293/144/54
f 298/145/56 297/148/58 295/146/55
f 300/147/57 299/150/57 297/148/58
f 250/149/32 249/3/32 299/150/57
f 304/151/59 303/153/59 301/91/59
f 306/152/60 305/155/60 303/153/59
f 308/154/61 307/157/61 305/155/60
f 310/156/62 309/159/62 307/157/61
f 312/158/62 311/160/62 309/159/62
f 314/123/61 313/126/61 311/160/62
f 316/161/61 315/163/61 313/126/61
f 318/162/62 317/165/62 315/163/61
f 320/164/59 319/167/59 317/165/62
f 322/166/60 321/169/60 319/167/59
f 324/168/60 323/170/60 321/169/60
f 302/149/59 301/3/59 323/170/60
f 328/171/63 327/173/63 325/91/64
f 330/172/65 329/175/65 327/173/63
f 332/174/66 331/177/66 329/175/65
f 334/176/67 333/179/67 331/177/66
f 336/178/68 335/181/68 333/179/67
f 338/180/69 337/183/69 335/181/68
f 340/182/70 339/185/70 337/183/69
f 342/184/71 341/187/71 339/185/70
f 344/186/72 343/189/72 341/187/71
f 346/188/73 345/191/73 343/189/72
f 348/190/74 347/193/74 345/191/73
f 350/192/61 349/195/61 347/193/74
f 352/194/62 351/197/62 349/195/61
f 354/196/59 353/199/59 351/197/62
f 356/198/59 355/201/59 353/199/59
f 358/200/62 357/202/62 355/201/59
f 360/123/62 359/126/62 357/202/62
f 362/203/59 361/205/59 359/126/62
f 364/204/60 363/207/60 361/205/59
f 366/206/75 365/209/75 363/207/60
f 368/208/76 367/211/76 365/209/75
f 370/210/77 369/213/77 367/211/76
f 372/212/78 371/215/78 369/213/77
f 374/214/79 373/217/79 371/215/78
f 376/216/80 375/219/80 373/217/79
f 378/218/81 377/221/81 375/219/80
f 380/220/82 379/223/82 377/221/81
f 382/222/83 381/225/83 379/223/82
f 384/224/84 383/227/84 381/225/83
f 386/226/85 385/229/85 383/227/84
f 388/228/86 387/231/86 385/229/85
f 390/230/87 389/233/87 387/231/86
f 392/232/88 391/234/89 389/233/87
f 326/149/64 325/3/64 391/234/89
