# Blender 4.2.3 LTS
# www.blender.org
mtllib hummer.mtl
o hummer
v -0.131445 0.000000 0.000000
v -0.131445 6.000000 -0.000000
v -0.128562 -0.000000 -0.029265
v -0.128562 6.000000 -0.029265
v -0.120027 -0.000000 -0.057402
v -0.120027 6.000000 -0.057402
v -0.106167 -0.000000 -0.083337
v -0.106167 6.000000 -0.083337
v -0.087510 -0.000000 -0.106065
v -0.087510 6.000000 -0.106065
v -0.064782 -0.000000 -0.124719
v -0.064782 6.000000 -0.124719
v -0.038847 -0.000000 -0.138582
v -0.038847 6.000000 -0.138582
v -0.010710 -0.000000 -0.147117
v -0.010710 6.000000 -0.147117
v 0.018555 -0.000000 -0.150000
v 0.018555 6.000000 -0.150000
v 0.047820 -0.000000 -0.147117
v 0.047820 6.000000 -0.147117
v 0.075957 -0.000000 -0.138582
v 0.075957 6.000000 -0.138582
v 0.101889 -0.000000 -0.124719
v 0.101889 6.000000 -0.124719
v 0.124620 -0.000000 -0.106065
v 0.124620 6.000000 -0.106065
v 0.143274 -0.000000 -0.083337
v 0.143274 6.000000 -0.083337
v 0.157137 -0.000000 -0.057402
v 0.157137 6.000000 -0.057402
v 0.165672 -0.000000 -0.029265
v 0.165672 6.000000 -0.029265
v 0.168555 0.000000 0.000000
v 0.168555 6.000000 -0.000000
v 0.165672 0.000000 0.029265
v 0.165672 6.000000 0.029265
v 0.157137 0.000000 0.057402
v 0.157137 6.000000 0.057402
v 0.143274 0.000000 0.083337
v 0.143274 6.000000 0.083337
v 0.124620 0.000000 0.106065
v 0.124620 6.000000 0.106065
v 0.101889 0.000000 0.124719
v 0.101889 6.000000 0.124719
v 0.075957 0.000000 0.138582
v 0.075957 6.000000 0.138582
v 0.047820 0.000000 0.147117
v 0.047820 6.000000 0.147117
v 0.018555 0.000000 0.150000
v 0.018555 6.000000 0.150000
v -0.010710 0.000000 0.147117
v -0.010710 6.000000 0.147117
v -0.038847 0.000000 0.138582
v -0.038847 6.000000 0.138582
v -0.064782 0.000000 0.124719
v -0.064782 6.000000 0.124719
v -0.087510 0.000000 0.106065
v -0.087510 6.000000 0.106065
v -0.106167 0.000000 0.083337
v -0.106167 6.000000 0.083337
v -0.120027 0.000000 0.057402
v -0.120027 6.000000 0.057402
v -0.128562 0.000000 0.029265
v -0.128562 6.000000 0.029265
v 1.588212 3.764799 -0.000000
v 1.588212 3.786453 -0.219858
v -1.551102 3.764799 -0.000000
v 1.588212 3.786453 0.219858
v 1.588212 3.850584 0.431265
v -1.551102 3.786453 0.219858
v -1.551102 3.850584 0.431265
v -1.551102 3.954726 0.626100
v -1.551102 4.094877 0.796875
v 1.588212 3.954726 0.626100
v 1.588212 4.094877 0.796875
v 1.588212 4.265649 0.937026
v 1.588212 4.460484 1.041165
v -1.551102 4.265649 0.937026
v -1.551102 4.460484 1.041165
v -1.551102 4.671894 1.105296
v -1.551102 4.891749 1.126950
v 1.588212 4.671894 1.105296
v 1.588212 4.891749 1.126950
v 1.588212 5.111607 1.105296
v 1.588212 5.323017 1.041165
v -1.551102 5.111607 1.105296
v -1.551102 5.323014 1.041165
v -1.551102 5.517849 0.937026
v -1.551102 5.688624 0.796875
v 1.588212 5.517849 0.937026
v 1.588212 5.688624 0.796875
v 1.588212 5.828775 0.626100
v 1.588212 5.932917 0.431265
v -1.551102 5.828775 0.626100
v -1.551102 5.932917 0.431265
v -1.551102 5.997045 0.219858
v -1.551102 6.018699 -0.000000
v 1.588212 5.997045 0.219858
v 1.588212 6.018699 -0.000000
v 1.588212 5.997045 -0.219858
v 1.588212 5.932917 -0.431265
v -1.551102 5.997045 -0.219858
v -1.551102 5.932917 -0.431265
v -1.551102 5.828775 -0.626100
v -1.551102 5.688624 -0.796875
v 1.588212 5.828775 -0.626100
v 1.588212 5.688624 -0.796875
v 1.588212 5.517849 -0.937026
v 1.588212 5.323017 -1.041165
v -1.551102 5.517849 -0.937026
v -1.551102 5.323014 -1.041165
v -1.551102 5.111607 -1.105296
v -1.551102 4.891749 -1.126950
v 1.588212 5.111607 -1.105296
v 1.588212 4.891749 -1.126950
v 1.588212 4.671894 -1.105296
v 1.588212 4.460484 -1.041165
v -1.551102 4.671894 -1.105296
v -1.551102 4.460484 -1.041165
v -1.551102 4.265649 -0.937026
v -1.551102 4.094877 -0.796875
v 1.588212 4.265649 -0.937026
v 1.588212 4.094877 -0.796875
v 1.588212 3.954726 -0.626100
v 1.588212 3.850584 -0.431265
v -1.551102 3.954726 -0.626100
v -1.551102 3.850584 -0.431265
v -1.551102 3.786453 -0.219858
vn -0.9952 -0.0000 -0.0980
vn -0.9569 -0.0000 -0.2903
vn -0.8820 -0.0000 -0.4713
vn -0.7729 -0.0000 -0.6345
vn -0.6344 -0.0000 -0.7730
vn -0.4714 -0.0000 -0.8819
vn -0.2903 -0.0000 -0.9569
vn -0.0980 -0.0000 -0.9952
vn 0.0980 -0.0000 -0.9952
vn 0.2903 -0.0000 -0.9569
vn 0.4715 -0.0000 -0.8819
vn 0.6344 -0.0000 -0.7730
vn 0.7730 -0.0000 -0.6344
vn 0.8819 -0.0000 -0.4714
vn 0.9569 -0.0000 -0.2903
vn 0.9952 -0.0000 -0.0980
vn 0.9952 -0.0000 0.0980
vn 0.9569 -0.0000 0.2903
vn 0.8819 -0.0000 0.4714
vn 0.7730 -0.0000 0.6344
vn 0.6344 -0.0000 0.7730
vn 0.4715 -0.0000 0.8819
vn 0.2903 -0.0000 0.9569
vn 0.0980 -0.0000 0.9952
vn -0.0980 -0.0000 0.9952
vn -0.2903 -0.0000 0.9569
vn -0.4714 -0.0000 0.8819
vn -0.6344 -0.0000 0.7730
vn -0.7729 -0.0000 0.6345
vn -0.8820 -0.0000 0.4713
vn -0.0000 1.0000 -0.0000
vn -0.9569 -0.0000 0.2903
vn -0.9952 -0.0000 0.0980
vn -0.0000 -1.0000 -0.0000
vn 1.0000 -0.0000 -0.0000
vn -0.0000 -0.9808 -0.1951
vn -0.0000 -0.9808 0.1951
vn -0.0000 -0.9239 0.3827
vn -1.0000 -0.0000 -0.0000
vn -0.0000 -0.8315 0.5556
vn -0.0000 -0.7071 0.7071
vn -0.0000 -0.5556 0.8315
vn -0.0000 -0.3827 0.9239
vn -0.0000 -0.1951 0.9808
vn -0.0000 -0.0000 1.0000
vn -0.0000 0.1951 0.9808
vn -0.0000 0.3827 0.9239
vn -0.0000 0.5556 0.8315
vn -0.0000 0.7071 0.7071
vn -0.0000 0.8315 0.5556
vn -0.0000 0.9239 0.3827
vn -0.0000 0.9808 0.1951
vn -0.0000 0.9808 -0.1951
vn -0.0000 0.9239 -0.3827
vn -0.0000 0.8315 -0.5556
vn -0.0000 0.7071 -0.7071
vn -0.0000 0.5556 -0.8315
vn -0.0000 0.3827 -0.9239
vn -0.0000 0.1951 -0.9808
vn -0.0000 -0.0000 -1.0000
vn -0.0000 -0.1951 -0.9808
vn -0.0000 -0.3827 -0.9239
vn -0.0000 -0.5556 -0.8315
vn -0.0000 -0.7071 -0.7071
vn -0.0000 -0.8315 -0.5556
vn -0.0000 -0.9239 -0.3827
vn -0.0000 1.0000 0.0001
vt 0.592787 0.842819
vt 0.588698 0.008462
vt 0.592787 0.008462
vt 0.588698 0.842819
vt 0.584609 0.008462
vt 0.584609 0.842819
vt 0.580520 0.008462
vt 0.580520 0.842819
vt 0.576431 0.008462
vt 0.576431 0.842819
vt 0.572342 0.008462
vt 0.572342 0.842819
vt 0.568253 0.008462
vt 0.568253 0.842819
vt 0.564164 0.008462
vt 0.564164 0.842819
vt 0.560075 0.008462
vt 0.560075 0.842819
vt 0.555985 0.008462
vt 0.555985 0.842819
vt 0.551896 0.008462
vt 0.551896 0.842819
vt 0.547807 0.008462
vt 0.547807 0.842819
vt 0.543718 0.008462
vt 0.543718 0.842819
vt 0.539629 0.008462
vt 0.539629 0.842819
vt 0.535540 0.008462
vt 0.535540 0.842819
vt 0.531451 0.008462
vt 0.531451 0.842819
vt 0.527362 0.008462
vt 0.527362 0.842819
vt 0.523273 0.008462
vt 0.523273 0.842819
vt 0.519184 0.008462
vt 0.519184 0.842819
vt 0.515095 0.008462
vt 0.515095 0.842819
vt 0.511006 0.008462
vt 0.511006 0.842819
vt 0.506917 0.008462
vt 0.506917 0.842819
vt 0.502828 0.008462
vt 0.502828 0.842819
vt 0.498739 0.008462
vt 0.498739 0.842819
vt 0.494649 0.008462
vt 0.494649 0.842819
vt 0.490560 0.008462
vt 0.490560 0.842819
vt 0.486471 0.008462
vt 0.486471 0.842819
vt 0.482382 0.008462
vt 0.482382 0.842819
vt 0.478293 0.008462
vt 0.478293 0.842819
vt 0.474204 0.008462
vt 0.474204 0.842819
vt 0.470115 0.008462
vt 0.636524 0.706863
vt 0.610509 0.692957
vt 0.624414 0.666941
vt 0.470115 0.842819
vt 0.466026 0.008462
vt 0.466026 0.842819
vt 0.461937 0.008462
vt 0.632514 0.766102
vt 0.609711 0.747388
vt 0.628425 0.724585
vt 0.666252 0.614402
vt 0.609711 0.508622
vt 0.921628 0.477901
vt 0.445013 0.008462
vt 0.008462 0.039183
vt 0.008462 0.008462
vt 0.445013 0.960817
vt 0.008462 0.991538
vt 0.008462 0.960817
vt 0.445013 0.930096
vt 0.008462 0.930096
vt 0.903878 0.238294
vt 0.691795 0.302629
vt 0.627461 0.090546
vt 0.445013 0.899375
vt 0.008462 0.899375
vt 0.445013 0.868654
vt 0.008462 0.868654
vt 0.445013 0.837932
vt 0.008462 0.837932
vt 0.445013 0.807211
vt 0.008462 0.807211
vt 0.445013 0.776490
vt 0.008462 0.776490
vt 0.445013 0.745769
vt 0.008462 0.745769
vt 0.445013 0.715048
vt 0.008462 0.715048
vt 0.445013 0.684327
vt 0.008462 0.684327
vt 0.445013 0.653606
vt 0.008462 0.653606
vt 0.445013 0.622885
vt 0.008462 0.622885
vt 0.445013 0.592163
vt 0.008462 0.592163
vt 0.445013 0.561442
vt 0.008462 0.561442
vt 0.445013 0.530721
vt 0.008462 0.530721
vt 0.445013 0.500000
vt 0.008462 0.500000
vt 0.445013 0.469279
vt 0.008462 0.469279
vt 0.445013 0.438558
vt 0.008462 0.438558
vt 0.445013 0.407837
vt 0.008462 0.407837
vt 0.445013 0.377115
vt 0.008462 0.377115
vt 0.445013 0.346394
vt 0.008462 0.346394
vt 0.445013 0.315673
vt 0.008462 0.315673
vt 0.008462 0.284952
vt 0.445013 0.254231
vt 0.008462 0.254231
vt 0.445013 0.223510
vt 0.008462 0.223510
vt 0.445013 0.192789
vt 0.008462 0.192789
vt 0.445013 0.162068
vt 0.008462 0.162068
vt 0.445013 0.131346
vt 0.008462 0.131346
vt 0.445013 0.100625
vt 0.008462 0.100625
vt 0.445013 0.069904
vt 0.008462 0.069904
vt 0.445013 0.039183
vt 0.650430 0.680847
vt 0.651228 0.684858
vt 0.651228 0.688947
vt 0.650430 0.692957
vt 0.648865 0.696735
vt 0.646594 0.700135
vt 0.643702 0.703026
vt 0.640302 0.705298
vt 0.632514 0.707661
vt 0.628425 0.707661
vt 0.624414 0.706863
vt 0.620637 0.705298
vt 0.617237 0.703026
vt 0.614345 0.700135
vt 0.612073 0.696735
vt 0.609711 0.688947
vt 0.609711 0.684858
vt 0.610509 0.680847
vt 0.612073 0.677069
vt 0.614345 0.673670
vt 0.617236 0.670778
vt 0.620636 0.668506
vt 0.628425 0.666144
vt 0.632514 0.666144
vt 0.636524 0.666941
vt 0.640302 0.668506
vt 0.643702 0.670778
vt 0.646593 0.673669
vt 0.648865 0.677069
vt 0.461937 0.842819
vt 0.632514 0.724585
vt 0.636524 0.725382
vt 0.640302 0.726947
vt 0.643702 0.729219
vt 0.646594 0.732110
vt 0.648865 0.735510
vt 0.650430 0.739288
vt 0.651228 0.743299
vt 0.651228 0.747388
vt 0.650430 0.751398
vt 0.648865 0.755176
vt 0.646594 0.758576
vt 0.643702 0.761467
vt 0.640302 0.763739
vt 0.636524 0.765304
vt 0.628425 0.766102
vt 0.624414 0.765304
vt 0.620637 0.763739
vt 0.617237 0.761467
vt 0.614345 0.758576
vt 0.612073 0.755176
vt 0.610509 0.751398
vt 0.609711 0.743299
vt 0.610509 0.739288
vt 0.612073 0.735510
vt 0.614345 0.732110
vt 0.617237 0.729219
vt 0.620637 0.726947
vt 0.624414 0.725382
vt 0.609711 0.477901
vt 0.644529 0.393844
vt 0.615704 0.447770
vt 0.627461 0.419387
vt 0.666252 0.372120
vt 0.691795 0.355053
vt 0.720178 0.343296
vt 0.750309 0.337303
vt 0.781030 0.337303
vt 0.811161 0.343296
vt 0.839543 0.355053
vt 0.865087 0.372120
vt 0.886810 0.393844
vt 0.903878 0.419387
vt 0.915634 0.447770
vt 0.921628 0.508622
vt 0.886810 0.592679
vt 0.915634 0.538753
vt 0.903878 0.567135
vt 0.865087 0.614402
vt 0.839543 0.631470
vt 0.811161 0.643226
vt 0.781030 0.649220
vt 0.750309 0.649220
vt 0.720178 0.643226
vt 0.691795 0.631470
vt 0.644528 0.592679
vt 0.627461 0.567135
vt 0.615704 0.538753
vt 0.445013 0.991538
vt 0.839543 0.026212
vt 0.865087 0.043280
vt 0.915635 0.118929
vt 0.886810 0.065003
vt 0.903878 0.090546
vt 0.921628 0.149060
vt 0.921628 0.179781
vt 0.915635 0.209912
vt 0.886810 0.263838
vt 0.811161 0.314386
vt 0.865087 0.285561
vt 0.839543 0.302629
vt 0.781030 0.320379
vt 0.750309 0.320379
vt 0.720178 0.314386
vt 0.666252 0.285561
vt 0.644529 0.263838
vt 0.627461 0.238295
vt 0.615704 0.209912
vt 0.609711 0.179781
vt 0.609711 0.149060
vt 0.615704 0.118929
vt 0.644529 0.065003
vt 0.666252 0.043280
vt 0.691795 0.026212
vt 0.720178 0.014455
vt 0.750309 0.008462
vt 0.781030 0.008462
vt 0.811161 0.014455
vt 0.445013 0.284952
s 0
usemtl マテリアル
f 2/1/1 3/2/1 1/3/1
f 4/4/2 5/5/2 3/2/2
f 6/6/3 7/7/3 5/5/3
f 8/8/4 9/9/4 7/7/4
f 10/10/5 11/11/5 9/9/5
f 12/12/6 13/13/6 11/11/6
f 14/14/7 15/15/7 13/13/7
f 16/16/8 17/17/8 15/15/8
f 18/18/9 19/19/9 17/17/9
f 20/20/10 21/21/10 19/19/10
f 22/22/11 23/23/11 21/21/11
f 24/24/12 25/25/12 23/23/12
f 26/26/13 27/27/13 25/25/13
f 28/28/14 29/29/14 27/27/14
f 30/30/15 31/31/15 29/29/15
f 32/32/16 33/33/16 31/31/16
f 34/34/17 35/35/17 33/33/17
f 36/36/18 37/37/18 35/35/18
f 38/38/19 39/39/19 37/37/19
f 40/40/20 41/41/20 39/39/20
f 42/42/21 43/43/21 41/41/21
f 44/44/22 45/45/22 43/43/22
f 46/46/23 47/47/23 45/45/23
f 48/48/24 49/49/24 47/47/24
f 50/50/25 51/51/25 49/49/25
f 52/52/26 53/53/26 51/51/26
f 54/54/27 55/55/27 53/53/27
f 56/56/28 57/57/28 55/55/28
f 58/58/29 59/59/29 57/57/29
f 60/60/30 61/61/30 59/59/30
f 54/62/31 38/63/31 22/64/31
f 62/65/32 63/66/32 61/61/32
f 64/67/33 1/68/33 63/66/33
f 31/69/34 47/70/34 63/71/34
s 1
f 76/72/35 68/73/35 100/74/35
f 67/75/34 66/76/36 65/77/34
f 70/78/37 65/79/34 68/80/37
f 71/81/38 68/80/37 69/82/38
f 79/83/39 95/84/39 111/85/39
f 72/86/40 69/82/38 74/87/40
f 73/88/41 74/87/40 75/89/41
f 78/90/42 75/89/41 76/91/42
f 79/92/43 76/91/42 77/93/43
f 80/94/44 77/93/43 82/95/44
f 81/96/45 82/95/44 83/97/45
f 86/98/46 83/97/45 84/99/46
f 87/100/47 84/99/46 85/101/47
f 88/102/48 85/101/47 90/103/48
f 89/104/49 90/103/48 91/105/49
f 94/106/50 91/105/49 92/107/50
f 95/108/51 92/107/50 93/109/51
f 96/110/52 93/109/51 98/111/52
f 97/112/31 98/111/52 99/113/31
f 102/114/53 99/113/31 100/115/53
f 103/116/54 100/115/53 101/117/54
f 104/118/55 101/117/54 106/119/55
f 105/120/56 106/119/55 107/121/56
f 110/122/57 107/121/56 108/123/57
f 111/124/58 108/123/57 109/125/58
f 114/126/59 111/124/58 109/125/58
f 113/127/60 114/126/59 115/128/60
f 118/129/61 115/128/60 116/130/61
f 119/131/62 116/130/61 117/132/62
f 120/133/63 117/132/62 122/134/63
f 121/135/64 122/134/63 123/136/64
f 126/137/65 123/136/64 124/138/65
f 127/139/66 124/138/65 125/140/66
f 128/141/36 125/140/66 66/76/36
s 0
f 2/1/1 4/4/1 3/2/1
f 4/4/2 6/6/2 5/5/2
f 6/6/3 8/8/3 7/7/3
f 8/8/4 10/10/4 9/9/4
f 10/10/5 12/12/5 11/11/5
f 12/12/6 14/14/6 13/13/6
f 14/14/7 16/16/7 15/15/7
f 16/16/8 18/18/8 17/17/8
f 18/18/9 20/20/9 19/19/9
f 20/20/10 22/22/10 21/21/10
f 22/22/11 24/24/11 23/23/11
f 24/24/12 26/26/12 25/25/12
f 26/26/13 28/28/13 27/27/13
f 28/28/14 30/30/14 29/29/14
f 30/30/15 32/32/15 31/31/15
f 32/32/16 34/34/16 33/33/16
f 34/34/17 36/36/17 35/35/17
f 36/36/18 38/38/18 37/37/18
f 38/38/19 40/40/19 39/39/19
f 40/40/20 42/42/20 41/41/20
f 42/42/21 44/44/21 43/43/21
f 44/44/22 46/46/22 45/45/22
f 46/46/23 48/48/23 47/47/23
f 48/48/24 50/50/24 49/49/24
f 50/50/25 52/52/25 51/51/25
f 52/52/26 54/54/26 53/53/26
f 54/54/27 56/56/27 55/55/27
f 56/56/28 58/58/28 57/57/28
f 58/58/29 60/60/29 59/59/29
f 60/60/30 62/65/30 61/61/30
f 6/142/31 4/143/31 2/144/31
f 2/144/31 64/145/31 62/146/31
f 62/146/31 60/147/31 58/148/31
f 58/148/31 56/149/31 62/146/31
f 56/149/31 54/62/31 62/146/31
f 54/62/31 52/150/31 50/151/31
f 50/151/31 48/152/31 46/153/31
f 46/153/31 44/154/31 38/63/31
f 44/154/31 42/155/31 38/63/31
f 42/155/31 40/156/31 38/63/31
f 38/63/31 36/157/31 34/158/31
f 34/158/31 32/159/31 30/160/31
f 30/160/31 28/161/31 26/162/31
f 26/162/31 24/163/31 30/160/31
f 24/163/31 22/64/31 30/160/31
f 22/64/31 20/164/31 18/165/31
f 18/165/31 16/166/31 14/167/31
f 14/167/31 12/168/31 6/142/31
f 12/168/67 10/169/67 6/142/67
f 10/169/31 8/170/31 6/142/31
f 6/142/31 2/144/31 54/62/31
f 2/144/31 62/146/31 54/62/31
f 54/62/31 50/151/31 46/153/31
f 38/63/31 34/158/31 22/64/31
f 34/158/31 30/160/31 22/64/31
f 22/64/31 18/165/31 14/167/31
f 54/62/31 46/153/31 38/63/31
f 22/64/31 14/167/31 6/142/31
f 6/142/31 54/62/31 22/64/31
f 62/65/32 64/67/32 63/66/32
f 64/67/33 2/171/33 1/68/33
f 63/71/34 1/172/34 3/173/34
f 3/173/34 5/174/34 7/175/34
f 7/175/34 9/176/34 11/177/34
f 11/177/34 13/178/34 7/175/34
f 13/178/34 15/179/34 7/175/34
f 15/179/34 17/180/34 19/181/34
f 19/181/34 21/182/34 15/179/34
f 21/182/34 23/183/34 15/179/34
f 23/183/34 25/184/34 27/185/34
f 27/185/34 29/186/34 23/183/34
f 29/186/34 31/69/34 23/183/34
f 31/69/34 33/187/34 35/188/34
f 35/188/34 37/189/34 39/190/34
f 39/190/34 41/191/34 43/192/34
f 43/192/34 45/193/34 39/190/34
f 45/193/34 47/70/34 39/190/34
f 47/70/34 49/194/34 51/195/34
f 51/195/34 53/196/34 47/70/34
f 53/196/34 55/197/34 47/70/34
f 55/197/34 57/198/34 59/199/34
f 59/199/34 61/200/34 55/197/34
f 61/200/34 63/71/34 55/197/34
f 63/71/34 3/173/34 15/179/34
f 3/173/34 7/175/34 15/179/34
f 31/69/34 35/188/34 47/70/34
f 35/188/34 39/190/34 47/70/34
f 15/179/34 23/183/34 31/69/34
f 47/70/34 55/197/34 63/71/34
f 63/71/34 15/179/34 31/69/34
s 1
f 68/73/35 65/201/35 124/202/35
f 65/201/35 66/203/35 124/202/35
f 66/203/35 125/204/35 124/202/35
f 124/202/35 123/205/35 122/206/35
f 122/206/35 117/207/35 116/208/35
f 116/208/35 115/209/35 114/210/35
f 114/210/35 109/211/35 108/212/35
f 108/212/35 107/213/35 106/214/35
f 106/214/35 101/215/35 108/212/35
f 101/215/35 100/74/35 108/212/35
f 100/74/35 99/216/35 92/217/35
f 99/216/35 98/218/35 92/217/35
f 98/218/35 93/219/35 92/217/35
f 92/217/35 91/220/35 90/221/35
f 90/221/35 85/222/35 84/223/35
f 84/223/35 83/224/35 82/225/35
f 82/225/35 77/226/35 76/72/35
f 76/72/35 75/227/35 74/228/35
f 74/228/35 69/229/35 68/73/35
f 124/202/35 122/206/35 116/208/35
f 116/208/35 114/210/35 108/212/35
f 92/217/35 90/221/35 100/74/35
f 90/221/35 84/223/35 100/74/35
f 84/223/35 82/225/35 76/72/35
f 76/72/35 74/228/35 68/73/35
f 68/73/35 124/202/35 116/208/35
f 116/208/35 108/212/35 68/73/35
f 108/212/35 100/74/35 68/73/35
f 84/223/35 76/72/35 100/74/35
f 67/75/34 128/141/36 66/76/36
f 70/78/37 67/230/34 65/79/34
f 71/81/38 70/78/37 68/80/37
f 127/231/39 128/232/39 71/233/39
f 128/232/39 67/234/39 71/233/39
f 67/234/39 70/235/39 71/233/39
f 71/233/39 72/236/39 73/237/39
f 73/237/39 78/238/39 71/233/39
f 78/238/39 79/83/39 71/233/39
f 79/83/39 80/239/39 87/240/39
f 80/239/39 81/241/39 87/240/39
f 81/241/39 86/242/39 87/240/39
f 87/240/39 88/243/39 89/244/39
f 89/244/39 94/245/39 95/84/39
f 95/84/39 96/246/39 97/247/39
f 97/247/39 102/248/39 103/249/39
f 103/249/39 104/250/39 111/85/39
f 104/250/39 105/251/39 111/85/39
f 105/251/39 110/252/39 111/85/39
f 111/85/39 112/253/39 113/254/39
f 113/254/39 118/255/39 111/85/39
f 118/255/39 119/256/39 111/85/39
f 119/256/39 120/257/39 121/258/39
f 121/258/39 126/259/39 127/231/39
f 87/240/39 89/244/39 79/83/39
f 89/244/39 95/84/39 79/83/39
f 95/84/39 97/247/39 111/85/39
f 97/247/39 103/249/39 111/85/39
f 119/256/39 121/258/39 127/231/39
f 127/231/39 71/233/39 79/83/39
f 111/85/39 119/256/39 127/231/39
f 127/231/39 79/83/39 111/85/39
f 72/86/40 71/81/38 69/82/38
f 73/88/41 72/86/40 74/87/40
f 78/90/42 73/88/41 75/89/41
f 79/92/43 78/90/42 76/91/42
f 80/94/44 79/92/43 77/93/43
f 81/96/45 80/94/44 82/95/44
f 86/98/46 81/96/45 83/97/45
f 87/100/47 86/98/46 84/99/46
f 88/102/48 87/100/47 85/101/47
f 89/104/49 88/102/48 90/103/48
f 94/106/50 89/104/49 91/105/49
f 95/108/51 94/106/50 92/107/50
f 96/110/52 95/108/51 93/109/51
f 97/112/31 96/110/52 98/111/52
f 102/114/53 97/112/31 99/113/31
f 103/116/54 102/114/53 100/115/53
f 104/118/55 103/116/54 101/117/54
f 105/120/56 104/118/55 106/119/55
f 110/122/57 105/120/56 107/121/56
f 111/124/58 110/122/57 108/123/57
f 114/126/59 112/260/59 111/124/58
f 113/127/60 112/260/59 114/126/59
f 118/129/61 113/127/60 115/128/60
f 119/131/62 118/129/61 116/130/61
f 120/133/63 119/131/62 117/132/62
f 121/135/64 120/133/63 122/134/63
f 126/137/65 121/135/64 123/136/64
f 127/139/66 126/137/65 124/138/65
f 128/141/36 127/139/66 125/140/66
