# Blender 4.2.3 LTS
# www.blender.org
mtllib clear.mtl
o CLEAR
v -1.102916 0.337274 -0.050000
v -1.134028 0.332825 -0.050000
v -1.162737 0.325529 -0.050000
v -1.188926 0.315482 -0.050000
v -1.212476 0.302783 -0.050000
v -1.233268 0.287529 -0.050000
v -1.251186 0.269816 -0.050000
v -1.266111 0.249742 -0.050000
v -1.277925 0.227404 -0.050000
v -1.286509 0.202899 -0.050000
v -1.291746 0.176325 -0.050000
v -1.293518 0.147779 -0.050000
v -1.292669 0.128451 -0.050000
v -1.290143 0.109992 -0.050000
v -1.285972 0.092435 -0.050000
v -1.280185 0.075816 -0.050000
v -1.272815 0.060169 -0.050000
v -1.263893 0.045529 -0.050000
v -1.253451 0.031930 -0.050000
v -1.241518 0.019408 -0.050000
v -1.228128 0.007997 -0.050000
v -1.213310 -0.002268 -0.050000
v -1.197096 -0.011352 -0.050000
v -1.179518 -0.019221 -0.050000
v -1.194540 -0.029930 -0.050000
v -1.208694 -0.041555 -0.050000
v -1.222112 -0.054096 -0.050000
v -1.234926 -0.067555 -0.050000
v -1.247267 -0.081930 -0.050000
v -1.259268 -0.097221 -0.050000
v -1.271061 -0.113430 -0.050000
v -1.282778 -0.130555 -0.050000
v -1.294550 -0.148596 -0.050000
v -1.306509 -0.167555 -0.050000
v -1.318788 -0.187430 -0.050000
v -1.331518 -0.208221 -0.050000
v -1.338543 -0.219510 -0.050000
v -1.345213 -0.230027 -0.050000
v -1.351675 -0.240003 -0.050000
v -1.358074 -0.249666 -0.050000
v -1.364557 -0.259246 -0.050000
v -1.371268 -0.268971 -0.050000
v -1.378355 -0.279072 -0.050000
v -1.385963 -0.289777 -0.050000
v -1.394237 -0.301315 -0.050000
v -1.403324 -0.313916 -0.050000
v -1.413369 -0.327808 -0.050000
v -1.424518 -0.343221 -0.050000
v -1.307518 -0.343221 -0.050000
v -1.217518 -0.203221 -0.050000
v -1.196005 -0.170742 -0.050000
v -1.176333 -0.143055 -0.050000
v -1.158300 -0.119784 -0.050000
v -1.141703 -0.100555 -0.050000
v -1.126344 -0.084992 -0.050000
v -1.112018 -0.072721 -0.050000
v -1.098527 -0.063367 -0.050000
v -1.085667 -0.056555 -0.050000
v -1.073237 -0.051909 -0.050000
v -1.061037 -0.049055 -0.050000
v -1.048864 -0.047617 -0.050000
v -1.036518 -0.047221 -0.050000
v -0.995518 -0.047221 -0.050000
v -0.995518 -0.343221 -0.050000
v -0.897518 -0.343221 -0.050000
v -0.897518 0.338779 -0.050000
v -1.069518 0.338779 -0.050000
v -1.058518 0.040779 -0.050000
v -1.083231 0.041874 -0.050000
v -1.104972 0.045043 -0.050000
v -1.123893 0.050107 -0.050000
v -1.140148 0.056890 -0.050000
v -1.153888 0.065214 -0.050000
v -1.165268 0.074904 -0.050000
v -1.174439 0.085780 -0.050000
v -1.181555 0.097668 -0.050000
v -1.186768 0.110388 -0.050000
v -1.190231 0.123765 -0.050000
v -1.192097 0.137621 -0.050000
v -1.192518 0.151779 -0.050000
v -1.191486 0.167250 -0.050000
v -1.188842 0.181631 -0.050000
v -1.184518 0.194872 -0.050000
v -1.178444 0.206927 -0.050000
v -1.170550 0.217745 -0.050000
v -1.160768 0.227279 -0.050000
v -1.149027 0.235479 -0.050000
v -1.135259 0.242297 -0.050000
v -1.119393 0.247685 -0.050000
v -1.101361 0.251594 -0.050000
v -1.081092 0.253974 -0.050000
v -1.058518 0.254779 -0.050000
v -0.995518 0.254779 -0.050000
v -0.995518 0.040779 -0.050000
v -0.720518 -0.343221 -0.050000
v -0.629518 -0.142221 -0.050000
v -0.339518 -0.142221 -0.050000
v -0.253518 -0.343221 -0.050000
v -0.153518 -0.343221 -0.050000
v -0.446518 0.342779 -0.050000
v -0.515518 0.342779 -0.050000
v -0.820518 -0.343221 -0.050000
v -0.589518 -0.054221 -0.050000
v -0.479518 0.192779 -0.050000
v -0.377518 -0.054221 -0.050000
v 0.173482 0.250779 -0.050000
v 0.173482 0.044779 -0.050000
v -0.105518 0.044779 -0.050000
v -0.105518 -0.043221 -0.050000
v 0.173482 -0.043221 -0.050000
v 0.173482 -0.255221 -0.050000
v -0.124518 -0.255221 -0.050000
v -0.124518 -0.343221 -0.050000
v 0.271482 -0.343221 -0.050000
v 0.271482 0.338779 -0.050000
v -0.115518 0.338779 -0.050000
v -0.115518 0.250779 -0.050000
v 0.356482 -0.255221 -0.050000
v 0.356482 -0.343221 -0.050000
v 0.762482 -0.343221 -0.050000
v 0.762482 0.338779 -0.050000
v 0.664482 0.338779 -0.050000
v 0.664482 -0.255221 -0.050000
v 0.909243 0.198469 -0.050000
v 0.929570 0.209052 -0.050000
v 0.949529 0.218544 -0.050000
v 0.969185 0.226964 -0.050000
v 0.988606 0.234328 -0.050000
v 1.007857 0.240654 -0.050000
v 1.027003 0.245959 -0.050000
v 1.046111 0.250260 -0.050000
v 1.065247 0.253576 -0.050000
v 1.084477 0.255922 -0.050000
v 1.103866 0.257317 -0.050000
v 1.123482 0.257779 -0.050000
v 1.161604 0.255508 -0.050000
v 1.197796 0.248862 -0.050000
v 1.231794 0.238091 -0.050000
v 1.263333 0.223445 -0.050000
v 1.292151 0.205175 -0.050000
v 1.317982 0.183529 -0.050000
v 1.340563 0.158758 -0.050000
v 1.359630 0.131112 -0.050000
v 1.374919 0.100841 -0.050000
v 1.386167 0.068195 -0.050000
v 1.393109 0.033425 -0.050000
v 1.395482 -0.003221 -0.050000
v 1.393183 -0.040458 -0.050000
v 1.386426 -0.075531 -0.050000
v 1.375419 -0.108237 -0.050000
v 1.360371 -0.138369 -0.050000
v 1.341489 -0.165724 -0.050000
v 1.318982 -0.190096 -0.050000
v 1.293058 -0.211281 -0.050000
v 1.263926 -0.229073 -0.050000
v 1.231794 -0.243268 -0.050000
v 1.196871 -0.253661 -0.050000
v 1.159364 -0.260047 -0.050000
v 1.119482 -0.262221 -0.050000
v 1.100094 -0.261661 -0.050000
v 1.080463 -0.259990 -0.050000
v 1.060638 -0.257221 -0.050000
v 1.040667 -0.253369 -0.050000
v 1.020599 -0.248448 -0.050000
v 1.000482 -0.242471 -0.050000
v 0.980365 -0.235453 -0.050000
v 0.960296 -0.227406 -0.050000
v 0.940325 -0.218346 -0.050000
v 0.920500 -0.208286 -0.050000
v 0.900869 -0.197240 -0.050000
v 0.881482 -0.185221 -0.050000
v 0.881482 -0.292221 -0.050000
v 0.898373 -0.300754 -0.050000
v 0.915611 -0.308819 -0.050000
v 0.933294 -0.316362 -0.050000
v 0.951519 -0.323332 -0.050000
v 0.970382 -0.329678 -0.050000
v 0.989982 -0.335346 -0.050000
v 1.010414 -0.340286 -0.050000
v 1.031778 -0.344444 -0.050000
v 1.054169 -0.347768 -0.050000
v 1.077685 -0.350207 -0.050000
v 1.102424 -0.351709 -0.050000
v 1.128482 -0.352221 -0.050000
v 1.189500 -0.348262 -0.050000
v 1.244630 -0.336967 -0.050000
v 1.293982 -0.319206 -0.050000
v 1.337667 -0.295851 -0.050000
v 1.375796 -0.267774 -0.050000
v 1.408482 -0.235846 -0.050000
v 1.435833 -0.200940 -0.050000
v 1.457963 -0.163925 -0.050000
v 1.474982 -0.125674 -0.050000
v 1.487000 -0.087059 -0.050000
v 1.494130 -0.048951 -0.050000
v 1.496482 -0.012221 -0.050000
v 1.493267 0.038556 -0.050000
v 1.483847 0.086668 -0.050000
v 1.468560 0.131779 -0.050000
v 1.447741 0.173557 -0.050000
v 1.421728 0.211668 -0.050000
v 1.390857 0.245779 -0.050000
v 1.355465 0.275557 -0.050000
v 1.315889 0.300668 -0.050000
v 1.272466 0.320779 -0.050000
v 1.225533 0.335557 -0.050000
v 1.175426 0.344668 -0.050000
v 1.122482 0.347779 -0.050000
v 1.104949 0.347422 -0.050000
v 1.087301 0.346339 -0.050000
v 1.069466 0.344513 -0.050000
v 1.051370 0.341927 -0.050000
v 1.032942 0.338563 -0.050000
v 1.014107 0.334404 -0.050000
v 0.994792 0.329432 -0.050000
v 0.974926 0.323631 -0.050000
v 0.954435 0.316982 -0.050000
v 0.933246 0.309469 -0.050000
v 0.911285 0.301073 -0.050000
v 0.888482 0.291779 -0.050000
v 0.888482 0.186779 -0.050000
v -1.102916 0.337274 0.050000
v -1.134028 0.332825 0.050000
v -1.162737 0.325529 0.050000
v -1.188926 0.315482 0.050000
v -1.212476 0.302783 0.050000
v -1.233268 0.287529 0.050000
v -1.251186 0.269816 0.050000
v -1.266111 0.249742 0.050000
v -1.277925 0.227404 0.050000
v -1.286509 0.202899 0.050000
v -1.291746 0.176325 0.050000
v -1.293518 0.147779 0.050000
v -1.292669 0.128451 0.050000
v -1.290143 0.109992 0.050000
v -1.285972 0.092435 0.050000
v -1.280185 0.075816 0.050000
v -1.272815 0.060169 0.050000
v -1.263893 0.045529 0.050000
v -1.253451 0.031930 0.050000
v -1.241518 0.019408 0.050000
v -1.228128 0.007997 0.050000
v -1.213310 -0.002268 0.050000
v -1.197096 -0.011352 0.050000
v -1.179518 -0.019221 0.050000
v -1.194540 -0.029930 0.050000
v -1.208694 -0.041555 0.050000
v -1.222112 -0.054096 0.050000
v -1.234926 -0.067555 0.050000
v -1.247267 -0.081930 0.050000
v -1.259268 -0.097221 0.050000
v -1.271061 -0.113430 0.050000
v -1.282778 -0.130555 0.050000
v -1.294550 -0.148596 0.050000
v -1.306509 -0.167555 0.050000
v -1.318788 -0.187430 0.050000
v -1.331518 -0.208221 0.050000
v -1.338543 -0.219510 0.050000
v -1.345213 -0.230027 0.050000
v -1.351675 -0.240003 0.050000
v -1.358074 -0.249666 0.050000
v -1.364557 -0.259246 0.050000
v -1.371268 -0.268971 0.050000
v -1.378355 -0.279072 0.050000
v -1.385963 -0.289777 0.050000
v -1.394237 -0.301315 0.050000
v -1.403324 -0.313916 0.050000
v -1.413369 -0.327808 0.050000
v -1.424518 -0.343221 0.050000
v -1.307518 -0.343221 0.050000
v -1.217518 -0.203221 0.050000
v -1.196005 -0.170742 0.050000
v -1.176333 -0.143055 0.050000
v -1.158300 -0.119784 0.050000
v -1.141703 -0.100555 0.050000
v -1.126344 -0.084992 0.050000
v -1.112018 -0.072721 0.050000
v -1.098527 -0.063367 0.050000
v -1.085667 -0.056555 0.050000
v -1.073237 -0.051909 0.050000
v -1.061037 -0.049055 0.050000
v -1.048864 -0.047617 0.050000
v -1.036518 -0.047221 0.050000
v -0.995518 -0.047221 0.050000
v -0.995518 -0.343221 0.050000
v -0.897518 -0.343221 0.050000
v -0.897518 0.338779 0.050000
v -1.069518 0.338779 0.050000
v -1.058518 0.040779 0.050000
v -1.083231 0.041874 0.050000
v -1.104972 0.045043 0.050000
v -1.123893 0.050107 0.050000
v -1.140148 0.056890 0.050000
v -1.153888 0.065214 0.050000
v -1.165268 0.074904 0.050000
v -1.174439 0.085780 0.050000
v -1.181555 0.097668 0.050000
v -1.186768 0.110388 0.050000
v -1.190231 0.123765 0.050000
v -1.192097 0.137621 0.050000
v -1.192518 0.151779 0.050000
v -1.191486 0.167250 0.050000
v -1.188842 0.181631 0.050000
v -1.184518 0.194872 0.050000
v -1.178444 0.206927 0.050000
v -1.170550 0.217745 0.050000
v -1.160768 0.227279 0.050000
v -1.149027 0.235479 0.050000
v -1.135259 0.242297 0.050000
v -1.119393 0.247685 0.050000
v -1.101361 0.251594 0.050000
v -1.081092 0.253974 0.050000
v -1.058518 0.254779 0.050000
v -0.995518 0.254779 0.050000
v -0.995518 0.040779 0.050000
v -0.720518 -0.343221 0.050000
v -0.629518 -0.142221 0.050000
v -0.339518 -0.142221 0.050000
v -0.253518 -0.343221 0.050000
v -0.153518 -0.343221 0.050000
v -0.446518 0.342779 0.050000
v -0.515518 0.342779 0.050000
v -0.820518 -0.343221 0.050000
v -0.589518 -0.054221 0.050000
v -0.479518 0.192779 0.050000
v -0.377518 -0.054221 0.050000
v 0.173482 0.250779 0.050000
v 0.173482 0.044779 0.050000
v -0.105518 0.044779 0.050000
v -0.105518 -0.043221 0.050000
v 0.173482 -0.043221 0.050000
v 0.173482 -0.255221 0.050000
v -0.124518 -0.255221 0.050000
v -0.124518 -0.343221 0.050000
v 0.271482 -0.343221 0.050000
v 0.271482 0.338779 0.050000
v -0.115518 0.338779 0.050000
v -0.115518 0.250779 0.050000
v 0.356482 -0.255221 0.050000
v 0.356482 -0.343221 0.050000
v 0.762482 -0.343221 0.050000
v 0.762482 0.338779 0.050000
v 0.664482 0.338779 0.050000
v 0.664482 -0.255221 0.050000
v 0.909243 0.198469 0.050000
v 0.929570 0.209052 0.050000
v 0.949529 0.218544 0.050000
v 0.969185 0.226964 0.050000
v 0.988606 0.234328 0.050000
v 1.007857 0.240654 0.050000
v 1.027003 0.245959 0.050000
v 1.046111 0.250260 0.050000
v 1.065247 0.253576 0.050000
v 1.084477 0.255922 0.050000
v 1.103866 0.257317 0.050000
v 1.123482 0.257779 0.050000
v 1.161604 0.255508 0.050000
v 1.197796 0.248862 0.050000
v 1.231794 0.238091 0.050000
v 1.263333 0.223445 0.050000
v 1.292151 0.205175 0.050000
v 1.317982 0.183529 0.050000
v 1.340563 0.158758 0.050000
v 1.359630 0.131112 0.050000
v 1.374919 0.100841 0.050000
v 1.386167 0.068195 0.050000
v 1.393109 0.033425 0.050000
v 1.395482 -0.003221 0.050000
v 1.393183 -0.040458 0.050000
v 1.386426 -0.075531 0.050000
v 1.375419 -0.108237 0.050000
v 1.360371 -0.138369 0.050000
v 1.341489 -0.165724 0.050000
v 1.318982 -0.190096 0.050000
v 1.293058 -0.211281 0.050000
v 1.263926 -0.229073 0.050000
v 1.231794 -0.243268 0.050000
v 1.196871 -0.253661 0.050000
v 1.159364 -0.260047 0.050000
v 1.119482 -0.262221 0.050000
v 1.100094 -0.261661 0.050000
v 1.080463 -0.259990 0.050000
v 1.060638 -0.257221 0.050000
v 1.040667 -0.253369 0.050000
v 1.020599 -0.248448 0.050000
v 1.000482 -0.242471 0.050000
v 0.980365 -0.235453 0.050000
v 0.960296 -0.227406 0.050000
v 0.940325 -0.218346 0.050000
v 0.920500 -0.208286 0.050000
v 0.900869 -0.197240 0.050000
v 0.881482 -0.185221 0.050000
v 0.881482 -0.292221 0.050000
v 0.898373 -0.300754 0.050000
v 0.915611 -0.308819 0.050000
v 0.933294 -0.316362 0.050000
v 0.951519 -0.323332 0.050000
v 0.970382 -0.329678 0.050000
v 0.989982 -0.335346 0.050000
v 1.010414 -0.340286 0.050000
v 1.031778 -0.344444 0.050000
v 1.054169 -0.347768 0.050000
v 1.077685 -0.350207 0.050000
v 1.102424 -0.351709 0.050000
v 1.128482 -0.352221 0.050000
v 1.189500 -0.348262 0.050000
v 1.244630 -0.336967 0.050000
v 1.293982 -0.319206 0.050000
v 1.337667 -0.295851 0.050000
v 1.375796 -0.267774 0.050000
v 1.408482 -0.235846 0.050000
v 1.435833 -0.200940 0.050000
v 1.457963 -0.163925 0.050000
v 1.474982 -0.125674 0.050000
v 1.487000 -0.087059 0.050000
v 1.494130 -0.048951 0.050000
v 1.496482 -0.012221 0.050000
v 1.493267 0.038556 0.050000
v 1.483847 0.086668 0.050000
v 1.468560 0.131779 0.050000
v 1.447741 0.173557 0.050000
v 1.421728 0.211668 0.050000
v 1.390857 0.245779 0.050000
v 1.355465 0.275557 0.050000
v 1.315889 0.300668 0.050000
v 1.272466 0.320779 0.050000
v 1.225533 0.335557 0.050000
v 1.175426 0.344668 0.050000
v 1.122482 0.347779 0.050000
v 1.104949 0.347422 0.050000
v 1.087301 0.346339 0.050000
v 1.069466 0.344513 0.050000
v 1.051370 0.341927 0.050000
v 1.032942 0.338563 0.050000
v 1.014107 0.334404 0.050000
v 0.994792 0.329432 0.050000
v 0.974926 0.323631 0.050000
v 0.954435 0.316982 0.050000
v 0.933246 0.309469 0.050000
v 0.911285 0.301073 0.050000
v 0.888482 0.291779 0.050000
v 0.888482 0.186779 0.050000
v 0.909243 0.198469 0.050000
v 0.909243 0.198469 -0.050000
v 0.929570 0.209052 0.050000
v 0.929570 0.209052 -0.050000
v 0.949529 0.218544 0.050000
v 0.949529 0.218544 -0.050000
v 0.969185 0.226964 0.050000
v 0.969185 0.226964 -0.050000
v 0.988606 0.234328 0.050000
v 0.988606 0.234328 -0.050000
v 1.007857 0.240654 0.050000
v 1.007857 0.240654 -0.050000
v 1.027003 0.245959 0.050000
v 1.027003 0.245959 -0.050000
v 1.046111 0.250260 0.050000
v 1.046111 0.250260 -0.050000
v 1.065247 0.253576 0.050000
v 1.065247 0.253576 -0.050000
v 1.084477 0.255922 0.050000
v 1.084477 0.255922 -0.050000
v 1.103866 0.257317 0.050000
v 1.103866 0.257317 -0.050000
v 1.123482 0.257779 0.050000
v 1.123482 0.257779 -0.050000
v 1.161604 0.255508 0.050000
v 1.161604 0.255508 -0.050000
v 1.197796 0.248862 0.050000
v 1.197796 0.248862 -0.050000
v 1.231794 0.238091 0.050000
v 1.231794 0.238091 -0.050000
v 1.263333 0.223445 0.050000
v 1.263333 0.223445 -0.050000
v 1.292151 0.205175 0.050000
v 1.292151 0.205175 -0.050000
v 1.317982 0.183529 0.050000
v 1.317982 0.183529 -0.050000
v 1.340563 0.158758 0.050000
v 1.340563 0.158758 -0.050000
v 1.359630 0.131112 0.050000
v 1.359630 0.131112 -0.050000
v 1.374919 0.100841 0.050000
v 1.374919 0.100841 -0.050000
v 1.386167 0.068195 0.050000
v 1.386167 0.068195 -0.050000
v 1.393109 0.033425 0.050000
v 1.393109 0.033425 -0.050000
v 1.395482 -0.003221 0.050000
v 1.395482 -0.003221 -0.050000
v 1.393183 -0.040458 0.050000
v 1.393183 -0.040458 -0.050000
v 1.386426 -0.075531 0.050000
v 1.386426 -0.075531 -0.050000
v 1.375419 -0.108237 0.050000
v 1.375419 -0.108237 -0.050000
v 1.360371 -0.138369 0.050000
v 1.360371 -0.138369 -0.050000
v 1.341489 -0.165724 0.050000
v 1.341489 -0.165724 -0.050000
v 1.318982 -0.190096 0.050000
v 1.318982 -0.190096 -0.050000
v 1.293058 -0.211281 0.050000
v 1.293058 -0.211281 -0.050000
v 1.263926 -0.229073 0.050000
v 1.263926 -0.229073 -0.050000
v 1.231794 -0.243268 0.050000
v 1.231794 -0.243268 -0.050000
v 1.196871 -0.253661 0.050000
v 1.196871 -0.253661 -0.050000
v 1.159364 -0.260047 0.050000
v 1.159364 -0.260047 -0.050000
v 1.119482 -0.262221 0.050000
v 1.119482 -0.262221 -0.050000
v 1.100094 -0.261661 0.050000
v 1.100094 -0.261661 -0.050000
v 1.080463 -0.259990 0.050000
v 1.080463 -0.259990 -0.050000
v 1.060638 -0.257221 0.050000
v 1.060638 -0.257221 -0.050000
v 1.040667 -0.253369 0.050000
v 1.040667 -0.253369 -0.050000
v 1.020599 -0.248448 0.050000
v 1.020599 -0.248448 -0.050000
v 1.000482 -0.242471 0.050000
v 1.000482 -0.242471 -0.050000
v 0.980365 -0.235453 0.050000
v 0.980365 -0.235453 -0.050000
v 0.960296 -0.227406 0.050000
v 0.960296 -0.227406 -0.050000
v 0.940325 -0.218346 0.050000
v 0.940325 -0.218346 -0.050000
v 0.920500 -0.208286 0.050000
v 0.920500 -0.208286 -0.050000
v 0.900869 -0.197240 0.050000
v 0.900869 -0.197240 -0.050000
v 0.881482 -0.185221 0.050000
v 0.881482 -0.185221 -0.050000
v 0.881482 -0.292221 0.050000
v 0.881482 -0.292221 -0.050000
v 0.898373 -0.300754 0.050000
v 0.898373 -0.300754 -0.050000
v 0.915611 -0.308819 0.050000
v 0.915611 -0.308819 -0.050000
v 0.933294 -0.316362 0.050000
v 0.933294 -0.316362 -0.050000
v 0.951519 -0.323332 0.050000
v 0.951519 -0.323332 -0.050000
v 0.970382 -0.329678 0.050000
v 0.970382 -0.329678 -0.050000
v 0.989982 -0.335346 0.050000
v 0.989982 -0.335346 -0.050000
v 1.010414 -0.340286 0.050000
v 1.010414 -0.340286 -0.050000
v 1.031778 -0.344444 0.050000
v 1.031778 -0.344444 -0.050000
v 1.054169 -0.347768 0.050000
v 1.054169 -0.347768 -0.050000
v 1.077685 -0.350207 0.050000
v 1.077685 -0.350207 -0.050000
v 1.102424 -0.351709 0.050000
v 1.102424 -0.351709 -0.050000
v 1.128482 -0.352221 0.050000
v 1.128482 -0.352221 -0.050000
v 1.189500 -0.348262 0.050000
v 1.189500 -0.348262 -0.050000
v 1.244630 -0.336967 0.050000
v 1.244630 -0.336967 -0.050000
v 1.293982 -0.319206 0.050000
v 1.293982 -0.319206 -0.050000
v 1.337667 -0.295851 0.050000
v 1.337667 -0.295851 -0.050000
v 1.375796 -0.267774 0.050000
v 1.375796 -0.267774 -0.050000
v 1.408482 -0.235846 0.050000
v 1.408482 -0.235846 -0.050000
v 1.435833 -0.200940 0.050000
v 1.435833 -0.200940 -0.050000
v 1.457963 -0.163925 0.050000
v 1.457963 -0.163925 -0.050000
v 1.474982 -0.125674 0.050000
v 1.474982 -0.125674 -0.050000
v 1.487000 -0.087059 0.050000
v 1.487000 -0.087059 -0.050000
v 1.494130 -0.048951 0.050000
v 1.494130 -0.048951 -0.050000
v 1.496482 -0.012221 0.050000
v 1.496482 -0.012221 -0.050000
v 1.493267 0.038556 0.050000
v 1.493267 0.038556 -0.050000
v 1.483847 0.086668 0.050000
v 1.483847 0.086668 -0.050000
v 1.468560 0.131779 0.050000
v 1.468560 0.131779 -0.050000
v 1.447741 0.173557 0.050000
v 1.447741 0.173557 -0.050000
v 1.421728 0.211668 0.050000
v 1.421728 0.211668 -0.050000
v 1.390857 0.245779 0.050000
v 1.390857 0.245779 -0.050000
v 1.355465 0.275557 0.050000
v 1.355465 0.275557 -0.050000
v 1.315889 0.300668 0.050000
v 1.315889 0.300668 -0.050000
v 1.272466 0.320779 0.050000
v 1.272466 0.320779 -0.050000
v 1.225533 0.335557 0.050000
v 1.225533 0.335557 -0.050000
v 1.175426 0.344668 0.050000
v 1.175426 0.344668 -0.050000
v 1.122482 0.347779 0.050000
v 1.122482 0.347779 -0.050000
v 1.104949 0.347422 0.050000
v 1.104949 0.347422 -0.050000
v 1.087301 0.346339 0.050000
v 1.087301 0.346339 -0.050000
v 1.069466 0.344513 0.050000
v 1.069466 0.344513 -0.050000
v 1.051370 0.341927 0.050000
v 1.051370 0.341927 -0.050000
v 1.032942 0.338563 0.050000
v 1.032942 0.338563 -0.050000
v 1.014107 0.334404 0.050000
v 1.014107 0.334404 -0.050000
v 0.994792 0.329432 0.050000
v 0.994792 0.329432 -0.050000
v 0.974926 0.323631 0.050000
v 0.974926 0.323631 -0.050000
v 0.954435 0.316982 0.050000
v 0.954435 0.316982 -0.050000
v 0.933246 0.309469 0.050000
v 0.933246 0.309469 -0.050000
v 0.911285 0.301073 0.050000
v 0.911285 0.301073 -0.050000
v 0.888482 0.291779 0.050000
v 0.888482 0.291779 -0.050000
v 0.888482 0.186779 0.050000
v 0.888482 0.186779 -0.050000
v 0.356482 -0.255221 0.050000
v 0.356482 -0.255221 -0.050000
v 0.356482 -0.343221 0.050000
v 0.356482 -0.343221 -0.050000
v 0.762482 -0.343221 0.050000
v 0.762482 -0.343221 -0.050000
v 0.762482 0.338779 0.050000
v 0.762482 0.338779 -0.050000
v 0.664482 0.338779 0.050000
v 0.664482 0.338779 -0.050000
v 0.664482 -0.255221 0.050000
v 0.664482 -0.255221 -0.050000
v 0.173482 0.250779 0.050000
v 0.173482 0.250779 -0.050000
v 0.173482 0.044779 0.050000
v 0.173482 0.044779 -0.050000
v -0.105518 0.044779 0.050000
v -0.105518 0.044779 -0.050000
v -0.105518 -0.043221 0.050000
v -0.105518 -0.043221 -0.050000
v 0.173482 -0.043221 0.050000
v 0.173482 -0.043221 -0.050000
v 0.173482 -0.255221 0.050000
v 0.173482 -0.255221 -0.050000
v -0.124518 -0.255221 0.050000
v -0.124518 -0.255221 -0.050000
v -0.124518 -0.343221 0.050000
v -0.124518 -0.343221 -0.050000
v 0.271482 -0.343221 0.050000
v 0.271482 -0.343221 -0.050000
v 0.271482 0.338779 0.050000
v 0.271482 0.338779 -0.050000
v -0.115518 0.338779 0.050000
v -0.115518 0.338779 -0.050000
v -0.115518 0.250779 0.050000
v -0.115518 0.250779 -0.050000
v -0.720518 -0.343221 0.050000
v -0.720518 -0.343221 -0.050000
v -0.629518 -0.142221 0.050000
v -0.629518 -0.142221 -0.050000
v -0.339518 -0.142221 0.050000
v -0.339518 -0.142221 -0.050000
v -0.253518 -0.343221 0.050000
v -0.253518 -0.343221 -0.050000
v -0.153518 -0.343221 0.050000
v -0.153518 -0.343221 -0.050000
v -0.446518 0.342779 0.050000
v -0.446518 0.342779 -0.050000
v -0.515518 0.342779 0.050000
v -0.515518 0.342779 -0.050000
v -0.820518 -0.343221 0.050000
v -0.820518 -0.343221 -0.050000
v -0.589518 -0.054221 0.050000
v -0.589518 -0.054221 -0.050000
v -0.479518 0.192779 0.050000
v -0.479518 0.192779 -0.050000
v -0.377518 -0.054221 0.050000
v -0.377518 -0.054221 -0.050000
v -1.102916 0.337274 0.050000
v -1.102916 0.337274 -0.050000
v -1.134028 0.332825 0.050000
v -1.134028 0.332825 -0.050000
v -1.162737 0.325529 0.050000
v -1.162737 0.325529 -0.050000
v -1.188926 0.315482 0.050000
v -1.188926 0.315482 -0.050000
v -1.212476 0.302783 0.050000
v -1.212476 0.302783 -0.050000
v -1.233268 0.287529 0.050000
v -1.233268 0.287529 -0.050000
v -1.251186 0.269816 0.050000
v -1.251186 0.269816 -0.050000
v -1.266111 0.249742 0.050000
v -1.266111 0.249742 -0.050000
v -1.277925 0.227404 0.050000
v -1.277925 0.227404 -0.050000
v -1.286509 0.202899 0.050000
v -1.286509 0.202899 -0.050000
v -1.291746 0.176325 0.050000
v -1.291746 0.176325 -0.050000
v -1.293518 0.147779 0.050000
v -1.293518 0.147779 -0.050000
v -1.292669 0.128451 0.050000
v -1.292669 0.128451 -0.050000
v -1.290143 0.109992 0.050000
v -1.290143 0.109992 -0.050000
v -1.285972 0.092435 0.050000
v -1.285972 0.092435 -0.050000
v -1.280185 0.075816 0.050000
v -1.280185 0.075816 -0.050000
v -1.272815 0.060169 0.050000
v -1.272815 0.060169 -0.050000
v -1.263893 0.045529 0.050000
v -1.263893 0.045529 -0.050000
v -1.253451 0.031930 0.050000
v -1.253451 0.031930 -0.050000
v -1.241518 0.019408 0.050000
v -1.241518 0.019408 -0.050000
v -1.228128 0.007997 0.050000
v -1.228128 0.007997 -0.050000
v -1.213310 -0.002268 0.050000
v -1.213310 -0.002268 -0.050000
v -1.197096 -0.011352 0.050000
v -1.197096 -0.011352 -0.050000
v -1.179518 -0.019221 0.050000
v -1.179518 -0.019221 -0.050000
v -1.194540 -0.029930 0.050000
v -1.194540 -0.029930 -0.050000
v -1.208694 -0.041555 0.050000
v -1.208694 -0.041555 -0.050000
v -1.222112 -0.054096 0.050000
v -1.222112 -0.054096 -0.050000
v -1.234926 -0.067555 0.050000
v -1.234926 -0.067555 -0.050000
v -1.247267 -0.081930 0.050000
v -1.247267 -0.081930 -0.050000
v -1.259268 -0.097221 0.050000
v -1.259268 -0.097221 -0.050000
v -1.271061 -0.113430 0.050000
v -1.271061 -0.113430 -0.050000
v -1.282778 -0.130555 0.050000
v -1.282778 -0.130555 -0.050000
v -1.294550 -0.148596 0.050000
v -1.294550 -0.148596 -0.050000
v -1.306509 -0.167555 0.050000
v -1.306509 -0.167555 -0.050000
v -1.318788 -0.187430 0.050000
v -1.318788 -0.187430 -0.050000
v -1.331518 -0.208221 0.050000
v -1.331518 -0.208221 -0.050000
v -1.338543 -0.219510 0.050000
v -1.338543 -0.219510 -0.050000
v -1.345213 -0.230027 0.050000
v -1.345213 -0.230027 -0.050000
v -1.351675 -0.240003 0.050000
v -1.351675 -0.240003 -0.050000
v -1.358074 -0.249666 0.050000
v -1.358074 -0.249666 -0.050000
v -1.364557 -0.259246 0.050000
v -1.364557 -0.259246 -0.050000
v -1.371268 -0.268971 0.050000
v -1.371268 -0.268971 -0.050000
v -1.378355 -0.279072 0.050000
v -1.378355 -0.279072 -0.050000
v -1.385963 -0.289777 0.050000
v -1.385963 -0.289777 -0.050000
v -1.394237 -0.301315 0.050000
v -1.394237 -0.301315 -0.050000
v -1.403324 -0.313916 0.050000
v -1.403324 -0.313916 -0.050000
v -1.413369 -0.327808 0.050000
v -1.413369 -0.327808 -0.050000
v -1.424518 -0.343221 0.050000
v -1.424518 -0.343221 -0.050000
v -1.307518 -0.343221 0.050000
v -1.307518 -0.343221 -0.050000
v -1.217518 -0.203221 0.050000
v -1.217518 -0.203221 -0.050000
v -1.196005 -0.170742 0.050000
v -1.196005 -0.170742 -0.050000
v -1.176333 -0.143055 0.050000
v -1.176333 -0.143055 -0.050000
v -1.158300 -0.119784 0.050000
v -1.158300 -0.119784 -0.050000
v -1.141703 -0.100555 0.050000
v -1.141703 -0.100555 -0.050000
v -1.126344 -0.084992 0.050000
v -1.126344 -0.084992 -0.050000
v -1.112018 -0.072721 0.050000
v -1.112018 -0.072721 -0.050000
v -1.098527 -0.063367 0.050000
v -1.098527 -0.063367 -0.050000
v -1.085667 -0.056555 0.050000
v -1.085667 -0.056555 -0.050000
v -1.073237 -0.051909 0.050000
v -1.073237 -0.051909 -0.050000
v -1.061037 -0.049055 0.050000
v -1.061037 -0.049055 -0.050000
v -1.048864 -0.047617 0.050000
v -1.048864 -0.047617 -0.050000
v -1.036518 -0.047221 0.050000
v -1.036518 -0.047221 -0.050000
v -0.995518 -0.047221 0.050000
v -0.995518 -0.047221 -0.050000
v -0.995518 -0.343221 0.050000
v -0.995518 -0.343221 -0.050000
v -0.897518 -0.343221 0.050000
v -0.897518 -0.343221 -0.050000
v -0.897518 0.338779 0.050000
v -0.897518 0.338779 -0.050000
v -1.069518 0.338779 0.050000
v -1.069518 0.338779 -0.050000
v -1.058518 0.040779 0.050000
v -1.058518 0.040779 -0.050000
v -1.083231 0.041874 0.050000
v -1.083231 0.041874 -0.050000
v -1.104972 0.045043 0.050000
v -1.104972 0.045043 -0.050000
v -1.123893 0.050107 0.050000
v -1.123893 0.050107 -0.050000
v -1.140148 0.056890 0.050000
v -1.140148 0.056890 -0.050000
v -1.153888 0.065214 0.050000
v -1.153888 0.065214 -0.050000
v -1.165268 0.074904 0.050000
v -1.165268 0.074904 -0.050000
v -1.174439 0.085780 0.050000
v -1.174439 0.085780 -0.050000
v -1.181555 0.097668 0.050000
v -1.181555 0.097668 -0.050000
v -1.186768 0.110388 0.050000
v -1.186768 0.110388 -0.050000
v -1.190231 0.123765 0.050000
v -1.190231 0.123765 -0.050000
v -1.192097 0.137621 0.050000
v -1.192097 0.137621 -0.050000
v -1.192518 0.151779 0.050000
v -1.192518 0.151779 -0.050000
v -1.191486 0.167250 0.050000
v -1.191486 0.167250 -0.050000
v -1.188842 0.181631 0.050000
v -1.188842 0.181631 -0.050000
v -1.184518 0.194872 0.050000
v -1.184518 0.194872 -0.050000
v -1.178444 0.206927 0.050000
v -1.178444 0.206927 -0.050000
v -1.170550 0.217745 0.050000
v -1.170550 0.217745 -0.050000
v -1.160768 0.227279 0.050000
v -1.160768 0.227279 -0.050000
v -1.149027 0.235479 0.050000
v -1.149027 0.235479 -0.050000
v -1.135259 0.242297 0.050000
v -1.135259 0.242297 -0.050000
v -1.119393 0.247685 0.050000
v -1.119393 0.247685 -0.050000
v -1.101361 0.251594 0.050000
v -1.101361 0.251594 -0.050000
v -1.081092 0.253974 0.050000
v -1.081092 0.253974 -0.050000
v -1.058518 0.254779 0.050000
v -1.058518 0.254779 -0.050000
v -0.995518 0.254779 0.050000
v -0.995518 0.254779 -0.050000
v -0.995518 0.040779 0.050000
v -0.995518 0.040779 -0.050000
vn -0.0000 -0.0000 -1.0000
vn -0.0000 -0.0000 1.0000
vn 0.4457 -0.8952 -0.0000
vn 0.4763 -0.8793 -0.0000
vn 0.4117 -0.9113 -0.0000
vn 0.3742 -0.9273 -0.0000
vn 0.3334 -0.9428 -0.0000
vn 0.2897 -0.9571 -0.0000
vn 0.2434 -0.9699 -0.0000
vn 0.1952 -0.9808 -0.0000
vn 0.1460 -0.9893 -0.0000
vn 0.0965 -0.9953 -0.0000
vn 0.0477 -0.9989 -0.0000
vn -0.0180 -0.9998 -0.0000
vn -0.1203 -0.9927 -0.0000
vn -0.2418 -0.9703 -0.0000
vn -0.3623 -0.9320 -0.0000
vn -0.4793 -0.8776 -0.0000
vn -0.5902 -0.8073 -0.0000
vn -0.6922 -0.7217 -0.0000
vn -0.7829 -0.6221 -0.0000
vn -0.8599 -0.5105 -0.0000
vn -0.9212 -0.3892 -0.0000
vn -0.9652 -0.2614 -0.0000
vn -0.9915 -0.1305 -0.0000
vn -1.0000 -0.0015 -0.0000
vn -0.9921 0.1257 -0.0000
vn -0.9670 0.2546 -0.0000
vn -0.9921 0.1256 -0.0000
vn -0.9234 0.3838 -0.0000
vn -0.8609 0.5087 -0.0000
vn -0.7808 0.6248 -0.0000
vn -0.6854 0.7282 -0.0000
vn -0.5784 0.8158 -0.0000
vn -0.4637 0.8860 -0.0000
vn -0.3454 0.9385 -0.0000
vn -0.2269 0.9739 -0.0000
vn -0.1113 0.9938 -0.0000
vn -0.2270 0.9739 -0.0000
vn -0.0128 0.9999 -0.0000
vn 0.0569 0.9984 -0.0000
vn 0.1116 0.9938 -0.0000
vn 0.1639 0.9865 -0.0000
vn 0.2138 0.9769 -0.0000
vn 0.2616 0.9652 -0.0000
vn 0.3072 0.9516 -0.0000
vn 0.3509 0.9364 -0.0000
vn 0.3927 0.9196 -0.0000
vn 0.4329 0.9014 -0.0000
vn 0.4716 0.8818 -0.0000
vn 0.5088 0.8609 -0.0000
vn -0.4864 0.8737 -0.0000
vn -0.8517 -0.5240 -0.0000
vn -0.4374 -0.8993 -0.0000
vn -0.4081 -0.9129 -0.0000
vn -0.3749 -0.9271 -0.0000
vn -0.3381 -0.9411 -0.0000
vn -0.2984 -0.9544 -0.0000
vn -0.2565 -0.9666 -0.0000
vn -0.2131 -0.9770 -0.0000
vn -0.1690 -0.9856 -0.0000
vn -0.1251 -0.9922 -0.0000
vn -0.0819 -0.9966 -0.0000
vn -0.1250 -0.9922 -0.0000
vn -0.0401 -0.9992 -0.0000
vn 0.0226 -0.9997 -0.0000
vn 0.1330 -0.9911 -0.0000
vn 0.2704 -0.9628 -0.0000
vn 0.4061 -0.9138 -0.0000
vn 0.5336 -0.8457 -0.0000
vn 0.6474 -0.7621 -0.0000
vn 0.7446 -0.6675 -0.0000
vn 0.8244 -0.5661 -0.0000
vn 0.8876 -0.4607 -0.0000
vn 0.8243 -0.5661 -0.0000
vn 0.9358 -0.3524 -0.0000
vn 0.9705 -0.2409 -0.0000
vn 0.9923 -0.1241 -0.0000
vn 1.0000 -0.0004 -0.0000
vn 0.9918 0.1279 -0.0000
vn 0.9664 0.2571 -0.0000
vn 0.9232 0.3844 -0.0000
vn 0.8625 0.5061 -0.0000
vn 0.7855 0.6188 -0.0000
vn 0.6942 0.7198 -0.0000
vn 0.5911 0.8066 -0.0000
vn 0.4790 0.8778 -0.0000
vn 0.3610 0.9325 -0.0000
vn 0.2401 0.9708 -0.0000
vn 0.1190 0.9929 -0.0000
vn 0.0192 0.9998 -0.0000
vn -0.0408 0.9992 -0.0000
vn -0.0816 0.9967 -0.0000
vn -0.1217 0.9926 -0.0000
vn -0.1606 0.9870 -0.0000
vn -0.1976 0.9803 -0.0000
vn -0.2325 0.9726 -0.0000
vn -0.2648 0.9643 -0.0000
vn -0.2945 0.9557 -0.0000
vn -0.3214 0.9469 -0.0000
vn -0.2945 0.9556 -0.0000
vn -0.3457 0.9384 -0.0000
vn -0.3673 0.9301 -0.0000
vn -0.8299 0.5579 -0.0000
vn -0.5047 -0.8633 -0.0000
vn -0.7071 -0.7071 -0.0000
vn -0.7071 0.7071 -0.0000
vn 0.7071 -0.7071 -0.0000
vn 0.7071 0.7071 -0.0000
vn 0.5420 -0.8404 -0.0000
vn -0.5508 -0.8347 -0.0000
vn -0.5507 -0.8347 -0.0000
vn 0.8345 -0.5510 -0.0000
vn 0.5510 0.8345 -0.0000
vn -0.5449 0.8385 -0.0000
vn -0.8385 -0.5449 -0.0000
vn -0.0137 -0.9999 -0.0000
vn 0.8387 0.5446 -0.0000
vn -0.8311 0.5560 -0.0000
vn -0.0136 -0.9999 -0.0000
vn -0.8312 0.5560 -0.0000
vn -0.1942 0.9810 -0.0000
vn -0.0934 0.9956 -0.0000
vn -0.3028 0.9531 -0.0000
vn -0.4173 0.9088 -0.0000
vn -0.5344 0.8453 -0.0000
vn -0.6490 0.7608 -0.0000
vn -0.7549 0.6558 -0.0000
vn -0.8457 0.5336 -0.0000
vn -0.9164 0.4002 -0.0000
vn -0.9649 0.2627 -0.0000
vn -0.9918 0.1279 -0.0000
vn -1.0000 0.0090 -0.0000
vn -0.9960 -0.0898 -0.0000
vn -0.9830 -0.1836 -0.0000
vn -0.9599 -0.2804 -0.0000
vn -0.9258 -0.3780 -0.0000
vn -0.8806 -0.4739 -0.0000
vn -0.8247 -0.5655 -0.0000
vn -0.7596 -0.6504 -0.0000
vn -0.6872 -0.7265 -0.0000
vn -0.6098 -0.7926 -0.0000
vn -0.5297 -0.8482 -0.0000
vn -0.4492 -0.8935 -0.0000
vn -0.9951 -0.0990 -0.0000
vn -0.6079 0.7940 -0.0000
vn -0.6591 0.7520 -0.0000
vn -0.7038 0.7104 -0.0000
vn -0.7417 0.6707 -0.0000
vn -0.7729 0.6345 -0.0000
vn -0.7978 0.6030 -0.0000
vn -0.8171 0.5766 -0.0000
vn -0.8315 0.5556 -0.0000
vn -0.8417 0.5400 -0.0000
vn -0.8483 0.5296 -0.0000
vn -0.8518 0.5239 -0.0000
vn -0.8509 0.5253 -0.0000
vn -0.8468 0.5320 -0.0000
vn -0.8419 0.5396 -0.0000
vn -0.8365 0.5479 -0.0000
vn -0.8310 0.5563 -0.0000
vn -0.8256 0.5642 -0.0000
vn -0.8208 0.5712 -0.0000
vn -0.8169 0.5768 -0.0000
vn -0.8139 0.5810 -0.0000
vn -0.8119 0.5838 -0.0000
vn -0.8107 0.5854 -0.0000
vn -0.8103 0.5860 -0.0000
vn -0.8905 -0.4549 -0.0000
vn 0.4792 -0.8777 -0.0000
vn -0.8905 -0.4550 -0.0000
vn 0.8375 -0.5465 -0.0000
vn 0.8246 -0.5658 -0.0000
vn 0.8030 -0.5960 -0.0000
vn 0.7740 -0.6332 -0.0000
vn 0.7348 -0.6783 -0.0000
vn 0.6817 -0.7316 -0.0000
vn 0.6110 -0.7917 -0.0000
vn 0.5199 -0.8542 -0.0000
vn 0.4100 -0.9121 -0.0000
vn 0.2895 -0.9572 -0.0000
vn 0.1728 -0.9850 -0.0000
vn 0.0747 -0.9972 -0.0000
vn 0.0160 -0.9999 -0.0000
vn -0.0225 0.9997 -0.0000
vn 0.0944 0.9955 -0.0000
vn 0.0221 0.9998 -0.0000
vn 0.2017 0.9794 -0.0000
vn 0.3225 0.9466 -0.0000
vn 0.4529 0.8916 -0.0000
vn 0.5851 0.8110 -0.0000
vn 0.7088 0.7054 -0.0000
vn 0.8139 0.5810 -0.0000
vn 0.8942 0.4477 -0.0000
vn 0.9489 0.3156 -0.0000
vn 0.9813 0.1924 -0.0000
vn 0.9967 0.0817 -0.0000
vn 0.9998 -0.0184 -0.0000
vn 0.9923 -0.1239 -0.0000
vn 0.9692 -0.2462 -0.0000
vn 0.9245 -0.3813 -0.0000
vn 0.8533 -0.5215 -0.0000
vn 0.7555 -0.6551 -0.0000
vn 0.6374 -0.7705 -0.0000
vn 0.5096 -0.8604 -0.0000
vn 0.3835 -0.9235 -0.0000
vn 0.2671 -0.9637 -0.0000
vn 0.1644 -0.9864 -0.0000
vn 0.0762 -0.9971 -0.0000
vn 0.0178 -0.9998 -0.0000
vt 0.688172 0.000000
vt 0.989247 0.000000
vt 0.698925 0.000000
vt 0.709677 0.000000
vt 0.000000 0.000000
vt 0.010753 0.000000
vt 0.021505 0.000000
vt 0.032258 0.000000
vt 0.043011 0.000000
vt 0.053763 0.000000
vt 0.064516 0.000000
vt 0.978495 0.000000
vt 0.075269 0.000000
vt 1.000000 0.000000
vt 0.967742 0.000000
vt 0.956989 0.000000
vt 0.946237 0.000000
vt 0.086022 0.000000
vt 0.935484 0.000000
vt 0.924731 0.000000
vt 0.913979 0.000000
vt 0.096774 0.000000
vt 0.903226 0.000000
vt 0.892473 0.000000
vt 0.881720 0.000000
vt 0.107527 0.000000
vt 0.870968 0.000000
vt 0.860215 0.000000
vt 0.118280 0.000000
vt 0.849462 0.000000
vt 0.838710 0.000000
vt 0.129032 0.000000
vt 0.827957 0.000000
vt 0.139785 0.000000
vt 0.817204 0.000000
vt 0.806452 0.000000
vt 0.150538 0.000000
vt 0.795699 0.000000
vt 0.161290 0.000000
vt 0.784946 0.000000
vt 0.172043 0.000000
vt 0.774194 0.000000
vt 0.763441 0.000000
vt 0.182796 0.000000
vt 0.752688 0.000000
vt 0.741935 0.000000
vt 0.193548 0.000000
vt 0.731183 0.000000
vt 0.720430 0.000000
vt 0.666667 0.000000
vt 0.204301 0.000000
vt 0.215054 0.000000
vt 0.225806 0.000000
vt 0.236559 0.000000
vt 0.247312 0.000000
vt 0.258065 0.000000
vt 0.268817 0.000000
vt 0.655914 0.000000
vt 0.645161 0.000000
vt 0.279570 0.000000
vt 0.677419 0.000000
vt 0.634409 0.000000
vt 0.623656 0.000000
vt 0.612903 0.000000
vt 0.290323 0.000000
vt 0.602151 0.000000
vt 0.591398 0.000000
vt 0.301075 0.000000
vt 0.580645 0.000000
vt 0.311828 0.000000
vt 0.569892 0.000000
vt 0.322581 0.000000
vt 0.559140 0.000000
vt 0.333333 0.000000
vt 0.548387 0.000000
vt 0.344086 0.000000
vt 0.537634 0.000000
vt 0.354839 0.000000
vt 0.365591 0.000000
vt 0.526882 0.000000
vt 0.376344 0.000000
vt 0.516129 0.000000
vt 0.387097 0.000000
vt 0.397849 0.000000
vt 0.408602 0.000000
vt 0.419355 0.000000
vt 0.430108 0.000000
vt 0.440860 0.000000
vt 0.451613 0.000000
vt 0.462366 0.000000
vt 0.473118 0.000000
vt 0.483871 0.000000
vt 0.494624 0.000000
vt 0.505376 0.000000
vt 0.400000 0.000000
vt 0.600000 0.000000
vt 0.500000 0.000000
vt 0.900000 0.000000
vt 0.700000 0.000000
vt 0.800000 0.000000
vt 0.200000 0.000000
vt 0.100000 0.000000
vt 0.300000 0.000000
vt 0.727273 0.000000
vt 0.818182 0.000000
vt 0.909091 0.000000
vt 0.090909 0.000000
vt 0.363636 0.000000
vt 0.181818 0.000000
vt 0.272727 0.000000
vt 0.454545 0.000000
vt 0.545455 0.000000
vt 0.636364 0.000000
vt 0.855670 0.000000
vt 0.876289 0.000000
vt 0.865979 0.000000
vt 0.886598 0.000000
vt 0.896907 0.000000
vt 0.845361 0.000000
vt 0.907216 0.000000
vt 0.917526 0.000000
vt 0.927835 0.000000
vt 0.835052 0.000000
vt 0.938144 0.000000
vt 0.948454 0.000000
vt 0.958763 0.000000
vt 0.824742 0.000000
vt 0.969072 0.000000
vt 0.979381 0.000000
vt 0.989691 0.000000
vt 0.814433 0.000000
vt 0.092784 0.000000
vt 0.082474 0.000000
vt 0.072165 0.000000
vt 0.061856 0.000000
vt 0.051546 0.000000
vt 0.041237 0.000000
vt 0.030928 0.000000
vt 0.020619 0.000000
vt 0.010309 0.000000
vt 0.804124 0.000000
vt 0.113402 0.000000
vt 0.103093 0.000000
vt 0.123711 0.000000
vt 0.134021 0.000000
vt 0.144330 0.000000
vt 0.793814 0.000000
vt 0.154639 0.000000
vt 0.164948 0.000000
vt 0.783505 0.000000
vt 0.175258 0.000000
vt 0.185567 0.000000
vt 0.773196 0.000000
vt 0.195876 0.000000
vt 0.762887 0.000000
vt 0.206186 0.000000
vt 0.216495 0.000000
vt 0.752577 0.000000
vt 0.226804 0.000000
vt 0.742268 0.000000
vt 0.237113 0.000000
vt 0.247423 0.000000
vt 0.731959 0.000000
vt 0.257732 0.000000
vt 0.721649 0.000000
vt 0.268041 0.000000
vt 0.711340 0.000000
vt 0.278351 0.000000
vt 0.701031 0.000000
vt 0.288660 0.000000
vt 0.690722 0.000000
vt 0.298969 0.000000
vt 0.474227 0.000000
vt 0.494845 0.000000
vt 0.484536 0.000000
vt 0.309278 0.000000
vt 0.463918 0.000000
vt 0.680412 0.000000
vt 0.453608 0.000000
vt 0.319588 0.000000
vt 0.443299 0.000000
vt 0.432990 0.000000
vt 0.329897 0.000000
vt 0.422680 0.000000
vt 0.670103 0.000000
vt 0.412371 0.000000
vt 0.340206 0.000000
vt 0.402062 0.000000
vt 0.391753 0.000000
vt 0.350515 0.000000
vt 0.381443 0.000000
vt 0.371134 0.000000
vt 0.360825 0.000000
vt 0.659794 0.000000
vt 0.505155 0.000000
vt 0.649485 0.000000
vt 0.515464 0.000000
vt 0.525773 0.000000
vt 0.536082 0.000000
vt 0.639175 0.000000
vt 0.546392 0.000000
vt 0.556701 0.000000
vt 0.567010 0.000000
vt 0.628866 0.000000
vt 0.577320 0.000000
vt 0.587629 0.000000
vt 0.597938 0.000000
vt 0.618557 0.000000
vt 0.608247 0.000000
vt 0.010204 1.000000
vt 0.000000 1.000000
vt 0.020408 1.000000
vt 0.010204 0.000000
vt 0.030612 1.000000
vt 0.020408 0.000000
vt 0.040816 1.000000
vt 0.030612 0.000000
vt 0.051020 1.000000
vt 0.040816 0.000000
vt 0.061224 1.000000
vt 0.051020 0.000000
vt 0.071429 1.000000
vt 0.061224 0.000000
vt 0.081633 1.000000
vt 0.071429 0.000000
vt 0.091837 1.000000
vt 0.081633 0.000000
vt 0.102041 1.000000
vt 0.091837 0.000000
vt 0.112245 1.000000
vt 0.102041 0.000000
vt 0.122449 1.000000
vt 0.112245 0.000000
vt 0.132653 1.000000
vt 0.122449 0.000000
vt 0.142857 1.000000
vt 0.132653 0.000000
vt 0.153061 1.000000
vt 0.142857 0.000000
vt 0.163265 1.000000
vt 0.153061 0.000000
vt 0.173469 1.000000
vt 0.163265 0.000000
vt 0.183673 1.000000
vt 0.173469 0.000000
vt 0.193878 1.000000
vt 0.183673 0.000000
vt 0.204082 1.000000
vt 0.193878 0.000000
vt 0.214286 1.000000
vt 0.204082 0.000000
vt 0.224490 1.000000
vt 0.214286 0.000000
vt 0.234694 1.000000
vt 0.224490 0.000000
vt 0.244898 1.000000
vt 0.234694 0.000000
vt 0.255102 1.000000
vt 0.244898 0.000000
vt 0.265306 1.000000
vt 0.255102 0.000000
vt 0.275510 1.000000
vt 0.265306 0.000000
vt 0.285714 1.000000
vt 0.275510 0.000000
vt 0.295918 1.000000
vt 0.285714 0.000000
vt 0.306122 1.000000
vt 0.295918 0.000000
vt 0.316327 1.000000
vt 0.306122 0.000000
vt 0.326531 1.000000
vt 0.316327 0.000000
vt 0.336735 1.000000
vt 0.326531 0.000000
vt 0.346939 1.000000
vt 0.336735 0.000000
vt 0.357143 1.000000
vt 0.346939 0.000000
vt 0.367347 1.000000
vt 0.357143 0.000000
vt 0.377551 1.000000
vt 0.367347 0.000000
vt 0.387755 1.000000
vt 0.377551 0.000000
vt 0.397959 1.000000
vt 0.387755 0.000000
vt 0.408163 1.000000
vt 0.397959 0.000000
vt 0.418367 1.000000
vt 0.408163 0.000000
vt 0.428571 1.000000
vt 0.418367 0.000000
vt 0.438776 1.000000
vt 0.428571 0.000000
vt 0.448980 1.000000
vt 0.438776 0.000000
vt 0.459184 1.000000
vt 0.448980 0.000000
vt 0.469388 1.000000
vt 0.459184 0.000000
vt 0.479592 1.000000
vt 0.469388 0.000000
vt 0.489796 1.000000
vt 0.479592 0.000000
vt 0.500000 1.000000
vt 0.489796 0.000000
vt 0.510204 1.000000
vt 0.520408 1.000000
vt 0.510204 0.000000
vt 0.530612 1.000000
vt 0.520408 0.000000
vt 0.540816 1.000000
vt 0.530612 0.000000
vt 0.551020 1.000000
vt 0.540816 0.000000
vt 0.561224 1.000000
vt 0.551020 0.000000
vt 0.571429 1.000000
vt 0.561224 0.000000
vt 0.581633 1.000000
vt 0.571429 0.000000
vt 0.591837 1.000000
vt 0.581633 0.000000
vt 0.602041 1.000000
vt 0.591837 0.000000
vt 0.612245 1.000000
vt 0.602041 0.000000
vt 0.622449 1.000000
vt 0.612245 0.000000
vt 0.632653 1.000000
vt 0.622449 0.000000
vt 0.642857 1.000000
vt 0.632653 0.000000
vt 0.653061 1.000000
vt 0.642857 0.000000
vt 0.663265 1.000000
vt 0.653061 0.000000
vt 0.673469 1.000000
vt 0.663265 0.000000
vt 0.683673 1.000000
vt 0.673469 0.000000
vt 0.693878 1.000000
vt 0.683673 0.000000
vt 0.704082 1.000000
vt 0.693878 0.000000
vt 0.714286 1.000000
vt 0.704082 0.000000
vt 0.724490 1.000000
vt 0.714286 0.000000
vt 0.734694 1.000000
vt 0.724490 0.000000
vt 0.744898 1.000000
vt 0.734694 0.000000
vt 0.755102 1.000000
vt 0.744898 0.000000
vt 0.765306 1.000000
vt 0.755102 0.000000
vt 0.775510 1.000000
vt 0.765306 0.000000
vt 0.785714 1.000000
vt 0.775510 0.000000
vt 0.795918 1.000000
vt 0.785714 0.000000
vt 0.806122 1.000000
vt 0.795918 0.000000
vt 0.816327 1.000000
vt 0.806122 0.000000
vt 0.826531 1.000000
vt 0.816327 0.000000
vt 0.836735 1.000000
vt 0.826531 0.000000
vt 0.846939 1.000000
vt 0.836735 0.000000
vt 0.857143 1.000000
vt 0.846939 0.000000
vt 0.867347 1.000000
vt 0.857143 0.000000
vt 0.877551 1.000000
vt 0.867347 0.000000
vt 0.887755 1.000000
vt 0.877551 0.000000
vt 0.897959 1.000000
vt 0.887755 0.000000
vt 0.908163 1.000000
vt 0.897959 0.000000
vt 0.918367 1.000000
vt 0.908163 0.000000
vt 0.928571 1.000000
vt 0.918367 0.000000
vt 0.938776 1.000000
vt 0.928571 0.000000
vt 0.948980 1.000000
vt 0.938776 0.000000
vt 0.959184 1.000000
vt 0.948980 0.000000
vt 0.969388 1.000000
vt 0.959184 0.000000
vt 0.979592 1.000000
vt 0.969388 0.000000
vt 0.989796 1.000000
vt 0.979592 0.000000
vt 1.000000 1.000000
vt 0.989796 0.000000
vt 0.166667 1.000000
vt 0.333333 1.000000
vt 0.166667 0.000000
vt 0.666667 1.000000
vt 0.833333 1.000000
vt 0.833333 0.000000
vt 0.083333 1.000000
vt 0.083333 0.000000
vt 0.250000 1.000000
vt 0.250000 0.000000
vt 0.416667 1.000000
vt 0.416667 0.000000
vt 0.583333 1.000000
vt 0.583333 0.000000
vt 0.750000 1.000000
vt 0.750000 0.000000
vt 0.916667 1.000000
vt 0.916667 0.000000
vt 0.125000 1.000000
vt 0.125000 0.000000
vt 0.375000 1.000000
vt 0.375000 0.000000
vt 0.625000 1.000000
vt 0.625000 0.000000
vt 0.875000 1.000000
vt 0.875000 0.000000
vt 0.014925 1.000000
vt 0.029851 1.000000
vt 0.014925 0.000000
vt 0.044776 1.000000
vt 0.029851 0.000000
vt 0.059701 1.000000
vt 0.044776 0.000000
vt 0.074627 1.000000
vt 0.059701 0.000000
vt 0.089552 1.000000
vt 0.074627 0.000000
vt 0.104478 1.000000
vt 0.089552 0.000000
vt 0.119403 1.000000
vt 0.104478 0.000000
vt 0.134328 1.000000
vt 0.119403 0.000000
vt 0.149254 1.000000
vt 0.134328 0.000000
vt 0.164179 1.000000
vt 0.149254 0.000000
vt 0.179104 1.000000
vt 0.164179 0.000000
vt 0.194030 1.000000
vt 0.179104 0.000000
vt 0.208955 1.000000
vt 0.194030 0.000000
vt 0.223881 1.000000
vt 0.208955 0.000000
vt 0.238806 1.000000
vt 0.223881 0.000000
vt 0.253731 1.000000
vt 0.238806 0.000000
vt 0.268657 1.000000
vt 0.253731 0.000000
vt 0.283582 1.000000
vt 0.268657 0.000000
vt 0.298507 1.000000
vt 0.283582 0.000000
vt 0.313433 1.000000
vt 0.298507 0.000000
vt 0.328358 1.000000
vt 0.313433 0.000000
vt 0.343284 1.000000
vt 0.328358 0.000000
vt 0.358209 1.000000
vt 0.343284 0.000000
vt 0.373134 1.000000
vt 0.358209 0.000000
vt 0.388060 1.000000
vt 0.373134 0.000000
vt 0.402985 1.000000
vt 0.388060 0.000000
vt 0.417910 1.000000
vt 0.402985 0.000000
vt 0.432836 1.000000
vt 0.417910 0.000000
vt 0.447761 1.000000
vt 0.432836 0.000000
vt 0.462687 1.000000
vt 0.447761 0.000000
vt 0.477612 1.000000
vt 0.462687 0.000000
vt 0.492537 1.000000
vt 0.477612 0.000000
vt 0.507463 1.000000
vt 0.492537 0.000000
vt 0.522388 1.000000
vt 0.507463 0.000000
vt 0.537313 1.000000
vt 0.522388 0.000000
vt 0.552239 1.000000
vt 0.537313 0.000000
vt 0.567164 1.000000
vt 0.552239 0.000000
vt 0.582090 1.000000
vt 0.567164 0.000000
vt 0.597015 1.000000
vt 0.582090 0.000000
vt 0.611940 1.000000
vt 0.597015 0.000000
vt 0.626866 1.000000
vt 0.611940 0.000000
vt 0.641791 1.000000
vt 0.626866 0.000000
vt 0.656716 1.000000
vt 0.641791 0.000000
vt 0.671642 1.000000
vt 0.656716 0.000000
vt 0.686567 1.000000
vt 0.671642 0.000000
vt 0.701493 1.000000
vt 0.686567 0.000000
vt 0.716418 1.000000
vt 0.701493 0.000000
vt 0.731343 1.000000
vt 0.716418 0.000000
vt 0.746269 1.000000
vt 0.731343 0.000000
vt 0.761194 1.000000
vt 0.746269 0.000000
vt 0.776119 1.000000
vt 0.761194 0.000000
vt 0.791045 1.000000
vt 0.776119 0.000000
vt 0.805970 1.000000
vt 0.791045 0.000000
vt 0.820895 1.000000
vt 0.805970 0.000000
vt 0.835821 1.000000
vt 0.820895 0.000000
vt 0.850746 1.000000
vt 0.835821 0.000000
vt 0.865672 1.000000
vt 0.850746 0.000000
vt 0.880597 1.000000
vt 0.865672 0.000000
vt 0.895522 1.000000
vt 0.880597 0.000000
vt 0.910448 1.000000
vt 0.895522 0.000000
vt 0.925373 1.000000
vt 0.910448 0.000000
vt 0.940298 1.000000
vt 0.925373 0.000000
vt 0.955224 1.000000
vt 0.940298 0.000000
vt 0.970149 1.000000
vt 0.955224 0.000000
vt 0.985075 1.000000
vt 0.970149 0.000000
vt 0.985075 0.000000
vt 0.037037 1.000000
vt 0.074074 1.000000
vt 0.037037 0.000000
vt 0.111111 1.000000
vt 0.074074 0.000000
vt 0.148148 1.000000
vt 0.111111 0.000000
vt 0.185185 1.000000
vt 0.148148 0.000000
vt 0.222222 1.000000
vt 0.185185 0.000000
vt 0.259259 1.000000
vt 0.222222 0.000000
vt 0.296296 1.000000
vt 0.259259 0.000000
vt 0.296296 0.000000
vt 0.370370 1.000000
vt 0.407407 1.000000
vt 0.370370 0.000000
vt 0.444444 1.000000
vt 0.407407 0.000000
vt 0.481481 1.000000
vt 0.444444 0.000000
vt 0.518519 1.000000
vt 0.481481 0.000000
vt 0.555556 1.000000
vt 0.518519 0.000000
vt 0.592593 1.000000
vt 0.555556 0.000000
vt 0.629630 1.000000
vt 0.592593 0.000000
vt 0.629630 0.000000
vt 0.703704 1.000000
vt 0.740741 1.000000
vt 0.703704 0.000000
vt 0.777778 1.000000
vt 0.740741 0.000000
vt 0.814815 1.000000
vt 0.777778 0.000000
vt 0.851852 1.000000
vt 0.814815 0.000000
vt 0.888889 1.000000
vt 0.851852 0.000000
vt 0.925926 1.000000
vt 0.888889 0.000000
vt 0.962963 1.000000
vt 0.925926 0.000000
vt 0.962963 0.000000
s 0
usemtl マテリアル.009
f 65/1/1 93/2/1 66/3/1
f 93/2/1 67/4/1 66/3/1
f 93/2/1 1/5/1 67/4/1
f 93/2/1 2/6/1 1/5/1
f 93/2/1 3/7/1 2/6/1
f 93/2/1 4/8/1 3/7/1
f 93/2/1 5/9/1 4/8/1
f 93/2/1 6/10/1 5/9/1
f 93/2/1 7/11/1 6/10/1
f 93/2/1 92/12/1 7/11/1
f 92/12/1 8/13/1 7/11/1
f 65/1/1 94/14/1 93/2/1
f 91/15/1 8/13/1 92/12/1
f 90/16/1 8/13/1 91/15/1
f 89/17/1 8/13/1 90/16/1
f 89/17/1 9/18/1 8/13/1
f 88/19/1 9/18/1 89/17/1
f 87/20/1 9/18/1 88/19/1
f 86/21/1 9/18/1 87/20/1
f 86/21/1 10/22/1 9/18/1
f 85/23/1 10/22/1 86/21/1
f 84/24/1 10/22/1 85/23/1
f 83/25/1 10/22/1 84/24/1
f 83/25/1 11/26/1 10/22/1
f 82/27/1 11/26/1 83/25/1
f 81/28/1 11/26/1 82/27/1
f 81/28/1 12/29/1 11/26/1
f 80/30/1 12/29/1 81/28/1
f 79/31/1 12/29/1 80/30/1
f 79/31/1 13/32/1 12/29/1
f 78/33/1 13/32/1 79/31/1
f 78/33/1 14/34/1 13/32/1
f 77/35/1 14/34/1 78/33/1
f 76/36/1 14/34/1 77/35/1
f 76/36/1 15/37/1 14/34/1
f 75/38/1 15/37/1 76/36/1
f 75/38/1 16/39/1 15/37/1
f 74/40/1 16/39/1 75/38/1
f 74/40/1 17/41/1 16/39/1
f 73/42/1 17/41/1 74/40/1
f 72/43/1 17/41/1 73/42/1
f 72/43/1 18/44/1 17/41/1
f 71/45/1 18/44/1 72/43/1
f 70/46/1 18/44/1 71/45/1
f 70/46/1 19/47/1 18/44/1
f 69/48/1 19/47/1 70/46/1
f 68/49/1 19/47/1 69/48/1
f 65/1/1 63/50/1 94/14/1
f 63/50/1 68/49/1 94/14/1
f 63/50/1 19/47/1 68/49/1
f 63/50/1 20/51/1 19/47/1
f 63/50/1 21/52/1 20/51/1
f 63/50/1 22/53/1 21/52/1
f 63/50/1 23/54/1 22/53/1
f 63/50/1 24/55/1 23/54/1
f 63/50/1 25/56/1 24/55/1
f 63/50/1 26/57/1 25/56/1
f 63/50/1 62/58/1 26/57/1
f 62/58/1 61/59/1 26/57/1
f 61/59/1 27/60/1 26/57/1
f 65/1/1 64/61/1 63/50/1
f 60/62/1 27/60/1 61/59/1
f 59/63/1 27/60/1 60/62/1
f 58/64/1 27/60/1 59/63/1
f 58/64/1 28/65/1 27/60/1
f 57/66/1 28/65/1 58/64/1
f 56/67/1 28/65/1 57/66/1
f 56/67/1 29/68/1 28/65/1
f 55/69/1 29/68/1 56/67/1
f 55/69/1 30/70/1 29/68/1
f 54/71/1 30/70/1 55/69/1
f 54/71/1 31/72/1 30/70/1
f 53/73/1 31/72/1 54/71/1
f 53/73/1 32/74/1 31/72/1
f 52/75/1 32/74/1 53/73/1
f 52/75/1 33/76/1 32/74/1
f 51/77/1 33/76/1 52/75/1
f 51/77/1 34/78/1 33/76/1
f 51/77/1 35/79/1 34/78/1
f 50/80/1 35/79/1 51/77/1
f 50/80/1 36/81/1 35/79/1
f 49/82/1 36/81/1 50/80/1
f 49/82/1 37/83/1 36/81/1
f 49/82/1 38/84/1 37/83/1
f 49/82/1 39/85/1 38/84/1
f 49/82/1 40/86/1 39/85/1
f 49/82/1 41/87/1 40/86/1
f 49/82/1 42/88/1 41/87/1
f 49/82/1 43/89/1 42/88/1
f 49/82/1 44/90/1 43/89/1
f 49/82/1 45/91/1 44/90/1
f 49/82/1 46/92/1 45/91/1
f 49/82/1 47/93/1 46/92/1
f 49/82/1 48/94/1 47/93/1
f 99/95/1 101/96/1 100/97/1
f 99/95/1 104/98/1 101/96/1
f 104/98/1 102/99/1 101/96/1
f 99/95/1 105/14/1 104/98/1
f 103/100/1 102/99/1 104/98/1
f 99/95/1 97/101/1 105/14/1
f 97/101/1 103/100/1 105/14/1
f 97/101/1 96/102/1 103/100/1
f 96/102/1 102/99/1 103/100/1
f 99/95/1 98/103/1 97/101/1
f 95/5/1 102/99/1 96/102/1
f 114/104/1 106/5/1 115/105/1
f 106/5/1 116/106/1 115/105/1
f 106/5/1 117/14/1 116/106/1
f 114/104/1 107/107/1 106/5/1
f 114/104/1 110/108/1 107/107/1
f 110/108/1 108/109/1 107/107/1
f 110/108/1 109/110/1 108/109/1
f 114/104/1 111/111/1 110/108/1
f 114/104/1 112/112/1 111/111/1
f 114/104/1 113/113/1 112/112/1
f 120/95/1 122/100/1 121/96/1
f 120/95/1 123/14/1 122/100/1
f 120/95/1 118/5/1 123/14/1
f 120/95/1 119/101/1 118/5/1
f 207/114/1 209/115/1 208/116/1
f 207/114/1 210/117/1 209/115/1
f 207/114/1 211/118/1 210/117/1
f 206/119/1 211/118/1 207/114/1
f 206/119/1 212/120/1 211/118/1
f 206/119/1 213/121/1 212/120/1
f 206/119/1 214/122/1 213/121/1
f 205/123/1 214/122/1 206/119/1
f 205/123/1 215/124/1 214/122/1
f 205/123/1 216/125/1 215/124/1
f 205/123/1 217/126/1 216/125/1
f 204/127/1 217/126/1 205/123/1
f 204/127/1 218/128/1 217/126/1
f 204/127/1 219/129/1 218/128/1
f 204/127/1 220/130/1 219/129/1
f 203/131/1 220/130/1 204/127/1
f 203/131/1 133/132/1 220/130/1
f 133/132/1 132/133/1 220/130/1
f 132/133/1 131/134/1 220/130/1
f 131/134/1 130/135/1 220/130/1
f 130/135/1 129/136/1 220/130/1
f 129/136/1 128/137/1 220/130/1
f 128/137/1 127/138/1 220/130/1
f 127/138/1 126/139/1 220/130/1
f 126/139/1 125/140/1 220/130/1
f 125/140/1 124/5/1 220/130/1
f 124/5/1 221/14/1 220/130/1
f 202/141/1 135/142/1 203/131/1
f 135/142/1 134/143/1 203/131/1
f 134/143/1 133/132/1 203/131/1
f 202/141/1 136/144/1 135/142/1
f 202/141/1 137/145/1 136/144/1
f 202/141/1 138/146/1 137/145/1
f 201/147/1 138/146/1 202/141/1
f 201/147/1 139/148/1 138/146/1
f 201/147/1 140/149/1 139/148/1
f 200/150/1 140/149/1 201/147/1
f 200/150/1 141/151/1 140/149/1
f 200/150/1 142/152/1 141/151/1
f 199/153/1 142/152/1 200/150/1
f 199/153/1 143/154/1 142/152/1
f 198/155/1 143/154/1 199/153/1
f 198/155/1 144/156/1 143/154/1
f 198/155/1 145/157/1 144/156/1
f 197/158/1 145/157/1 198/155/1
f 197/158/1 146/159/1 145/157/1
f 196/160/1 146/159/1 197/158/1
f 196/160/1 147/161/1 146/159/1
f 196/160/1 148/162/1 147/161/1
f 195/163/1 148/162/1 196/160/1
f 195/163/1 149/164/1 148/162/1
f 194/165/1 149/164/1 195/163/1
f 194/165/1 150/166/1 149/164/1
f 193/167/1 150/166/1 194/165/1
f 193/167/1 151/168/1 150/166/1
f 192/169/1 151/168/1 193/167/1
f 192/169/1 152/170/1 151/168/1
f 191/171/1 152/170/1 192/169/1
f 191/171/1 153/172/1 152/170/1
f 170/173/1 172/174/1 171/175/1
f 191/171/1 154/176/1 153/172/1
f 169/177/1 172/174/1 170/173/1
f 190/178/1 154/176/1 191/171/1
f 168/179/1 172/174/1 169/177/1
f 190/178/1 155/180/1 154/176/1
f 167/181/1 172/174/1 168/179/1
f 166/182/1 172/174/1 167/181/1
f 190/178/1 156/183/1 155/180/1
f 165/184/1 172/174/1 166/182/1
f 189/185/1 156/183/1 190/178/1
f 164/186/1 172/174/1 165/184/1
f 189/185/1 157/187/1 156/183/1
f 163/188/1 172/174/1 164/186/1
f 162/189/1 172/174/1 163/188/1
f 189/185/1 158/190/1 157/187/1
f 161/191/1 172/174/1 162/189/1
f 160/192/1 172/174/1 161/191/1
f 189/185/1 159/193/1 158/190/1
f 159/193/1 172/174/1 160/192/1
f 189/185/1 172/174/1 159/193/1
f 188/194/1 172/174/1 189/185/1
f 188/194/1 173/195/1 172/174/1
f 187/196/1 173/195/1 188/194/1
f 187/196/1 174/197/1 173/195/1
f 187/196/1 175/198/1 174/197/1
f 187/196/1 176/199/1 175/198/1
f 186/200/1 176/199/1 187/196/1
f 186/200/1 177/201/1 176/199/1
f 186/200/1 178/202/1 177/201/1
f 186/200/1 179/203/1 178/202/1
f 185/204/1 179/203/1 186/200/1
f 185/204/1 180/205/1 179/203/1
f 185/204/1 181/206/1 180/205/1
f 185/204/1 182/207/1 181/206/1
f 184/208/1 182/207/1 185/204/1
f 184/208/1 183/209/1 182/207/1
f 286/1/2 287/3/2 314/2/2
f 314/2/2 287/3/2 288/4/2
f 314/2/2 288/4/2 222/5/2
f 314/2/2 222/5/2 223/6/2
f 314/2/2 223/6/2 224/7/2
f 314/2/2 224/7/2 225/8/2
f 314/2/2 225/8/2 226/9/2
f 314/2/2 226/9/2 227/10/2
f 314/2/2 227/10/2 228/11/2
f 314/2/2 228/11/2 313/12/2
f 313/12/2 228/11/2 229/13/2
f 286/1/2 314/2/2 315/14/2
f 312/15/2 313/12/2 229/13/2
f 311/16/2 312/15/2 229/13/2
f 310/17/2 311/16/2 229/13/2
f 310/17/2 229/13/2 230/18/2
f 309/19/2 310/17/2 230/18/2
f 308/20/2 309/19/2 230/18/2
f 307/21/2 308/20/2 230/18/2
f 307/21/2 230/18/2 231/22/2
f 306/23/2 307/21/2 231/22/2
f 305/24/2 306/23/2 231/22/2
f 304/25/2 305/24/2 231/22/2
f 304/25/2 231/22/2 232/26/2
f 303/27/2 304/25/2 232/26/2
f 302/28/2 303/27/2 232/26/2
f 302/28/2 232/26/2 233/29/2
f 301/30/2 302/28/2 233/29/2
f 300/31/2 301/30/2 233/29/2
f 300/31/2 233/29/2 234/32/2
f 299/33/2 300/31/2 234/32/2
f 299/33/2 234/32/2 235/34/2
f 298/35/2 299/33/2 235/34/2
f 297/36/2 298/35/2 235/34/2
f 297/36/2 235/34/2 236/37/2
f 296/38/2 297/36/2 236/37/2
f 296/38/2 236/37/2 237/39/2
f 295/40/2 296/38/2 237/39/2
f 295/40/2 237/39/2 238/41/2
f 294/42/2 295/40/2 238/41/2
f 293/43/2 294/42/2 238/41/2
f 293/43/2 238/41/2 239/44/2
f 292/45/2 293/43/2 239/44/2
f 291/46/2 292/45/2 239/44/2
f 291/46/2 239/44/2 240/47/2
f 290/48/2 291/46/2 240/47/2
f 289/49/2 290/48/2 240/47/2
f 286/1/2 315/14/2 284/50/2
f 284/50/2 315/14/2 289/49/2
f 284/50/2 289/49/2 240/47/2
f 284/50/2 240/47/2 241/51/2
f 284/50/2 241/51/2 242/52/2
f 284/50/2 242/52/2 243/53/2
f 284/50/2 243/53/2 244/54/2
f 284/50/2 244/54/2 245/55/2
f 284/50/2 245/55/2 246/56/2
f 284/50/2 246/56/2 247/57/2
f 284/50/2 247/57/2 283/58/2
f 283/58/2 247/57/2 282/59/2
f 282/59/2 247/57/2 248/60/2
f 286/1/2 284/50/2 285/61/2
f 281/62/2 282/59/2 248/60/2
f 280/63/2 281/62/2 248/60/2
f 279/64/2 280/63/2 248/60/2
f 279/64/2 248/60/2 249/65/2
f 278/66/2 279/64/2 249/65/2
f 277/67/2 278/66/2 249/65/2
f 277/67/2 249/65/2 250/68/2
f 276/69/2 277/67/2 250/68/2
f 276/69/2 250/68/2 251/70/2
f 275/71/2 276/69/2 251/70/2
f 275/71/2 251/70/2 252/72/2
f 274/73/2 275/71/2 252/72/2
f 274/73/2 252/72/2 253/74/2
f 273/75/2 274/73/2 253/74/2
f 273/75/2 253/74/2 254/76/2
f 272/77/2 273/75/2 254/76/2
f 272/77/2 254/76/2 255/78/2
f 272/77/2 255/78/2 256/79/2
f 271/80/2 272/77/2 256/79/2
f 271/80/2 256/79/2 257/81/2
f 270/82/2 271/80/2 257/81/2
f 270/82/2 257/81/2 258/83/2
f 270/82/2 258/83/2 259/84/2
f 270/82/2 259/84/2 260/85/2
f 270/82/2 260/85/2 261/86/2
f 270/82/2 261/86/2 262/87/2
f 270/82/2 262/87/2 263/88/2
f 270/82/2 263/88/2 264/89/2
f 270/82/2 264/89/2 265/90/2
f 270/82/2 265/90/2 266/91/2
f 270/82/2 266/91/2 267/92/2
f 270/82/2 267/92/2 268/93/2
f 270/82/2 268/93/2 269/94/2
f 320/95/2 321/97/2 322/96/2
f 320/95/2 322/96/2 325/98/2
f 325/98/2 322/96/2 323/99/2
f 320/95/2 325/98/2 326/14/2
f 324/100/2 325/98/2 323/99/2
f 320/95/2 326/14/2 318/101/2
f 318/101/2 326/14/2 324/100/2
f 318/101/2 324/100/2 317/102/2
f 317/102/2 324/100/2 323/99/2
f 320/95/2 318/101/2 319/103/2
f 316/5/2 317/102/2 323/99/2
f 335/104/2 336/105/2 327/5/2
f 327/5/2 336/105/2 337/106/2
f 327/5/2 337/106/2 338/14/2
f 335/104/2 327/5/2 328/107/2
f 335/104/2 328/107/2 331/108/2
f 331/108/2 328/107/2 329/109/2
f 331/108/2 329/109/2 330/110/2
f 335/104/2 331/108/2 332/111/2
f 335/104/2 332/111/2 333/112/2
f 335/104/2 333/112/2 334/113/2
f 341/95/2 342/96/2 343/100/2
f 341/95/2 343/100/2 344/14/2
f 341/95/2 344/14/2 339/5/2
f 341/95/2 339/5/2 340/101/2
f 428/114/2 429/116/2 430/115/2
f 428/114/2 430/115/2 431/117/2
f 428/114/2 431/117/2 432/118/2
f 427/119/2 428/114/2 432/118/2
f 427/119/2 432/118/2 433/120/2
f 427/119/2 433/120/2 434/121/2
f 427/119/2 434/121/2 435/122/2
f 426/123/2 427/119/2 435/122/2
f 426/123/2 435/122/2 436/124/2
f 426/123/2 436/124/2 437/125/2
f 426/123/2 437/125/2 438/126/2
f 425/127/2 426/123/2 438/126/2
f 425/127/2 438/126/2 439/128/2
f 425/127/2 439/128/2 440/129/2
f 425/127/2 440/129/2 441/130/2
f 424/131/2 425/127/2 441/130/2
f 424/131/2 441/130/2 354/132/2
f 354/132/2 441/130/2 353/133/2
f 353/133/2 441/130/2 352/134/2
f 352/134/2 441/130/2 351/135/2
f 351/135/2 441/130/2 350/136/2
f 350/136/2 441/130/2 349/137/2
f 349/137/2 441/130/2 348/138/2
f 348/138/2 441/130/2 347/139/2
f 347/139/2 441/130/2 346/140/2
f 346/140/2 441/130/2 345/5/2
f 345/5/2 441/130/2 442/14/2
f 423/141/2 424/131/2 356/142/2
f 356/142/2 424/131/2 355/143/2
f 355/143/2 424/131/2 354/132/2
f 423/141/2 356/142/2 357/144/2
f 423/141/2 357/144/2 358/145/2
f 423/141/2 358/145/2 359/146/2
f 422/147/2 423/141/2 359/146/2
f 422/147/2 359/146/2 360/148/2
f 422/147/2 360/148/2 361/149/2
f 421/150/2 422/147/2 361/149/2
f 421/150/2 361/149/2 362/151/2
f 421/150/2 362/151/2 363/152/2
f 420/153/2 421/150/2 363/152/2
f 420/153/2 363/152/2 364/154/2
f 419/155/2 420/153/2 364/154/2
f 419/155/2 364/154/2 365/156/2
f 419/155/2 365/156/2 366/157/2
f 418/158/2 419/155/2 366/157/2
f 418/158/2 366/157/2 367/159/2
f 417/160/2 418/158/2 367/159/2
f 417/160/2 367/159/2 368/161/2
f 417/160/2 368/161/2 369/162/2
f 416/163/2 417/160/2 369/162/2
f 416/163/2 369/162/2 370/164/2
f 415/165/2 416/163/2 370/164/2
f 415/165/2 370/164/2 371/166/2
f 414/167/2 415/165/2 371/166/2
f 414/167/2 371/166/2 372/168/2
f 413/169/2 414/167/2 372/168/2
f 413/169/2 372/168/2 373/170/2
f 412/171/2 413/169/2 373/170/2
f 412/171/2 373/170/2 374/172/2
f 391/173/2 392/175/2 393/174/2
f 412/171/2 374/172/2 375/176/2
f 390/177/2 391/173/2 393/174/2
f 411/178/2 412/171/2 375/176/2
f 389/179/2 390/177/2 393/174/2
f 411/178/2 375/176/2 376/180/2
f 388/181/2 389/179/2 393/174/2
f 387/182/2 388/181/2 393/174/2
f 411/178/2 376/180/2 377/183/2
f 386/184/2 387/182/2 393/174/2
f 410/185/2 411/178/2 377/183/2
f 385/186/2 386/184/2 393/174/2
f 410/185/2 377/183/2 378/187/2
f 384/188/2 385/186/2 393/174/2
f 383/189/2 384/188/2 393/174/2
f 410/185/2 378/187/2 379/190/2
f 382/191/2 383/189/2 393/174/2
f 381/192/2 382/191/2 393/174/2
f 410/185/2 379/190/2 380/193/2
f 380/193/2 381/192/2 393/174/2
f 410/185/2 380/193/2 393/174/2
f 409/194/2 410/185/2 393/174/2
f 409/194/2 393/174/2 394/195/2
f 408/196/2 409/194/2 394/195/2
f 408/196/2 394/195/2 395/197/2
f 408/196/2 395/197/2 396/198/2
f 408/196/2 396/198/2 397/199/2
f 407/200/2 408/196/2 397/199/2
f 407/200/2 397/199/2 398/201/2
f 407/200/2 398/201/2 399/202/2
f 407/200/2 399/202/2 400/203/2
f 406/204/2 407/200/2 400/203/2
f 406/204/2 400/203/2 401/205/2
f 406/204/2 401/205/2 402/206/2
f 406/204/2 402/206/2 403/207/2
f 405/208/2 406/204/2 403/207/2
f 405/208/2 403/207/2 404/209/2
s 1
f 446/210/3 443/5/4 444/211/4
f 448/212/5 445/213/3 446/210/3
f 450/214/6 447/215/5 448/212/5
f 452/216/7 449/217/6 450/214/6
f 454/218/8 451/219/7 452/216/7
f 456/220/9 453/221/8 454/218/8
f 458/222/10 455/223/9 456/220/9
f 460/224/11 457/225/10 458/222/10
f 462/226/12 459/227/11 460/224/11
f 464/228/13 461/229/12 462/226/12
f 466/230/14 463/231/13 464/228/13
f 468/232/15 465/233/14 466/230/14
f 470/234/16 467/235/15 468/232/15
f 472/236/17 469/237/16 470/234/16
f 474/238/18 471/239/17 472/236/17
f 476/240/19 473/241/18 474/238/18
f 478/242/20 475/243/19 476/240/19
f 480/244/21 477/245/20 478/242/20
f 482/246/22 479/247/21 480/244/21
f 484/248/23 481/249/22 482/246/22
f 486/250/24 483/251/23 484/248/23
f 488/252/25 485/253/24 486/250/24
f 490/254/26 487/255/25 488/252/25
f 492/256/27 489/257/26 490/254/26
f 494/258/28 491/259/29 492/256/27
f 496/260/30 493/261/28 494/258/28
f 498/262/31 495/263/30 496/260/30
f 500/264/32 497/265/31 498/262/31
f 502/266/33 499/267/32 500/264/32
f 504/268/34 501/269/33 502/266/33
f 506/270/35 503/271/34 504/268/34
f 508/272/36 505/273/35 506/270/35
f 510/274/37 507/275/36 508/272/36
f 512/276/38 509/277/39 510/274/37
f 514/278/40 511/279/38 512/276/38
f 516/280/41 513/281/40 514/278/40
f 518/282/42 515/283/41 516/280/41
f 520/284/43 517/285/42 518/282/42
f 522/286/44 519/287/43 520/284/43
f 524/288/45 521/289/44 522/286/44
f 526/290/46 523/291/45 524/288/45
f 528/292/47 525/293/46 526/290/46
f 530/294/48 527/295/47 528/292/47
f 532/296/49 529/297/48 530/294/48
f 534/298/50 531/299/49 532/296/49
f 536/300/51 533/301/50 534/298/50
f 538/302/52 535/303/51 536/300/51
f 540/304/53 537/305/52 538/302/52
f 542/306/54 539/307/53 540/304/53
f 544/308/55 541/97/54 542/306/54
f 546/309/56 543/310/55 544/308/55
f 548/311/57 545/312/56 546/309/56
f 550/313/58 547/314/57 548/311/57
f 552/315/59 549/316/58 550/313/58
f 554/317/60 551/318/59 552/315/59
f 556/319/61 553/320/60 554/317/60
f 558/321/62 555/322/61 556/319/61
f 560/323/63 557/324/64 558/321/62
f 562/325/65 559/326/63 560/323/63
f 564/327/66 561/328/65 562/325/65
f 566/329/67 563/330/66 564/327/66
f 568/331/68 565/332/67 566/329/67
f 570/333/69 567/334/68 568/331/68
f 572/335/70 569/336/69 570/333/69
f 574/337/71 571/338/70 572/335/70
f 576/339/72 573/340/71 574/337/71
f 578/341/73 575/342/72 576/339/72
f 580/343/74 577/344/75 578/341/73
f 582/345/76 579/346/74 580/343/74
f 584/347/77 581/348/76 582/345/76
f 586/349/78 583/350/77 584/347/77
f 588/351/79 585/352/78 586/349/78
f 590/353/80 587/354/79 588/351/79
f 592/355/81 589/356/80 590/353/80
f 594/357/82 591/358/81 592/355/81
f 596/359/83 593/360/82 594/357/82
f 598/361/84 595/362/83 596/359/83
f 600/363/85 597/364/84 598/361/84
f 602/365/86 599/366/85 600/363/85
f 604/367/87 601/368/86 602/365/86
f 606/369/88 603/370/87 604/367/87
f 608/371/89 605/372/88 606/369/88
f 610/373/90 607/374/89 608/371/89
f 612/375/91 609/376/90 610/373/90
f 614/377/92 611/378/91 612/375/91
f 616/379/93 613/380/92 614/377/92
f 618/381/94 615/382/93 616/379/93
f 620/383/95 617/384/94 618/381/94
f 622/385/96 619/386/95 620/383/95
f 624/387/97 621/388/96 622/385/96
f 626/389/98 623/390/97 624/387/97
f 628/391/99 625/392/98 626/389/98
f 630/393/100 627/394/101 628/391/99
f 632/395/102 629/396/100 630/393/100
f 634/397/103 631/398/102 632/395/102
f 636/399/104 633/400/103 634/397/103
f 638/401/105 635/402/104 636/399/104
f 444/403/4 637/404/105 638/401/105
f 642/405/106 639/5/107 640/211/107
f 644/406/108 641/407/106 642/405/106
f 646/306/109 643/74/108 644/406/108
f 648/408/107 645/97/109 646/306/109
f 650/409/107 647/50/107 648/408/107
f 640/403/107 649/410/107 650/409/107
f 654/411/107 651/5/106 652/211/106
f 656/405/107 653/412/107 654/411/107
f 658/413/106 655/407/107 656/405/107
f 660/406/106 657/414/106 658/413/106
f 662/415/107 659/74/106 660/406/106
f 664/306/107 661/416/107 662/415/107
f 666/417/106 663/97/107 664/306/107
f 668/408/108 665/418/106 666/417/106
f 670/419/109 667/50/108 668/408/108
f 672/409/107 669/420/109 670/419/109
f 674/421/106 671/410/107 672/409/107
f 652/403/106 673/422/106 674/421/106
f 678/423/110 675/5/110 676/211/110
f 680/413/111 677/424/110 678/423/110
f 682/425/112 679/414/112 680/413/111
f 684/306/113 681/426/112 682/425/112
f 686/427/114 683/97/113 684/306/113
f 688/419/115 685/428/114 686/427/114
f 690/429/116 687/420/115 688/419/115
f 676/403/110 689/430/116 690/429/116
f 694/406/117 691/5/118 692/211/118
f 696/408/119 693/74/120 694/406/117
f 692/403/118 695/50/121 696/408/119
f 700/431/122 697/5/123 698/211/123
f 702/432/124 699/433/122 700/431/122
f 704/434/125 701/435/124 702/432/124
f 706/436/126 703/437/125 704/434/125
f 708/438/127 705/439/126 706/436/126
f 710/440/128 707/441/127 708/438/127
f 712/442/129 709/443/128 710/440/128
f 714/444/130 711/445/129 712/442/129
f 716/446/131 713/447/130 714/444/130
f 718/448/132 715/449/131 716/446/131
f 720/450/133 717/451/132 718/448/132
f 722/452/134 719/453/133 720/450/133
f 724/454/135 721/455/134 722/452/134
f 726/456/136 723/457/135 724/454/135
f 728/458/137 725/459/136 726/456/136
f 730/460/138 727/461/137 728/458/137
f 732/462/139 729/463/138 730/460/138
f 734/464/140 731/465/139 732/462/139
f 736/466/141 733/467/140 734/464/140
f 738/468/142 735/469/141 736/466/141
f 740/470/143 737/471/142 738/468/142
f 742/472/144 739/473/143 740/470/143
f 744/474/145 741/475/144 742/472/144
f 746/476/146 743/477/145 744/474/145
f 748/478/147 745/479/146 746/476/146
f 750/480/148 747/481/147 748/478/147
f 752/482/149 749/483/148 750/480/148
f 754/484/150 751/485/149 752/482/149
f 756/486/151 753/487/150 754/484/150
f 758/488/152 755/489/151 756/486/151
f 760/490/153 757/491/152 758/488/152
f 762/492/154 759/493/153 760/490/153
f 764/494/155 761/495/154 762/492/154
f 766/496/156 763/497/155 764/494/155
f 768/498/157 765/499/156 766/496/156
f 770/500/158 767/501/157 768/498/157
f 772/502/159 769/503/158 770/500/158
f 774/504/160 771/505/159 772/502/159
f 776/506/161 773/507/160 774/504/160
f 778/508/162 775/509/161 776/506/161
f 780/510/163 777/511/162 778/508/162
f 782/512/164 779/513/163 780/510/163
f 784/514/165 781/515/164 782/512/164
f 786/516/166 783/517/165 784/514/165
f 788/518/167 785/519/166 786/516/166
f 790/520/168 787/521/167 788/518/167
f 792/522/169 789/523/168 790/520/168
f 794/524/170 791/525/171 792/522/169
f 796/526/172 793/527/170 794/524/170
f 798/528/173 795/529/172 796/526/172
f 800/530/174 797/531/173 798/528/173
f 802/532/175 799/533/174 800/530/174
f 804/534/176 801/535/175 802/532/175
f 806/536/177 803/537/176 804/534/176
f 808/538/178 805/539/177 806/536/177
f 810/540/179 807/541/178 808/538/178
f 812/542/180 809/543/179 810/540/179
f 814/544/181 811/545/180 812/542/180
f 816/546/182 813/547/181 814/544/181
f 818/548/183 815/549/182 816/546/182
f 820/550/184 817/551/183 818/548/183
f 822/552/106 819/553/184 820/550/184
f 824/554/106 821/555/106 822/552/106
f 826/556/108 823/557/106 824/554/106
f 828/558/109 825/559/108 826/556/108
f 830/560/185 827/561/109 828/558/109
f 698/403/123 829/562/185 830/560/185
f 834/563/186 831/5/187 832/211/187
f 836/564/188 833/565/186 834/563/186
f 838/566/189 835/567/188 836/564/188
f 840/568/190 837/569/189 838/566/189
f 842/570/191 839/571/190 840/568/190
f 844/572/192 841/573/191 842/570/191
f 846/574/193 843/575/192 844/572/192
f 848/576/194 845/577/193 846/574/193
f 850/406/195 847/578/194 848/576/194
f 852/579/196 849/74/195 850/406/195
f 854/580/197 851/581/196 852/579/196
f 856/582/198 853/583/197 854/580/197
f 858/584/199 855/585/198 856/582/198
f 860/586/200 857/587/199 858/584/199
f 862/588/201 859/589/200 860/586/200
f 864/590/202 861/591/201 862/588/201
f 866/592/203 863/593/202 864/590/202
f 868/408/204 865/594/203 866/592/203
f 870/595/205 867/50/204 868/408/204
f 872/596/206 869/597/205 870/595/205
f 874/598/207 871/599/206 872/596/206
f 876/600/208 873/601/207 874/598/207
f 878/602/209 875/603/208 876/600/208
f 880/604/210 877/605/209 878/602/209
f 882/606/106 879/607/210 880/604/210
f 884/608/107 881/609/106 882/606/106
f 832/403/187 883/610/107 884/608/107
f 446/210/3 445/213/3 443/5/4
f 448/212/5 447/215/5 445/213/3
f 450/214/6 449/217/6 447/215/5
f 452/216/7 451/219/7 449/217/6
f 454/218/8 453/221/8 451/219/7
f 456/220/9 455/223/9 453/221/8
f 458/222/10 457/225/10 455/223/9
f 460/224/11 459/227/11 457/225/10
f 462/226/12 461/229/12 459/227/11
f 464/228/13 463/231/13 461/229/12
f 466/230/14 465/233/14 463/231/13
f 468/232/15 467/235/15 465/233/14
f 470/234/16 469/237/16 467/235/15
f 472/236/17 471/239/17 469/237/16
f 474/238/18 473/241/18 471/239/17
f 476/240/19 475/243/19 473/241/18
f 478/242/20 477/245/20 475/243/19
f 480/244/21 479/247/21 477/245/20
f 482/246/22 481/249/22 479/247/21
f 484/248/23 483/251/23 481/249/22
f 486/250/24 485/253/24 483/251/23
f 488/252/25 487/255/25 485/253/24
f 490/254/26 489/257/26 487/255/25
f 492/256/27 491/259/29 489/257/26
f 494/258/28 493/261/28 491/259/29
f 496/260/30 495/263/30 493/261/28
f 498/262/31 497/265/31 495/263/30
f 500/264/32 499/267/32 497/265/31
f 502/266/33 501/269/33 499/267/32
f 504/268/34 503/271/34 501/269/33
f 506/270/35 505/273/35 503/271/34
f 508/272/36 507/275/36 505/273/35
f 510/274/37 509/277/39 507/275/36
f 512/276/38 511/279/38 509/277/39
f 514/278/40 513/281/40 511/279/38
f 516/280/41 515/283/41 513/281/40
f 518/282/42 517/285/42 515/283/41
f 520/284/43 519/287/43 517/285/42
f 522/286/44 521/289/44 519/287/43
f 524/288/45 523/291/45 521/289/44
f 526/290/46 525/293/46 523/291/45
f 528/292/47 527/295/47 525/293/46
f 530/294/48 529/297/48 527/295/47
f 532/296/49 531/299/49 529/297/48
f 534/298/50 533/301/50 531/299/49
f 536/300/51 535/303/51 533/301/50
f 538/302/52 537/305/52 535/303/51
f 540/304/53 539/307/53 537/305/52
f 542/306/54 541/97/54 539/307/53
f 544/308/55 543/310/55 541/97/54
f 546/309/56 545/312/56 543/310/55
f 548/311/57 547/314/57 545/312/56
f 550/313/58 549/316/58 547/314/57
f 552/315/59 551/318/59 549/316/58
f 554/317/60 553/320/60 551/318/59
f 556/319/61 555/322/61 553/320/60
f 558/321/62 557/324/64 555/322/61
f 560/323/63 559/326/63 557/324/64
f 562/325/65 561/328/65 559/326/63
f 564/327/66 563/330/66 561/328/65
f 566/329/67 565/332/67 563/330/66
f 568/331/68 567/334/68 565/332/67
f 570/333/69 569/336/69 567/334/68
f 572/335/70 571/338/70 569/336/69
f 574/337/71 573/340/71 571/338/70
f 576/339/72 575/342/72 573/340/71
f 578/341/73 577/344/75 575/342/72
f 580/343/74 579/346/74 577/344/75
f 582/345/76 581/348/76 579/346/74
f 584/347/77 583/350/77 581/348/76
f 586/349/78 585/352/78 583/350/77
f 588/351/79 587/354/79 585/352/78
f 590/353/80 589/356/80 587/354/79
f 592/355/81 591/358/81 589/356/80
f 594/357/82 593/360/82 591/358/81
f 596/359/83 595/362/83 593/360/82
f 598/361/84 597/364/84 595/362/83
f 600/363/85 599/366/85 597/364/84
f 602/365/86 601/368/86 599/366/85
f 604/367/87 603/370/87 601/368/86
f 606/369/88 605/372/88 603/370/87
f 608/371/89 607/374/89 605/372/88
f 610/373/90 609/376/90 607/374/89
f 612/375/91 611/378/91 609/376/90
f 614/377/92 613/380/92 611/378/91
f 616/379/93 615/382/93 613/380/92
f 618/381/94 617/384/94 615/382/93
f 620/383/95 619/386/95 617/384/94
f 622/385/96 621/388/96 619/386/95
f 624/387/97 623/390/97 621/388/96
f 626/389/98 625/392/98 623/390/97
f 628/391/99 627/394/101 625/392/98
f 630/393/100 629/396/100 627/394/101
f 632/395/102 631/398/102 629/396/100
f 634/397/103 633/400/103 631/398/102
f 636/399/104 635/402/104 633/400/103
f 638/401/105 637/404/105 635/402/104
f 444/403/4 443/14/4 637/404/105
f 642/405/106 641/407/106 639/5/107
f 644/406/108 643/74/108 641/407/106
f 646/306/109 645/97/109 643/74/108
f 648/408/107 647/50/107 645/97/109
f 650/409/107 649/410/107 647/50/107
f 640/403/107 639/14/107 649/410/107
f 654/411/107 653/412/107 651/5/106
f 656/405/107 655/407/107 653/412/107
f 658/413/106 657/414/106 655/407/107
f 660/406/106 659/74/106 657/414/106
f 662/415/107 661/416/107 659/74/106
f 664/306/107 663/97/107 661/416/107
f 666/417/106 665/418/106 663/97/107
f 668/408/108 667/50/108 665/418/106
f 670/419/109 669/420/109 667/50/108
f 672/409/107 671/410/107 669/420/109
f 674/421/106 673/422/106 671/410/107
f 652/403/106 651/14/106 673/422/106
f 678/423/110 677/424/110 675/5/110
f 680/413/111 679/414/112 677/424/110
f 682/425/112 681/426/112 679/414/112
f 684/306/113 683/97/113 681/426/112
f 686/427/114 685/428/114 683/97/113
f 688/419/115 687/420/115 685/428/114
f 690/429/116 689/430/116 687/420/115
f 676/403/110 675/14/110 689/430/116
f 694/406/117 693/74/120 691/5/118
f 696/408/119 695/50/121 693/74/120
f 692/403/118 691/14/118 695/50/121
f 700/431/122 699/433/122 697/5/123
f 702/432/124 701/435/124 699/433/122
f 704/434/125 703/437/125 701/435/124
f 706/436/126 705/439/126 703/437/125
f 708/438/127 707/441/127 705/439/126
f 710/440/128 709/443/128 707/441/127
f 712/442/129 711/445/129 709/443/128
f 714/444/130 713/447/130 711/445/129
f 716/446/131 715/449/131 713/447/130
f 718/448/132 717/451/132 715/449/131
f 720/450/133 719/453/133 717/451/132
f 722/452/134 721/455/134 719/453/133
f 724/454/135 723/457/135 721/455/134
f 726/456/136 725/459/136 723/457/135
f 728/458/137 727/461/137 725/459/136
f 730/460/138 729/463/138 727/461/137
f 732/462/139 731/465/139 729/463/138
f 734/464/140 733/467/140 731/465/139
f 736/466/141 735/469/141 733/467/140
f 738/468/142 737/471/142 735/469/141
f 740/470/143 739/473/143 737/471/142
f 742/472/144 741/475/144 739/473/143
f 744/474/145 743/477/145 741/475/144
f 746/476/146 745/479/146 743/477/145
f 748/478/147 747/481/147 745/479/146
f 750/480/148 749/483/148 747/481/147
f 752/482/149 751/485/149 749/483/148
f 754/484/150 753/487/150 751/485/149
f 756/486/151 755/489/151 753/487/150
f 758/488/152 757/491/152 755/489/151
f 760/490/153 759/493/153 757/491/152
f 762/492/154 761/495/154 759/493/153
f 764/494/155 763/497/155 761/495/154
f 766/496/156 765/499/156 763/497/155
f 768/498/157 767/501/157 765/499/156
f 770/500/158 769/503/158 767/501/157
f 772/502/159 771/505/159 769/503/158
f 774/504/160 773/507/160 771/505/159
f 776/506/161 775/509/161 773/507/160
f 778/508/162 777/511/162 775/509/161
f 780/510/163 779/513/163 777/511/162
f 782/512/164 781/515/164 779/513/163
f 784/514/165 783/517/165 781/515/164
f 786/516/166 785/519/166 783/517/165
f 788/518/167 787/521/167 785/519/166
f 790/520/168 789/523/168 787/521/167
f 792/522/169 791/525/171 789/523/168
f 794/524/170 793/527/170 791/525/171
f 796/526/172 795/529/172 793/527/170
f 798/528/173 797/531/173 795/529/172
f 800/530/174 799/533/174 797/531/173
f 802/532/175 801/535/175 799/533/174
f 804/534/176 803/537/176 801/535/175
f 806/536/177 805/539/177 803/537/176
f 808/538/178 807/541/178 805/539/177
f 810/540/179 809/543/179 807/541/178
f 812/542/180 811/545/180 809/543/179
f 814/544/181 813/547/181 811/545/180
f 816/546/182 815/549/182 813/547/181
f 818/548/183 817/551/183 815/549/182
f 820/550/184 819/553/184 817/551/183
f 822/552/106 821/555/106 819/553/184
f 824/554/106 823/557/106 821/555/106
f 826/556/108 825/559/108 823/557/106
f 828/558/109 827/561/109 825/559/108
f 830/560/185 829/562/185 827/561/109
f 698/403/123 697/14/123 829/562/185
f 834/563/186 833/565/186 831/5/187
f 836/564/188 835/567/188 833/565/186
f 838/566/189 837/569/189 835/567/188
f 840/568/190 839/571/190 837/569/189
f 842/570/191 841/573/191 839/571/190
f 844/572/192 843/575/192 841/573/191
f 846/574/193 845/577/193 843/575/192
f 848/576/194 847/578/194 845/577/193
f 850/406/195 849/74/195 847/578/194
f 852/579/196 851/581/196 849/74/195
f 854/580/197 853/583/197 851/581/196
f 856/582/198 855/585/198 853/583/197
f 858/584/199 857/587/199 855/585/198
f 860/586/200 859/589/200 857/587/199
f 862/588/201 861/591/201 859/589/200
f 864/590/202 863/593/202 861/591/201
f 866/592/203 865/594/203 863/593/202
f 868/408/204 867/50/204 865/594/203
f 870/595/205 869/597/205 867/50/204
f 872/596/206 871/599/206 869/597/205
f 874/598/207 873/601/207 871/599/206
f 876/600/208 875/603/208 873/601/207
f 878/602/209 877/605/209 875/603/208
f 880/604/210 879/607/210 877/605/209
f 882/606/106 881/609/106 879/607/210
f 884/608/107 883/610/107 881/609/106
f 832/403/187 831/14/187 883/610/107
