# Blender 4.2.3 LTS
# www.blender.org
mtllib start.mtl
o START
v 1.204000 0.253000 0.050000
v 1.204000 -0.341000 0.050000
v 1.106000 -0.341000 0.050000
v 1.106000 0.253000 0.050000
v 0.870000 0.253000 0.050000
v 0.870000 0.341000 0.050000
v 1.440000 0.341000 0.050000
v 1.440000 0.253000 0.050000
v 0.531397 0.339495 0.050000
v 0.562509 0.335046 0.050000
v 0.591219 0.327750 0.050000
v 0.617408 0.317704 0.050000
v 0.640957 0.305005 0.050000
v 0.661750 0.289750 0.050000
v 0.679668 0.272037 0.050000
v 0.694593 0.251963 0.050000
v 0.706406 0.229625 0.050000
v 0.714991 0.205120 0.050000
v 0.720228 0.178546 0.050000
v 0.722000 0.150000 0.050000
v 0.721151 0.130672 0.050000
v 0.718625 0.112213 0.050000
v 0.714453 0.094656 0.050000
v 0.708667 0.078037 0.050000
v 0.701297 0.062390 0.050000
v 0.692375 0.047750 0.050000
v 0.681932 0.034152 0.050000
v 0.670000 0.021630 0.050000
v 0.656610 0.010219 0.050000
v 0.641792 -0.000046 0.050000
v 0.625578 -0.009131 0.050000
v 0.608000 -0.017000 0.050000
v 0.623022 -0.027708 0.050000
v 0.637176 -0.039333 0.050000
v 0.650594 -0.051875 0.050000
v 0.663408 -0.065333 0.050000
v 0.675749 -0.079708 0.050000
v 0.687750 -0.095000 0.050000
v 0.699543 -0.111208 0.050000
v 0.711259 -0.128333 0.050000
v 0.723031 -0.146375 0.050000
v 0.734991 -0.165333 0.050000
v 0.747270 -0.185208 0.050000
v 0.760000 -0.206000 0.050000
v 0.767025 -0.217288 0.050000
v 0.773695 -0.227806 0.050000
v 0.780156 -0.237781 0.050000
v 0.786556 -0.247444 0.050000
v 0.793038 -0.257024 0.050000
v 0.799750 -0.266750 0.050000
v 0.806837 -0.276851 0.050000
v 0.814445 -0.287556 0.050000
v 0.822719 -0.299094 0.050000
v 0.831806 -0.311694 0.050000
v 0.841851 -0.325587 0.050000
v 0.853000 -0.341000 0.050000
v 0.736000 -0.341000 0.050000
v 0.646000 -0.201000 0.050000
v 0.624487 -0.168521 0.050000
v 0.604815 -0.140833 0.050000
v 0.586781 -0.117563 0.050000
v 0.570185 -0.098333 0.050000
v 0.554825 -0.082771 0.050000
v 0.540500 -0.070500 0.050000
v 0.527008 -0.061146 0.050000
v 0.514148 -0.054333 0.050000
v 0.501719 -0.049688 0.050000
v 0.489519 -0.046833 0.050000
v 0.477346 -0.045396 0.050000
v 0.465000 -0.045000 0.050000
v 0.424000 -0.045000 0.050000
v 0.424000 -0.341000 0.050000
v 0.326000 -0.341000 0.050000
v 0.326000 0.341000 0.050000
v 0.498000 0.341000 0.050000
v 0.487000 0.043000 0.050000
v 0.511713 0.044095 0.050000
v 0.533454 0.047264 0.050000
v 0.552375 0.052328 0.050000
v 0.568630 0.059111 0.050000
v 0.582371 0.067436 0.050000
v 0.593750 0.077125 0.050000
v 0.602921 0.088002 0.050000
v 0.610037 0.099889 0.050000
v 0.615250 0.112609 0.050000
v 0.618713 0.125986 0.050000
v 0.620579 0.139842 0.050000
v 0.621000 0.154000 0.050000
v 0.619968 0.169471 0.050000
v 0.617324 0.183852 0.050000
v 0.613000 0.197094 0.050000
v 0.606926 0.209148 0.050000
v 0.599033 0.219966 0.050000
v 0.589250 0.229500 0.050000
v 0.577509 0.237700 0.050000
v 0.563741 0.244519 0.050000
v 0.547875 0.249906 0.050000
v 0.529843 0.253815 0.050000
v 0.509574 0.256196 0.050000
v 0.487000 0.257000 0.050000
v 0.424000 0.257000 0.050000
v 0.424000 0.043000 0.050000
v 0.149000 -0.341000 0.050000
v 0.058000 -0.140000 0.050000
v -0.232000 -0.140000 0.050000
v -0.318000 -0.341000 0.050000
v -0.418000 -0.341000 0.050000
v -0.125000 0.345000 0.050000
v -0.056000 0.345000 0.050000
v 0.249000 -0.341000 0.050000
v 0.018000 -0.052000 0.050000
v -0.092000 0.195000 0.050000
v -0.194000 -0.052000 0.050000
v -0.671000 0.253000 0.050000
v -0.671000 -0.341000 0.050000
v -0.769000 -0.341000 0.050000
v -0.769000 0.253000 0.050000
v -1.005000 0.253000 0.050000
v -1.005000 0.341000 0.050000
v -0.435000 0.341000 0.050000
v -0.435000 0.253000 0.050000
v -1.095454 0.203951 0.050000
v -1.109796 0.215356 0.050000
v -1.124000 0.225297 0.050000
v -1.138037 0.233852 0.050000
v -1.151880 0.241101 0.050000
v -1.165500 0.247125 0.050000
v -1.178870 0.252003 0.050000
v -1.191963 0.255815 0.050000
v -1.204750 0.258641 0.050000
v -1.217204 0.260560 0.050000
v -1.229296 0.261653 0.050000
v -1.241000 0.262000 0.050000
v -1.256359 0.261323 0.050000
v -1.270875 0.259333 0.050000
v -1.284453 0.256094 0.050000
v -1.297000 0.251667 0.050000
v -1.308422 0.246115 0.050000
v -1.318625 0.239500 0.050000
v -1.327516 0.231885 0.050000
v -1.335000 0.223333 0.050000
v -1.340984 0.213906 0.050000
v -1.345375 0.203667 0.050000
v -1.348078 0.192677 0.050000
v -1.349000 0.181000 0.050000
v -1.343196 0.150817 0.050000
v -1.327148 0.124954 0.050000
v -1.302907 0.102187 0.050000
v -1.272519 0.081296 0.050000
v -1.238034 0.061058 0.050000
v -1.201500 0.040250 0.050000
v -1.164967 0.017650 0.050000
v -1.130482 -0.007963 0.050000
v -1.100094 -0.037813 0.050000
v -1.075852 -0.073120 0.050000
v -1.059804 -0.115109 0.050000
v -1.054000 -0.165000 0.050000
v -1.055658 -0.191117 0.050000
v -1.060509 -0.215857 0.050000
v -1.068375 -0.239047 0.050000
v -1.079074 -0.260519 0.050000
v -1.092426 -0.280101 0.050000
v -1.108250 -0.297625 0.050000
v -1.126366 -0.312920 0.050000
v -1.146593 -0.325815 0.050000
v -1.168750 -0.336141 0.050000
v -1.192657 -0.343727 0.050000
v -1.218134 -0.348403 0.050000
v -1.245000 -0.350000 0.050000
v -1.263215 -0.349582 0.050000
v -1.280884 -0.348319 0.050000
v -1.298047 -0.346203 0.050000
v -1.314741 -0.343222 0.050000
v -1.331004 -0.339366 0.050000
v -1.346875 -0.334625 0.050000
v -1.362392 -0.328988 0.050000
v -1.377593 -0.322444 0.050000
v -1.392516 -0.314984 0.050000
v -1.407199 -0.306597 0.050000
v -1.421681 -0.297273 0.050000
v -1.436000 -0.287000 0.050000
v -1.436000 -0.163000 0.050000
v -1.423234 -0.178392 0.050000
v -1.409958 -0.192556 0.050000
v -1.396203 -0.205469 0.050000
v -1.382000 -0.217111 0.050000
v -1.367380 -0.227462 0.050000
v -1.352375 -0.236500 0.050000
v -1.337016 -0.244205 0.050000
v -1.321333 -0.250556 0.050000
v -1.305359 -0.255531 0.050000
v -1.289125 -0.259111 0.050000
v -1.272661 -0.261274 0.050000
v -1.256000 -0.262000 0.050000
v -1.237851 -0.261034 0.050000
v -1.221389 -0.258269 0.050000
v -1.206594 -0.253906 0.050000
v -1.193444 -0.248148 0.050000
v -1.181920 -0.241196 0.050000
v -1.172000 -0.233250 0.050000
v -1.163663 -0.224513 0.050000
v -1.156889 -0.215185 0.050000
v -1.151656 -0.205469 0.050000
v -1.147944 -0.195565 0.050000
v -1.145733 -0.185675 0.050000
v -1.145000 -0.176000 0.050000
v -1.150804 -0.143183 0.050000
v -1.166852 -0.114546 0.050000
v -1.191094 -0.089063 0.050000
v -1.221481 -0.065704 0.050000
v -1.255966 -0.043442 0.050000
v -1.292500 -0.021250 0.050000
v -1.329033 0.001900 0.050000
v -1.363518 0.027037 0.050000
v -1.393906 0.055187 0.050000
v -1.418148 0.087380 0.050000
v -1.434196 0.124641 0.050000
v -1.440000 0.168000 0.050000
v -1.438314 0.194899 0.050000
v -1.433347 0.220023 0.050000
v -1.425234 0.243266 0.050000
v -1.414111 0.264518 0.050000
v -1.400113 0.283674 0.050000
v -1.383375 0.300625 0.050000
v -1.364033 0.315263 0.050000
v -1.342222 0.327481 0.050000
v -1.318078 0.337172 0.050000
v -1.291736 0.344227 0.050000
v -1.263332 0.348539 0.050000
v -1.233000 0.350000 0.050000
v -1.220002 0.349667 0.050000
v -1.207019 0.348667 0.050000
v -1.194063 0.347000 0.050000
v -1.181148 0.344667 0.050000
v -1.168289 0.341667 0.050000
v -1.155500 0.338000 0.050000
v -1.142794 0.333667 0.050000
v -1.130185 0.328667 0.050000
v -1.117688 0.323000 0.050000
v -1.105315 0.316667 0.050000
v -1.093081 0.309667 0.050000
v -1.081000 0.302000 0.050000
v -1.081000 0.191000 0.050000
v 1.204000 0.253000 -0.050000
v 1.204000 -0.341000 -0.050000
v 1.106000 -0.341000 -0.050000
v 1.106000 0.253000 -0.050000
v 0.870000 0.253000 -0.050000
v 0.870000 0.341000 -0.050000
v 1.440000 0.341000 -0.050000
v 1.440000 0.253000 -0.050000
v 0.531397 0.339495 -0.050000
v 0.562509 0.335046 -0.050000
v 0.591219 0.327750 -0.050000
v 0.617408 0.317704 -0.050000
v 0.640957 0.305005 -0.050000
v 0.661750 0.289750 -0.050000
v 0.679668 0.272037 -0.050000
v 0.694593 0.251963 -0.050000
v 0.706406 0.229625 -0.050000
v 0.714991 0.205120 -0.050000
v 0.720228 0.178546 -0.050000
v 0.722000 0.150000 -0.050000
v 0.721151 0.130672 -0.050000
v 0.718625 0.112213 -0.050000
v 0.714453 0.094656 -0.050000
v 0.708667 0.078037 -0.050000
v 0.701297 0.062390 -0.050000
v 0.692375 0.047750 -0.050000
v 0.681932 0.034152 -0.050000
v 0.670000 0.021630 -0.050000
v 0.656610 0.010219 -0.050000
v 0.641792 -0.000046 -0.050000
v 0.625578 -0.009131 -0.050000
v 0.608000 -0.017000 -0.050000
v 0.623022 -0.027708 -0.050000
v 0.637176 -0.039333 -0.050000
v 0.650594 -0.051875 -0.050000
v 0.663408 -0.065333 -0.050000
v 0.675749 -0.079708 -0.050000
v 0.687750 -0.095000 -0.050000
v 0.699543 -0.111208 -0.050000
v 0.711259 -0.128333 -0.050000
v 0.723031 -0.146375 -0.050000
v 0.734991 -0.165333 -0.050000
v 0.747270 -0.185208 -0.050000
v 0.760000 -0.206000 -0.050000
v 0.767025 -0.217288 -0.050000
v 0.773695 -0.227806 -0.050000
v 0.780156 -0.237781 -0.050000
v 0.786556 -0.247444 -0.050000
v 0.793038 -0.257024 -0.050000
v 0.799750 -0.266750 -0.050000
v 0.806837 -0.276851 -0.050000
v 0.814445 -0.287556 -0.050000
v 0.822719 -0.299094 -0.050000
v 0.831806 -0.311694 -0.050000
v 0.841851 -0.325587 -0.050000
v 0.853000 -0.341000 -0.050000
v 0.736000 -0.341000 -0.050000
v 0.646000 -0.201000 -0.050000
v 0.624487 -0.168521 -0.050000
v 0.604815 -0.140833 -0.050000
v 0.586781 -0.117563 -0.050000
v 0.570185 -0.098333 -0.050000
v 0.554825 -0.082771 -0.050000
v 0.540500 -0.070500 -0.050000
v 0.527008 -0.061146 -0.050000
v 0.514148 -0.054333 -0.050000
v 0.501719 -0.049688 -0.050000
v 0.489519 -0.046833 -0.050000
v 0.477346 -0.045396 -0.050000
v 0.465000 -0.045000 -0.050000
v 0.424000 -0.045000 -0.050000
v 0.424000 -0.341000 -0.050000
v 0.326000 -0.341000 -0.050000
v 0.326000 0.341000 -0.050000
v 0.498000 0.341000 -0.050000
v 0.487000 0.043000 -0.050000
v 0.511713 0.044095 -0.050000
v 0.533454 0.047264 -0.050000
v 0.552375 0.052328 -0.050000
v 0.568630 0.059111 -0.050000
v 0.582371 0.067436 -0.050000
v 0.593750 0.077125 -0.050000
v 0.602921 0.088002 -0.050000
v 0.610037 0.099889 -0.050000
v 0.615250 0.112609 -0.050000
v 0.618713 0.125986 -0.050000
v 0.620579 0.139842 -0.050000
v 0.621000 0.154000 -0.050000
v 0.619968 0.169471 -0.050000
v 0.617324 0.183852 -0.050000
v 0.613000 0.197094 -0.050000
v 0.606926 0.209148 -0.050000
v 0.599033 0.219966 -0.050000
v 0.589250 0.229500 -0.050000
v 0.577509 0.237700 -0.050000
v 0.563741 0.244519 -0.050000
v 0.547875 0.249906 -0.050000
v 0.529843 0.253815 -0.050000
v 0.509574 0.256196 -0.050000
v 0.487000 0.257000 -0.050000
v 0.424000 0.257000 -0.050000
v 0.424000 0.043000 -0.050000
v 0.149000 -0.341000 -0.050000
v 0.058000 -0.140000 -0.050000
v -0.232000 -0.140000 -0.050000
v -0.318000 -0.341000 -0.050000
v -0.418000 -0.341000 -0.050000
v -0.125000 0.345000 -0.050000
v -0.056000 0.345000 -0.050000
v 0.249000 -0.341000 -0.050000
v 0.018000 -0.052000 -0.050000
v -0.092000 0.195000 -0.050000
v -0.194000 -0.052000 -0.050000
v -0.671000 0.253000 -0.050000
v -0.671000 -0.341000 -0.050000
v -0.769000 -0.341000 -0.050000
v -0.769000 0.253000 -0.050000
v -1.005000 0.253000 -0.050000
v -1.005000 0.341000 -0.050000
v -0.435000 0.341000 -0.050000
v -0.435000 0.253000 -0.050000
v -1.095454 0.203951 -0.050000
v -1.109796 0.215356 -0.050000
v -1.124000 0.225297 -0.050000
v -1.138037 0.233852 -0.050000
v -1.151880 0.241101 -0.050000
v -1.165500 0.247125 -0.050000
v -1.178870 0.252003 -0.050000
v -1.191963 0.255815 -0.050000
v -1.204750 0.258641 -0.050000
v -1.217204 0.260560 -0.050000
v -1.229296 0.261653 -0.050000
v -1.241000 0.262000 -0.050000
v -1.256359 0.261323 -0.050000
v -1.270875 0.259333 -0.050000
v -1.284453 0.256094 -0.050000
v -1.297000 0.251667 -0.050000
v -1.308422 0.246115 -0.050000
v -1.318625 0.239500 -0.050000
v -1.327516 0.231885 -0.050000
v -1.335000 0.223333 -0.050000
v -1.340984 0.213906 -0.050000
v -1.345375 0.203667 -0.050000
v -1.348078 0.192677 -0.050000
v -1.349000 0.181000 -0.050000
v -1.343196 0.150817 -0.050000
v -1.327148 0.124954 -0.050000
v -1.302907 0.102187 -0.050000
v -1.272519 0.081296 -0.050000
v -1.238034 0.061058 -0.050000
v -1.201500 0.040250 -0.050000
v -1.164967 0.017650 -0.050000
v -1.130482 -0.007963 -0.050000
v -1.100094 -0.037813 -0.050000
v -1.075852 -0.073120 -0.050000
v -1.059804 -0.115109 -0.050000
v -1.054000 -0.165000 -0.050000
v -1.055658 -0.191117 -0.050000
v -1.060509 -0.215857 -0.050000
v -1.068375 -0.239047 -0.050000
v -1.079074 -0.260519 -0.050000
v -1.092426 -0.280101 -0.050000
v -1.108250 -0.297625 -0.050000
v -1.126366 -0.312920 -0.050000
v -1.146593 -0.325815 -0.050000
v -1.168750 -0.336141 -0.050000
v -1.192657 -0.343727 -0.050000
v -1.218134 -0.348403 -0.050000
v -1.245000 -0.350000 -0.050000
v -1.263215 -0.349582 -0.050000
v -1.280884 -0.348319 -0.050000
v -1.298047 -0.346203 -0.050000
v -1.314741 -0.343222 -0.050000
v -1.331004 -0.339366 -0.050000
v -1.346875 -0.334625 -0.050000
v -1.362392 -0.328988 -0.050000
v -1.377593 -0.322444 -0.050000
v -1.392516 -0.314984 -0.050000
v -1.407199 -0.306597 -0.050000
v -1.421681 -0.297273 -0.050000
v -1.436000 -0.287000 -0.050000
v -1.436000 -0.163000 -0.050000
v -1.423234 -0.178392 -0.050000
v -1.409958 -0.192556 -0.050000
v -1.396203 -0.205469 -0.050000
v -1.382000 -0.217111 -0.050000
v -1.367380 -0.227462 -0.050000
v -1.352375 -0.236500 -0.050000
v -1.337016 -0.244205 -0.050000
v -1.321333 -0.250556 -0.050000
v -1.305359 -0.255531 -0.050000
v -1.289125 -0.259111 -0.050000
v -1.272661 -0.261274 -0.050000
v -1.256000 -0.262000 -0.050000
v -1.237851 -0.261034 -0.050000
v -1.221389 -0.258269 -0.050000
v -1.206594 -0.253906 -0.050000
v -1.193444 -0.248148 -0.050000
v -1.181920 -0.241196 -0.050000
v -1.172000 -0.233250 -0.050000
v -1.163663 -0.224513 -0.050000
v -1.156889 -0.215185 -0.050000
v -1.151656 -0.205469 -0.050000
v -1.147944 -0.195565 -0.050000
v -1.145733 -0.185675 -0.050000
v -1.145000 -0.176000 -0.050000
v -1.150804 -0.143183 -0.050000
v -1.166852 -0.114546 -0.050000
v -1.191094 -0.089063 -0.050000
v -1.221481 -0.065704 -0.050000
v -1.255966 -0.043442 -0.050000
v -1.292500 -0.021250 -0.050000
v -1.329033 0.001900 -0.050000
v -1.363518 0.027037 -0.050000
v -1.393906 0.055187 -0.050000
v -1.418148 0.087380 -0.050000
v -1.434196 0.124641 -0.050000
v -1.440000 0.168000 -0.050000
v -1.438314 0.194899 -0.050000
v -1.433347 0.220023 -0.050000
v -1.425234 0.243266 -0.050000
v -1.414111 0.264518 -0.050000
v -1.400113 0.283674 -0.050000
v -1.383375 0.300625 -0.050000
v -1.364033 0.315263 -0.050000
v -1.342222 0.327481 -0.050000
v -1.318078 0.337172 -0.050000
v -1.291736 0.344227 -0.050000
v -1.263332 0.348539 -0.050000
v -1.233000 0.350000 -0.050000
v -1.220002 0.349667 -0.050000
v -1.207019 0.348667 -0.050000
v -1.194063 0.347000 -0.050000
v -1.181148 0.344667 -0.050000
v -1.168289 0.341667 -0.050000
v -1.155500 0.338000 -0.050000
v -1.142794 0.333667 -0.050000
v -1.130185 0.328667 -0.050000
v -1.117688 0.323000 -0.050000
v -1.105315 0.316667 -0.050000
v -1.093081 0.309667 -0.050000
v -1.081000 0.302000 -0.050000
v -1.081000 0.191000 -0.050000
v -1.095454 0.203951 -0.050000
v -1.095454 0.203951 0.050000
v -1.109796 0.215356 -0.050000
v -1.109796 0.215356 0.050000
v -1.124000 0.225297 -0.050000
v -1.124000 0.225297 0.050000
v -1.138037 0.233852 -0.050000
v -1.138037 0.233852 0.050000
v -1.151880 0.241101 -0.050000
v -1.151880 0.241101 0.050000
v -1.165500 0.247125 -0.050000
v -1.165500 0.247125 0.050000
v -1.178870 0.252003 -0.050000
v -1.178870 0.252003 0.050000
v -1.191963 0.255815 -0.050000
v -1.191963 0.255815 0.050000
v -1.204750 0.258641 -0.050000
v -1.204750 0.258641 0.050000
v -1.217204 0.260560 -0.050000
v -1.217204 0.260560 0.050000
v -1.229296 0.261653 -0.050000
v -1.229296 0.261653 0.050000
v -1.241000 0.262000 -0.050000
v -1.241000 0.262000 0.050000
v -1.256359 0.261323 -0.050000
v -1.256359 0.261323 0.050000
v -1.270875 0.259333 -0.050000
v -1.270875 0.259333 0.050000
v -1.284453 0.256094 -0.050000
v -1.284453 0.256094 0.050000
v -1.297000 0.251667 -0.050000
v -1.297000 0.251667 0.050000
v -1.308422 0.246115 -0.050000
v -1.308422 0.246115 0.050000
v -1.318625 0.239500 -0.050000
v -1.318625 0.239500 0.050000
v -1.327516 0.231885 -0.050000
v -1.327516 0.231885 0.050000
v -1.335000 0.223333 -0.050000
v -1.335000 0.223333 0.050000
v -1.340984 0.213906 -0.050000
v -1.340984 0.213906 0.050000
v -1.345375 0.203667 -0.050000
v -1.345375 0.203667 0.050000
v -1.348078 0.192677 -0.050000
v -1.348078 0.192677 0.050000
v -1.349000 0.181000 -0.050000
v -1.349000 0.181000 0.050000
v -1.343196 0.150817 -0.050000
v -1.343196 0.150817 0.050000
v -1.327148 0.124954 -0.050000
v -1.327148 0.124954 0.050000
v -1.302907 0.102187 -0.050000
v -1.302907 0.102187 0.050000
v -1.272519 0.081296 -0.050000
v -1.272519 0.081296 0.050000
v -1.238034 0.061058 -0.050000
v -1.238034 0.061058 0.050000
v -1.201500 0.040250 -0.050000
v -1.201500 0.040250 0.050000
v -1.164967 0.017650 -0.050000
v -1.164967 0.017650 0.050000
v -1.130482 -0.007963 -0.050000
v -1.130482 -0.007963 0.050000
v -1.100094 -0.037813 -0.050000
v -1.100094 -0.037813 0.050000
v -1.075852 -0.073120 -0.050000
v -1.075852 -0.073120 0.050000
v -1.059804 -0.115109 -0.050000
v -1.059804 -0.115109 0.050000
v -1.054000 -0.165000 -0.050000
v -1.054000 -0.165000 0.050000
v -1.055658 -0.191117 -0.050000
v -1.055658 -0.191117 0.050000
v -1.060509 -0.215857 -0.050000
v -1.060509 -0.215857 0.050000
v -1.068375 -0.239047 -0.050000
v -1.068375 -0.239047 0.050000
v -1.079074 -0.260519 -0.050000
v -1.079074 -0.260519 0.050000
v -1.092426 -0.280101 -0.050000
v -1.092426 -0.280101 0.050000
v -1.108250 -0.297625 -0.050000
v -1.108250 -0.297625 0.050000
v -1.126366 -0.312920 -0.050000
v -1.126366 -0.312920 0.050000
v -1.146593 -0.325815 -0.050000
v -1.146593 -0.325815 0.050000
v -1.168750 -0.336141 -0.050000
v -1.168750 -0.336141 0.050000
v -1.192657 -0.343727 -0.050000
v -1.192657 -0.343727 0.050000
v -1.218134 -0.348403 -0.050000
v -1.218134 -0.348403 0.050000
v -1.245000 -0.350000 -0.050000
v -1.245000 -0.350000 0.050000
v -1.263215 -0.349582 -0.050000
v -1.263215 -0.349582 0.050000
v -1.280884 -0.348319 -0.050000
v -1.280884 -0.348319 0.050000
v -1.298047 -0.346203 -0.050000
v -1.298047 -0.346203 0.050000
v -1.314741 -0.343222 -0.050000
v -1.314741 -0.343222 0.050000
v -1.331004 -0.339366 -0.050000
v -1.331004 -0.339366 0.050000
v -1.346875 -0.334625 -0.050000
v -1.346875 -0.334625 0.050000
v -1.362392 -0.328988 -0.050000
v -1.362392 -0.328988 0.050000
v -1.377593 -0.322444 -0.050000
v -1.377593 -0.322444 0.050000
v -1.392516 -0.314984 -0.050000
v -1.392516 -0.314984 0.050000
v -1.407199 -0.306597 -0.050000
v -1.407199 -0.306597 0.050000
v -1.421681 -0.297273 -0.050000
v -1.421681 -0.297273 0.050000
v -1.436000 -0.287000 -0.050000
v -1.436000 -0.287000 0.050000
v -1.436000 -0.163000 -0.050000
v -1.436000 -0.163000 0.050000
v -1.423234 -0.178392 -0.050000
v -1.423234 -0.178392 0.050000
v -1.409958 -0.192556 -0.050000
v -1.409958 -0.192556 0.050000
v -1.396203 -0.205469 -0.050000
v -1.396203 -0.205469 0.050000
v -1.382000 -0.217111 -0.050000
v -1.382000 -0.217111 0.050000
v -1.367380 -0.227462 -0.050000
v -1.367380 -0.227462 0.050000
v -1.352375 -0.236500 -0.050000
v -1.352375 -0.236500 0.050000
v -1.337016 -0.244205 -0.050000
v -1.337016 -0.244205 0.050000
v -1.321333 -0.250556 -0.050000
v -1.321333 -0.250556 0.050000
v -1.305359 -0.255531 -0.050000
v -1.305359 -0.255531 0.050000
v -1.289125 -0.259111 -0.050000
v -1.289125 -0.259111 0.050000
v -1.272661 -0.261274 -0.050000
v -1.272661 -0.261274 0.050000
v -1.256000 -0.262000 -0.050000
v -1.256000 -0.262000 0.050000
v -1.237851 -0.261034 -0.050000
v -1.237851 -0.261034 0.050000
v -1.221389 -0.258269 -0.050000
v -1.221389 -0.258269 0.050000
v -1.206594 -0.253906 -0.050000
v -1.206594 -0.253906 0.050000
v -1.193444 -0.248148 -0.050000
v -1.193444 -0.248148 0.050000
v -1.181920 -0.241196 -0.050000
v -1.181920 -0.241196 0.050000
v -1.172000 -0.233250 -0.050000
v -1.172000 -0.233250 0.050000
v -1.163663 -0.224513 -0.050000
v -1.163663 -0.224513 0.050000
v -1.156889 -0.215185 -0.050000
v -1.156889 -0.215185 0.050000
v -1.151656 -0.205469 -0.050000
v -1.151656 -0.205469 0.050000
v -1.147944 -0.195565 -0.050000
v -1.147944 -0.195565 0.050000
v -1.145733 -0.185675 -0.050000
v -1.145733 -0.185675 0.050000
v -1.145000 -0.176000 -0.050000
v -1.145000 -0.176000 0.050000
v -1.150804 -0.143183 -0.050000
v -1.150804 -0.143183 0.050000
v -1.166852 -0.114546 -0.050000
v -1.166852 -0.114546 0.050000
v -1.191094 -0.089063 -0.050000
v -1.191094 -0.089063 0.050000
v -1.221481 -0.065704 -0.050000
v -1.221481 -0.065704 0.050000
v -1.255966 -0.043442 -0.050000
v -1.255966 -0.043442 0.050000
v -1.292500 -0.021250 -0.050000
v -1.292500 -0.021250 0.050000
v -1.329033 0.001900 -0.050000
v -1.329033 0.001900 0.050000
v -1.363518 0.027037 -0.050000
v -1.363518 0.027037 0.050000
v -1.393906 0.055187 -0.050000
v -1.393906 0.055187 0.050000
v -1.418148 0.087380 -0.050000
v -1.418148 0.087380 0.050000
v -1.434196 0.124641 -0.050000
v -1.434196 0.124641 0.050000
v -1.440000 0.168000 -0.050000
v -1.440000 0.168000 0.050000
v -1.438314 0.194899 -0.050000
v -1.438314 0.194899 0.050000
v -1.433347 0.220023 -0.050000
v -1.433347 0.220023 0.050000
v -1.425234 0.243266 -0.050000
v -1.425234 0.243266 0.050000
v -1.414111 0.264518 -0.050000
v -1.414111 0.264518 0.050000
v -1.400113 0.283674 -0.050000
v -1.400113 0.283674 0.050000
v -1.383375 0.300625 -0.050000
v -1.383375 0.300625 0.050000
v -1.364033 0.315263 -0.050000
v -1.364033 0.315263 0.050000
v -1.342222 0.327481 -0.050000
v -1.342222 0.327481 0.050000
v -1.318078 0.337172 -0.050000
v -1.318078 0.337172 0.050000
v -1.291736 0.344227 -0.050000
v -1.291736 0.344227 0.050000
v -1.263332 0.348539 -0.050000
v -1.263332 0.348539 0.050000
v -1.233000 0.350000 -0.050000
v -1.233000 0.350000 0.050000
v -1.220002 0.349667 -0.050000
v -1.220002 0.349667 0.050000
v -1.207019 0.348667 -0.050000
v -1.207019 0.348667 0.050000
v -1.194063 0.347000 -0.050000
v -1.194063 0.347000 0.050000
v -1.181148 0.344667 -0.050000
v -1.181148 0.344667 0.050000
v -1.168289 0.341667 -0.050000
v -1.168289 0.341667 0.050000
v -1.155500 0.338000 -0.050000
v -1.155500 0.338000 0.050000
v -1.142794 0.333667 -0.050000
v -1.142794 0.333667 0.050000
v -1.130185 0.328667 -0.050000
v -1.130185 0.328667 0.050000
v -1.117688 0.323000 -0.050000
v -1.117688 0.323000 0.050000
v -1.105315 0.316667 -0.050000
v -1.105315 0.316667 0.050000
v -1.093081 0.309667 -0.050000
v -1.093081 0.309667 0.050000
v -1.081000 0.302000 -0.050000
v -1.081000 0.302000 0.050000
v -1.081000 0.191000 -0.050000
v -1.081000 0.191000 0.050000
v -0.671000 0.253000 -0.050000
v -0.671000 0.253000 0.050000
v -0.671000 -0.341000 -0.050000
v -0.671000 -0.341000 0.050000
v -0.769000 -0.341000 -0.050000
v -0.769000 -0.341000 0.050000
v -0.769000 0.253000 -0.050000
v -0.769000 0.253000 0.050000
v -1.005000 0.253000 -0.050000
v -1.005000 0.253000 0.050000
v -1.005000 0.341000 -0.050000
v -1.005000 0.341000 0.050000
v -0.435000 0.341000 -0.050000
v -0.435000 0.341000 0.050000
v -0.435000 0.253000 -0.050000
v -0.435000 0.253000 0.050000
v 0.149000 -0.341000 -0.050000
v 0.149000 -0.341000 0.050000
v 0.058000 -0.140000 -0.050000
v 0.058000 -0.140000 0.050000
v -0.232000 -0.140000 -0.050000
v -0.232000 -0.140000 0.050000
v -0.318000 -0.341000 -0.050000
v -0.318000 -0.341000 0.050000
v -0.418000 -0.341000 -0.050000
v -0.418000 -0.341000 0.050000
v -0.125000 0.345000 -0.050000
v -0.125000 0.345000 0.050000
v -0.056000 0.345000 -0.050000
v -0.056000 0.345000 0.050000
v 0.249000 -0.341000 -0.050000
v 0.249000 -0.341000 0.050000
v 0.018000 -0.052000 -0.050000
v 0.018000 -0.052000 0.050000
v -0.092000 0.195000 -0.050000
v -0.092000 0.195000 0.050000
v -0.194000 -0.052000 -0.050000
v -0.194000 -0.052000 0.050000
v 0.531397 0.339495 -0.050000
v 0.531397 0.339495 0.050000
v 0.562509 0.335046 -0.050000
v 0.562509 0.335046 0.050000
v 0.591219 0.327750 -0.050000
v 0.591219 0.327750 0.050000
v 0.617408 0.317704 -0.050000
v 0.617408 0.317704 0.050000
v 0.640957 0.305005 -0.050000
v 0.640957 0.305005 0.050000
v 0.661750 0.289750 -0.050000
v 0.661750 0.289750 0.050000
v 0.679668 0.272037 -0.050000
v 0.679668 0.272037 0.050000
v 0.694593 0.251963 -0.050000
v 0.694593 0.251963 0.050000
v 0.706406 0.229625 -0.050000
v 0.706406 0.229625 0.050000
v 0.714991 0.205120 -0.050000
v 0.714991 0.205120 0.050000
v 0.720228 0.178546 -0.050000
v 0.720228 0.178546 0.050000
v 0.722000 0.150000 -0.050000
v 0.722000 0.150000 0.050000
v 0.721151 0.130672 -0.050000
v 0.721151 0.130672 0.050000
v 0.718625 0.112213 -0.050000
v 0.718625 0.112213 0.050000
v 0.714453 0.094656 -0.050000
v 0.714453 0.094656 0.050000
v 0.708667 0.078037 -0.050000
v 0.708667 0.078037 0.050000
v 0.701297 0.062390 -0.050000
v 0.701297 0.062390 0.050000
v 0.692375 0.047750 -0.050000
v 0.692375 0.047750 0.050000
v 0.681932 0.034152 -0.050000
v 0.681932 0.034152 0.050000
v 0.670000 0.021630 -0.050000
v 0.670000 0.021630 0.050000
v 0.656610 0.010219 -0.050000
v 0.656610 0.010219 0.050000
v 0.641792 -0.000046 -0.050000
v 0.641792 -0.000046 0.050000
v 0.625578 -0.009131 -0.050000
v 0.625578 -0.009131 0.050000
v 0.608000 -0.017000 -0.050000
v 0.608000 -0.017000 0.050000
v 0.623022 -0.027708 -0.050000
v 0.623022 -0.027708 0.050000
v 0.637176 -0.039333 -0.050000
v 0.637176 -0.039333 0.050000
v 0.650594 -0.051875 -0.050000
v 0.650594 -0.051875 0.050000
v 0.663408 -0.065333 -0.050000
v 0.663408 -0.065333 0.050000
v 0.675749 -0.079708 -0.050000
v 0.675749 -0.079708 0.050000
v 0.687750 -0.095000 -0.050000
v 0.687750 -0.095000 0.050000
v 0.699543 -0.111208 -0.050000
v 0.699543 -0.111208 0.050000
v 0.711259 -0.128333 -0.050000
v 0.711259 -0.128333 0.050000
v 0.723031 -0.146375 -0.050000
v 0.723031 -0.146375 0.050000
v 0.734991 -0.165333 -0.050000
v 0.734991 -0.165333 0.050000
v 0.747270 -0.185208 -0.050000
v 0.747270 -0.185208 0.050000
v 0.760000 -0.206000 -0.050000
v 0.760000 -0.206000 0.050000
v 0.767025 -0.217288 -0.050000
v 0.767025 -0.217288 0.050000
v 0.773695 -0.227806 -0.050000
v 0.773695 -0.227806 0.050000
v 0.780156 -0.237781 -0.050000
v 0.780156 -0.237781 0.050000
v 0.786556 -0.247444 -0.050000
v 0.786556 -0.247444 0.050000
v 0.793038 -0.257024 -0.050000
v 0.793038 -0.257024 0.050000
v 0.799750 -0.266750 -0.050000
v 0.799750 -0.266750 0.050000
v 0.806837 -0.276851 -0.050000
v 0.806837 -0.276851 0.050000
v 0.814445 -0.287556 -0.050000
v 0.814445 -0.287556 0.050000
v 0.822719 -0.299094 -0.050000
v 0.822719 -0.299094 0.050000
v 0.831806 -0.311694 -0.050000
v 0.831806 -0.311694 0.050000
v 0.841851 -0.325587 -0.050000
v 0.841851 -0.325587 0.050000
v 0.853000 -0.341000 -0.050000
v 0.853000 -0.341000 0.050000
v 0.736000 -0.341000 -0.050000
v 0.736000 -0.341000 0.050000
v 0.646000 -0.201000 -0.050000
v 0.646000 -0.201000 0.050000
v 0.624487 -0.168521 -0.050000
v 0.624487 -0.168521 0.050000
v 0.604815 -0.140833 -0.050000
v 0.604815 -0.140833 0.050000
v 0.586781 -0.117563 -0.050000
v 0.586781 -0.117563 0.050000
v 0.570185 -0.098333 -0.050000
v 0.570185 -0.098333 0.050000
v 0.554825 -0.082771 -0.050000
v 0.554825 -0.082771 0.050000
v 0.540500 -0.070500 -0.050000
v 0.540500 -0.070500 0.050000
v 0.527008 -0.061146 -0.050000
v 0.527008 -0.061146 0.050000
v 0.514148 -0.054333 -0.050000
v 0.514148 -0.054333 0.050000
v 0.501719 -0.049688 -0.050000
v 0.501719 -0.049688 0.050000
v 0.489519 -0.046833 -0.050000
v 0.489519 -0.046833 0.050000
v 0.477346 -0.045396 -0.050000
v 0.477346 -0.045396 0.050000
v 0.465000 -0.045000 -0.050000
v 0.465000 -0.045000 0.050000
v 0.424000 -0.045000 -0.050000
v 0.424000 -0.045000 0.050000
v 0.424000 -0.341000 -0.050000
v 0.424000 -0.341000 0.050000
v 0.326000 -0.341000 -0.050000
v 0.326000 -0.341000 0.050000
v 0.326000 0.341000 -0.050000
v 0.326000 0.341000 0.050000
v 0.498000 0.341000 -0.050000
v 0.498000 0.341000 0.050000
v 0.487000 0.043000 -0.050000
v 0.487000 0.043000 0.050000
v 0.511713 0.044095 -0.050000
v 0.511713 0.044095 0.050000
v 0.533454 0.047264 -0.050000
v 0.533454 0.047264 0.050000
v 0.552375 0.052328 -0.050000
v 0.552375 0.052328 0.050000
v 0.568630 0.059111 -0.050000
v 0.568630 0.059111 0.050000
v 0.582371 0.067436 -0.050000
v 0.582371 0.067436 0.050000
v 0.593750 0.077125 -0.050000
v 0.593750 0.077125 0.050000
v 0.602921 0.088002 -0.050000
v 0.602921 0.088002 0.050000
v 0.610037 0.099889 -0.050000
v 0.610037 0.099889 0.050000
v 0.615250 0.112609 -0.050000
v 0.615250 0.112609 0.050000
v 0.618713 0.125986 -0.050000
v 0.618713 0.125986 0.050000
v 0.620579 0.139842 -0.050000
v 0.620579 0.139842 0.050000
v 0.621000 0.154000 -0.050000
v 0.621000 0.154000 0.050000
v 0.619968 0.169471 -0.050000
v 0.619968 0.169471 0.050000
v 0.617324 0.183852 -0.050000
v 0.617324 0.183852 0.050000
v 0.613000 0.197094 -0.050000
v 0.613000 0.197094 0.050000
v 0.606926 0.209148 -0.050000
v 0.606926 0.209148 0.050000
v 0.599033 0.219966 -0.050000
v 0.599033 0.219966 0.050000
v 0.589250 0.229500 -0.050000
v 0.589250 0.229500 0.050000
v 0.577509 0.237700 -0.050000
v 0.577509 0.237700 0.050000
v 0.563741 0.244519 -0.050000
v 0.563741 0.244519 0.050000
v 0.547875 0.249906 -0.050000
v 0.547875 0.249906 0.050000
v 0.529843 0.253815 -0.050000
v 0.529843 0.253815 0.050000
v 0.509574 0.256196 -0.050000
v 0.509574 0.256196 0.050000
v 0.487000 0.257000 -0.050000
v 0.487000 0.257000 0.050000
v 0.424000 0.257000 -0.050000
v 0.424000 0.257000 0.050000
v 0.424000 0.043000 -0.050000
v 0.424000 0.043000 0.050000
v 1.204000 0.253000 -0.050000
v 1.204000 0.253000 0.050000
v 1.204000 -0.341000 -0.050000
v 1.204000 -0.341000 0.050000
v 1.106000 -0.341000 -0.050000
v 1.106000 -0.341000 0.050000
v 1.106000 0.253000 -0.050000
v 1.106000 0.253000 0.050000
v 0.870000 0.253000 -0.050000
v 0.870000 0.253000 0.050000
v 0.870000 0.341000 -0.050000
v 0.870000 0.341000 0.050000
v 1.440000 0.341000 -0.050000
v 1.440000 0.341000 0.050000
v 1.440000 0.253000 -0.050000
v 1.440000 0.253000 0.050000
vn -0.0000 -0.0000 1.0000
vn -0.0000 1.0000 -0.0000
vn -0.0000 -0.0000 -1.0000
vn -0.6451 -0.7641 -0.0000
vn -0.5982 -0.8014 -0.0000
vn -0.5472 -0.8370 -0.0000
vn -0.4924 -0.8703 -0.0000
vn -0.4344 -0.9007 -0.0000
vn -0.3738 -0.9275 -0.0000
vn -0.3113 -0.9503 -0.0000
vn -0.2478 -0.9688 -0.0000
vn -0.1842 -0.9829 -0.0000
vn -0.1212 -0.9926 -0.0000
vn -0.0598 -0.9982 -0.0000
vn 0.0072 -1.0000 -0.0000
vn 0.0900 -0.9959 -0.0000
vn 0.1842 -0.9829 -0.0000
vn 0.2828 -0.9592 -0.0000
vn 0.3856 -0.9227 -0.0000
vn 0.4915 -0.8709 -0.0000
vn 0.5986 -0.8011 -0.0000
vn 0.7033 -0.7109 -0.0000
vn 0.8007 -0.5990 -0.0000
vn 0.8845 -0.4665 -0.0000
vn 0.9482 -0.3175 -0.0000
vn 0.9872 -0.1593 -0.0000
vn 0.9985 0.0556 -0.0000
vn 0.9314 0.3641 -0.0000
vn 0.7737 0.6335 -0.0000
vn 0.6274 0.7787 -0.0000
vn 0.5367 0.8438 -0.0000
vn 0.5005 0.8657 -0.0000
vn 0.5106 0.8598 -0.0000
vn 0.5617 0.8274 -0.0000
vn 0.6501 0.7599 -0.0000
vn 0.7661 0.6427 -0.0000
vn 0.8854 0.4648 -0.0000
vn 0.9712 0.2381 -0.0000
vn 0.9997 0.0262 -0.0000
vn 0.9918 -0.1282 -0.0000
vn 0.9663 -0.2574 -0.0000
vn 0.9231 -0.3845 -0.0000
vn 0.8626 -0.5058 -0.0000
vn 0.7860 -0.6182 -0.0000
vn 0.6952 -0.7188 -0.0000
vn 0.5927 -0.8055 -0.0000
vn 0.4810 -0.8767 -0.0000
vn 0.3632 -0.9317 -0.0000
vn 0.2420 -0.9703 -0.0000
vn 0.1202 -0.9928 -0.0000
vn 0.0182 -0.9998 -0.0000
vn -0.0471 -0.9989 -0.0000
vn -0.0968 -0.9953 -0.0000
vn -0.1491 -0.9888 -0.0000
vn -0.2033 -0.9791 -0.0000
vn -0.2586 -0.9660 -0.0000
vn -0.3140 -0.9494 -0.0000
vn -0.3686 -0.9296 -0.0000
vn -0.4214 -0.9069 -0.0000
vn -0.4717 -0.8817 -0.0000
vn -0.5189 -0.8549 -0.0000
vn -0.5623 -0.8269 -0.0000
vn -0.8896 -0.4567 -0.0000
vn -0.3393 0.9407 -0.0000
vn 0.7500 0.6614 -0.0000
vn 0.7074 0.7068 -0.0000
vn 0.6596 0.7516 -0.0000
vn 0.6063 0.7953 -0.0000
vn 0.5473 0.8370 -0.0000
vn 0.4825 0.8759 -0.0000
vn 0.4122 0.9111 -0.0000
vn 0.3367 0.9416 -0.0000
vn 0.2566 0.9665 -0.0000
vn 0.1730 0.9849 -0.0000
vn 0.0870 0.9962 -0.0000
vn -0.0048 1.0000 -0.0000
vn -0.1096 0.9940 -0.0000
vn -0.2246 0.9744 -0.0000
vn -0.3426 0.9395 -0.0000
vn -0.4598 0.8880 -0.0000
vn -0.5721 0.8202 -0.0000
vn -0.6758 0.7371 -0.0000
vn -0.7680 0.6404 -0.0000
vn -0.8467 0.5321 -0.0000
vn -0.9105 0.4135 -0.0000
vn -0.9584 0.2853 -0.0000
vn -0.9891 0.1473 -0.0000
vn -0.9988 -0.0497 -0.0000
vn -0.9418 -0.3362 -0.0000
vn -0.8047 -0.5937 -0.0000
vn -0.6690 -0.7433 -0.0000
vn -0.5764 -0.8172 -0.0000
vn -0.5308 -0.8475 -0.0000
vn -0.5272 -0.8497 -0.0000
vn -0.5624 -0.8268 -0.0000
vn -0.6354 -0.7722 -0.0000
vn -0.7422 -0.6702 -0.0000
vn -0.8648 -0.5021 -0.0000
vn -0.9638 -0.2666 -0.0000
vn -0.9994 -0.0352 -0.0000
vn -0.9917 0.1285 -0.0000
vn -0.9650 0.2624 -0.0000
vn -0.9175 0.3977 -0.0000
vn -0.8490 0.5283 -0.0000
vn -0.7616 0.6481 -0.0000
vn -0.6592 0.7519 -0.0000
vn -0.5474 0.8369 -0.0000
vn -0.4315 0.9021 -0.0000
vn -0.3162 0.9487 -0.0000
vn -0.2047 0.9788 -0.0000
vn -0.0992 0.9951 -0.0000
vn -0.0112 0.9999 -0.0000
vn 0.0512 0.9987 -0.0000
vn 0.1022 0.9948 -0.0000
vn 0.1527 0.9883 -0.0000
vn 0.2026 0.9793 -0.0000
vn 0.2515 0.9679 -0.0000
vn 0.2993 0.9542 -0.0000
vn 0.3458 0.9383 -0.0000
vn 0.3909 0.9204 -0.0000
vn 0.4344 0.9007 -0.0000
vn 0.4763 0.8793 -0.0000
vn 0.5164 0.8564 -0.0000
vn 0.8763 0.4818 -0.0000
vn 0.4078 -0.9131 -0.0000
vn 0.7071 -0.7071 -0.0000
vn -0.7071 -0.7071 -0.0000
vn -0.7071 0.7071 -0.0000
vn 0.7071 0.7071 -0.0000
vn -0.5420 -0.8404 -0.0000
vn 0.5507 -0.8347 -0.0000
vn -0.8345 -0.5510 -0.0000
vn -0.5510 0.8345 -0.0000
vn 0.5449 0.8385 -0.0000
vn 0.8385 -0.5449 -0.0000
vn -0.8387 0.5446 -0.0000
vn 0.0137 -0.9999 -0.0000
vn 0.8312 0.5560 -0.0000
vn 0.0934 0.9956 -0.0000
vn 0.1942 0.9810 -0.0000
vn 0.3028 0.9531 -0.0000
vn 0.4173 0.9088 -0.0000
vn 0.5344 0.8453 -0.0000
vn 0.6490 0.7608 -0.0000
vn 0.7549 0.6558 -0.0000
vn 0.8457 0.5336 -0.0000
vn 0.9164 0.4002 -0.0000
vn 0.9649 0.2627 -0.0000
vn 0.9918 0.1279 -0.0000
vn 1.0000 0.0091 -0.0000
vn 0.9960 -0.0898 -0.0000
vn 0.9830 -0.1836 -0.0000
vn 0.9599 -0.2804 -0.0000
vn 0.9258 -0.3780 -0.0000
vn 0.8806 -0.4739 -0.0000
vn 0.8247 -0.5655 -0.0000
vn 0.7596 -0.6504 -0.0000
vn 0.6872 -0.7265 -0.0000
vn 0.6098 -0.7926 -0.0000
vn 0.5297 -0.8482 -0.0000
vn 0.4492 -0.8935 -0.0000
vn 0.9951 -0.0990 -0.0000
vn 0.6079 0.7940 -0.0000
vn 0.6591 0.7520 -0.0000
vn 0.7038 0.7104 -0.0000
vn 0.7417 0.6707 -0.0000
vn 0.7729 0.6345 -0.0000
vn 0.7978 0.6030 -0.0000
vn 0.8171 0.5766 -0.0000
vn 0.8315 0.5556 -0.0000
vn 0.8417 0.5400 -0.0000
vn 0.8483 0.5296 -0.0000
vn 0.8518 0.5239 -0.0000
vn 0.8509 0.5253 -0.0000
vn 0.8468 0.5320 -0.0000
vn 0.8419 0.5396 -0.0000
vn 0.8365 0.5479 -0.0000
vn 0.8310 0.5563 -0.0000
vn 0.8256 0.5642 -0.0000
vn 0.8208 0.5712 -0.0000
vn 0.8169 0.5768 -0.0000
vn 0.8139 0.5810 -0.0000
vn 0.8119 0.5838 -0.0000
vn 0.8107 0.5854 -0.0000
vn 0.8103 0.5860 -0.0000
vn 0.8905 -0.4549 -0.0000
vn -0.4792 -0.8777 -0.0000
vn -0.8375 -0.5465 -0.0000
vn -0.8246 -0.5658 -0.0000
vn -0.8030 -0.5960 -0.0000
vn -0.7740 -0.6332 -0.0000
vn -0.7348 -0.6783 -0.0000
vn -0.6817 -0.7316 -0.0000
vn -0.6110 -0.7917 -0.0000
vn -0.5199 -0.8542 -0.0000
vn -0.4100 -0.9121 -0.0000
vn -0.2895 -0.9572 -0.0000
vn -0.1728 -0.9850 -0.0000
vn -0.0747 -0.9972 -0.0000
vn -0.0160 -0.9999 -0.0000
vn 0.0225 0.9997 -0.0000
vn -0.0221 0.9998 -0.0000
vn -0.0944 0.9955 -0.0000
vn -0.2017 0.9794 -0.0000
vn -0.3226 0.9466 -0.0000
vn -0.4529 0.8916 -0.0000
vn -0.5851 0.8110 -0.0000
vn -0.7088 0.7054 -0.0000
vn -0.8139 0.5810 -0.0000
vn -0.8942 0.4477 -0.0000
vn -0.9489 0.3156 -0.0000
vn -0.9813 0.1924 -0.0000
vn -0.9967 0.0817 -0.0000
vn -0.9998 -0.0184 -0.0000
vn -0.9923 -0.1239 -0.0000
vn -0.9692 -0.2462 -0.0000
vn -0.9245 -0.3813 -0.0000
vn -0.8533 -0.5215 -0.0000
vn -0.7555 -0.6551 -0.0000
vn -0.6374 -0.7705 -0.0000
vn -0.5096 -0.8604 -0.0000
vn -0.3835 -0.9235 -0.0000
vn -0.2671 -0.9637 -0.0000
vn -0.1644 -0.9864 -0.0000
vn -0.0762 -0.9971 -0.0000
vn -0.0178 -0.9998 -0.0000
vt 0.571429 0.000000
vt 0.857143 0.000000
vt 0.714286 0.000000
vt 1.000000 0.000000
vt 0.428571 0.000000
vt 0.285714 0.000000
vt 0.000000 0.000000
vt 0.142857 0.000000
vt 0.688172 0.000000
vt 0.989247 0.000000
vt 0.698925 0.000000
vt 0.709677 0.000000
vt 0.010753 0.000000
vt 0.021505 0.000000
vt 0.032258 0.000000
vt 0.043011 0.000000
vt 0.053763 0.000000
vt 0.064516 0.000000
vt 0.978495 0.000000
vt 0.075269 0.000000
vt 0.967742 0.000000
vt 0.956989 0.000000
vt 0.946237 0.000000
vt 0.086022 0.000000
vt 0.935484 0.000000
vt 0.924731 0.000000
vt 0.913979 0.000000
vt 0.096774 0.000000
vt 0.903226 0.000000
vt 0.892473 0.000000
vt 0.881720 0.000000
vt 0.107527 0.000000
vt 0.870968 0.000000
vt 0.860215 0.000000
vt 0.118280 0.000000
vt 0.849462 0.000000
vt 0.838710 0.000000
vt 0.129032 0.000000
vt 0.827957 0.000000
vt 0.139785 0.000000
vt 0.817204 0.000000
vt 0.806452 0.000000
vt 0.150538 0.000000
vt 0.795699 0.000000
vt 0.161290 0.000000
vt 0.784946 0.000000
vt 0.172043 0.000000
vt 0.774194 0.000000
vt 0.763441 0.000000
vt 0.182796 0.000000
vt 0.752688 0.000000
vt 0.741935 0.000000
vt 0.193548 0.000000
vt 0.731183 0.000000
vt 0.720430 0.000000
vt 0.666667 0.000000
vt 0.204301 0.000000
vt 0.215054 0.000000
vt 0.225806 0.000000
vt 0.236559 0.000000
vt 0.247312 0.000000
vt 0.258065 0.000000
vt 0.268817 0.000000
vt 0.655914 0.000000
vt 0.645161 0.000000
vt 0.279570 0.000000
vt 0.677419 0.000000
vt 0.634409 0.000000
vt 0.623656 0.000000
vt 0.612903 0.000000
vt 0.290323 0.000000
vt 0.602151 0.000000
vt 0.591398 0.000000
vt 0.301075 0.000000
vt 0.580645 0.000000
vt 0.311828 0.000000
vt 0.569892 0.000000
vt 0.322581 0.000000
vt 0.559140 0.000000
vt 0.333333 0.000000
vt 0.548387 0.000000
vt 0.344086 0.000000
vt 0.537634 0.000000
vt 0.354839 0.000000
vt 0.365591 0.000000
vt 0.526882 0.000000
vt 0.376344 0.000000
vt 0.516129 0.000000
vt 0.387097 0.000000
vt 0.397849 0.000000
vt 0.408602 0.000000
vt 0.419355 0.000000
vt 0.430108 0.000000
vt 0.440860 0.000000
vt 0.451613 0.000000
vt 0.462366 0.000000
vt 0.473118 0.000000
vt 0.483871 0.000000
vt 0.494624 0.000000
vt 0.505376 0.000000
vt 0.400000 0.000000
vt 0.600000 0.000000
vt 0.500000 0.000000
vt 0.900000 0.000000
vt 0.700000 0.000000
vt 0.800000 0.000000
vt 0.200000 0.000000
vt 0.100000 0.000000
vt 0.300000 0.000000
vt 0.884298 0.000000
vt 0.900826 0.000000
vt 0.892562 0.000000
vt 0.909091 0.000000
vt 0.917355 0.000000
vt 0.876033 0.000000
vt 0.925620 0.000000
vt 0.933884 0.000000
vt 0.867769 0.000000
vt 0.942149 0.000000
vt 0.950413 0.000000
vt 0.859504 0.000000
vt 0.958678 0.000000
vt 0.966942 0.000000
vt 0.851240 0.000000
vt 0.975207 0.000000
vt 0.983471 0.000000
vt 0.842975 0.000000
vt 0.991736 0.000000
vt 0.057851 0.000000
vt 0.049587 0.000000
vt 0.041322 0.000000
vt 0.033058 0.000000
vt 0.024793 0.000000
vt 0.016529 0.000000
vt 0.008264 0.000000
vt 0.834711 0.000000
vt 0.074380 0.000000
vt 0.066116 0.000000
vt 0.826446 0.000000
vt 0.090909 0.000000
vt 0.082645 0.000000
vt 0.818182 0.000000
vt 0.099174 0.000000
vt 0.107438 0.000000
vt 0.115702 0.000000
vt 0.123967 0.000000
vt 0.132231 0.000000
vt 0.140496 0.000000
vt 0.809917 0.000000
vt 0.148760 0.000000
vt 0.157025 0.000000
vt 0.165289 0.000000
vt 0.801653 0.000000
vt 0.173554 0.000000
vt 0.181818 0.000000
vt 0.793388 0.000000
vt 0.190083 0.000000
vt 0.198347 0.000000
vt 0.785124 0.000000
vt 0.206612 0.000000
vt 0.214876 0.000000
vt 0.776860 0.000000
vt 0.223140 0.000000
vt 0.768595 0.000000
vt 0.231405 0.000000
vt 0.239669 0.000000
vt 0.760331 0.000000
vt 0.247934 0.000000
vt 0.752066 0.000000
vt 0.256198 0.000000
vt 0.743802 0.000000
vt 0.264463 0.000000
vt 0.735537 0.000000
vt 0.272727 0.000000
vt 0.727273 0.000000
vt 0.719008 0.000000
vt 0.280992 0.000000
vt 0.710744 0.000000
vt 0.702479 0.000000
vt 0.289256 0.000000
vt 0.694215 0.000000
vt 0.487603 0.000000
vt 0.504132 0.000000
vt 0.495868 0.000000
vt 0.297521 0.000000
vt 0.685950 0.000000
vt 0.512397 0.000000
vt 0.677686 0.000000
vt 0.305785 0.000000
vt 0.520661 0.000000
vt 0.669421 0.000000
vt 0.528926 0.000000
vt 0.661157 0.000000
vt 0.652893 0.000000
vt 0.314050 0.000000
vt 0.537190 0.000000
vt 0.644628 0.000000
vt 0.545455 0.000000
vt 0.636364 0.000000
vt 0.553719 0.000000
vt 0.322314 0.000000
vt 0.628099 0.000000
vt 0.561983 0.000000
vt 0.619835 0.000000
vt 0.570248 0.000000
vt 0.611570 0.000000
vt 0.578512 0.000000
vt 0.603306 0.000000
vt 0.586777 0.000000
vt 0.330579 0.000000
vt 0.595041 0.000000
vt 0.338843 0.000000
vt 0.479339 0.000000
vt 0.471074 0.000000
vt 0.347107 0.000000
vt 0.462810 0.000000
vt 0.355372 0.000000
vt 0.454545 0.000000
vt 0.446281 0.000000
vt 0.363636 0.000000
vt 0.438017 0.000000
vt 0.429752 0.000000
vt 0.371901 0.000000
vt 0.421488 0.000000
vt 0.413223 0.000000
vt 0.380165 0.000000
vt 0.404959 0.000000
vt 0.396694 0.000000
vt 0.388430 0.000000
vt 0.000000 1.000000
vt 0.008197 1.000000
vt 0.008197 0.000000
vt 0.016393 1.000000
vt 0.016393 0.000000
vt 0.024590 1.000000
vt 0.024590 0.000000
vt 0.032787 1.000000
vt 0.032787 0.000000
vt 0.040984 1.000000
vt 0.040984 0.000000
vt 0.049180 1.000000
vt 0.049180 0.000000
vt 0.057377 1.000000
vt 0.057377 0.000000
vt 0.065574 1.000000
vt 0.065574 0.000000
vt 0.073770 1.000000
vt 0.073770 0.000000
vt 0.081967 1.000000
vt 0.081967 0.000000
vt 0.090164 1.000000
vt 0.090164 0.000000
vt 0.098361 1.000000
vt 0.098361 0.000000
vt 0.106557 1.000000
vt 0.106557 0.000000
vt 0.114754 1.000000
vt 0.114754 0.000000
vt 0.122951 1.000000
vt 0.122951 0.000000
vt 0.131148 1.000000
vt 0.131148 0.000000
vt 0.139344 1.000000
vt 0.139344 0.000000
vt 0.147541 1.000000
vt 0.147541 0.000000
vt 0.155738 1.000000
vt 0.155738 0.000000
vt 0.163934 1.000000
vt 0.163934 0.000000
vt 0.172131 1.000000
vt 0.172131 0.000000
vt 0.180328 1.000000
vt 0.180328 0.000000
vt 0.188525 1.000000
vt 0.188525 0.000000
vt 0.196721 1.000000
vt 0.196721 0.000000
vt 0.204918 1.000000
vt 0.204918 0.000000
vt 0.213115 1.000000
vt 0.213115 0.000000
vt 0.221311 1.000000
vt 0.221311 0.000000
vt 0.229508 1.000000
vt 0.229508 0.000000
vt 0.237705 1.000000
vt 0.237705 0.000000
vt 0.245902 1.000000
vt 0.245902 0.000000
vt 0.254098 1.000000
vt 0.254098 0.000000
vt 0.262295 1.000000
vt 0.262295 0.000000
vt 0.270492 1.000000
vt 0.270492 0.000000
vt 0.278689 1.000000
vt 0.278689 0.000000
vt 0.286885 1.000000
vt 0.286885 0.000000
vt 0.295082 1.000000
vt 0.295082 0.000000
vt 0.303279 1.000000
vt 0.303279 0.000000
vt 0.311475 1.000000
vt 0.311475 0.000000
vt 0.319672 1.000000
vt 0.319672 0.000000
vt 0.327869 1.000000
vt 0.327869 0.000000
vt 0.336066 1.000000
vt 0.336066 0.000000
vt 0.344262 1.000000
vt 0.344262 0.000000
vt 0.352459 1.000000
vt 0.352459 0.000000
vt 0.360656 1.000000
vt 0.360656 0.000000
vt 0.368852 1.000000
vt 0.368852 0.000000
vt 0.377049 1.000000
vt 0.377049 0.000000
vt 0.385246 1.000000
vt 0.385246 0.000000
vt 0.393443 1.000000
vt 0.393443 0.000000
vt 0.401639 1.000000
vt 0.401639 0.000000
vt 0.409836 1.000000
vt 0.409836 0.000000
vt 0.418033 1.000000
vt 0.418033 0.000000
vt 0.426230 1.000000
vt 0.426230 0.000000
vt 0.434426 1.000000
vt 0.434426 0.000000
vt 0.442623 1.000000
vt 0.442623 0.000000
vt 0.450820 1.000000
vt 0.450820 0.000000
vt 0.459016 1.000000
vt 0.459016 0.000000
vt 0.467213 1.000000
vt 0.467213 0.000000
vt 0.475410 1.000000
vt 0.475410 0.000000
vt 0.483607 1.000000
vt 0.483607 0.000000
vt 0.491803 1.000000
vt 0.491803 0.000000
vt 0.500000 1.000000
vt 0.508197 1.000000
vt 0.508197 0.000000
vt 0.516393 1.000000
vt 0.516393 0.000000
vt 0.524590 1.000000
vt 0.524590 0.000000
vt 0.532787 1.000000
vt 0.532787 0.000000
vt 0.540984 1.000000
vt 0.540984 0.000000
vt 0.549180 1.000000
vt 0.549180 0.000000
vt 0.557377 1.000000
vt 0.557377 0.000000
vt 0.565574 1.000000
vt 0.565574 0.000000
vt 0.573770 1.000000
vt 0.573770 0.000000
vt 0.581967 1.000000
vt 0.581967 0.000000
vt 0.590164 1.000000
vt 0.590164 0.000000
vt 0.598361 1.000000
vt 0.598361 0.000000
vt 0.606557 1.000000
vt 0.606557 0.000000
vt 0.614754 1.000000
vt 0.614754 0.000000
vt 0.622951 1.000000
vt 0.622951 0.000000
vt 0.631148 1.000000
vt 0.631148 0.000000
vt 0.639344 1.000000
vt 0.639344 0.000000
vt 0.647541 1.000000
vt 0.647541 0.000000
vt 0.655738 1.000000
vt 0.655738 0.000000
vt 0.663934 1.000000
vt 0.663934 0.000000
vt 0.672131 1.000000
vt 0.672131 0.000000
vt 0.680328 1.000000
vt 0.680328 0.000000
vt 0.688525 1.000000
vt 0.688525 0.000000
vt 0.696721 1.000000
vt 0.696721 0.000000
vt 0.704918 1.000000
vt 0.704918 0.000000
vt 0.713115 1.000000
vt 0.713115 0.000000
vt 0.721311 1.000000
vt 0.721311 0.000000
vt 0.729508 1.000000
vt 0.729508 0.000000
vt 0.737705 1.000000
vt 0.737705 0.000000
vt 0.745902 1.000000
vt 0.745902 0.000000
vt 0.754098 1.000000
vt 0.754098 0.000000
vt 0.762295 1.000000
vt 0.762295 0.000000
vt 0.770492 1.000000
vt 0.770492 0.000000
vt 0.778689 1.000000
vt 0.778689 0.000000
vt 0.786885 1.000000
vt 0.786885 0.000000
vt 0.795082 1.000000
vt 0.795082 0.000000
vt 0.803279 1.000000
vt 0.803279 0.000000
vt 0.811475 1.000000
vt 0.811475 0.000000
vt 0.819672 1.000000
vt 0.819672 0.000000
vt 0.827869 1.000000
vt 0.827869 0.000000
vt 0.836066 1.000000
vt 0.836066 0.000000
vt 0.844262 1.000000
vt 0.844262 0.000000
vt 0.852459 1.000000
vt 0.852459 0.000000
vt 0.860656 1.000000
vt 0.860656 0.000000
vt 0.868852 1.000000
vt 0.868852 0.000000
vt 0.877049 1.000000
vt 0.877049 0.000000
vt 0.885246 1.000000
vt 0.885246 0.000000
vt 0.893443 1.000000
vt 0.893443 0.000000
vt 0.901639 1.000000
vt 0.901639 0.000000
vt 0.909836 1.000000
vt 0.909836 0.000000
vt 0.918033 1.000000
vt 0.918033 0.000000
vt 0.926230 1.000000
vt 0.926230 0.000000
vt 0.934426 1.000000
vt 0.934426 0.000000
vt 0.942623 1.000000
vt 0.942623 0.000000
vt 0.950820 1.000000
vt 0.950820 0.000000
vt 0.959016 1.000000
vt 0.959016 0.000000
vt 0.967213 1.000000
vt 0.967213 0.000000
vt 0.975410 1.000000
vt 0.975410 0.000000
vt 0.983607 1.000000
vt 0.983607 0.000000
vt 0.991803 1.000000
vt 0.991803 0.000000
vt 1.000000 1.000000
vt 0.125000 1.000000
vt 0.125000 0.000000
vt 0.250000 1.000000
vt 0.250000 0.000000
vt 0.375000 1.000000
vt 0.375000 0.000000
vt 0.625000 1.000000
vt 0.625000 0.000000
vt 0.750000 1.000000
vt 0.750000 0.000000
vt 0.875000 1.000000
vt 0.875000 0.000000
vt 0.333333 1.000000
vt 0.666667 1.000000
vt 0.014925 1.000000
vt 0.014925 0.000000
vt 0.029851 1.000000
vt 0.029851 0.000000
vt 0.044776 1.000000
vt 0.044776 0.000000
vt 0.059701 1.000000
vt 0.059701 0.000000
vt 0.074627 1.000000
vt 0.074627 0.000000
vt 0.089552 1.000000
vt 0.089552 0.000000
vt 0.104478 1.000000
vt 0.104478 0.000000
vt 0.119403 1.000000
vt 0.119403 0.000000
vt 0.134328 1.000000
vt 0.134328 0.000000
vt 0.149254 1.000000
vt 0.149254 0.000000
vt 0.164179 1.000000
vt 0.164179 0.000000
vt 0.179104 1.000000
vt 0.179104 0.000000
vt 0.194030 1.000000
vt 0.194030 0.000000
vt 0.208955 1.000000
vt 0.208955 0.000000
vt 0.223881 1.000000
vt 0.223881 0.000000
vt 0.238806 1.000000
vt 0.238806 0.000000
vt 0.253731 1.000000
vt 0.253731 0.000000
vt 0.268657 1.000000
vt 0.268657 0.000000
vt 0.283582 1.000000
vt 0.283582 0.000000
vt 0.298507 1.000000
vt 0.298507 0.000000
vt 0.313433 1.000000
vt 0.313433 0.000000
vt 0.328358 1.000000
vt 0.328358 0.000000
vt 0.343284 1.000000
vt 0.343284 0.000000
vt 0.358209 1.000000
vt 0.358209 0.000000
vt 0.373134 1.000000
vt 0.373134 0.000000
vt 0.388060 1.000000
vt 0.388060 0.000000
vt 0.402985 1.000000
vt 0.402985 0.000000
vt 0.417910 1.000000
vt 0.417910 0.000000
vt 0.432836 1.000000
vt 0.432836 0.000000
vt 0.447761 1.000000
vt 0.447761 0.000000
vt 0.462687 1.000000
vt 0.462687 0.000000
vt 0.477612 1.000000
vt 0.477612 0.000000
vt 0.492537 1.000000
vt 0.492537 0.000000
vt 0.507463 1.000000
vt 0.507463 0.000000
vt 0.522388 1.000000
vt 0.522388 0.000000
vt 0.537313 1.000000
vt 0.537313 0.000000
vt 0.552239 1.000000
vt 0.552239 0.000000
vt 0.567164 1.000000
vt 0.567164 0.000000
vt 0.582090 1.000000
vt 0.582090 0.000000
vt 0.597015 1.000000
vt 0.597015 0.000000
vt 0.611940 1.000000
vt 0.611940 0.000000
vt 0.626866 1.000000
vt 0.626866 0.000000
vt 0.641791 1.000000
vt 0.641791 0.000000
vt 0.656716 1.000000
vt 0.656716 0.000000
vt 0.671642 1.000000
vt 0.671642 0.000000
vt 0.686567 1.000000
vt 0.686567 0.000000
vt 0.701493 1.000000
vt 0.701493 0.000000
vt 0.716418 1.000000
vt 0.716418 0.000000
vt 0.731343 1.000000
vt 0.731343 0.000000
vt 0.746269 1.000000
vt 0.746269 0.000000
vt 0.761194 1.000000
vt 0.761194 0.000000
vt 0.776119 1.000000
vt 0.776119 0.000000
vt 0.791045 1.000000
vt 0.791045 0.000000
vt 0.805970 1.000000
vt 0.805970 0.000000
vt 0.820895 1.000000
vt 0.820895 0.000000
vt 0.835821 1.000000
vt 0.835821 0.000000
vt 0.850746 1.000000
vt 0.850746 0.000000
vt 0.865672 1.000000
vt 0.865672 0.000000
vt 0.880597 1.000000
vt 0.880597 0.000000
vt 0.895522 1.000000
vt 0.895522 0.000000
vt 0.910448 1.000000
vt 0.910448 0.000000
vt 0.925373 1.000000
vt 0.925373 0.000000
vt 0.940298 1.000000
vt 0.940298 0.000000
vt 0.955224 1.000000
vt 0.955224 0.000000
vt 0.970149 1.000000
vt 0.970149 0.000000
vt 0.985075 1.000000
vt 0.985075 0.000000
vt 0.037037 1.000000
vt 0.037037 0.000000
vt 0.074074 1.000000
vt 0.074074 0.000000
vt 0.111111 1.000000
vt 0.111111 0.000000
vt 0.148148 1.000000
vt 0.148148 0.000000
vt 0.185185 1.000000
vt 0.185185 0.000000
vt 0.222222 1.000000
vt 0.222222 0.000000
vt 0.259259 1.000000
vt 0.259259 0.000000
vt 0.296296 1.000000
vt 0.296296 0.000000
vt 0.370370 1.000000
vt 0.370370 0.000000
vt 0.407407 1.000000
vt 0.407407 0.000000
vt 0.444444 1.000000
vt 0.444444 0.000000
vt 0.481481 1.000000
vt 0.481481 0.000000
vt 0.518519 1.000000
vt 0.518519 0.000000
vt 0.555556 1.000000
vt 0.555556 0.000000
vt 0.592593 1.000000
vt 0.592593 0.000000
vt 0.629630 1.000000
vt 0.629630 0.000000
vt 0.703704 1.000000
vt 0.703704 0.000000
vt 0.740741 1.000000
vt 0.740741 0.000000
vt 0.777778 1.000000
vt 0.777778 0.000000
vt 0.814815 1.000000
vt 0.814815 0.000000
vt 0.851852 1.000000
vt 0.851852 0.000000
vt 0.888889 1.000000
vt 0.888889 0.000000
vt 0.925926 1.000000
vt 0.925926 0.000000
vt 0.962963 1.000000
vt 0.962963 0.000000
s 0
usemtl マテリアル.006
f 5/1/1 7/2/1 6/3/1
f 5/1/1 8/4/1 7/2/1
f 4/5/2 8/4/2 5/1/2
f 3/6/1 1/7/1 4/5/1
f 1/7/2 8/4/2 4/5/2
f 3/6/1 2/8/1 1/7/1
f 73/9/1 101/10/1 74/11/1
f 101/10/1 75/12/1 74/11/1
f 101/10/1 9/7/1 75/12/1
f 101/10/1 10/13/1 9/7/1
f 101/10/1 11/14/1 10/13/1
f 101/10/1 12/15/1 11/14/1
f 101/10/1 13/16/1 12/15/1
f 101/10/1 14/17/1 13/16/1
f 101/10/1 15/18/1 14/17/1
f 101/10/1 100/19/1 15/18/1
f 100/19/1 16/20/1 15/18/1
f 73/9/1 102/4/1 101/10/1
f 99/21/1 16/20/1 100/19/1
f 98/22/1 16/20/1 99/21/1
f 97/23/1 16/20/1 98/22/1
f 97/23/1 17/24/1 16/20/1
f 96/25/1 17/24/1 97/23/1
f 95/26/1 17/24/1 96/25/1
f 94/27/1 17/24/1 95/26/1
f 94/27/1 18/28/1 17/24/1
f 93/29/1 18/28/1 94/27/1
f 92/30/1 18/28/1 93/29/1
f 91/31/1 18/28/1 92/30/1
f 91/31/1 19/32/1 18/28/1
f 90/33/1 19/32/1 91/31/1
f 89/34/1 19/32/1 90/33/1
f 89/34/1 20/35/1 19/32/1
f 88/36/1 20/35/1 89/34/1
f 87/37/1 20/35/1 88/36/1
f 87/37/1 21/38/1 20/35/1
f 86/39/1 21/38/1 87/37/1
f 86/39/1 22/40/1 21/38/1
f 85/41/1 22/40/1 86/39/1
f 84/42/1 22/40/1 85/41/1
f 84/42/1 23/43/1 22/40/1
f 83/44/1 23/43/1 84/42/1
f 83/44/1 24/45/1 23/43/1
f 82/46/1 24/45/1 83/44/1
f 82/46/1 25/47/1 24/45/1
f 81/48/1 25/47/1 82/46/1
f 80/49/1 25/47/1 81/48/1
f 80/49/1 26/50/1 25/47/1
f 79/51/1 26/50/1 80/49/1
f 78/52/1 26/50/1 79/51/1
f 78/52/1 27/53/1 26/50/1
f 77/54/1 27/53/1 78/52/1
f 76/55/1 27/53/1 77/54/1
f 73/9/1 71/56/1 102/4/1
f 71/56/1 76/55/1 102/4/1
f 71/56/1 27/53/1 76/55/1
f 71/56/1 28/57/1 27/53/1
f 71/56/1 29/58/1 28/57/1
f 71/56/1 30/59/1 29/58/1
f 71/56/1 31/60/1 30/59/1
f 71/56/1 32/61/1 31/60/1
f 71/56/1 33/62/1 32/61/1
f 71/56/1 34/63/1 33/62/1
f 71/56/1 70/64/1 34/63/1
f 70/64/1 69/65/1 34/63/1
f 69/65/1 35/66/1 34/63/1
f 73/9/1 72/67/1 71/56/1
f 68/68/1 35/66/1 69/65/1
f 67/69/1 35/66/1 68/68/1
f 66/70/1 35/66/1 67/69/1
f 66/70/1 36/71/1 35/66/1
f 65/72/1 36/71/1 66/70/1
f 64/73/1 36/71/1 65/72/1
f 64/73/1 37/74/1 36/71/1
f 63/75/1 37/74/1 64/73/1
f 63/75/1 38/76/1 37/74/1
f 62/77/1 38/76/1 63/75/1
f 62/77/1 39/78/1 38/76/1
f 61/79/1 39/78/1 62/77/1
f 61/79/1 40/80/1 39/78/1
f 60/81/1 40/80/1 61/79/1
f 60/81/1 41/82/1 40/80/1
f 59/83/1 41/82/1 60/81/1
f 59/83/1 42/84/1 41/82/1
f 59/83/1 43/85/1 42/84/1
f 58/86/1 43/85/1 59/83/1
f 58/86/1 44/87/1 43/85/1
f 57/88/1 44/87/1 58/86/1
f 57/88/1 45/89/1 44/87/1
f 57/88/1 46/90/1 45/89/1
f 57/88/1 47/91/1 46/90/1
f 57/88/1 48/92/1 47/91/1
f 57/88/1 49/93/1 48/92/1
f 57/88/1 50/94/1 49/93/1
f 57/88/1 51/95/1 50/94/1
f 57/88/1 52/96/1 51/95/1
f 57/88/1 53/97/1 52/96/1
f 57/88/1 54/98/1 53/97/1
f 57/88/1 55/99/1 54/98/1
f 57/88/1 56/100/1 55/99/1
f 107/101/1 109/102/1 108/103/1
f 107/101/1 112/104/1 109/102/1
f 112/104/1 110/105/1 109/102/1
f 107/101/1 113/4/1 112/104/1
f 111/106/1 110/105/1 112/104/1
f 107/101/1 105/107/1 113/4/1
f 105/107/1 111/106/1 113/4/1
f 105/107/1 104/108/1 111/106/1
f 104/108/1 110/105/1 111/106/1
f 107/101/1 106/109/1 105/107/1
f 103/7/1 110/105/1 104/108/1
f 118/1/1 120/2/1 119/3/1
f 118/1/1 121/4/1 120/2/1
f 117/5/2 121/4/2 118/1/2
f 116/6/1 114/7/1 117/5/1
f 114/7/2 121/4/2 117/5/2
f 116/6/1 115/8/1 114/7/1
f 229/110/1 231/111/1 230/112/1
f 229/110/1 232/113/1 231/111/1
f 229/110/1 233/114/1 232/113/1
f 228/115/1 233/114/1 229/110/1
f 228/115/1 234/116/1 233/114/1
f 228/115/1 235/117/1 234/116/1
f 227/118/1 235/117/1 228/115/1
f 227/118/1 236/119/1 235/117/1
f 227/118/1 237/120/1 236/119/1
f 226/121/1 237/120/1 227/118/1
f 226/121/1 238/122/1 237/120/1
f 226/121/1 239/123/1 238/122/1
f 225/124/1 239/123/1 226/121/1
f 225/124/1 240/125/1 239/123/1
f 225/124/1 241/126/1 240/125/1
f 224/127/1 241/126/1 225/124/1
f 224/127/1 242/128/1 241/126/1
f 224/127/1 129/129/1 242/128/1
f 129/129/1 128/130/1 242/128/1
f 128/130/1 127/131/1 242/128/1
f 127/131/1 126/132/1 242/128/1
f 126/132/1 125/133/1 242/128/1
f 125/133/1 124/134/1 242/128/1
f 124/134/1 123/135/1 242/128/1
f 123/135/1 122/7/1 242/128/1
f 122/7/1 243/4/1 242/128/1
f 223/136/1 131/137/1 224/127/1
f 131/137/1 130/138/1 224/127/1
f 130/138/1 129/129/1 224/127/1
f 222/139/1 133/140/1 223/136/1
f 133/140/1 132/141/1 223/136/1
f 132/141/1 131/137/1 223/136/1
f 221/142/1 134/143/1 222/139/1
f 134/143/1 133/140/1 222/139/1
f 221/142/1 135/144/1 134/143/1
f 221/142/1 136/145/1 135/144/1
f 221/142/1 137/146/1 136/145/1
f 221/142/1 138/147/1 137/146/1
f 221/142/1 139/148/1 138/147/1
f 220/149/1 139/148/1 221/142/1
f 220/149/1 140/150/1 139/148/1
f 220/149/1 141/151/1 140/150/1
f 220/149/1 142/152/1 141/151/1
f 219/153/1 142/152/1 220/149/1
f 219/153/1 143/154/1 142/152/1
f 219/153/1 144/155/1 143/154/1
f 218/156/1 144/155/1 219/153/1
f 218/156/1 145/157/1 144/155/1
f 218/156/1 146/158/1 145/157/1
f 217/159/1 146/158/1 218/156/1
f 217/159/1 147/160/1 146/158/1
f 217/159/1 148/161/1 147/160/1
f 216/162/1 148/161/1 217/159/1
f 216/162/1 149/163/1 148/161/1
f 215/164/1 149/163/1 216/162/1
f 215/164/1 150/165/1 149/163/1
f 215/164/1 151/166/1 150/165/1
f 214/167/1 151/166/1 215/164/1
f 214/167/1 152/168/1 151/166/1
f 213/169/1 152/168/1 214/167/1
f 213/169/1 153/170/1 152/168/1
f 212/171/1 153/170/1 213/169/1
f 212/171/1 154/172/1 153/170/1
f 211/173/1 154/172/1 212/171/1
f 211/173/1 155/174/1 154/172/1
f 210/175/1 155/174/1 211/173/1
f 209/176/1 155/174/1 210/175/1
f 209/176/1 156/177/1 155/174/1
f 208/178/1 156/177/1 209/176/1
f 207/179/1 156/177/1 208/178/1
f 207/179/1 157/180/1 156/177/1
f 206/181/1 157/180/1 207/179/1
f 181/182/1 183/183/1 182/184/1
f 206/181/1 158/185/1 157/180/1
f 205/186/1 158/185/1 206/181/1
f 181/182/1 184/187/1 183/183/1
f 204/188/1 158/185/1 205/186/1
f 204/188/1 159/189/1 158/185/1
f 181/182/1 185/190/1 184/187/1
f 203/191/1 159/189/1 204/188/1
f 181/182/1 186/192/1 185/190/1
f 202/193/1 159/189/1 203/191/1
f 201/194/1 159/189/1 202/193/1
f 201/194/1 160/195/1 159/189/1
f 181/182/1 187/196/1 186/192/1
f 200/197/1 160/195/1 201/194/1
f 181/182/1 188/198/1 187/196/1
f 199/199/1 160/195/1 200/197/1
f 181/182/1 189/200/1 188/198/1
f 199/199/1 161/201/1 160/195/1
f 198/202/1 161/201/1 199/199/1
f 181/182/1 190/203/1 189/200/1
f 197/204/1 161/201/1 198/202/1
f 181/182/1 191/205/1 190/203/1
f 196/206/1 161/201/1 197/204/1
f 181/182/1 192/207/1 191/205/1
f 195/208/1 161/201/1 196/206/1
f 181/182/1 193/209/1 192/207/1
f 195/208/1 162/210/1 161/201/1
f 194/211/1 162/210/1 195/208/1
f 181/182/1 194/211/1 193/209/1
f 181/182/1 162/210/1 194/211/1
f 181/182/1 163/212/1 162/210/1
f 180/213/1 163/212/1 181/182/1
f 179/214/1 163/212/1 180/213/1
f 179/214/1 164/215/1 163/212/1
f 178/216/1 164/215/1 179/214/1
f 178/216/1 165/217/1 164/215/1
f 177/218/1 165/217/1 178/216/1
f 176/219/1 165/217/1 177/218/1
f 176/219/1 166/220/1 165/217/1
f 175/221/1 166/220/1 176/219/1
f 174/222/1 166/220/1 175/221/1
f 174/222/1 167/223/1 166/220/1
f 173/224/1 167/223/1 174/222/1
f 172/225/1 167/223/1 173/224/1
f 172/225/1 168/226/1 167/223/1
f 171/227/1 168/226/1 172/225/1
f 170/228/1 168/226/1 171/227/1
f 170/228/1 169/229/1 168/226/1
f 248/1/3 249/3/3 250/2/3
f 248/1/3 250/2/3 251/4/3
f 247/5/2 248/1/2 251/4/2
f 246/6/3 247/5/3 244/7/3
f 244/7/2 247/5/2 251/4/2
f 246/6/3 244/7/3 245/8/3
f 316/9/3 317/11/3 344/10/3
f 344/10/3 317/11/3 318/12/3
f 344/10/3 318/12/3 252/7/3
f 344/10/3 252/7/3 253/13/3
f 344/10/3 253/13/3 254/14/3
f 344/10/3 254/14/3 255/15/3
f 344/10/3 255/15/3 256/16/3
f 344/10/3 256/16/3 257/17/3
f 344/10/3 257/17/3 258/18/3
f 344/10/3 258/18/3 343/19/3
f 343/19/3 258/18/3 259/20/3
f 316/9/3 344/10/3 345/4/3
f 342/21/3 343/19/3 259/20/3
f 341/22/3 342/21/3 259/20/3
f 340/23/3 341/22/3 259/20/3
f 340/23/3 259/20/3 260/24/3
f 339/25/3 340/23/3 260/24/3
f 338/26/3 339/25/3 260/24/3
f 337/27/3 338/26/3 260/24/3
f 337/27/3 260/24/3 261/28/3
f 336/29/3 337/27/3 261/28/3
f 335/30/3 336/29/3 261/28/3
f 334/31/3 335/30/3 261/28/3
f 334/31/3 261/28/3 262/32/3
f 333/33/3 334/31/3 262/32/3
f 332/34/3 333/33/3 262/32/3
f 332/34/3 262/32/3 263/35/3
f 331/36/3 332/34/3 263/35/3
f 330/37/3 331/36/3 263/35/3
f 330/37/3 263/35/3 264/38/3
f 329/39/3 330/37/3 264/38/3
f 329/39/3 264/38/3 265/40/3
f 328/41/3 329/39/3 265/40/3
f 327/42/3 328/41/3 265/40/3
f 327/42/3 265/40/3 266/43/3
f 326/44/3 327/42/3 266/43/3
f 326/44/3 266/43/3 267/45/3
f 325/46/3 326/44/3 267/45/3
f 325/46/3 267/45/3 268/47/3
f 324/48/3 325/46/3 268/47/3
f 323/49/3 324/48/3 268/47/3
f 323/49/3 268/47/3 269/50/3
f 322/51/3 323/49/3 269/50/3
f 321/52/3 322/51/3 269/50/3
f 321/52/3 269/50/3 270/53/3
f 320/54/3 321/52/3 270/53/3
f 319/55/3 320/54/3 270/53/3
f 316/9/3 345/4/3 314/56/3
f 314/56/3 345/4/3 319/55/3
f 314/56/3 319/55/3 270/53/3
f 314/56/3 270/53/3 271/57/3
f 314/56/3 271/57/3 272/58/3
f 314/56/3 272/58/3 273/59/3
f 314/56/3 273/59/3 274/60/3
f 314/56/3 274/60/3 275/61/3
f 314/56/3 275/61/3 276/62/3
f 314/56/3 276/62/3 277/63/3
f 314/56/3 277/63/3 313/64/3
f 313/64/3 277/63/3 312/65/3
f 312/65/3 277/63/3 278/66/3
f 316/9/3 314/56/3 315/67/3
f 311/68/3 312/65/3 278/66/3
f 310/69/3 311/68/3 278/66/3
f 309/70/3 310/69/3 278/66/3
f 309/70/3 278/66/3 279/71/3
f 308/72/3 309/70/3 279/71/3
f 307/73/3 308/72/3 279/71/3
f 307/73/3 279/71/3 280/74/3
f 306/75/3 307/73/3 280/74/3
f 306/75/3 280/74/3 281/76/3
f 305/77/3 306/75/3 281/76/3
f 305/77/3 281/76/3 282/78/3
f 304/79/3 305/77/3 282/78/3
f 304/79/3 282/78/3 283/80/3
f 303/81/3 304/79/3 283/80/3
f 303/81/3 283/80/3 284/82/3
f 302/83/3 303/81/3 284/82/3
f 302/83/3 284/82/3 285/84/3
f 302/83/3 285/84/3 286/85/3
f 301/86/3 302/83/3 286/85/3
f 301/86/3 286/85/3 287/87/3
f 300/88/3 301/86/3 287/87/3
f 300/88/3 287/87/3 288/89/3
f 300/88/3 288/89/3 289/90/3
f 300/88/3 289/90/3 290/91/3
f 300/88/3 290/91/3 291/92/3
f 300/88/3 291/92/3 292/93/3
f 300/88/3 292/93/3 293/94/3
f 300/88/3 293/94/3 294/95/3
f 300/88/3 294/95/3 295/96/3
f 300/88/3 295/96/3 296/97/3
f 300/88/3 296/97/3 297/98/3
f 300/88/3 297/98/3 298/99/3
f 300/88/3 298/99/3 299/100/3
f 350/101/3 351/103/3 352/102/3
f 350/101/3 352/102/3 355/104/3
f 355/104/3 352/102/3 353/105/3
f 350/101/3 355/104/3 356/4/3
f 354/106/3 355/104/3 353/105/3
f 350/101/3 356/4/3 348/107/3
f 348/107/3 356/4/3 354/106/3
f 348/107/3 354/106/3 347/108/3
f 347/108/3 354/106/3 353/105/3
f 350/101/3 348/107/3 349/109/3
f 346/7/3 347/108/3 353/105/3
f 361/1/3 362/3/3 363/2/3
f 361/1/3 363/2/3 364/4/3
f 360/5/2 361/1/2 364/4/2
f 359/6/3 360/5/3 357/7/3
f 357/7/2 360/5/2 364/4/2
f 359/6/3 357/7/3 358/8/3
f 472/110/3 473/112/3 474/111/3
f 472/110/3 474/111/3 475/113/3
f 472/110/3 475/113/3 476/114/3
f 471/115/3 472/110/3 476/114/3
f 471/115/3 476/114/3 477/116/3
f 471/115/3 477/116/3 478/117/3
f 470/118/3 471/115/3 478/117/3
f 470/118/3 478/117/3 479/119/3
f 470/118/3 479/119/3 480/120/3
f 469/121/3 470/118/3 480/120/3
f 469/121/3 480/120/3 481/122/3
f 469/121/3 481/122/3 482/123/3
f 468/124/3 469/121/3 482/123/3
f 468/124/3 482/123/3 483/125/3
f 468/124/3 483/125/3 484/126/3
f 467/127/3 468/124/3 484/126/3
f 467/127/3 484/126/3 485/128/3
f 467/127/3 485/128/3 372/129/3
f 372/129/3 485/128/3 371/130/3
f 371/130/3 485/128/3 370/131/3
f 370/131/3 485/128/3 369/132/3
f 369/132/3 485/128/3 368/133/3
f 368/133/3 485/128/3 367/134/3
f 367/134/3 485/128/3 366/135/3
f 366/135/3 485/128/3 365/7/3
f 365/7/3 485/128/3 486/4/3
f 466/136/3 467/127/3 374/137/3
f 374/137/3 467/127/3 373/138/3
f 373/138/3 467/127/3 372/129/3
f 465/139/3 466/136/3 376/140/3
f 376/140/3 466/136/3 375/141/3
f 375/141/3 466/136/3 374/137/3
f 464/142/3 465/139/3 377/143/3
f 377/143/3 465/139/3 376/140/3
f 464/142/3 377/143/3 378/144/3
f 464/142/3 378/144/3 379/145/3
f 464/142/3 379/145/3 380/146/3
f 464/142/3 380/146/3 381/147/3
f 464/142/3 381/147/3 382/148/3
f 463/149/3 464/142/3 382/148/3
f 463/149/3 382/148/3 383/150/3
f 463/149/3 383/150/3 384/151/3
f 463/149/3 384/151/3 385/152/3
f 462/153/3 463/149/3 385/152/3
f 462/153/3 385/152/3 386/154/3
f 462/153/3 386/154/3 387/155/3
f 461/156/3 462/153/3 387/155/3
f 461/156/3 387/155/3 388/157/3
f 461/156/3 388/157/3 389/158/3
f 460/159/3 461/156/3 389/158/3
f 460/159/3 389/158/3 390/160/3
f 460/159/3 390/160/3 391/161/3
f 459/162/3 460/159/3 391/161/3
f 459/162/3 391/161/3 392/163/3
f 458/164/3 459/162/3 392/163/3
f 458/164/3 392/163/3 393/165/3
f 458/164/3 393/165/3 394/166/3
f 457/167/3 458/164/3 394/166/3
f 457/167/3 394/166/3 395/168/3
f 456/169/3 457/167/3 395/168/3
f 456/169/3 395/168/3 396/170/3
f 455/171/3 456/169/3 396/170/3
f 455/171/3 396/170/3 397/172/3
f 454/173/3 455/171/3 397/172/3
f 454/173/3 397/172/3 398/174/3
f 453/175/3 454/173/3 398/174/3
f 452/176/3 453/175/3 398/174/3
f 452/176/3 398/174/3 399/177/3
f 451/178/3 452/176/3 399/177/3
f 450/179/3 451/178/3 399/177/3
f 450/179/3 399/177/3 400/180/3
f 449/181/3 450/179/3 400/180/3
f 424/182/3 425/184/3 426/183/3
f 449/181/3 400/180/3 401/185/3
f 448/186/3 449/181/3 401/185/3
f 424/182/3 426/183/3 427/187/3
f 447/188/3 448/186/3 401/185/3
f 447/188/3 401/185/3 402/189/3
f 424/182/3 427/187/3 428/190/3
f 446/191/3 447/188/3 402/189/3
f 424/182/3 428/190/3 429/192/3
f 445/193/3 446/191/3 402/189/3
f 444/194/3 445/193/3 402/189/3
f 444/194/3 402/189/3 403/195/3
f 424/182/3 429/192/3 430/196/3
f 443/197/3 444/194/3 403/195/3
f 424/182/3 430/196/3 431/198/3
f 442/199/3 443/197/3 403/195/3
f 424/182/3 431/198/3 432/200/3
f 442/199/3 403/195/3 404/201/3
f 441/202/3 442/199/3 404/201/3
f 424/182/3 432/200/3 433/203/3
f 440/204/3 441/202/3 404/201/3
f 424/182/3 433/203/3 434/205/3
f 439/206/3 440/204/3 404/201/3
f 424/182/3 434/205/3 435/207/3
f 438/208/3 439/206/3 404/201/3
f 424/182/3 435/207/3 436/209/3
f 438/208/3 404/201/3 405/210/3
f 437/211/3 438/208/3 405/210/3
f 424/182/3 436/209/3 437/211/3
f 424/182/3 437/211/3 405/210/3
f 424/182/3 405/210/3 406/212/3
f 423/213/3 424/182/3 406/212/3
f 422/214/3 423/213/3 406/212/3
f 422/214/3 406/212/3 407/215/3
f 421/216/3 422/214/3 407/215/3
f 421/216/3 407/215/3 408/217/3
f 420/218/3 421/216/3 408/217/3
f 419/219/3 420/218/3 408/217/3
f 419/219/3 408/217/3 409/220/3
f 418/221/3 419/219/3 409/220/3
f 417/222/3 418/221/3 409/220/3
f 417/222/3 409/220/3 410/223/3
f 416/224/3 417/222/3 410/223/3
f 415/225/3 416/224/3 410/223/3
f 415/225/3 410/223/3 411/226/3
f 414/227/3 415/225/3 411/226/3
f 413/228/3 414/227/3 411/226/3
f 413/228/3 411/226/3 412/229/3
s 1
f 488/230/4 490/231/5 489/232/5 487/7/4
f 490/231/5 492/233/6 491/234/6 489/232/5
f 492/233/6 494/235/7 493/236/7 491/234/6
f 494/235/7 496/237/8 495/238/8 493/236/7
f 496/237/8 498/239/9 497/240/9 495/238/8
f 498/239/9 500/241/10 499/242/10 497/240/9
f 500/241/10 502/243/11 501/244/11 499/242/10
f 502/243/11 504/245/12 503/246/12 501/244/11
f 504/245/12 506/247/13 505/248/13 503/246/12
f 506/247/13 508/249/14 507/250/14 505/248/13
f 508/249/14 510/251/15 509/252/15 507/250/14
f 510/251/15 512/253/16 511/254/16 509/252/15
f 512/253/16 514/255/17 513/256/17 511/254/16
f 514/255/17 516/257/18 515/258/18 513/256/17
f 516/257/18 518/259/19 517/260/19 515/258/18
f 518/259/19 520/261/20 519/262/20 517/260/19
f 520/261/20 522/263/21 521/264/21 519/262/20
f 522/263/21 524/265/22 523/266/22 521/264/21
f 524/265/22 526/267/23 525/268/23 523/266/22
f 526/267/23 528/269/24 527/270/24 525/268/23
f 528/269/24 530/271/25 529/272/25 527/270/24
f 530/271/25 532/273/26 531/274/26 529/272/25
f 532/273/26 534/275/27 533/276/27 531/274/26
f 534/275/27 536/277/28 535/278/28 533/276/27
f 536/277/28 538/279/29 537/280/29 535/278/28
f 538/279/29 540/281/30 539/282/30 537/280/29
f 540/281/30 542/283/31 541/284/31 539/282/30
f 542/283/31 544/285/32 543/286/32 541/284/31
f 544/285/32 546/287/33 545/288/33 543/286/32
f 546/287/33 548/289/34 547/290/34 545/288/33
f 548/289/34 550/291/35 549/292/35 547/290/34
f 550/291/35 552/293/36 551/294/36 549/292/35
f 552/293/36 554/295/37 553/296/37 551/294/36
f 554/295/37 556/297/38 555/298/38 553/296/37
f 556/297/38 558/299/39 557/300/39 555/298/38
f 558/299/39 560/301/40 559/302/40 557/300/39
f 560/301/40 562/303/41 561/304/41 559/302/40
f 562/303/41 564/305/42 563/306/42 561/304/41
f 564/305/42 566/307/43 565/308/43 563/306/42
f 566/307/43 568/309/44 567/310/44 565/308/43
f 568/309/44 570/311/45 569/312/45 567/310/44
f 570/311/45 572/313/46 571/314/46 569/312/45
f 572/313/46 574/315/47 573/316/47 571/314/46
f 574/315/47 576/317/48 575/318/48 573/316/47
f 576/317/48 578/319/49 577/320/49 575/318/48
f 578/319/49 580/321/50 579/322/50 577/320/49
f 580/321/50 582/323/51 581/324/51 579/322/50
f 582/323/51 584/325/52 583/326/52 581/324/51
f 584/325/52 586/327/53 585/328/53 583/326/52
f 586/327/53 588/329/54 587/330/54 585/328/53
f 588/329/54 590/331/55 589/332/55 587/330/54
f 590/331/55 592/333/56 591/334/56 589/332/55
f 592/333/56 594/335/57 593/336/57 591/334/56
f 594/335/57 596/337/58 595/338/58 593/336/57
f 596/337/58 598/339/59 597/340/59 595/338/58
f 598/339/59 600/341/60 599/342/60 597/340/59
f 600/341/60 602/343/61 601/344/61 599/342/60
f 602/343/61 604/345/62 603/346/62 601/344/61
f 604/345/62 606/347/63 605/348/63 603/346/62
f 606/347/63 608/349/64 607/350/64 605/348/63
f 608/349/64 610/351/65 609/103/65 607/350/64
f 610/351/65 612/352/66 611/353/66 609/103/65
f 612/352/66 614/354/67 613/355/67 611/353/66
f 614/354/67 616/356/68 615/357/68 613/355/67
f 616/356/68 618/358/69 617/359/69 615/357/68
f 618/358/69 620/360/70 619/361/70 617/359/69
f 620/360/70 622/362/71 621/363/71 619/361/70
f 622/362/71 624/364/72 623/365/72 621/363/71
f 624/364/72 626/366/73 625/367/73 623/365/72
f 626/366/73 628/368/74 627/369/74 625/367/73
f 628/368/74 630/370/75 629/371/75 627/369/74
f 630/370/75 632/372/76 631/373/76 629/371/75
f 632/372/76 634/374/77 633/375/77 631/373/76
f 634/374/77 636/376/78 635/377/78 633/375/77
f 636/376/78 638/378/79 637/379/79 635/377/78
f 638/378/79 640/380/80 639/381/80 637/379/79
f 640/380/80 642/382/81 641/383/81 639/381/80
f 642/382/81 644/384/82 643/385/82 641/383/81
f 644/384/82 646/386/83 645/387/83 643/385/82
f 646/386/83 648/388/84 647/389/84 645/387/83
f 648/388/84 650/390/85 649/391/85 647/389/84
f 650/390/85 652/392/86 651/393/86 649/391/85
f 652/392/86 654/394/87 653/395/87 651/393/86
f 654/394/87 656/396/88 655/397/88 653/395/87
f 656/396/88 658/398/89 657/399/89 655/397/88
f 658/398/89 660/400/90 659/401/90 657/399/89
f 660/400/90 662/402/91 661/403/91 659/401/90
f 662/402/91 664/404/92 663/405/92 661/403/91
f 664/404/92 666/406/93 665/407/93 663/405/92
f 666/406/93 668/408/94 667/409/94 665/407/93
f 668/408/94 670/410/95 669/411/95 667/409/94
f 670/410/95 672/412/96 671/413/96 669/411/95
f 672/412/96 674/414/97 673/415/97 671/413/96
f 674/414/97 676/416/98 675/417/98 673/415/97
f 676/416/98 678/418/99 677/419/99 675/417/98
f 678/418/99 680/420/100 679/421/100 677/419/99
f 680/420/100 682/422/101 681/423/101 679/421/100
f 682/422/101 684/424/102 683/425/102 681/423/101
f 684/424/102 686/426/103 685/427/103 683/425/102
f 686/426/103 688/428/104 687/429/104 685/427/103
f 688/428/104 690/430/105 689/431/105 687/429/104
f 690/430/105 692/432/106 691/433/106 689/431/105
f 692/432/106 694/434/107 693/435/107 691/433/106
f 694/434/107 696/436/108 695/437/108 693/435/107
f 696/436/108 698/438/109 697/439/109 695/437/108
f 698/438/109 700/440/110 699/441/110 697/439/109
f 700/440/110 702/442/111 701/443/111 699/441/110
f 702/442/111 704/444/112 703/445/112 701/443/111
f 704/444/112 706/446/113 705/447/113 703/445/112
f 706/446/113 708/448/114 707/449/114 705/447/113
f 708/448/114 710/450/115 709/451/115 707/449/114
f 710/450/115 712/452/116 711/453/116 709/451/115
f 712/452/116 714/454/117 713/455/117 711/453/116
f 714/454/117 716/456/118 715/457/118 713/455/117
f 716/456/118 718/458/119 717/459/119 715/457/118
f 718/458/119 720/460/120 719/461/120 717/459/119
f 720/460/120 722/462/121 721/463/121 719/461/120
f 722/462/121 724/464/122 723/465/122 721/463/121
f 724/464/122 726/466/123 725/467/123 723/465/122
f 726/466/123 728/468/124 727/469/124 725/467/123
f 728/468/124 730/470/125 729/471/125 727/469/124
f 730/470/125 488/472/4 487/4/4 729/471/125
f 732/230/126 734/473/126 733/474/126 731/7/126
f 734/473/126 736/475/127 735/476/127 733/474/126
f 736/475/127 738/477/127 737/478/127 735/476/127
f 738/477/127 740/351/127 739/103/127 737/478/127
f 740/351/127 742/479/128 741/480/128 739/103/127
f 742/479/128 744/481/129 743/482/129 741/480/128
f 744/481/129 746/483/126 745/484/126 743/482/129
f 746/483/126 732/472/126 731/4/126 745/484/126
f 748/230/130 750/473/130 749/474/130 747/7/130
f 750/473/130 752/475/131 751/476/131 749/474/130
f 752/475/131 754/477/131 753/478/131 751/476/131
f 754/477/131 756/351/132 755/103/132 753/478/131
f 756/351/132 758/479/133 757/480/133 755/103/132
f 758/479/133 760/481/134 759/482/134 757/480/133
f 760/481/134 762/483/135 761/484/135 759/482/134
f 762/483/135 748/472/130 747/4/130 761/484/135
f 764/230/136 766/485/137 765/80/137 763/7/136
f 766/485/137 768/486/138 767/56/138 765/80/137
f 768/486/138 764/472/136 763/4/136 767/56/138
f 770/230/139 772/487/140 771/488/140 769/7/139
f 772/487/140 774/489/141 773/490/141 771/488/140
f 774/489/141 776/491/142 775/492/142 773/490/141
f 776/491/142 778/493/143 777/494/143 775/492/142
f 778/493/143 780/495/144 779/496/144 777/494/143
f 780/495/144 782/497/145 781/498/145 779/496/144
f 782/497/145 784/499/146 783/500/146 781/498/145
f 784/499/146 786/501/147 785/502/147 783/500/146
f 786/501/147 788/503/148 787/504/148 785/502/147
f 788/503/148 790/505/149 789/506/149 787/504/148
f 790/505/149 792/507/150 791/508/150 789/506/149
f 792/507/150 794/509/151 793/510/151 791/508/150
f 794/509/151 796/511/152 795/512/152 793/510/151
f 796/511/152 798/513/153 797/514/153 795/512/152
f 798/513/153 800/515/154 799/516/154 797/514/153
f 800/515/154 802/517/155 801/518/155 799/516/154
f 802/517/155 804/519/156 803/520/156 801/518/155
f 804/519/156 806/521/157 805/522/157 803/520/156
f 806/521/157 808/523/158 807/524/158 805/522/157
f 808/523/158 810/525/159 809/526/159 807/524/158
f 810/525/159 812/527/160 811/528/160 809/526/159
f 812/527/160 814/529/161 813/530/161 811/528/160
f 814/529/161 816/531/162 815/532/162 813/530/161
f 816/531/162 818/533/163 817/534/163 815/532/162
f 818/533/163 820/535/164 819/536/164 817/534/163
f 820/535/164 822/537/165 821/538/165 819/536/164
f 822/537/165 824/539/166 823/540/166 821/538/165
f 824/539/166 826/541/167 825/542/167 823/540/166
f 826/541/167 828/543/168 827/544/168 825/542/167
f 828/543/168 830/545/169 829/546/169 827/544/168
f 830/545/169 832/547/170 831/548/170 829/546/169
f 832/547/170 834/549/171 833/550/171 831/548/170
f 834/549/171 836/551/172 835/552/172 833/550/171
f 836/551/172 838/553/173 837/554/173 835/552/172
f 838/553/173 840/555/174 839/556/174 837/554/173
f 840/555/174 842/557/175 841/558/175 839/556/174
f 842/557/175 844/559/176 843/560/176 841/558/175
f 844/559/176 846/561/177 845/562/177 843/560/176
f 846/561/177 848/563/178 847/564/178 845/562/177
f 848/563/178 850/565/179 849/566/179 847/564/178
f 850/565/179 852/567/180 851/568/180 849/566/179
f 852/567/180 854/569/181 853/570/181 851/568/180
f 854/569/181 856/571/182 855/572/182 853/570/181
f 856/571/182 858/573/183 857/574/183 855/572/182
f 858/573/183 860/575/184 859/576/184 857/574/183
f 860/575/184 862/577/185 861/578/185 859/576/184
f 862/577/185 864/579/186 863/580/186 861/578/185
f 864/579/186 866/581/187 865/582/187 863/580/186
f 866/581/187 868/583/188 867/584/188 865/582/187
f 868/583/188 870/585/189 869/586/189 867/584/188
f 870/585/189 872/587/190 871/588/190 869/586/189
f 872/587/190 874/589/191 873/590/191 871/588/190
f 874/589/191 876/591/192 875/592/192 873/590/191
f 876/591/192 878/593/193 877/594/193 875/592/192
f 878/593/193 880/595/194 879/596/194 877/594/193
f 880/595/194 882/597/195 881/598/195 879/596/194
f 882/597/195 884/599/196 883/600/196 881/598/195
f 884/599/196 886/601/197 885/602/197 883/600/196
f 886/601/197 888/603/198 887/604/198 885/602/197
f 888/603/198 890/605/199 889/606/199 887/604/198
f 890/605/199 892/607/200 891/608/200 889/606/199
f 892/607/200 894/609/126 893/610/126 891/608/200
f 894/609/126 896/611/126 895/612/126 893/610/126
f 896/611/126 898/613/127 897/614/127 895/612/126
f 898/613/127 900/615/128 899/616/128 897/614/127
f 900/615/128 902/617/201 901/618/201 899/616/128
f 902/617/201 770/472/139 769/4/139 901/618/201
f 904/230/202 906/619/203 905/620/203 903/7/202
f 906/619/203 908/621/204 907/622/204 905/620/203
f 908/621/204 910/623/205 909/624/205 907/622/204
f 910/623/205 912/625/206 911/626/206 909/624/205
f 912/625/206 914/627/207 913/628/207 911/626/206
f 914/627/207 916/629/208 915/630/208 913/628/207
f 916/629/208 918/631/209 917/632/209 915/630/208
f 918/631/209 920/633/210 919/634/210 917/632/209
f 920/633/210 922/485/211 921/80/211 919/634/210
f 922/485/211 924/635/212 923/636/212 921/80/211
f 924/635/212 926/637/213 925/638/213 923/636/212
f 926/637/213 928/639/214 927/640/214 925/638/213
f 928/639/214 930/641/215 929/642/215 927/640/214
f 930/641/215 932/643/216 931/644/216 929/642/215
f 932/643/216 934/645/217 933/646/217 931/644/216
f 934/645/217 936/647/218 935/648/218 933/646/217
f 936/647/218 938/649/219 937/650/219 935/648/218
f 938/649/219 940/486/220 939/56/220 937/650/219
f 940/486/220 942/651/221 941/652/221 939/56/220
f 942/651/221 944/653/222 943/654/222 941/652/221
f 944/653/222 946/655/223 945/656/223 943/654/222
f 946/655/223 948/657/224 947/658/224 945/656/223
f 948/657/224 950/659/225 949/660/225 947/658/224
f 950/659/225 952/661/226 951/662/226 949/660/225
f 952/661/226 954/663/126 953/664/126 951/662/226
f 954/663/126 956/665/129 955/666/129 953/664/126
f 956/665/129 904/472/202 903/4/202 955/666/129
f 958/230/126 960/473/126 959/474/126 957/7/126
f 960/473/126 962/475/127 961/476/127 959/474/126
f 962/475/127 964/477/127 963/478/127 961/476/127
f 964/477/127 966/351/127 965/103/127 963/478/127
f 966/351/127 968/479/128 967/480/128 965/103/127
f 968/479/128 970/481/129 969/482/129 967/480/128
f 970/481/129 972/483/126 971/484/126 969/482/129
f 972/483/126 958/472/126 957/4/126 971/484/126
