# Blender 4.2.3 LTS
# www.blender.org
mtllib title_1.mtl
o title_1
v 0.373361 0.427046 -0.050000
v 0.357556 0.414282 -0.050000
v 0.341750 0.400859 -0.050000
v 0.326111 0.386926 -0.050000
v 0.310806 0.372631 -0.050000
v 0.296000 0.358125 -0.050000
v 0.281861 0.343556 -0.050000
v 0.268556 0.329074 -0.050000
v 0.256250 0.314828 -0.050000
v 0.245111 0.300968 -0.050000
v 0.235306 0.287642 -0.050000
v 0.227000 0.275000 -0.050000
v 0.290000 0.227000 -0.050000
v 0.298036 0.239682 -0.050000
v 0.307537 0.253125 -0.050000
v 0.318344 0.267172 -0.050000
v 0.330296 0.281667 -0.050000
v 0.343235 0.296453 -0.050000
v 0.357000 0.311375 -0.050000
v 0.371432 0.326276 -0.050000
v 0.386370 0.341000 -0.050000
v 0.401656 0.355391 -0.050000
v 0.417130 0.369292 -0.050000
v 0.432631 0.382547 -0.050000
v 0.448000 0.395000 -0.050000
v 0.389000 0.439000 -0.050000
v -0.138000 -0.029000 -0.050000
v -0.138000 0.074000 -0.050000
v 0.050000 0.074000 -0.050000
v 0.050000 -0.029000 -0.050000
v -0.138000 0.234000 -0.050000
v 0.050000 0.234000 -0.050000
v 0.050000 0.133000 -0.050000
v -0.138000 0.133000 -0.050000
v -0.138000 -0.197000 -0.050000
v -0.138000 -0.090000 -0.050000
v 0.050000 -0.090000 -0.050000
v 0.050000 -0.197000 -0.050000
v -0.178533 0.427995 -0.050000
v -0.185097 0.416542 -0.050000
v -0.191641 0.404734 -0.050000
v -0.198111 0.392667 -0.050000
v -0.204457 0.380432 -0.050000
v -0.210625 0.368125 -0.050000
v -0.216564 0.355839 -0.050000
v -0.222222 0.343667 -0.050000
v -0.227547 0.331703 -0.050000
v -0.232486 0.320042 -0.050000
v -0.236988 0.308776 -0.050000
v -0.241000 0.298000 -0.050000
v -0.426000 0.298000 -0.050000
v -0.426000 0.234000 -0.050000
v -0.208000 0.234000 -0.050000
v -0.208000 0.133000 -0.050000
v -0.393000 0.133000 -0.050000
v -0.393000 0.074000 -0.050000
v -0.208000 0.074000 -0.050000
v -0.208000 -0.029000 -0.050000
v -0.391000 -0.029000 -0.050000
v -0.391000 -0.090000 -0.050000
v -0.208000 -0.090000 -0.050000
v -0.208000 -0.197000 -0.050000
v -0.445000 -0.197000 -0.050000
v -0.445000 -0.262000 -0.050000
v 0.123000 -0.262000 -0.050000
v 0.123000 0.157000 -0.050000
v 0.129251 0.148833 -0.050000
v 0.135509 0.140829 -0.050000
v 0.141781 0.132984 -0.050000
v 0.148074 0.125296 -0.050000
v 0.154395 0.117761 -0.050000
v 0.160750 0.110375 -0.050000
v 0.167147 0.103135 -0.050000
v 0.173593 0.096037 -0.050000
v 0.180094 0.089078 -0.050000
v 0.186657 0.082255 -0.050000
v 0.193291 0.075563 -0.050000
v 0.200000 0.069000 -0.050000
v 0.202608 0.072775 -0.050000
v 0.205861 0.077032 -0.050000
v 0.209656 0.081672 -0.050000
v 0.213889 0.086593 -0.050000
v 0.218455 0.091694 -0.050000
v 0.223250 0.096875 -0.050000
v 0.228170 0.102035 -0.050000
v 0.233111 0.107074 -0.050000
v 0.237969 0.111891 -0.050000
v 0.242639 0.116384 -0.050000
v 0.247017 0.120454 -0.050000
v 0.251000 0.124000 -0.050000
v 0.229491 0.144604 -0.050000
v 0.208509 0.166833 -0.050000
v 0.188125 0.190563 -0.050000
v 0.168407 0.215667 -0.050000
v 0.149426 0.242021 -0.050000
v 0.131250 0.269500 -0.050000
v 0.113949 0.297979 -0.050000
v 0.097593 0.327333 -0.050000
v 0.082250 0.357438 -0.050000
v 0.067991 0.388167 -0.050000
v 0.054884 0.419396 -0.050000
v 0.043000 0.451000 -0.050000
v -0.025000 0.434000 -0.050000
v -0.020687 0.422291 -0.050000
v -0.016250 0.410662 -0.050000
v -0.011687 0.399109 -0.050000
v -0.007000 0.387630 -0.050000
v -0.002187 0.376219 -0.050000
v 0.002750 0.364875 -0.050000
v 0.007813 0.353593 -0.050000
v 0.013000 0.342370 -0.050000
v 0.018313 0.331203 -0.050000
v 0.023750 0.320088 -0.050000
v 0.029313 0.309021 -0.050000
v 0.035000 0.298000 -0.050000
v -0.158000 0.298000 -0.050000
v -0.154109 0.307887 -0.050000
v -0.149954 0.318009 -0.050000
v -0.145562 0.328312 -0.050000
v -0.140963 0.338741 -0.050000
v -0.136183 0.349238 -0.050000
v -0.131250 0.359750 -0.050000
v -0.126192 0.370220 -0.050000
v -0.121037 0.380593 -0.050000
v -0.115812 0.390813 -0.050000
v -0.110546 0.400824 -0.050000
v -0.105266 0.410572 -0.050000
v -0.100000 0.420000 -0.050000
v -0.172000 0.439000 -0.050000
v 0.244971 -0.276224 -0.050000
v 0.238852 -0.278875 -0.050000
v 0.232594 -0.281922 -0.050000
v 0.226148 -0.285333 -0.050000
v 0.219466 -0.289078 -0.050000
v 0.212500 -0.293125 -0.050000
v 0.205200 -0.297443 -0.050000
v 0.197519 -0.302000 -0.050000
v 0.189406 -0.306766 -0.050000
v 0.180815 -0.311708 -0.050000
v 0.171696 -0.316797 -0.050000
v 0.162000 -0.322000 -0.050000
v 0.145502 -0.329949 -0.050000
v 0.128019 -0.336843 -0.050000
v 0.109563 -0.342750 -0.050000
v 0.090148 -0.347741 -0.050000
v 0.069789 -0.351884 -0.050000
v 0.048500 -0.355250 -0.050000
v 0.026294 -0.357907 -0.050000
v 0.003185 -0.359926 -0.050000
v -0.020812 -0.361375 -0.050000
v -0.045685 -0.362324 -0.050000
v -0.071419 -0.362843 -0.050000
v -0.098000 -0.363000 -0.050000
v -0.127010 -0.362876 -0.050000
v -0.157329 -0.362509 -0.050000
v -0.188641 -0.361906 -0.050000
v -0.220630 -0.361074 -0.050000
v -0.252980 -0.360020 -0.050000
v -0.285375 -0.358750 -0.050000
v -0.317499 -0.357272 -0.050000
v -0.349037 -0.355593 -0.050000
v -0.379672 -0.353719 -0.050000
v -0.409088 -0.351657 -0.050000
v -0.436969 -0.349416 -0.050000
v -0.463000 -0.347000 -0.050000
v -0.460446 -0.352605 -0.050000
v -0.457815 -0.358838 -0.050000
v -0.455156 -0.365578 -0.050000
v -0.452518 -0.372704 -0.050000
v -0.449950 -0.380093 -0.050000
v -0.447500 -0.387625 -0.050000
v -0.445216 -0.395178 -0.050000
v -0.443148 -0.402630 -0.050000
v -0.441344 -0.409859 -0.050000
v -0.439852 -0.416745 -0.050000
v -0.438721 -0.423166 -0.050000
v -0.438000 -0.429000 -0.050000
v -0.416987 -0.430247 -0.050000
v -0.392810 -0.431477 -0.050000
v -0.366016 -0.432672 -0.050000
v -0.337148 -0.433815 -0.050000
v -0.306753 -0.434888 -0.050000
v -0.275375 -0.435875 -0.050000
v -0.243560 -0.436758 -0.050000
v -0.211852 -0.437519 -0.050000
v -0.180797 -0.438141 -0.050000
v -0.150940 -0.438607 -0.050000
v -0.122826 -0.438899 -0.050000
v -0.097000 -0.439000 -0.050000
v -0.068157 -0.438763 -0.050000
v -0.040588 -0.438019 -0.050000
v -0.014234 -0.436719 -0.050000
v 0.010963 -0.434815 -0.050000
v 0.035063 -0.432258 -0.050000
v 0.058125 -0.429000 -0.050000
v 0.080208 -0.424992 -0.050000
v 0.101370 -0.420185 -0.050000
v 0.121672 -0.414531 -0.050000
v 0.141171 -0.407982 -0.050000
v 0.159928 -0.400487 -0.050000
v 0.178000 -0.392000 -0.050000
v 0.188561 -0.385935 -0.050000
v 0.198741 -0.379815 -0.050000
v 0.208531 -0.373750 -0.050000
v 0.217926 -0.367852 -0.050000
v 0.226918 -0.362232 -0.050000
v 0.235500 -0.357000 -0.050000
v 0.243666 -0.352269 -0.050000
v 0.251407 -0.348148 -0.050000
v 0.258719 -0.344750 -0.050000
v 0.265593 -0.342185 -0.050000
v 0.272022 -0.340565 -0.050000
v 0.278000 -0.340000 -0.050000
v 0.286762 -0.341095 -0.050000
v 0.296014 -0.344264 -0.050000
v 0.305703 -0.349328 -0.050000
v 0.315778 -0.356111 -0.050000
v 0.326186 -0.364436 -0.050000
v 0.336875 -0.374125 -0.050000
v 0.347793 -0.385002 -0.050000
v 0.358889 -0.396889 -0.050000
v 0.370109 -0.409609 -0.050000
v 0.381403 -0.422986 -0.050000
v 0.392717 -0.436842 -0.050000
v 0.404000 -0.451000 -0.050000
v 0.463000 -0.376000 -0.050000
v 0.451463 -0.365403 -0.050000
v 0.439870 -0.355139 -0.050000
v 0.428250 -0.345250 -0.050000
v 0.416630 -0.335778 -0.050000
v 0.405037 -0.326764 -0.050000
v 0.393500 -0.318250 -0.050000
v 0.382046 -0.310278 -0.050000
v 0.370704 -0.302889 -0.050000
v 0.359500 -0.296125 -0.050000
v 0.348463 -0.290028 -0.050000
v 0.337620 -0.284639 -0.050000
v 0.327000 -0.280000 -0.050000
v 0.327000 0.005000 -0.050000
v 0.444000 0.005000 -0.050000
v 0.444000 0.078000 -0.050000
v 0.251000 0.078000 -0.050000
v 0.251000 -0.274000 -0.050000
v 0.373361 0.427046 0.050000
v 0.357556 0.414282 0.050000
v 0.341750 0.400859 0.050000
v 0.326111 0.386926 0.050000
v 0.310806 0.372631 0.050000
v 0.296000 0.358125 0.050000
v 0.281861 0.343556 0.050000
v 0.268556 0.329074 0.050000
v 0.256250 0.314828 0.050000
v 0.245111 0.300968 0.050000
v 0.235306 0.287642 0.050000
v 0.227000 0.275000 0.050000
v 0.290000 0.227000 0.050000
v 0.298036 0.239682 0.050000
v 0.307537 0.253125 0.050000
v 0.318344 0.267172 0.050000
v 0.330296 0.281667 0.050000
v 0.343235 0.296453 0.050000
v 0.357000 0.311375 0.050000
v 0.371432 0.326276 0.050000
v 0.386370 0.341000 0.050000
v 0.401656 0.355391 0.050000
v 0.417130 0.369292 0.050000
v 0.432631 0.382547 0.050000
v 0.448000 0.395000 0.050000
v 0.389000 0.439000 0.050000
v -0.138000 -0.029000 0.050000
v -0.138000 0.074000 0.050000
v 0.050000 0.074000 0.050000
v 0.050000 -0.029000 0.050000
v -0.138000 0.234000 0.050000
v 0.050000 0.234000 0.050000
v 0.050000 0.133000 0.050000
v -0.138000 0.133000 0.050000
v -0.138000 -0.197000 0.050000
v -0.138000 -0.090000 0.050000
v 0.050000 -0.090000 0.050000
v 0.050000 -0.197000 0.050000
v -0.178533 0.427995 0.050000
v -0.185097 0.416542 0.050000
v -0.191641 0.404734 0.050000
v -0.198111 0.392667 0.050000
v -0.204457 0.380432 0.050000
v -0.210625 0.368125 0.050000
v -0.216564 0.355839 0.050000
v -0.222222 0.343667 0.050000
v -0.227547 0.331703 0.050000
v -0.232486 0.320042 0.050000
v -0.236988 0.308776 0.050000
v -0.241000 0.298000 0.050000
v -0.426000 0.298000 0.050000
v -0.426000 0.234000 0.050000
v -0.208000 0.234000 0.050000
v -0.208000 0.133000 0.050000
v -0.393000 0.133000 0.050000
v -0.393000 0.074000 0.050000
v -0.208000 0.074000 0.050000
v -0.208000 -0.029000 0.050000
v -0.391000 -0.029000 0.050000
v -0.391000 -0.090000 0.050000
v -0.208000 -0.090000 0.050000
v -0.208000 -0.197000 0.050000
v -0.445000 -0.197000 0.050000
v -0.445000 -0.262000 0.050000
v 0.123000 -0.262000 0.050000
v 0.123000 0.157000 0.050000
v 0.129251 0.148833 0.050000
v 0.135509 0.140829 0.050000
v 0.141781 0.132984 0.050000
v 0.148074 0.125296 0.050000
v 0.154395 0.117761 0.050000
v 0.160750 0.110375 0.050000
v 0.167147 0.103135 0.050000
v 0.173593 0.096037 0.050000
v 0.180094 0.089078 0.050000
v 0.186657 0.082255 0.050000
v 0.193291 0.075563 0.050000
v 0.200000 0.069000 0.050000
v 0.202608 0.072775 0.050000
v 0.205861 0.077032 0.050000
v 0.209656 0.081672 0.050000
v 0.213889 0.086593 0.050000
v 0.218455 0.091694 0.050000
v 0.223250 0.096875 0.050000
v 0.228170 0.102035 0.050000
v 0.233111 0.107074 0.050000
v 0.237969 0.111891 0.050000
v 0.242639 0.116384 0.050000
v 0.247017 0.120454 0.050000
v 0.251000 0.124000 0.050000
v 0.229491 0.144604 0.050000
v 0.208509 0.166833 0.050000
v 0.188125 0.190563 0.050000
v 0.168407 0.215667 0.050000
v 0.149426 0.242021 0.050000
v 0.131250 0.269500 0.050000
v 0.113949 0.297979 0.050000
v 0.097593 0.327333 0.050000
v 0.082250 0.357438 0.050000
v 0.067991 0.388167 0.050000
v 0.054884 0.419396 0.050000
v 0.043000 0.451000 0.050000
v -0.025000 0.434000 0.050000
v -0.020687 0.422291 0.050000
v -0.016250 0.410662 0.050000
v -0.011687 0.399109 0.050000
v -0.007000 0.387630 0.050000
v -0.002187 0.376219 0.050000
v 0.002750 0.364875 0.050000
v 0.007813 0.353593 0.050000
v 0.013000 0.342370 0.050000
v 0.018313 0.331203 0.050000
v 0.023750 0.320088 0.050000
v 0.029313 0.309021 0.050000
v 0.035000 0.298000 0.050000
v -0.158000 0.298000 0.050000
v -0.154109 0.307887 0.050000
v -0.149954 0.318009 0.050000
v -0.145562 0.328312 0.050000
v -0.140963 0.338741 0.050000
v -0.136183 0.349238 0.050000
v -0.131250 0.359750 0.050000
v -0.126192 0.370220 0.050000
v -0.121037 0.380593 0.050000
v -0.115812 0.390813 0.050000
v -0.110546 0.400824 0.050000
v -0.105266 0.410572 0.050000
v -0.100000 0.420000 0.050000
v -0.172000 0.439000 0.050000
v 0.244971 -0.276224 0.050000
v 0.238852 -0.278875 0.050000
v 0.232594 -0.281922 0.050000
v 0.226148 -0.285333 0.050000
v 0.219466 -0.289078 0.050000
v 0.212500 -0.293125 0.050000
v 0.205200 -0.297443 0.050000
v 0.197519 -0.302000 0.050000
v 0.189406 -0.306766 0.050000
v 0.180815 -0.311708 0.050000
v 0.171696 -0.316797 0.050000
v 0.162000 -0.322000 0.050000
v 0.145502 -0.329949 0.050000
v 0.128019 -0.336843 0.050000
v 0.109563 -0.342750 0.050000
v 0.090148 -0.347741 0.050000
v 0.069789 -0.351884 0.050000
v 0.048500 -0.355250 0.050000
v 0.026294 -0.357907 0.050000
v 0.003185 -0.359926 0.050000
v -0.020812 -0.361375 0.050000
v -0.045685 -0.362324 0.050000
v -0.071419 -0.362843 0.050000
v -0.098000 -0.363000 0.050000
v -0.127010 -0.362876 0.050000
v -0.157329 -0.362509 0.050000
v -0.188641 -0.361906 0.050000
v -0.220630 -0.361074 0.050000
v -0.252980 -0.360020 0.050000
v -0.285375 -0.358750 0.050000
v -0.317499 -0.357272 0.050000
v -0.349037 -0.355593 0.050000
v -0.379672 -0.353719 0.050000
v -0.409088 -0.351657 0.050000
v -0.436969 -0.349416 0.050000
v -0.463000 -0.347000 0.050000
v -0.460446 -0.352605 0.050000
v -0.457815 -0.358838 0.050000
v -0.455156 -0.365578 0.050000
v -0.452518 -0.372704 0.050000
v -0.449950 -0.380093 0.050000
v -0.447500 -0.387625 0.050000
v -0.445216 -0.395178 0.050000
v -0.443148 -0.402630 0.050000
v -0.441344 -0.409859 0.050000
v -0.439852 -0.416745 0.050000
v -0.438721 -0.423166 0.050000
v -0.438000 -0.429000 0.050000
v -0.416987 -0.430247 0.050000
v -0.392810 -0.431477 0.050000
v -0.366016 -0.432672 0.050000
v -0.337148 -0.433815 0.050000
v -0.306753 -0.434888 0.050000
v -0.275375 -0.435875 0.050000
v -0.243560 -0.436758 0.050000
v -0.211852 -0.437519 0.050000
v -0.180797 -0.438141 0.050000
v -0.150940 -0.438607 0.050000
v -0.122826 -0.438899 0.050000
v -0.097000 -0.439000 0.050000
v -0.068157 -0.438763 0.050000
v -0.040588 -0.438019 0.050000
v -0.014234 -0.436719 0.050000
v 0.010963 -0.434815 0.050000
v 0.035063 -0.432258 0.050000
v 0.058125 -0.429000 0.050000
v 0.080208 -0.424992 0.050000
v 0.101370 -0.420185 0.050000
v 0.121672 -0.414531 0.050000
v 0.141171 -0.407982 0.050000
v 0.159928 -0.400487 0.050000
v 0.178000 -0.392000 0.050000
v 0.188561 -0.385935 0.050000
v 0.198741 -0.379815 0.050000
v 0.208531 -0.373750 0.050000
v 0.217926 -0.367852 0.050000
v 0.226918 -0.362232 0.050000
v 0.235500 -0.357000 0.050000
v 0.243666 -0.352269 0.050000
v 0.251407 -0.348148 0.050000
v 0.258719 -0.344750 0.050000
v 0.265593 -0.342185 0.050000
v 0.272022 -0.340565 0.050000
v 0.278000 -0.340000 0.050000
v 0.286762 -0.341095 0.050000
v 0.296014 -0.344264 0.050000
v 0.305703 -0.349328 0.050000
v 0.315778 -0.356111 0.050000
v 0.326186 -0.364436 0.050000
v 0.336875 -0.374125 0.050000
v 0.347793 -0.385002 0.050000
v 0.358889 -0.396889 0.050000
v 0.370109 -0.409609 0.050000
v 0.381403 -0.422986 0.050000
v 0.392717 -0.436842 0.050000
v 0.404000 -0.451000 0.050000
v 0.463000 -0.376000 0.050000
v 0.451463 -0.365403 0.050000
v 0.439870 -0.355139 0.050000
v 0.428250 -0.345250 0.050000
v 0.416630 -0.335778 0.050000
v 0.405037 -0.326764 0.050000
v 0.393500 -0.318250 0.050000
v 0.382046 -0.310278 0.050000
v 0.370704 -0.302889 0.050000
v 0.359500 -0.296125 0.050000
v 0.348463 -0.290028 0.050000
v 0.337620 -0.284639 0.050000
v 0.327000 -0.280000 0.050000
v 0.327000 0.005000 0.050000
v 0.444000 0.005000 0.050000
v 0.444000 0.078000 0.050000
v 0.251000 0.078000 0.050000
v 0.251000 -0.274000 0.050000
v 0.373361 0.427046 0.050000
v 0.373361 0.427046 -0.050000
v 0.357556 0.414282 0.050000
v 0.357556 0.414282 -0.050000
v 0.341750 0.400859 0.050000
v 0.341750 0.400859 -0.050000
v 0.326111 0.386926 0.050000
v 0.326111 0.386926 -0.050000
v 0.310806 0.372631 0.050000
v 0.310806 0.372631 -0.050000
v 0.296000 0.358125 0.050000
v 0.296000 0.358125 -0.050000
v 0.281861 0.343556 0.050000
v 0.281861 0.343556 -0.050000
v 0.268556 0.329074 0.050000
v 0.268556 0.329074 -0.050000
v 0.256250 0.314828 0.050000
v 0.256250 0.314828 -0.050000
v 0.245111 0.300968 0.050000
v 0.245111 0.300968 -0.050000
v 0.235306 0.287642 0.050000
v 0.235306 0.287642 -0.050000
v 0.227000 0.275000 0.050000
v 0.227000 0.275000 -0.050000
v 0.290000 0.227000 0.050000
v 0.290000 0.227000 -0.050000
v 0.298036 0.239682 0.050000
v 0.298036 0.239682 -0.050000
v 0.307537 0.253125 0.050000
v 0.307537 0.253125 -0.050000
v 0.318344 0.267172 0.050000
v 0.318344 0.267172 -0.050000
v 0.330296 0.281667 0.050000
v 0.330296 0.281667 -0.050000
v 0.343235 0.296453 0.050000
v 0.343235 0.296453 -0.050000
v 0.357000 0.311375 0.050000
v 0.357000 0.311375 -0.050000
v 0.371432 0.326276 0.050000
v 0.371432 0.326276 -0.050000
v 0.386370 0.341000 0.050000
v 0.386370 0.341000 -0.050000
v 0.401656 0.355391 0.050000
v 0.401656 0.355391 -0.050000
v 0.417130 0.369292 0.050000
v 0.417130 0.369292 -0.050000
v 0.432631 0.382547 0.050000
v 0.432631 0.382547 -0.050000
v 0.448000 0.395000 0.050000
v 0.448000 0.395000 -0.050000
v 0.389000 0.439000 0.050000
v 0.389000 0.439000 -0.050000
v -0.138000 -0.029000 0.050000
v -0.138000 -0.029000 -0.050000
v -0.138000 0.074000 0.050000
v -0.138000 0.074000 -0.050000
v 0.050000 0.074000 0.050000
v 0.050000 0.074000 -0.050000
v 0.050000 -0.029000 0.050000
v 0.050000 -0.029000 -0.050000
v -0.138000 0.234000 0.050000
v -0.138000 0.234000 -0.050000
v 0.050000 0.234000 0.050000
v 0.050000 0.234000 -0.050000
v 0.050000 0.133000 0.050000
v 0.050000 0.133000 -0.050000
v -0.138000 0.133000 0.050000
v -0.138000 0.133000 -0.050000
v -0.138000 -0.197000 0.050000
v -0.138000 -0.197000 -0.050000
v -0.138000 -0.090000 0.050000
v -0.138000 -0.090000 -0.050000
v 0.050000 -0.090000 0.050000
v 0.050000 -0.090000 -0.050000
v 0.050000 -0.197000 0.050000
v 0.050000 -0.197000 -0.050000
v -0.178533 0.427995 0.050000
v -0.178533 0.427995 -0.050000
v -0.185097 0.416542 0.050000
v -0.185097 0.416542 -0.050000
v -0.191641 0.404734 0.050000
v -0.191641 0.404734 -0.050000
v -0.198111 0.392667 0.050000
v -0.198111 0.392667 -0.050000
v -0.204457 0.380432 0.050000
v -0.204457 0.380432 -0.050000
v -0.210625 0.368125 0.050000
v -0.210625 0.368125 -0.050000
v -0.216564 0.355839 0.050000
v -0.216564 0.355839 -0.050000
v -0.222222 0.343667 0.050000
v -0.222222 0.343667 -0.050000
v -0.227547 0.331703 0.050000
v -0.227547 0.331703 -0.050000
v -0.232486 0.320042 0.050000
v -0.232486 0.320042 -0.050000
v -0.236988 0.308776 0.050000
v -0.236988 0.308776 -0.050000
v -0.241000 0.298000 0.050000
v -0.241000 0.298000 -0.050000
v -0.426000 0.298000 0.050000
v -0.426000 0.298000 -0.050000
v -0.426000 0.234000 0.050000
v -0.426000 0.234000 -0.050000
v -0.208000 0.234000 0.050000
v -0.208000 0.234000 -0.050000
v -0.208000 0.133000 0.050000
v -0.208000 0.133000 -0.050000
v -0.393000 0.133000 0.050000
v -0.393000 0.133000 -0.050000
v -0.393000 0.074000 0.050000
v -0.393000 0.074000 -0.050000
v -0.208000 0.074000 0.050000
v -0.208000 0.074000 -0.050000
v -0.208000 -0.029000 0.050000
v -0.208000 -0.029000 -0.050000
v -0.391000 -0.029000 0.050000
v -0.391000 -0.029000 -0.050000
v -0.391000 -0.090000 0.050000
v -0.391000 -0.090000 -0.050000
v -0.208000 -0.090000 0.050000
v -0.208000 -0.090000 -0.050000
v -0.208000 -0.197000 0.050000
v -0.208000 -0.197000 -0.050000
v -0.445000 -0.197000 0.050000
v -0.445000 -0.197000 -0.050000
v -0.445000 -0.262000 0.050000
v -0.445000 -0.262000 -0.050000
v 0.123000 -0.262000 0.050000
v 0.123000 -0.262000 -0.050000
v 0.123000 0.157000 0.050000
v 0.123000 0.157000 -0.050000
v 0.129251 0.148833 0.050000
v 0.129251 0.148833 -0.050000
v 0.135509 0.140829 0.050000
v 0.135509 0.140829 -0.050000
v 0.141781 0.132984 0.050000
v 0.141781 0.132984 -0.050000
v 0.148074 0.125296 0.050000
v 0.148074 0.125296 -0.050000
v 0.154395 0.117761 0.050000
v 0.154395 0.117761 -0.050000
v 0.160750 0.110375 0.050000
v 0.160750 0.110375 -0.050000
v 0.167147 0.103135 0.050000
v 0.167147 0.103135 -0.050000
v 0.173593 0.096037 0.050000
v 0.173593 0.096037 -0.050000
v 0.180094 0.089078 0.050000
v 0.180094 0.089078 -0.050000
v 0.186657 0.082255 0.050000
v 0.186657 0.082255 -0.050000
v 0.193291 0.075563 0.050000
v 0.193291 0.075563 -0.050000
v 0.200000 0.069000 0.050000
v 0.200000 0.069000 -0.050000
v 0.202608 0.072775 0.050000
v 0.202608 0.072775 -0.050000
v 0.205861 0.077032 0.050000
v 0.205861 0.077032 -0.050000
v 0.209656 0.081672 0.050000
v 0.209656 0.081672 -0.050000
v 0.213889 0.086593 0.050000
v 0.213889 0.086593 -0.050000
v 0.218455 0.091694 0.050000
v 0.218455 0.091694 -0.050000
v 0.223250 0.096875 0.050000
v 0.223250 0.096875 -0.050000
v 0.228170 0.102035 0.050000
v 0.228170 0.102035 -0.050000
v 0.233111 0.107074 0.050000
v 0.233111 0.107074 -0.050000
v 0.237969 0.111891 0.050000
v 0.237969 0.111891 -0.050000
v 0.242639 0.116384 0.050000
v 0.242639 0.116384 -0.050000
v 0.247017 0.120454 0.050000
v 0.247017 0.120454 -0.050000
v 0.251000 0.124000 0.050000
v 0.251000 0.124000 -0.050000
v 0.229491 0.144604 0.050000
v 0.229491 0.144604 -0.050000
v 0.208509 0.166833 0.050000
v 0.208509 0.166833 -0.050000
v 0.188125 0.190563 0.050000
v 0.188125 0.190563 -0.050000
v 0.168407 0.215667 0.050000
v 0.168407 0.215667 -0.050000
v 0.149426 0.242021 0.050000
v 0.149426 0.242021 -0.050000
v 0.131250 0.269500 0.050000
v 0.131250 0.269500 -0.050000
v 0.113949 0.297979 0.050000
v 0.113949 0.297979 -0.050000
v 0.097593 0.327333 0.050000
v 0.097593 0.327333 -0.050000
v 0.082250 0.357438 0.050000
v 0.082250 0.357438 -0.050000
v 0.067991 0.388167 0.050000
v 0.067991 0.388167 -0.050000
v 0.054884 0.419396 0.050000
v 0.054884 0.419396 -0.050000
v 0.043000 0.451000 0.050000
v 0.043000 0.451000 -0.050000
v -0.025000 0.434000 0.050000
v -0.025000 0.434000 -0.050000
v -0.020687 0.422291 0.050000
v -0.020687 0.422291 -0.050000
v -0.016250 0.410662 0.050000
v -0.016250 0.410662 -0.050000
v -0.011687 0.399109 0.050000
v -0.011687 0.399109 -0.050000
v -0.007000 0.387630 0.050000
v -0.007000 0.387630 -0.050000
v -0.002187 0.376219 0.050000
v -0.002187 0.376219 -0.050000
v 0.002750 0.364875 0.050000
v 0.002750 0.364875 -0.050000
v 0.007813 0.353593 0.050000
v 0.007813 0.353593 -0.050000
v 0.013000 0.342370 0.050000
v 0.013000 0.342370 -0.050000
v 0.018313 0.331203 0.050000
v 0.018313 0.331203 -0.050000
v 0.023750 0.320088 0.050000
v 0.023750 0.320088 -0.050000
v 0.029313 0.309021 0.050000
v 0.029313 0.309021 -0.050000
v 0.035000 0.298000 0.050000
v 0.035000 0.298000 -0.050000
v -0.158000 0.298000 0.050000
v -0.158000 0.298000 -0.050000
v -0.154109 0.307887 0.050000
v -0.154109 0.307887 -0.050000
v -0.149954 0.318009 0.050000
v -0.149954 0.318009 -0.050000
v -0.145562 0.328312 0.050000
v -0.145562 0.328312 -0.050000
v -0.140963 0.338741 0.050000
v -0.140963 0.338741 -0.050000
v -0.136183 0.349238 0.050000
v -0.136183 0.349238 -0.050000
v -0.131250 0.359750 0.050000
v -0.131250 0.359750 -0.050000
v -0.126192 0.370220 0.050000
v -0.126192 0.370220 -0.050000
v -0.121037 0.380593 0.050000
v -0.121037 0.380593 -0.050000
v -0.115812 0.390813 0.050000
v -0.115812 0.390813 -0.050000
v -0.110546 0.400824 0.050000
v -0.110546 0.400824 -0.050000
v -0.105266 0.410572 0.050000
v -0.105266 0.410572 -0.050000
v -0.100000 0.420000 0.050000
v -0.100000 0.420000 -0.050000
v -0.172000 0.439000 0.050000
v -0.172000 0.439000 -0.050000
v 0.244971 -0.276224 0.050000
v 0.244971 -0.276224 -0.050000
v 0.238852 -0.278875 0.050000
v 0.238852 -0.278875 -0.050000
v 0.232594 -0.281922 0.050000
v 0.232594 -0.281922 -0.050000
v 0.226148 -0.285333 0.050000
v 0.226148 -0.285333 -0.050000
v 0.219466 -0.289078 0.050000
v 0.219466 -0.289078 -0.050000
v 0.212500 -0.293125 0.050000
v 0.212500 -0.293125 -0.050000
v 0.205200 -0.297443 0.050000
v 0.205200 -0.297443 -0.050000
v 0.197519 -0.302000 0.050000
v 0.197519 -0.302000 -0.050000
v 0.189406 -0.306766 0.050000
v 0.189406 -0.306766 -0.050000
v 0.180815 -0.311708 0.050000
v 0.180815 -0.311708 -0.050000
v 0.171696 -0.316797 0.050000
v 0.171696 -0.316797 -0.050000
v 0.162000 -0.322000 0.050000
v 0.162000 -0.322000 -0.050000
v 0.145502 -0.329949 0.050000
v 0.145502 -0.329949 -0.050000
v 0.128019 -0.336843 0.050000
v 0.128019 -0.336843 -0.050000
v 0.109563 -0.342750 0.050000
v 0.109563 -0.342750 -0.050000
v 0.090148 -0.347741 0.050000
v 0.090148 -0.347741 -0.050000
v 0.069789 -0.351884 0.050000
v 0.069789 -0.351884 -0.050000
v 0.048500 -0.355250 0.050000
v 0.048500 -0.355250 -0.050000
v 0.026294 -0.357907 0.050000
v 0.026294 -0.357907 -0.050000
v 0.003185 -0.359926 0.050000
v 0.003185 -0.359926 -0.050000
v -0.020812 -0.361375 0.050000
v -0.020812 -0.361375 -0.050000
v -0.045685 -0.362324 0.050000
v -0.045685 -0.362324 -0.050000
v -0.071419 -0.362843 0.050000
v -0.071419 -0.362843 -0.050000
v -0.098000 -0.363000 0.050000
v -0.098000 -0.363000 -0.050000
v -0.127010 -0.362876 0.050000
v -0.127010 -0.362876 -0.050000
v -0.157329 -0.362509 0.050000
v -0.157329 -0.362509 -0.050000
v -0.188641 -0.361906 0.050000
v -0.188641 -0.361906 -0.050000
v -0.220630 -0.361074 0.050000
v -0.220630 -0.361074 -0.050000
v -0.252980 -0.360020 0.050000
v -0.252980 -0.360020 -0.050000
v -0.285375 -0.358750 0.050000
v -0.285375 -0.358750 -0.050000
v -0.317499 -0.357272 0.050000
v -0.317499 -0.357272 -0.050000
v -0.349037 -0.355593 0.050000
v -0.349037 -0.355593 -0.050000
v -0.379672 -0.353719 0.050000
v -0.379672 -0.353719 -0.050000
v -0.409088 -0.351657 0.050000
v -0.409088 -0.351657 -0.050000
v -0.436969 -0.349416 0.050000
v -0.436969 -0.349416 -0.050000
v -0.463000 -0.347000 0.050000
v -0.463000 -0.347000 -0.050000
v -0.460446 -0.352605 0.050000
v -0.460446 -0.352605 -0.050000
v -0.457815 -0.358838 0.050000
v -0.457815 -0.358838 -0.050000
v -0.455156 -0.365578 0.050000
v -0.455156 -0.365578 -0.050000
v -0.452518 -0.372704 0.050000
v -0.452518 -0.372704 -0.050000
v -0.449950 -0.380093 0.050000
v -0.449950 -0.380093 -0.050000
v -0.447500 -0.387625 0.050000
v -0.447500 -0.387625 -0.050000
v -0.445216 -0.395178 0.050000
v -0.445216 -0.395178 -0.050000
v -0.443148 -0.402630 0.050000
v -0.443148 -0.402630 -0.050000
v -0.441344 -0.409859 0.050000
v -0.441344 -0.409859 -0.050000
v -0.439852 -0.416745 0.050000
v -0.439852 -0.416745 -0.050000
v -0.438721 -0.423166 0.050000
v -0.438721 -0.423166 -0.050000
v -0.438000 -0.429000 0.050000
v -0.438000 -0.429000 -0.050000
v -0.416987 -0.430247 0.050000
v -0.416987 -0.430247 -0.050000
v -0.392810 -0.431477 0.050000
v -0.392810 -0.431477 -0.050000
v -0.366016 -0.432672 0.050000
v -0.366016 -0.432672 -0.050000
v -0.337148 -0.433815 0.050000
v -0.337148 -0.433815 -0.050000
v -0.306753 -0.434888 0.050000
v -0.306753 -0.434888 -0.050000
v -0.275375 -0.435875 0.050000
v -0.275375 -0.435875 -0.050000
v -0.243560 -0.436758 0.050000
v -0.243560 -0.436758 -0.050000
v -0.211852 -0.437519 0.050000
v -0.211852 -0.437519 -0.050000
v -0.180797 -0.438141 0.050000
v -0.180797 -0.438141 -0.050000
v -0.150940 -0.438607 0.050000
v -0.150940 -0.438607 -0.050000
v -0.122826 -0.438899 0.050000
v -0.122826 -0.438899 -0.050000
v -0.097000 -0.439000 0.050000
v -0.097000 -0.439000 -0.050000
v -0.068157 -0.438763 0.050000
v -0.068157 -0.438763 -0.050000
v -0.040588 -0.438019 0.050000
v -0.040588 -0.438019 -0.050000
v -0.014234 -0.436719 0.050000
v -0.014234 -0.436719 -0.050000
v 0.010963 -0.434815 0.050000
v 0.010963 -0.434815 -0.050000
v 0.035063 -0.432258 0.050000
v 0.035063 -0.432258 -0.050000
v 0.058125 -0.429000 0.050000
v 0.058125 -0.429000 -0.050000
v 0.080208 -0.424992 0.050000
v 0.080208 -0.424992 -0.050000
v 0.101370 -0.420185 0.050000
v 0.101370 -0.420185 -0.050000
v 0.121672 -0.414531 0.050000
v 0.121672 -0.414531 -0.050000
v 0.141171 -0.407982 0.050000
v 0.141171 -0.407982 -0.050000
v 0.159928 -0.400487 0.050000
v 0.159928 -0.400487 -0.050000
v 0.178000 -0.392000 0.050000
v 0.178000 -0.392000 -0.050000
v 0.188561 -0.385935 0.050000
v 0.188561 -0.385935 -0.050000
v 0.198741 -0.379815 0.050000
v 0.198741 -0.379815 -0.050000
v 0.208531 -0.373750 0.050000
v 0.208531 -0.373750 -0.050000
v 0.217926 -0.367852 0.050000
v 0.217926 -0.367852 -0.050000
v 0.226918 -0.362232 0.050000
v 0.226918 -0.362232 -0.050000
v 0.235500 -0.357000 0.050000
v 0.235500 -0.357000 -0.050000
v 0.243666 -0.352269 0.050000
v 0.243666 -0.352269 -0.050000
v 0.251407 -0.348148 0.050000
v 0.251407 -0.348148 -0.050000
v 0.258719 -0.344750 0.050000
v 0.258719 -0.344750 -0.050000
v 0.265593 -0.342185 0.050000
v 0.265593 -0.342185 -0.050000
v 0.272022 -0.340565 0.050000
v 0.272022 -0.340565 -0.050000
v 0.278000 -0.340000 0.050000
v 0.278000 -0.340000 -0.050000
v 0.286762 -0.341095 0.050000
v 0.286762 -0.341095 -0.050000
v 0.296014 -0.344264 0.050000
v 0.296014 -0.344264 -0.050000
v 0.305703 -0.349328 0.050000
v 0.305703 -0.349328 -0.050000
v 0.315778 -0.356111 0.050000
v 0.315778 -0.356111 -0.050000
v 0.326186 -0.364436 0.050000
v 0.326186 -0.364436 -0.050000
v 0.336875 -0.374125 0.050000
v 0.336875 -0.374125 -0.050000
v 0.347793 -0.385002 0.050000
v 0.347793 -0.385002 -0.050000
v 0.358889 -0.396889 0.050000
v 0.358889 -0.396889 -0.050000
v 0.370109 -0.409609 0.050000
v 0.370109 -0.409609 -0.050000
v 0.381403 -0.422986 0.050000
v 0.381403 -0.422986 -0.050000
v 0.392717 -0.436842 0.050000
v 0.392717 -0.436842 -0.050000
v 0.404000 -0.451000 0.050000
v 0.404000 -0.451000 -0.050000
v 0.463000 -0.376000 0.050000
v 0.463000 -0.376000 -0.050000
v 0.451463 -0.365403 0.050000
v 0.451463 -0.365403 -0.050000
v 0.439870 -0.355139 0.050000
v 0.439870 -0.355139 -0.050000
v 0.428250 -0.345250 0.050000
v 0.428250 -0.345250 -0.050000
v 0.416630 -0.335778 0.050000
v 0.416630 -0.335778 -0.050000
v 0.405037 -0.326764 0.050000
v 0.405037 -0.326764 -0.050000
v 0.393500 -0.318250 0.050000
v 0.393500 -0.318250 -0.050000
v 0.382046 -0.310278 0.050000
v 0.382046 -0.310278 -0.050000
v 0.370704 -0.302889 0.050000
v 0.370704 -0.302889 -0.050000
v 0.359500 -0.296125 0.050000
v 0.359500 -0.296125 -0.050000
v 0.348463 -0.290028 0.050000
v 0.348463 -0.290028 -0.050000
v 0.337620 -0.284639 0.050000
v 0.337620 -0.284639 -0.050000
v 0.327000 -0.280000 0.050000
v 0.327000 -0.280000 -0.050000
v 0.327000 0.005000 0.050000
v 0.327000 0.005000 -0.050000
v 0.444000 0.005000 0.050000
v 0.444000 0.005000 -0.050000
v 0.444000 0.078000 0.050000
v 0.444000 0.078000 -0.050000
v 0.251000 0.078000 0.050000
v 0.251000 0.078000 -0.050000
v 0.251000 -0.274000 0.050000
v 0.251000 -0.274000 -0.050000
vn -0.0000 -0.0000 -1.0000
vn -0.0000 1.0000 -0.0000
vn -0.0000 -0.0000 1.0000
vn -0.0000 0.0005 1.0000
vn -0.0000 -0.0001 1.0000
vn -0.6378 0.7702 -0.0000
vn -0.6178 0.7863 -0.0000
vn -0.6563 0.7545 -0.0000
vn -0.6739 0.7388 -0.0000
vn -0.6913 0.7226 -0.0000
vn -0.7088 0.7054 -0.0000
vn -0.7271 0.6866 -0.0000
vn -0.7467 0.6652 -0.0000
vn -0.7682 0.6402 -0.0000
vn -0.7926 0.6097 -0.0000
vn -0.8209 0.5711 -0.0000
vn -0.9857 -0.1684 -0.0000
vn 0.1765 -0.9843 -0.0000
vn 0.8309 -0.5564 -0.0000
vn 0.8048 -0.5936 -0.0000
vn 0.7822 -0.6231 -0.0000
vn 0.7621 -0.6474 -0.0000
vn 0.7439 -0.6683 -0.0000
vn 0.7267 -0.6869 -0.0000
vn 0.7102 -0.7040 -0.0000
vn 0.6938 -0.7202 -0.0000
vn 0.6769 -0.7360 -0.0000
vn 0.6592 -0.7520 -0.0000
vn 0.6398 -0.7686 -0.0000
vn 0.9998 0.0201 -0.0000
vn -0.0059 1.0000 -0.0000
vn 0.7071 -0.7071 -0.0000
vn 0.7071 0.7071 -0.0000
vn -0.7071 -0.7071 -0.0000
vn -0.7071 0.7071 -0.0000
vn -0.8712 0.4910 -0.0000
vn -0.8638 0.5039 -0.0000
vn -0.8780 0.4786 -0.0000
vn -0.8845 0.4665 -0.0000
vn -0.8909 0.4543 -0.0000
vn -0.8972 0.4417 -0.0000
vn -0.9036 0.4284 -0.0000
vn -0.9102 0.4141 -0.0000
vn -0.9172 0.3983 -0.0000
vn -0.9248 0.3806 -0.0000
vn -0.9329 0.3600 -0.0000
vn -0.5706 0.8213 -0.0000
vn 0.3208 -0.9471 -0.0000
vn -0.7910 -0.6119 -0.0000
vn -0.7844 -0.6202 -0.0000
vn -0.7774 -0.6289 -0.0000
vn -0.7700 -0.6380 -0.0000
vn -0.7621 -0.6475 -0.0000
vn -0.7537 -0.6572 -0.0000
vn -0.7449 -0.6672 -0.0000
vn -0.7355 -0.6775 -0.0000
vn -0.7257 -0.6880 -0.0000
vn -0.7155 -0.6986 -0.0000
vn -0.7048 -0.7095 -0.0000
vn 0.0958 -0.9954 -0.0000
vn 0.8089 -0.5879 -0.0000
vn 0.7844 -0.6203 -0.0000
vn 0.7661 -0.6427 -0.0000
vn 0.7517 -0.6596 -0.0000
vn 0.7395 -0.6731 -0.0000
vn 0.7289 -0.6847 -0.0000
vn 0.7189 -0.6951 -0.0000
vn 0.7091 -0.7051 -0.0000
vn 0.6987 -0.7154 -0.0000
vn 0.6871 -0.7265 -0.0000
vn 0.6729 -0.7397 -0.0000
vn 0.9998 -0.0183 -0.0000
vn 0.7097 0.7045 -0.0000
vn 0.7431 0.6692 -0.0000
vn 0.7727 0.6348 -0.0000
vn 0.7991 0.6012 -0.0000
vn 0.8229 0.5682 -0.0000
vn 0.8445 0.5355 -0.0000
vn 0.8643 0.5031 -0.0000
vn 0.8824 0.4705 -0.0000
vn 0.8992 0.4376 -0.0000
vn 0.9147 0.4040 -0.0000
vn 0.9292 0.3695 -0.0000
vn 0.4645 0.8856 -0.0000
vn -0.8840 0.4675 -0.0000
vn -0.9363 -0.3511 -0.0000
vn -0.9322 -0.3619 -0.0000
vn -0.9280 -0.3727 -0.0000
vn -0.9236 -0.3833 -0.0000
vn -0.9192 -0.3939 -0.0000
vn -0.9147 -0.4042 -0.0000
vn -0.9101 -0.4145 -0.0000
vn -0.9054 -0.4246 -0.0000
vn -0.9007 -0.4345 -0.0000
vn -0.8959 -0.4443 -0.0000
vn -0.8911 -0.4538 -0.0000
vn -0.8540 0.5203 -0.0000
vn 0.8265 0.5629 -0.0000
vn 0.9278 -0.3730 -0.0000
vn 0.9225 -0.3859 -0.0000
vn 0.9175 -0.3978 -0.0000
vn 0.9125 -0.4090 -0.0000
vn 0.9077 -0.4196 -0.0000
vn 0.9029 -0.4299 -0.0000
vn 0.8980 -0.4400 -0.0000
vn 0.8930 -0.4501 -0.0000
vn 0.8877 -0.4604 -0.0000
vn 0.8822 -0.4709 -0.0000
vn 0.8762 -0.4820 -0.0000
vn 0.9204 0.3910 -0.0000
vn -0.3788 0.9255 -0.0000
vn -0.4177 0.9086 -0.0000
vn -0.3720 0.9283 -0.0000
vn -0.4528 0.8916 -0.0000
vn -0.4784 0.8782 -0.0000
vn -0.4956 0.8685 -0.0000
vn -0.5057 0.8627 -0.0000
vn -0.5097 0.8604 -0.0000
vn -0.5084 0.8611 -0.0000
vn -0.5026 0.8645 -0.0000
vn -0.4930 0.8700 -0.0000
vn -0.4801 0.8772 -0.0000
vn -0.4536 0.8912 -0.0000
vn -0.4007 0.9162 -0.0000
vn -0.3360 0.9419 -0.0000
vn -0.2770 0.9609 -0.0000
vn -0.2243 0.9745 -0.0000
vn -0.1778 0.9841 -0.0000
vn -0.1375 0.9905 -0.0000
vn -0.1029 0.9947 -0.0000
vn -0.0737 0.9973 -0.0000
vn -0.0492 0.9988 -0.0000
vn -0.0291 0.9996 -0.0000
vn -0.0130 0.9999 -0.0000
vn -0.0008 1.0000 -0.0000
vn 0.0082 1.0000 -0.0000
vn 0.0157 0.9999 -0.0000
vn 0.0226 0.9997 -0.0000
vn 0.0293 0.9996 -0.0000
vn 0.0359 0.9994 -0.0000
vn 0.0426 0.9991 -0.0000
vn 0.0496 0.9988 -0.0000
vn 0.0571 0.9984 -0.0000
vn 0.0655 0.9979 -0.0000
vn 0.0750 0.9972 -0.0000
vn 0.0863 0.9963 -0.0000
vn -0.8151 0.5793 -0.0000
vn -0.9157 -0.4018 -0.0000
vn -0.9258 -0.3779 -0.0000
vn -0.9341 -0.3571 -0.0000
vn -0.9412 -0.3377 -0.0000
vn -0.9478 -0.3188 -0.0000
vn -0.9541 -0.2994 -0.0000
vn -0.9605 -0.2784 -0.0000
vn -0.9670 -0.2548 -0.0000
vn -0.9739 -0.2270 -0.0000
vn -0.9813 -0.1926 -0.0000
vn -0.9890 -0.1481 -0.0000
vn -0.6842 -0.7293 -0.0000
vn -0.0550 -0.9985 -0.0000
vn -0.0477 -0.9989 -0.0000
vn -0.0421 -0.9991 -0.0000
vn -0.0374 -0.9993 -0.0000
vn -0.0334 -0.9994 -0.0000
vn -0.0296 -0.9996 -0.0000
vn -0.0259 -0.9997 -0.0000
vn -0.0220 -0.9998 -0.0000
vn -0.0178 -0.9998 -0.0000
vn -0.0130 -0.9999 -0.0000
vn -0.0072 -1.0000 -0.0000
vn 0.0022 -1.0000 -0.0000
vn 0.0176 -0.9998 -0.0000
vn 0.0381 -0.9993 -0.0000
vn 0.0623 -0.9981 -0.0000
vn 0.0904 -0.9959 -0.0000
vn 0.1227 -0.9924 -0.0000
vn 0.1593 -0.9872 -0.0000
vn 0.2001 -0.9798 -0.0000
vn 0.2450 -0.9695 -0.0000
vn 0.2935 -0.9560 -0.0000
vn 0.3449 -0.9387 -0.0000
vn 0.3982 -0.9173 -0.0000
vn 0.4619 -0.8869 -0.0000
vn 0.5067 -0.8621 -0.0000
vn 0.5210 -0.8536 -0.0000
vn 0.5292 -0.8485 -0.0000
vn 0.5309 -0.8475 -0.0000
vn 0.5253 -0.8509 -0.0000
vn 0.5110 -0.8596 -0.0000
vn 0.4857 -0.8741 -0.0000
vn 0.4458 -0.8951 -0.0000
vn 0.3858 -0.9226 -0.0000
vn 0.2974 -0.9547 -0.0000
vn 0.1697 -0.9855 -0.0000
vn -0.0151 -0.9999 -0.0000
vn -0.2252 -0.9743 -0.0000
vn -0.3947 -0.9188 -0.0000
vn -0.5116 -0.8592 -0.0000
vn -0.5920 -0.8059 -0.0000
vn -0.6484 -0.7613 -0.0000
vn -0.5921 -0.8059 -0.0000
vn -0.6889 -0.7249 -0.0000
vn -0.7185 -0.6955 -0.0000
vn -0.7406 -0.6720 -0.0000
vn -0.7571 -0.6533 -0.0000
vn -0.7694 -0.6388 -0.0000
vn -0.7783 -0.6279 -0.0000
vn 0.0032 -1.0000 -0.0000
vn 0.9968 0.0805 -0.0000
vn 0.6697 0.7426 -0.0000
vn 0.6555 0.7552 -0.0000
vn 0.6400 0.7684 -0.0000
vn 0.6229 0.7823 -0.0000
vn 0.6039 0.7971 -0.0000
vn 0.5826 0.8128 -0.0000
vn 0.5586 0.8294 -0.0000
vn 0.5314 0.8471 -0.0000
vn 0.5003 0.8659 -0.0000
vn 0.4644 0.8856 -0.0000
vn 0.4228 0.9062 -0.0000
vn 0.8367 0.5476 -0.0000
vn -0.8204 0.5718 -0.0000
vt 0.413223 0.000000
vt 0.421488 0.000000
vt 0.417355 0.000000
vt 0.099174 0.000000
vt 0.000000 0.000000
vt 0.103306 0.000000
vt 0.524793 0.000000
vt 0.157025 0.000000
vt 0.528926 0.000000
vt 0.425620 0.000000
vt 0.161157 0.000000
vt 0.004132 0.000000
vt 0.429752 0.000000
vt 0.520661 0.000000
vt 0.409091 0.000000
vt 0.165289 0.000000
vt 0.008264 0.000000
vt 0.433884 0.000000
vt 0.516529 0.000000
vt 0.169421 0.000000
vt 0.012397 0.000000
vt 0.512397 0.000000
vt 0.438017 0.000000
vt 0.095041 0.000000
vt 0.173554 0.000000
vt 0.508264 0.000000
vt 0.404959 0.000000
vt 0.442149 0.000000
vt 0.016529 0.000000
vt 0.090909 0.000000
vt 0.504132 0.000000
vt 0.177686 0.000000
vt 0.446281 0.000000
vt 0.020661 0.000000
vt 0.500000 0.000000
vt 0.086777 0.000000
vt 0.181818 0.000000
vt 0.450413 0.000000
vt 0.495868 0.000000
vt 0.024793 0.000000
vt 0.400826 0.000000
vt 0.185950 0.000000
vt 0.082645 0.000000
vt 0.454545 0.000000
vt 0.491736 0.000000
vt 0.190083 0.000000
vt 0.028926 0.000000
vt 0.458678 0.000000
vt 0.078512 0.000000
vt 0.487603 0.000000
vt 0.194215 0.000000
vt 0.462810 0.000000
vt 0.033058 0.000000
vt 0.483471 0.000000
vt 0.396694 0.000000
vt 0.074380 0.000000
vt 0.466942 0.000000
vt 0.198347 0.000000
vt 0.479339 0.000000
vt 0.037190 0.000000
vt 0.070248 0.000000
vt 0.471074 0.000000
vt 0.202479 0.000000
vt 0.475207 0.000000
vt 0.041322 0.000000
vt 0.206612 0.000000
vt 0.210744 0.000000
vt 0.392562 0.000000
vt 0.066116 0.000000
vt 0.045455 0.000000
vt 0.061983 0.000000
vt 0.057851 0.000000
vt 0.053719 0.000000
vt 0.049587 0.000000
vt 0.388430 0.000000
vt 0.384298 0.000000
vt 0.128099 0.000000
vt 0.132231 0.000000
vt 0.123967 0.000000
vt 0.136364 0.000000
vt 0.214876 0.000000
vt 0.219008 0.000000
vt 0.380165 0.000000
vt 0.376033 0.000000
vt 0.268595 0.000000
vt 0.371901 0.000000
vt 0.272727 0.000000
vt 0.264463 0.000000
vt 0.276859 0.000000
vt 0.367769 0.000000
vt 0.280992 0.000000
vt 0.115702 0.000000
vt 0.223140 0.000000
vt 0.227273 0.000000
vt 0.285124 0.000000
vt 0.289256 0.000000
vt 0.363636 0.000000
vt 0.359504 0.000000
vt 0.293388 0.000000
vt 0.355372 0.000000
vt 0.351240 0.000000
vt 0.297521 0.000000
vt 0.347107 0.000000
vt 0.301653 0.000000
vt 0.342975 0.000000
vt 0.338843 0.000000
vt 0.305785 0.000000
vt 0.334711 0.000000
vt 0.309917 0.000000
vt 0.330579 0.000000
vt 0.314050 0.000000
vt 0.326446 0.000000
vt 0.987603 0.000000
vt 0.995868 0.000000
vt 0.991736 0.000000
vt 0.983471 0.000000
vt 1.000000 0.000000
vt 0.322314 0.000000
vt 0.318182 0.000000
vt 0.119835 0.000000
vt 0.111570 0.000000
vt 0.107438 0.000000
vt 0.231405 0.000000
vt 0.235537 0.000000
vt 0.979339 0.000000
vt 0.148760 0.000000
vt 0.239669 0.000000
vt 0.243802 0.000000
vt 0.152893 0.000000
vt 0.144628 0.000000
vt 0.140496 0.000000
vt 0.247934 0.000000
vt 0.252066 0.000000
vt 0.256198 0.000000
vt 0.260331 0.000000
vt 0.533058 0.000000
vt 0.537190 0.000000
vt 0.541322 0.000000
vt 0.975207 0.000000
vt 0.545455 0.000000
vt 0.971074 0.000000
vt 0.549587 0.000000
vt 0.553719 0.000000
vt 0.966942 0.000000
vt 0.557851 0.000000
vt 0.962810 0.000000
vt 0.561983 0.000000
vt 0.566116 0.000000
vt 0.958678 0.000000
vt 0.570248 0.000000
vt 0.954545 0.000000
vt 0.574380 0.000000
vt 0.578512 0.000000
vt 0.950413 0.000000
vt 0.582645 0.000000
vt 0.946281 0.000000
vt 0.586777 0.000000
vt 0.942149 0.000000
vt 0.876033 0.000000
vt 0.590909 0.000000
vt 0.880165 0.000000
vt 0.871901 0.000000
vt 0.867769 0.000000
vt 0.884298 0.000000
vt 0.863636 0.000000
vt 0.595041 0.000000
vt 0.888430 0.000000
vt 0.859504 0.000000
vt 0.938017 0.000000
vt 0.673554 0.000000
vt 0.681818 0.000000
vt 0.677686 0.000000
vt 0.599174 0.000000
vt 0.855372 0.000000
vt 0.892562 0.000000
vt 0.669421 0.000000
vt 0.665289 0.000000
vt 0.603306 0.000000
vt 0.851240 0.000000
vt 0.685950 0.000000
vt 0.661157 0.000000
vt 0.933884 0.000000
vt 0.607438 0.000000
vt 0.657025 0.000000
vt 0.896694 0.000000
vt 0.847107 0.000000
vt 0.652893 0.000000
vt 0.611570 0.000000
vt 0.648760 0.000000
vt 0.690083 0.000000
vt 0.615702 0.000000
vt 0.644628 0.000000
vt 0.640496 0.000000
vt 0.619835 0.000000
vt 0.636364 0.000000
vt 0.842975 0.000000
vt 0.623967 0.000000
vt 0.632231 0.000000
vt 0.628099 0.000000
vt 0.900826 0.000000
vt 0.929752 0.000000
vt 0.694215 0.000000
vt 0.838843 0.000000
vt 0.698347 0.000000
vt 0.834711 0.000000
vt 0.904959 0.000000
vt 0.925620 0.000000
vt 0.921488 0.000000
vt 0.917355 0.000000
vt 0.913223 0.000000
vt 0.909091 0.000000
vt 0.830579 0.000000
vt 0.702479 0.000000
vt 0.826446 0.000000
vt 0.706612 0.000000
vt 0.822314 0.000000
vt 0.710744 0.000000
vt 0.818182 0.000000
vt 0.714876 0.000000
vt 0.814050 0.000000
vt 0.719008 0.000000
vt 0.809917 0.000000
vt 0.723140 0.000000
vt 0.805785 0.000000
vt 0.727273 0.000000
vt 0.801653 0.000000
vt 0.731405 0.000000
vt 0.797521 0.000000
vt 0.735537 0.000000
vt 0.739669 0.000000
vt 0.793388 0.000000
vt 0.743802 0.000000
vt 0.747934 0.000000
vt 0.789256 0.000000
vt 0.752066 0.000000
vt 0.756198 0.000000
vt 0.785124 0.000000
vt 0.760331 0.000000
vt 0.764463 0.000000
vt 0.780992 0.000000
vt 0.768595 0.000000
vt 0.772727 0.000000
vt 0.776860 0.000000
vt 0.038462 1.000000
vt 0.000000 1.000000
vt 0.076923 1.000000
vt 0.038462 0.000000
vt 0.115385 1.000000
vt 0.076923 0.000000
vt 0.153846 1.000000
vt 0.115385 0.000000
vt 0.192308 1.000000
vt 0.153846 0.000000
vt 0.230769 1.000000
vt 0.192308 0.000000
vt 0.269231 1.000000
vt 0.230769 0.000000
vt 0.307692 1.000000
vt 0.269231 0.000000
vt 0.346154 1.000000
vt 0.307692 0.000000
vt 0.384615 1.000000
vt 0.346154 0.000000
vt 0.423077 1.000000
vt 0.384615 0.000000
vt 0.461538 1.000000
vt 0.423077 0.000000
vt 0.500000 1.000000
vt 0.461538 0.000000
vt 0.538462 1.000000
vt 0.576923 1.000000
vt 0.538462 0.000000
vt 0.615385 1.000000
vt 0.576923 0.000000
vt 0.653846 1.000000
vt 0.615385 0.000000
vt 0.692308 1.000000
vt 0.653846 0.000000
vt 0.730769 1.000000
vt 0.692308 0.000000
vt 0.769231 1.000000
vt 0.730769 0.000000
vt 0.807692 1.000000
vt 0.769231 0.000000
vt 0.846154 1.000000
vt 0.807692 0.000000
vt 0.884615 1.000000
vt 0.846154 0.000000
vt 0.923077 1.000000
vt 0.884615 0.000000
vt 0.961538 1.000000
vt 0.923077 0.000000
vt 1.000000 1.000000
vt 0.961538 0.000000
vt 0.250000 1.000000
vt 0.250000 0.000000
vt 0.750000 1.000000
vt 0.750000 0.000000
vt 0.010989 1.000000
vt 0.021978 1.000000
vt 0.010989 0.000000
vt 0.032967 1.000000
vt 0.021978 0.000000
vt 0.043956 1.000000
vt 0.032967 0.000000
vt 0.054945 1.000000
vt 0.043956 0.000000
vt 0.065934 1.000000
vt 0.054945 0.000000
vt 0.065934 0.000000
vt 0.087912 1.000000
vt 0.098901 1.000000
vt 0.087912 0.000000
vt 0.109890 1.000000
vt 0.098901 0.000000
vt 0.120879 1.000000
vt 0.109890 0.000000
vt 0.131868 1.000000
vt 0.120879 0.000000
vt 0.142857 1.000000
vt 0.131868 0.000000
vt 0.142857 0.000000
vt 0.164835 1.000000
vt 0.175824 1.000000
vt 0.164835 0.000000
vt 0.186813 1.000000
vt 0.175824 0.000000
vt 0.197802 1.000000
vt 0.186813 0.000000
vt 0.208791 1.000000
vt 0.197802 0.000000
vt 0.219780 1.000000
vt 0.208791 0.000000
vt 0.219780 0.000000
vt 0.241758 1.000000
vt 0.252747 1.000000
vt 0.241758 0.000000
vt 0.263736 1.000000
vt 0.252747 0.000000
vt 0.274725 1.000000
vt 0.263736 0.000000
vt 0.285714 1.000000
vt 0.274725 0.000000
vt 0.296703 1.000000
vt 0.285714 0.000000
vt 0.296703 0.000000
vt 0.318681 1.000000
vt 0.329670 1.000000
vt 0.318681 0.000000
vt 0.340659 1.000000
vt 0.329670 0.000000
vt 0.351648 1.000000
vt 0.340659 0.000000
vt 0.362637 1.000000
vt 0.351648 0.000000
vt 0.373626 1.000000
vt 0.362637 0.000000
vt 0.373626 0.000000
vt 0.395604 1.000000
vt 0.406593 1.000000
vt 0.395604 0.000000
vt 0.417582 1.000000
vt 0.406593 0.000000
vt 0.428571 1.000000
vt 0.417582 0.000000
vt 0.439560 1.000000
vt 0.428571 0.000000
vt 0.450549 1.000000
vt 0.439560 0.000000
vt 0.450549 0.000000
vt 0.472527 1.000000
vt 0.483516 1.000000
vt 0.472527 0.000000
vt 0.494505 1.000000
vt 0.483516 0.000000
vt 0.505495 1.000000
vt 0.494505 0.000000
vt 0.516484 1.000000
vt 0.505495 0.000000
vt 0.527473 1.000000
vt 0.516484 0.000000
vt 0.527473 0.000000
vt 0.549451 1.000000
vt 0.560440 1.000000
vt 0.549451 0.000000
vt 0.571429 1.000000
vt 0.560440 0.000000
vt 0.582418 1.000000
vt 0.571429 0.000000
vt 0.593407 1.000000
vt 0.582418 0.000000
vt 0.604396 1.000000
vt 0.593407 0.000000
vt 0.604396 0.000000
vt 0.626374 1.000000
vt 0.637363 1.000000
vt 0.626374 0.000000
vt 0.648352 1.000000
vt 0.637363 0.000000
vt 0.659341 1.000000
vt 0.648352 0.000000
vt 0.670330 1.000000
vt 0.659341 0.000000
vt 0.681319 1.000000
vt 0.670330 0.000000
vt 0.681319 0.000000
vt 0.703297 1.000000
vt 0.714286 1.000000
vt 0.703297 0.000000
vt 0.725275 1.000000
vt 0.714286 0.000000
vt 0.736264 1.000000
vt 0.725275 0.000000
vt 0.747253 1.000000
vt 0.736264 0.000000
vt 0.758242 1.000000
vt 0.747253 0.000000
vt 0.758242 0.000000
vt 0.780220 1.000000
vt 0.791209 1.000000
vt 0.780220 0.000000
vt 0.802198 1.000000
vt 0.791209 0.000000
vt 0.813187 1.000000
vt 0.802198 0.000000
vt 0.824176 1.000000
vt 0.813187 0.000000
vt 0.835165 1.000000
vt 0.824176 0.000000
vt 0.835165 0.000000
vt 0.857143 1.000000
vt 0.868132 1.000000
vt 0.857143 0.000000
vt 0.879121 1.000000
vt 0.868132 0.000000
vt 0.890110 1.000000
vt 0.879121 0.000000
vt 0.901099 1.000000
vt 0.890110 0.000000
vt 0.912088 1.000000
vt 0.901099 0.000000
vt 0.912088 0.000000
vt 0.934066 1.000000
vt 0.945055 1.000000
vt 0.934066 0.000000
vt 0.956044 1.000000
vt 0.945055 0.000000
vt 0.967033 1.000000
vt 0.956044 0.000000
vt 0.978022 1.000000
vt 0.967033 0.000000
vt 0.989011 1.000000
vt 0.978022 0.000000
vt 0.989011 0.000000
vt 0.008772 1.000000
vt 0.017544 1.000000
vt 0.008772 0.000000
vt 0.026316 1.000000
vt 0.017544 0.000000
vt 0.035088 1.000000
vt 0.026316 0.000000
vt 0.043860 1.000000
vt 0.035088 0.000000
vt 0.052632 1.000000
vt 0.043860 0.000000
vt 0.061404 1.000000
vt 0.052632 0.000000
vt 0.070175 1.000000
vt 0.061404 0.000000
vt 0.078947 1.000000
vt 0.070175 0.000000
vt 0.087719 1.000000
vt 0.078947 0.000000
vt 0.096491 1.000000
vt 0.087719 0.000000
vt 0.105263 1.000000
vt 0.096491 0.000000
vt 0.114035 1.000000
vt 0.105263 0.000000
vt 0.122807 1.000000
vt 0.114035 0.000000
vt 0.131579 1.000000
vt 0.122807 0.000000
vt 0.140351 1.000000
vt 0.131579 0.000000
vt 0.149123 1.000000
vt 0.140351 0.000000
vt 0.157895 1.000000
vt 0.149123 0.000000
vt 0.166667 1.000000
vt 0.157895 0.000000
vt 0.175439 1.000000
vt 0.166667 0.000000
vt 0.184211 1.000000
vt 0.175439 0.000000
vt 0.192982 1.000000
vt 0.184211 0.000000
vt 0.201754 1.000000
vt 0.192982 0.000000
vt 0.210526 1.000000
vt 0.201754 0.000000
vt 0.219298 1.000000
vt 0.210526 0.000000
vt 0.228070 1.000000
vt 0.219298 0.000000
vt 0.236842 1.000000
vt 0.228070 0.000000
vt 0.245614 1.000000
vt 0.236842 0.000000
vt 0.254386 1.000000
vt 0.245614 0.000000
vt 0.263158 1.000000
vt 0.254386 0.000000
vt 0.271930 1.000000
vt 0.263158 0.000000
vt 0.280702 1.000000
vt 0.271930 0.000000
vt 0.289474 1.000000
vt 0.280702 0.000000
vt 0.298246 1.000000
vt 0.289474 0.000000
vt 0.307018 1.000000
vt 0.298246 0.000000
vt 0.315789 1.000000
vt 0.307018 0.000000
vt 0.324561 1.000000
vt 0.315789 0.000000
vt 0.333333 1.000000
vt 0.324561 0.000000
vt 0.342105 1.000000
vt 0.333333 0.000000
vt 0.350877 1.000000
vt 0.342105 0.000000
vt 0.359649 1.000000
vt 0.350877 0.000000
vt 0.368421 1.000000
vt 0.359649 0.000000
vt 0.377193 1.000000
vt 0.368421 0.000000
vt 0.385965 1.000000
vt 0.377193 0.000000
vt 0.394737 1.000000
vt 0.385965 0.000000
vt 0.403509 1.000000
vt 0.394737 0.000000
vt 0.412281 1.000000
vt 0.403509 0.000000
vt 0.421053 1.000000
vt 0.412281 0.000000
vt 0.429825 1.000000
vt 0.421053 0.000000
vt 0.438596 1.000000
vt 0.429825 0.000000
vt 0.447368 1.000000
vt 0.438596 0.000000
vt 0.456140 1.000000
vt 0.447368 0.000000
vt 0.464912 1.000000
vt 0.456140 0.000000
vt 0.473684 1.000000
vt 0.464912 0.000000
vt 0.482456 1.000000
vt 0.473684 0.000000
vt 0.491228 1.000000
vt 0.482456 0.000000
vt 0.491228 0.000000
vt 0.508772 1.000000
vt 0.517544 1.000000
vt 0.508772 0.000000
vt 0.526316 1.000000
vt 0.517544 0.000000
vt 0.535088 1.000000
vt 0.526316 0.000000
vt 0.543860 1.000000
vt 0.535088 0.000000
vt 0.552632 1.000000
vt 0.543860 0.000000
vt 0.561404 1.000000
vt 0.552632 0.000000
vt 0.570175 1.000000
vt 0.561404 0.000000
vt 0.578947 1.000000
vt 0.570175 0.000000
vt 0.587719 1.000000
vt 0.578947 0.000000
vt 0.596491 1.000000
vt 0.587719 0.000000
vt 0.605263 1.000000
vt 0.596491 0.000000
vt 0.614035 1.000000
vt 0.605263 0.000000
vt 0.622807 1.000000
vt 0.614035 0.000000
vt 0.631579 1.000000
vt 0.622807 0.000000
vt 0.640351 1.000000
vt 0.631579 0.000000
vt 0.649123 1.000000
vt 0.640351 0.000000
vt 0.657895 1.000000
vt 0.649123 0.000000
vt 0.666667 1.000000
vt 0.657895 0.000000
vt 0.675439 1.000000
vt 0.666667 0.000000
vt 0.684211 1.000000
vt 0.675439 0.000000
vt 0.692982 1.000000
vt 0.684211 0.000000
vt 0.701754 1.000000
vt 0.692982 0.000000
vt 0.710526 1.000000
vt 0.701754 0.000000
vt 0.719298 1.000000
vt 0.710526 0.000000
vt 0.728070 1.000000
vt 0.719298 0.000000
vt 0.736842 1.000000
vt 0.728070 0.000000
vt 0.745614 1.000000
vt 0.736842 0.000000
vt 0.754386 1.000000
vt 0.745614 0.000000
vt 0.763158 1.000000
vt 0.754386 0.000000
vt 0.771930 1.000000
vt 0.763158 0.000000
vt 0.780702 1.000000
vt 0.771930 0.000000
vt 0.789474 1.000000
vt 0.780702 0.000000
vt 0.798246 1.000000
vt 0.789474 0.000000
vt 0.807018 1.000000
vt 0.798246 0.000000
vt 0.815789 1.000000
vt 0.807018 0.000000
vt 0.824561 1.000000
vt 0.815789 0.000000
vt 0.833333 1.000000
vt 0.824561 0.000000
vt 0.842105 1.000000
vt 0.833333 0.000000
vt 0.850877 1.000000
vt 0.842105 0.000000
vt 0.859649 1.000000
vt 0.850877 0.000000
vt 0.868421 1.000000
vt 0.859649 0.000000
vt 0.877193 1.000000
vt 0.868421 0.000000
vt 0.885965 1.000000
vt 0.877193 0.000000
vt 0.894737 1.000000
vt 0.885965 0.000000
vt 0.903509 1.000000
vt 0.894737 0.000000
vt 0.912281 1.000000
vt 0.903509 0.000000
vt 0.921053 1.000000
vt 0.912281 0.000000
vt 0.929825 1.000000
vt 0.921053 0.000000
vt 0.938596 1.000000
vt 0.929825 0.000000
vt 0.947368 1.000000
vt 0.938596 0.000000
vt 0.956140 1.000000
vt 0.947368 0.000000
vt 0.964912 1.000000
vt 0.956140 0.000000
vt 0.973684 1.000000
vt 0.964912 0.000000
vt 0.982456 1.000000
vt 0.973684 0.000000
vt 0.991228 1.000000
vt 0.982456 0.000000
vt 0.991228 0.000000
s 0
usemtl マテリアル.001
f 101/1/1 103/2/1 102/3/1
f 25/4/1 1/5/1 26/6/1
f 128/7/1 39/8/1 129/9/1
f 101/1/1 104/10/1 103/2/1
f 128/7/1 40/11/1 39/8/1
f 25/4/1 2/12/1 1/5/1
f 101/1/1 105/13/1 104/10/1
f 127/14/1 40/11/1 128/7/1
f 100/15/1 105/13/1 101/1/1
f 127/14/1 41/16/1 40/11/1
f 25/4/1 3/17/1 2/12/1
f 100/15/1 106/18/1 105/13/1
f 126/19/1 41/16/1 127/14/1
f 126/19/1 42/20/1 41/16/1
f 25/4/1 4/21/1 3/17/1
f 125/22/1 42/20/1 126/19/1
f 100/15/1 107/23/1 106/18/1
f 24/24/1 4/21/1 25/4/1
f 125/22/1 43/25/1 42/20/1
f 124/26/1 43/25/1 125/22/1
f 99/27/1 107/23/1 100/15/1
f 99/27/1 108/28/1 107/23/1
f 24/24/1 5/29/1 4/21/1
f 23/30/1 5/29/1 24/24/1
f 123/31/1 43/25/1 124/26/1
f 123/31/1 44/32/1 43/25/1
f 99/27/1 109/33/1 108/28/1
f 23/30/1 6/34/1 5/29/1
f 122/35/1 44/32/1 123/31/1
f 22/36/1 6/34/1 23/30/1
f 122/35/1 45/37/1 44/32/1
f 99/27/1 110/38/1 109/33/1
f 121/39/1 45/37/1 122/35/1
f 22/36/1 7/40/1 6/34/1
f 98/41/1 110/38/1 99/27/1
f 121/39/1 46/42/1 45/37/1
f 21/43/1 7/40/1 22/36/1
f 98/41/1 111/44/1 110/38/1
f 120/45/1 46/42/1 121/39/1
f 120/45/1 47/46/1 46/42/1
f 21/43/1 8/47/1 7/40/1
f 98/41/1 112/48/1 111/44/1
f 20/49/1 8/47/1 21/43/1
f 119/50/1 47/46/1 120/45/1
f 119/50/1 48/51/1 47/46/1
f 98/41/1 113/52/1 112/48/1
f 20/49/1 9/53/1 8/47/1
f 118/54/1 48/51/1 119/50/1
f 97/55/1 113/52/1 98/41/1
f 19/56/1 9/53/1 20/49/1
f 97/55/1 114/57/1 113/52/1
f 118/54/1 49/58/1 48/51/1
f 117/59/1 49/58/1 118/54/1
f 19/56/1 10/60/1 9/53/1
f 18/61/1 10/60/1 19/56/1
f 97/55/1 115/62/1 114/57/1
f 117/59/1 50/63/1 49/58/1
f 116/64/1 50/63/1 117/59/1
f 18/61/1 11/65/1 10/60/1
f 97/55/1 116/64/1 115/62/1
f 97/55/1 50/63/1 116/64/1
f 97/55/1 51/66/1 50/63/1
f 97/55/1 52/67/1 51/66/1
f 96/68/1 52/67/1 97/55/1
f 17/69/1 11/65/1 18/61/1
f 17/69/1 12/70/1 11/65/1
f 16/71/1 12/70/1 17/69/1
f 16/71/1 15/72/1 12/70/1
f 15/72/1 14/73/1 12/70/1
f 14/73/1 13/74/1 12/70/1
f 95/75/1 52/67/1 96/68/1
f 94/76/1 32/77/1 95/75/1
f 32/77/1 52/67/1 95/75/1
f 94/76/1 33/78/1 32/77/1
f 31/79/2 52/67/2 32/77/2
f 34/80/1 53/81/1 31/79/1
f 53/81/2 52/67/2 31/79/2
f 34/80/1 54/82/1 53/81/1
f 93/83/1 33/78/1 94/76/1
f 92/84/1 66/85/1 93/83/1
f 66/85/1 33/78/1 93/83/1
f 91/86/1 66/85/1 92/84/1
f 91/86/1 67/87/1 66/85/1
f 65/88/1 33/78/1 66/85/1
f 91/86/1 68/89/1 67/87/1
f 90/90/1 68/89/1 91/86/1
f 90/90/1 69/91/1 68/89/1
f 65/88/1 29/92/1 33/78/1
f 29/92/1 34/80/1 33/78/1
f 29/92/1 54/82/1 34/80/1
f 29/92/1 55/93/1 54/82/1
f 29/92/1 56/94/1 55/93/1
f 90/90/1 70/95/1 69/91/1
f 90/90/1 71/96/1 70/95/1
f 89/97/1 71/96/1 90/90/1
f 88/98/1 71/96/1 89/97/1
f 88/98/1 72/99/1 71/96/1
f 87/100/1 72/99/1 88/98/1
f 86/101/1 72/99/1 87/100/1
f 86/101/1 73/102/1 72/99/1
f 85/103/1 73/102/1 86/101/1
f 85/103/1 74/104/1 73/102/1
f 84/105/1 74/104/1 85/103/1
f 83/106/1 74/104/1 84/105/1
f 83/106/1 75/107/1 74/104/1
f 82/108/1 75/107/1 83/106/1
f 82/108/1 76/109/1 75/107/1
f 81/110/1 76/109/1 82/108/1
f 81/110/1 77/111/1 76/109/1
f 80/112/1 77/111/1 81/110/1
f 240/113/1 242/114/1 241/115/1
f 240/113/1 239/116/1 242/114/1
f 239/116/1 243/117/1 242/114/1
f 79/118/1 77/111/1 80/112/1
f 79/118/1 78/119/1 77/111/1
f 65/88/1 30/120/1 29/92/1
f 28/121/2 56/94/2 29/92/2
f 27/122/1 57/123/1 28/121/1
f 57/123/2 56/94/2 28/121/2
f 27/122/1 58/124/1 57/123/1
f 238/125/1 243/117/1 239/116/1
f 65/88/1 37/126/1 30/120/1
f 37/126/1 27/122/1 30/120/1
f 37/126/1 58/124/1 27/122/1
f 37/126/1 59/127/1 58/124/1
f 37/126/1 60/128/1 59/127/1
f 65/88/1 38/129/1 37/126/1
f 36/130/2 60/128/2 37/126/2
f 35/131/1 61/132/1 36/130/1
f 61/132/2 60/128/2 36/130/2
f 35/131/1 62/133/1 61/132/1
f 65/88/1 35/131/1 38/129/1
f 65/88/1 62/133/1 35/131/1
f 65/88/1 63/134/1 62/133/1
f 65/88/1 64/135/1 63/134/1
f 238/125/1 130/136/1 243/117/1
f 238/125/1 131/137/1 130/136/1
f 238/125/1 132/138/1 131/137/1
f 237/139/1 132/138/1 238/125/1
f 237/139/1 133/140/1 132/138/1
f 236/141/1 133/140/1 237/139/1
f 236/141/1 134/142/1 133/140/1
f 236/141/1 135/143/1 134/142/1
f 235/144/1 135/143/1 236/141/1
f 235/144/1 136/145/1 135/143/1
f 234/146/1 136/145/1 235/144/1
f 234/146/1 137/147/1 136/145/1
f 234/146/1 138/148/1 137/147/1
f 233/149/1 138/148/1 234/146/1
f 233/149/1 139/150/1 138/148/1
f 232/151/1 139/150/1 233/149/1
f 232/151/1 140/152/1 139/150/1
f 232/151/1 141/153/1 140/152/1
f 231/154/1 141/153/1 232/151/1
f 231/154/1 142/155/1 141/153/1
f 230/156/1 142/155/1 231/154/1
f 230/156/1 143/157/1 142/155/1
f 229/158/1 213/159/1 230/156/1
f 213/159/1 143/157/1 230/156/1
f 213/159/1 144/160/1 143/157/1
f 229/158/1 214/161/1 213/159/1
f 212/162/1 144/160/1 213/159/1
f 211/163/1 144/160/1 212/162/1
f 229/158/1 215/164/1 214/161/1
f 210/165/1 144/160/1 211/163/1
f 210/165/1 145/166/1 144/160/1
f 229/158/1 216/167/1 215/164/1
f 209/168/1 145/166/1 210/165/1
f 228/169/1 216/167/1 229/158/1
f 164/170/1 166/171/1 165/172/1
f 209/168/1 146/173/1 145/166/1
f 208/174/1 146/173/1 209/168/1
f 228/169/1 217/175/1 216/167/1
f 163/176/1 166/171/1 164/170/1
f 162/177/1 166/171/1 163/176/1
f 208/174/1 147/178/1 146/173/1
f 207/179/1 147/178/1 208/174/1
f 162/177/1 167/180/1 166/171/1
f 161/181/1 167/180/1 162/177/1
f 227/182/1 217/175/1 228/169/1
f 207/179/1 148/183/1 147/178/1
f 160/184/1 167/180/1 161/181/1
f 227/182/1 218/185/1 217/175/1
f 206/186/1 148/183/1 207/179/1
f 159/187/1 167/180/1 160/184/1
f 206/186/1 149/188/1 148/183/1
f 158/189/1 167/180/1 159/187/1
f 158/189/1 168/190/1 167/180/1
f 206/186/1 150/191/1 149/188/1
f 157/192/1 168/190/1 158/189/1
f 156/193/1 168/190/1 157/192/1
f 206/186/1 151/194/1 150/191/1
f 155/195/1 168/190/1 156/193/1
f 205/196/1 151/194/1 206/186/1
f 205/196/1 152/197/1 151/194/1
f 154/198/1 168/190/1 155/195/1
f 205/196/1 153/199/1 152/197/1
f 153/199/1 168/190/1 154/198/1
f 205/196/1 168/190/1 153/199/1
f 227/182/1 219/200/1 218/185/1
f 226/201/1 219/200/1 227/182/1
f 205/196/1 169/202/1 168/190/1
f 204/203/1 169/202/1 205/196/1
f 204/203/1 170/204/1 169/202/1
f 203/205/1 170/204/1 204/203/1
f 226/201/1 220/206/1 219/200/1
f 225/207/1 224/208/1 226/201/1
f 224/208/1 223/209/1 226/201/1
f 223/209/1 222/210/1 226/201/1
f 222/210/1 221/211/1 226/201/1
f 221/211/1 220/206/1 226/201/1
f 202/212/1 170/204/1 203/205/1
f 202/212/1 171/213/1 170/204/1
f 201/214/1 171/213/1 202/212/1
f 201/214/1 172/215/1 171/213/1
f 200/216/1 172/215/1 201/214/1
f 200/216/1 173/217/1 172/215/1
f 199/218/1 173/217/1 200/216/1
f 199/218/1 174/219/1 173/217/1
f 198/220/1 174/219/1 199/218/1
f 198/220/1 175/221/1 174/219/1
f 197/222/1 175/221/1 198/220/1
f 197/222/1 176/223/1 175/221/1
f 196/224/1 176/223/1 197/222/1
f 196/224/1 177/225/1 176/223/1
f 195/226/1 177/225/1 196/224/1
f 195/226/1 178/227/1 177/225/1
f 194/228/1 178/227/1 195/226/1
f 194/228/1 179/229/1 178/227/1
f 194/228/1 180/230/1 179/229/1
f 193/231/1 180/230/1 194/228/1
f 193/231/1 181/232/1 180/230/1
f 193/231/1 182/233/1 181/232/1
f 192/234/1 182/233/1 193/231/1
f 192/234/1 183/235/1 182/233/1
f 192/234/1 184/236/1 183/235/1
f 191/237/1 184/236/1 192/234/1
f 191/237/1 185/238/1 184/236/1
f 191/237/1 186/239/1 185/238/1
f 190/240/1 186/239/1 191/237/1
f 190/240/1 187/241/1 186/239/1
f 190/240/1 188/242/1 187/241/1
f 189/243/1 188/242/1 190/240/1
f 344/1/3 345/3/3 346/2/3
f 268/4/3 269/6/3 244/5/3
f 371/7/3 372/9/3 282/8/3
f 344/1/3 346/2/3 347/10/3
f 371/7/3 282/8/3 283/11/3
f 268/4/3 244/5/3 245/12/3
f 344/1/3 347/10/3 348/13/3
f 370/14/3 371/7/3 283/11/3
f 343/15/3 344/1/3 348/13/3
f 370/14/3 283/11/3 284/16/3
f 268/4/3 245/12/3 246/17/3
f 343/15/3 348/13/3 349/18/3
f 369/19/3 370/14/3 284/16/3
f 369/19/3 284/16/3 285/20/3
f 268/4/3 246/17/3 247/21/3
f 368/22/3 369/19/3 285/20/3
f 343/15/3 349/18/3 350/23/3
f 267/24/3 268/4/3 247/21/3
f 368/22/3 285/20/3 286/25/3
f 367/26/3 368/22/3 286/25/3
f 342/27/3 343/15/3 350/23/3
f 342/27/3 350/23/3 351/28/3
f 267/24/3 247/21/3 248/29/3
f 266/30/3 267/24/3 248/29/3
f 366/31/3 367/26/3 286/25/3
f 366/31/3 286/25/3 287/32/3
f 342/27/3 351/28/3 352/33/3
f 266/30/3 248/29/3 249/34/3
f 365/35/3 366/31/3 287/32/3
f 265/36/3 266/30/3 249/34/3
f 365/35/3 287/32/3 288/37/3
f 342/27/3 352/33/3 353/38/3
f 364/39/3 365/35/3 288/37/3
f 265/36/3 249/34/3 250/40/3
f 341/41/3 342/27/3 353/38/3
f 364/39/3 288/37/3 289/42/3
f 264/43/3 265/36/3 250/40/3
f 341/41/3 353/38/3 354/44/3
f 363/45/3 364/39/3 289/42/3
f 363/45/3 289/42/3 290/46/3
f 264/43/3 250/40/3 251/47/3
f 341/41/3 354/44/3 355/48/3
f 263/49/3 264/43/3 251/47/3
f 362/50/3 363/45/3 290/46/3
f 362/50/3 290/46/3 291/51/3
f 341/41/3 355/48/3 356/52/3
f 263/49/3 251/47/3 252/53/3
f 361/54/3 362/50/3 291/51/3
f 340/55/3 341/41/3 356/52/3
f 262/56/3 263/49/3 252/53/3
f 340/55/3 356/52/3 357/57/3
f 361/54/3 291/51/3 292/58/3
f 360/59/3 361/54/3 292/58/3
f 262/56/3 252/53/3 253/60/3
f 261/61/3 262/56/3 253/60/3
f 340/55/3 357/57/3 358/62/3
f 360/59/3 292/58/3 293/63/3
f 359/64/3 360/59/3 293/63/3
f 261/61/3 253/60/3 254/65/3
f 340/55/4 358/62/4 359/64/4
f 340/55/3 359/64/3 293/63/3
f 340/55/3 293/63/3 294/66/3
f 340/55/3 294/66/3 295/67/3
f 339/68/3 340/55/3 295/67/3
f 260/69/3 261/61/3 254/65/3
f 260/69/3 254/65/3 255/70/3
f 259/71/3 260/69/3 255/70/3
f 259/71/3 255/70/3 258/72/3
f 258/72/3 255/70/3 257/73/3
f 257/73/3 255/70/3 256/74/3
f 338/75/3 339/68/3 295/67/3
f 337/76/3 338/75/3 275/77/3
f 275/77/3 338/75/3 295/67/3
f 337/76/3 275/77/3 276/78/3
f 274/79/2 275/77/2 295/67/2
f 277/80/3 274/79/3 296/81/3
f 296/81/2 274/79/2 295/67/2
f 277/80/3 296/81/3 297/82/3
f 336/83/3 337/76/3 276/78/3
f 335/84/3 336/83/3 309/85/3
f 309/85/3 336/83/3 276/78/3
f 334/86/3 335/84/3 309/85/3
f 334/86/3 309/85/3 310/87/3
f 308/88/3 309/85/3 276/78/3
f 334/86/3 310/87/3 311/89/3
f 333/90/3 334/86/3 311/89/3
f 333/90/3 311/89/3 312/91/3
f 308/88/3 276/78/3 272/92/3
f 272/92/3 276/78/3 277/80/3
f 272/92/3 277/80/3 297/82/3
f 272/92/3 297/82/3 298/93/3
f 272/92/3 298/93/3 299/94/3
f 333/90/3 312/91/3 313/95/3
f 333/90/3 313/95/3 314/96/3
f 332/97/3 333/90/3 314/96/3
f 331/98/3 332/97/3 314/96/3
f 331/98/3 314/96/3 315/99/3
f 330/100/3 331/98/3 315/99/3
f 329/101/3 330/100/3 315/99/3
f 329/101/3 315/99/3 316/102/3
f 328/103/3 329/101/3 316/102/3
f 328/103/3 316/102/3 317/104/3
f 327/105/3 328/103/3 317/104/3
f 326/106/3 327/105/3 317/104/3
f 326/106/3 317/104/3 318/107/3
f 325/108/3 326/106/3 318/107/3
f 325/108/3 318/107/3 319/109/3
f 324/110/3 325/108/3 319/109/3
f 324/110/3 319/109/3 320/111/3
f 323/112/3 324/110/3 320/111/3
f 483/113/3 484/115/3 485/114/3
f 483/113/3 485/114/3 482/116/3
f 482/116/3 485/114/3 486/117/3
f 322/118/3 323/112/3 320/111/3
f 322/118/3 320/111/3 321/119/3
f 308/88/3 272/92/3 273/120/3
f 271/121/2 272/92/2 299/94/2
f 270/122/3 271/121/3 300/123/3
f 300/123/2 271/121/2 299/94/2
f 270/122/3 300/123/3 301/124/3
f 481/125/3 482/116/3 486/117/3
f 308/88/3 273/120/3 280/126/3
f 280/126/3 273/120/3 270/122/3
f 280/126/3 270/122/3 301/124/3
f 280/126/3 301/124/3 302/127/3
f 280/126/3 302/127/3 303/128/3
f 308/88/3 280/126/3 281/129/3
f 279/130/2 280/126/2 303/128/2
f 278/131/3 279/130/3 304/132/3
f 304/132/2 279/130/2 303/128/2
f 278/131/3 304/132/3 305/133/3
f 308/88/3 281/129/3 278/131/3
f 308/88/3 278/131/3 305/133/3
f 308/88/3 305/133/3 306/134/3
f 308/88/3 306/134/3 307/135/3
f 481/125/3 486/117/3 373/136/3
f 481/125/3 373/136/3 374/137/3
f 481/125/3 374/137/3 375/138/3
f 480/139/3 481/125/3 375/138/3
f 480/139/3 375/138/3 376/140/3
f 479/141/3 480/139/3 376/140/3
f 479/141/3 376/140/3 377/142/3
f 479/141/3 377/142/3 378/143/3
f 478/144/3 479/141/3 378/143/3
f 478/144/3 378/143/3 379/145/3
f 477/146/3 478/144/3 379/145/3
f 477/146/3 379/145/3 380/147/3
f 477/146/3 380/147/3 381/148/3
f 476/149/3 477/146/3 381/148/3
f 476/149/3 381/148/3 382/150/3
f 475/151/3 476/149/3 382/150/3
f 475/151/3 382/150/3 383/152/3
f 475/151/3 383/152/3 384/153/3
f 474/154/3 475/151/3 384/153/3
f 474/154/3 384/153/3 385/155/3
f 473/156/3 474/154/3 385/155/3
f 473/156/3 385/155/3 386/157/3
f 472/158/3 473/156/3 456/159/3
f 456/159/3 473/156/3 386/157/3
f 456/159/3 386/157/3 387/160/3
f 472/158/3 456/159/3 457/161/3
f 455/162/3 456/159/3 387/160/3
f 454/163/3 455/162/3 387/160/3
f 472/158/3 457/161/3 458/164/3
f 453/165/3 454/163/3 387/160/3
f 453/165/3 387/160/3 388/166/3
f 472/158/3 458/164/3 459/167/3
f 452/168/3 453/165/3 388/166/3
f 471/169/3 472/158/3 459/167/3
f 407/170/3 408/172/3 409/171/3
f 452/168/3 388/166/3 389/173/3
f 451/174/3 452/168/3 389/173/3
f 471/169/3 459/167/3 460/175/3
f 406/176/3 407/170/3 409/171/3
f 405/177/3 406/176/3 409/171/3
f 451/174/3 389/173/3 390/178/3
f 450/179/3 451/174/3 390/178/3
f 405/177/3 409/171/3 410/180/3
f 404/181/3 405/177/3 410/180/3
f 470/182/3 471/169/3 460/175/3
f 450/179/3 390/178/3 391/183/3
f 403/184/3 404/181/3 410/180/3
f 470/182/3 460/175/3 461/185/3
f 449/186/3 450/179/3 391/183/3
f 402/187/3 403/184/3 410/180/3
f 449/186/3 391/183/3 392/188/3
f 401/189/3 402/187/3 410/180/3
f 401/189/3 410/180/3 411/190/3
f 449/186/3 392/188/3 393/191/3
f 400/192/3 401/189/3 411/190/3
f 399/193/3 400/192/3 411/190/3
f 449/186/3 393/191/3 394/194/3
f 398/195/3 399/193/3 411/190/3
f 448/196/3 449/186/3 394/194/3
f 448/196/3 394/194/3 395/197/3
f 397/198/3 398/195/3 411/190/3
f 448/196/3 395/197/3 396/199/3
f 396/199/3 397/198/3 411/190/3
f 448/196/3 396/199/3 411/190/3
f 470/182/3 461/185/3 462/200/3
f 469/201/3 470/182/3 462/200/3
f 448/196/3 411/190/3 412/202/3
f 447/203/3 448/196/3 412/202/3
f 447/203/3 412/202/3 413/204/3
f 446/205/3 447/203/3 413/204/3
f 469/201/3 462/200/3 463/206/3
f 468/207/3 469/201/3 467/208/3
f 467/208/3 469/201/3 466/209/3
f 466/209/3 469/201/3 465/210/3
f 465/210/3 469/201/3 464/211/3
f 464/211/3 469/201/3 463/206/3
f 445/212/3 446/205/3 413/204/3
f 445/212/3 413/204/3 414/213/3
f 444/214/3 445/212/3 414/213/3
f 444/214/3 414/213/3 415/215/3
f 443/216/3 444/214/3 415/215/3
f 443/216/3 415/215/3 416/217/3
f 442/218/3 443/216/3 416/217/3
f 442/218/3 416/217/3 417/219/3
f 441/220/3 442/218/3 417/219/3
f 441/220/3 417/219/3 418/221/3
f 440/222/3 441/220/3 418/221/3
f 440/222/3 418/221/3 419/223/3
f 439/224/3 440/222/3 419/223/3
f 439/224/3 419/223/3 420/225/3
f 438/226/3 439/224/3 420/225/3
f 438/226/3 420/225/3 421/227/3
f 437/228/3 438/226/3 421/227/3
f 437/228/3 421/227/3 422/229/3
f 437/228/3 422/229/3 423/230/3
f 436/231/3 437/228/3 423/230/3
f 436/231/3 423/230/3 424/232/3
f 436/231/3 424/232/3 425/233/3
f 435/234/3 436/231/3 425/233/3
f 435/234/3 425/233/3 426/235/3
f 435/234/3 426/235/3 427/236/3
f 434/237/3 435/234/3 427/236/3
f 434/237/3 427/236/3 428/238/3
f 434/237/3 428/238/3 429/239/3
f 433/240/3 434/237/3 429/239/3
f 433/240/3 429/239/3 430/241/3
f 433/240/3 430/241/3 431/242/3
f 432/243/5 433/240/5 431/242/5
s 1
f 490/244/6 487/5/7 488/245/7
f 492/246/8 489/247/6 490/244/6
f 494/248/9 491/249/8 492/246/8
f 496/250/10 493/251/9 494/248/9
f 498/252/11 495/253/10 496/250/10
f 500/254/12 497/255/11 498/252/11
f 502/256/13 499/257/12 500/254/12
f 504/258/14 501/259/13 502/256/13
f 506/260/15 503/261/14 504/258/14
f 508/262/16 505/263/15 506/260/15
f 510/264/17 507/265/16 508/262/16
f 512/266/18 509/267/17 510/264/17
f 514/268/19 511/269/18 512/266/18
f 516/270/20 513/35/19 514/268/19
f 518/271/21 515/272/20 516/270/20
f 520/273/22 517/274/21 518/271/21
f 522/275/23 519/276/22 520/273/22
f 524/277/24 521/278/23 522/275/23
f 526/279/25 523/280/24 524/277/24
f 528/281/26 525/282/25 526/279/25
f 530/283/27 527/284/26 528/281/26
f 532/285/28 529/286/27 530/283/27
f 534/287/29 531/288/28 532/285/28
f 536/289/30 533/290/29 534/287/29
f 538/291/31 535/292/30 536/289/30
f 488/293/7 537/294/31 538/291/31
f 542/295/32 539/5/33 540/245/33
f 544/268/34 541/296/32 542/295/32
f 546/297/35 543/35/34 544/268/34
f 540/293/33 545/298/35 546/297/35
f 550/295/34 547/5/32 548/245/32
f 552/268/35 549/296/34 550/295/34
f 554/297/33 551/35/35 552/268/35
f 548/293/32 553/298/33 554/297/33
f 558/295/32 555/5/33 556/245/33
f 560/268/34 557/296/32 558/295/32
f 562/297/35 559/35/34 560/268/34
f 556/293/33 561/298/35 562/297/35
f 566/299/36 563/5/37 564/245/37
f 568/300/38 565/301/36 566/299/36
f 570/302/39 567/303/38 568/300/38
f 572/304/40 569/305/39 570/302/39
f 574/306/41 571/307/40 572/304/40
f 576/308/42 573/309/41 574/306/41
f 578/246/43 575/310/42 576/308/42
f 580/311/44 577/249/43 578/246/43
f 582/312/45 579/313/44 580/311/44
f 584/314/46 581/315/45 582/312/45
f 586/316/47 583/317/46 584/314/46
f 588/318/35 585/319/47 586/316/47
f 590/320/34 587/321/35 588/318/35
f 592/250/34 589/322/34 590/320/34
f 594/323/35 591/253/34 592/250/34
f 596/324/35 593/325/35 594/323/35
f 598/326/34 595/327/35 596/324/35
f 600/328/34 597/329/34 598/326/34
f 602/330/35 599/331/34 600/328/34
f 604/332/35 601/333/35 602/330/35
f 606/254/34 603/334/35 604/332/35
f 608/335/34 605/257/34 606/254/34
f 610/336/35 607/337/34 608/335/34
f 612/338/35 609/339/35 610/336/35
f 614/340/34 611/341/35 612/338/35
f 616/342/32 613/343/34 614/340/34
f 618/344/48 615/345/32 616/342/32
f 620/258/49 617/346/48 618/344/48
f 622/347/50 619/261/49 620/258/49
f 624/348/51 621/349/50 622/347/50
f 626/350/52 623/351/51 624/348/51
f 628/352/53 625/353/52 626/350/52
f 630/354/54 627/355/53 628/352/53
f 632/356/55 629/357/54 630/354/54
f 634/262/56 631/358/55 632/356/55
f 636/359/57 633/265/56 634/262/56
f 638/360/58 635/361/57 636/359/57
f 640/362/59 637/363/58 638/360/58
f 642/364/60 639/365/59 640/362/59
f 644/366/61 641/367/60 642/364/60
f 646/368/62 643/369/61 644/366/61
f 648/266/63 645/370/62 646/368/62
f 650/371/64 647/269/63 648/266/63
f 652/372/65 649/373/64 650/371/64
f 654/374/66 651/375/65 652/372/65
f 656/376/67 653/377/66 654/374/66
f 658/378/68 655/379/67 656/376/67
f 660/380/69 657/381/68 658/378/68
f 662/270/70 659/382/69 660/380/69
f 664/383/71 661/272/70 662/270/70
f 666/384/72 663/385/71 664/383/71
f 668/386/73 665/387/72 666/384/72
f 670/388/74 667/389/73 668/386/73
f 672/390/75 669/391/74 670/388/74
f 674/392/76 671/393/75 672/390/75
f 676/273/77 673/394/76 674/392/76
f 678/395/78 675/276/77 676/273/77
f 680/396/79 677/397/78 678/395/78
f 682/398/80 679/399/79 680/396/79
f 684/400/81 681/401/80 682/398/80
f 686/402/82 683/403/81 684/400/81
f 688/404/83 685/405/82 686/402/82
f 690/277/84 687/406/83 688/404/83
f 692/407/85 689/280/84 690/277/84
f 694/408/86 691/409/85 692/407/85
f 696/410/87 693/411/86 694/408/86
f 698/412/88 695/413/87 696/410/87
f 700/414/89 697/415/88 698/412/88
f 702/416/90 699/417/89 700/414/89
f 704/281/91 701/418/90 702/416/90
f 706/419/92 703/284/91 704/281/91
f 708/420/93 705/421/92 706/419/92
f 710/422/94 707/423/93 708/420/93
f 712/424/95 709/425/94 710/422/94
f 714/426/96 711/427/95 712/424/95
f 716/428/97 713/429/96 714/426/96
f 718/285/98 715/430/97 716/428/97
f 720/431/99 717/288/98 718/285/98
f 722/432/100 719/433/99 720/431/99
f 724/434/101 721/435/100 722/432/100
f 726/436/102 723/437/101 724/434/101
f 728/438/103 725/439/102 726/436/102
f 730/440/104 727/441/103 728/438/103
f 732/289/105 729/442/104 730/440/104
f 734/443/106 731/292/105 732/289/105
f 736/444/107 733/445/106 734/443/106
f 738/446/108 735/447/107 736/444/107
f 740/448/109 737/449/108 738/446/108
f 742/450/110 739/451/109 740/448/109
f 744/452/111 741/453/110 742/450/110
f 564/293/37 743/454/111 744/452/111
f 748/455/112 745/5/113 746/245/113
f 750/456/114 747/457/112 748/455/112
f 752/458/115 749/459/114 750/456/114
f 754/460/116 751/461/115 752/458/115
f 756/462/117 753/463/116 754/460/116
f 758/464/118 755/465/117 756/462/117
f 760/466/119 757/467/118 758/464/118
f 762/468/120 759/469/119 760/466/119
f 764/470/121 761/471/120 762/468/120
f 766/472/122 763/473/121 764/470/121
f 768/474/123 765/475/122 766/472/122
f 770/476/124 767/477/123 768/474/123
f 772/478/125 769/479/124 770/476/124
f 774/480/126 771/481/125 772/478/125
f 776/482/127 773/483/126 774/480/126
f 778/484/128 775/485/127 776/482/127
f 780/486/129 777/487/128 778/484/128
f 782/488/130 779/489/129 780/486/129
f 784/490/131 781/491/130 782/488/130
f 786/492/132 783/493/131 784/490/131
f 788/494/133 785/495/132 786/492/132
f 790/496/134 787/497/133 788/494/133
f 792/498/135 789/499/134 790/496/134
f 794/500/136 791/501/135 792/498/135
f 796/502/137 793/503/136 794/500/136
f 798/504/138 795/505/137 796/502/137
f 800/506/139 797/507/138 798/504/138
f 802/508/140 799/509/139 800/506/139
f 804/510/141 801/511/140 802/508/140
f 806/512/142 803/513/141 804/510/141
f 808/514/143 805/515/142 806/512/142
f 810/516/144 807/517/143 808/514/143
f 812/518/145 809/519/144 810/516/144
f 814/520/146 811/521/145 812/518/145
f 816/522/147 813/523/146 814/520/146
f 818/524/148 815/525/147 816/522/147
f 820/526/149 817/527/148 818/524/148
f 822/528/150 819/529/149 820/526/149
f 824/530/151 821/531/150 822/528/150
f 826/532/152 823/533/151 824/530/151
f 828/534/153 825/535/152 826/532/152
f 830/536/154 827/537/153 828/534/153
f 832/538/155 829/539/154 830/536/154
f 834/540/156 831/541/155 832/538/155
f 836/542/157 833/543/156 834/540/156
f 838/544/158 835/545/157 836/542/157
f 840/546/159 837/547/158 838/544/158
f 842/548/160 839/549/159 840/546/159
f 844/550/161 841/551/160 842/548/160
f 846/552/162 843/553/161 844/550/161
f 848/554/163 845/555/162 846/552/162
f 850/556/164 847/557/163 848/554/163
f 852/558/165 849/559/164 850/556/164
f 854/560/166 851/561/165 852/558/165
f 856/562/167 853/563/166 854/560/166
f 858/564/168 855/565/167 856/562/167
f 860/268/169 857/566/168 858/564/168
f 862/567/170 859/35/169 860/268/169
f 864/568/171 861/569/170 862/567/170
f 866/570/172 863/571/171 864/568/171
f 868/572/173 865/573/172 866/570/172
f 870/574/174 867/575/173 868/572/173
f 872/576/175 869/577/174 870/574/174
f 874/578/176 871/579/175 872/576/175
f 876/580/177 873/581/176 874/578/176
f 878/582/178 875/583/177 876/580/177
f 880/584/179 877/585/178 878/582/178
f 882/586/180 879/587/179 880/584/179
f 884/588/181 881/589/180 882/586/180
f 886/590/182 883/591/181 884/588/181
f 888/592/183 885/593/182 886/590/182
f 890/594/184 887/595/183 888/592/183
f 892/596/185 889/597/184 890/594/184
f 894/598/186 891/599/185 892/596/185
f 896/600/187 893/601/186 894/598/186
f 898/602/188 895/603/187 896/600/187
f 900/604/189 897/605/188 898/602/188
f 902/606/190 899/607/189 900/604/189
f 904/608/191 901/609/190 902/606/190
f 906/610/192 903/611/191 904/608/191
f 908/612/193 905/613/192 906/610/192
f 910/614/194 907/615/193 908/612/193
f 912/616/195 909/617/194 910/614/194
f 914/618/196 911/619/195 912/616/195
f 916/620/197 913/621/196 914/618/196
f 918/622/198 915/623/197 916/620/197
f 920/624/199 917/625/198 918/622/198
f 922/626/200 919/627/201 920/624/199
f 924/628/202 921/629/200 922/626/200
f 926/630/203 923/631/202 924/628/202
f 928/632/204 925/633/203 926/630/203
f 930/634/205 927/635/204 928/632/204
f 932/636/206 929/637/205 930/634/205
f 934/638/207 931/639/206 932/636/206
f 936/640/208 933/641/207 934/638/207
f 938/642/209 935/643/208 936/640/208
f 940/644/210 937/645/209 938/642/209
f 942/646/211 939/647/210 940/644/210
f 944/648/212 941/649/211 942/646/211
f 946/650/213 943/651/212 944/648/212
f 948/652/214 945/653/213 946/650/213
f 950/654/215 947/655/214 948/652/214
f 952/656/216 949/657/215 950/654/215
f 954/658/217 951/659/216 952/656/216
f 956/660/218 953/661/217 954/658/217
f 958/662/219 955/663/218 956/660/218
f 960/664/220 957/665/219 958/662/219
f 962/666/221 959/667/220 960/664/220
f 964/668/32 961/669/221 962/666/221
f 966/670/32 963/671/32 964/668/32
f 968/672/33 965/673/32 966/670/32
f 970/674/35 967/675/33 968/672/33
f 972/676/222 969/677/35 970/674/35
f 746/293/113 971/678/222 972/676/222
f 490/244/6 489/247/6 487/5/7
f 492/246/8 491/249/8 489/247/6
f 494/248/9 493/251/9 491/249/8
f 496/250/10 495/253/10 493/251/9
f 498/252/11 497/255/11 495/253/10
f 500/254/12 499/257/12 497/255/11
f 502/256/13 501/259/13 499/257/12
f 504/258/14 503/261/14 501/259/13
f 506/260/15 505/263/15 503/261/14
f 508/262/16 507/265/16 505/263/15
f 510/264/17 509/267/17 507/265/16
f 512/266/18 511/269/18 509/267/17
f 514/268/19 513/35/19 511/269/18
f 516/270/20 515/272/20 513/35/19
f 518/271/21 517/274/21 515/272/20
f 520/273/22 519/276/22 517/274/21
f 522/275/23 521/278/23 519/276/22
f 524/277/24 523/280/24 521/278/23
f 526/279/25 525/282/25 523/280/24
f 528/281/26 527/284/26 525/282/25
f 530/283/27 529/286/27 527/284/26
f 532/285/28 531/288/28 529/286/27
f 534/287/29 533/290/29 531/288/28
f 536/289/30 535/292/30 533/290/29
f 538/291/31 537/294/31 535/292/30
f 488/293/7 487/117/7 537/294/31
f 542/295/32 541/296/32 539/5/33
f 544/268/34 543/35/34 541/296/32
f 546/297/35 545/298/35 543/35/34
f 540/293/33 539/117/33 545/298/35
f 550/295/34 549/296/34 547/5/32
f 552/268/35 551/35/35 549/296/34
f 554/297/33 553/298/33 551/35/35
f 548/293/32 547/117/32 553/298/33
f 558/295/32 557/296/32 555/5/33
f 560/268/34 559/35/34 557/296/32
f 562/297/35 561/298/35 559/35/34
f 556/293/33 555/117/33 561/298/35
f 566/299/36 565/301/36 563/5/37
f 568/300/38 567/303/38 565/301/36
f 570/302/39 569/305/39 567/303/38
f 572/304/40 571/307/40 569/305/39
f 574/306/41 573/309/41 571/307/40
f 576/308/42 575/310/42 573/309/41
f 578/246/43 577/249/43 575/310/42
f 580/311/44 579/313/44 577/249/43
f 582/312/45 581/315/45 579/313/44
f 584/314/46 583/317/46 581/315/45
f 586/316/47 585/319/47 583/317/46
f 588/318/35 587/321/35 585/319/47
f 590/320/34 589/322/34 587/321/35
f 592/250/34 591/253/34 589/322/34
f 594/323/35 593/325/35 591/253/34
f 596/324/35 595/327/35 593/325/35
f 598/326/34 597/329/34 595/327/35
f 600/328/34 599/331/34 597/329/34
f 602/330/35 601/333/35 599/331/34
f 604/332/35 603/334/35 601/333/35
f 606/254/34 605/257/34 603/334/35
f 608/335/34 607/337/34 605/257/34
f 610/336/35 609/339/35 607/337/34
f 612/338/35 611/341/35 609/339/35
f 614/340/34 613/343/34 611/341/35
f 616/342/32 615/345/32 613/343/34
f 618/344/48 617/346/48 615/345/32
f 620/258/49 619/261/49 617/346/48
f 622/347/50 621/349/50 619/261/49
f 624/348/51 623/351/51 621/349/50
f 626/350/52 625/353/52 623/351/51
f 628/352/53 627/355/53 625/353/52
f 630/354/54 629/357/54 627/355/53
f 632/356/55 631/358/55 629/357/54
f 634/262/56 633/265/56 631/358/55
f 636/359/57 635/361/57 633/265/56
f 638/360/58 637/363/58 635/361/57
f 640/362/59 639/365/59 637/363/58
f 642/364/60 641/367/60 639/365/59
f 644/366/61 643/369/61 641/367/60
f 646/368/62 645/370/62 643/369/61
f 648/266/63 647/269/63 645/370/62
f 650/371/64 649/373/64 647/269/63
f 652/372/65 651/375/65 649/373/64
f 654/374/66 653/377/66 651/375/65
f 656/376/67 655/379/67 653/377/66
f 658/378/68 657/381/68 655/379/67
f 660/380/69 659/382/69 657/381/68
f 662/270/70 661/272/70 659/382/69
f 664/383/71 663/385/71 661/272/70
f 666/384/72 665/387/72 663/385/71
f 668/386/73 667/389/73 665/387/72
f 670/388/74 669/391/74 667/389/73
f 672/390/75 671/393/75 669/391/74
f 674/392/76 673/394/76 671/393/75
f 676/273/77 675/276/77 673/394/76
f 678/395/78 677/397/78 675/276/77
f 680/396/79 679/399/79 677/397/78
f 682/398/80 681/401/80 679/399/79
f 684/400/81 683/403/81 681/401/80
f 686/402/82 685/405/82 683/403/81
f 688/404/83 687/406/83 685/405/82
f 690/277/84 689/280/84 687/406/83
f 692/407/85 691/409/85 689/280/84
f 694/408/86 693/411/86 691/409/85
f 696/410/87 695/413/87 693/411/86
f 698/412/88 697/415/88 695/413/87
f 700/414/89 699/417/89 697/415/88
f 702/416/90 701/418/90 699/417/89
f 704/281/91 703/284/91 701/418/90
f 706/419/92 705/421/92 703/284/91
f 708/420/93 707/423/93 705/421/92
f 710/422/94 709/425/94 707/423/93
f 712/424/95 711/427/95 709/425/94
f 714/426/96 713/429/96 711/427/95
f 716/428/97 715/430/97 713/429/96
f 718/285/98 717/288/98 715/430/97
f 720/431/99 719/433/99 717/288/98
f 722/432/100 721/435/100 719/433/99
f 724/434/101 723/437/101 721/435/100
f 726/436/102 725/439/102 723/437/101
f 728/438/103 727/441/103 725/439/102
f 730/440/104 729/442/104 727/441/103
f 732/289/105 731/292/105 729/442/104
f 734/443/106 733/445/106 731/292/105
f 736/444/107 735/447/107 733/445/106
f 738/446/108 737/449/108 735/447/107
f 740/448/109 739/451/109 737/449/108
f 742/450/110 741/453/110 739/451/109
f 744/452/111 743/454/111 741/453/110
f 564/293/37 563/117/37 743/454/111
f 748/455/112 747/457/112 745/5/113
f 750/456/114 749/459/114 747/457/112
f 752/458/115 751/461/115 749/459/114
f 754/460/116 753/463/116 751/461/115
f 756/462/117 755/465/117 753/463/116
f 758/464/118 757/467/118 755/465/117
f 760/466/119 759/469/119 757/467/118
f 762/468/120 761/471/120 759/469/119
f 764/470/121 763/473/121 761/471/120
f 766/472/122 765/475/122 763/473/121
f 768/474/123 767/477/123 765/475/122
f 770/476/124 769/479/124 767/477/123
f 772/478/125 771/481/125 769/479/124
f 774/480/126 773/483/126 771/481/125
f 776/482/127 775/485/127 773/483/126
f 778/484/128 777/487/128 775/485/127
f 780/486/129 779/489/129 777/487/128
f 782/488/130 781/491/130 779/489/129
f 784/490/131 783/493/131 781/491/130
f 786/492/132 785/495/132 783/493/131
f 788/494/133 787/497/133 785/495/132
f 790/496/134 789/499/134 787/497/133
f 792/498/135 791/501/135 789/499/134
f 794/500/136 793/503/136 791/501/135
f 796/502/137 795/505/137 793/503/136
f 798/504/138 797/507/138 795/505/137
f 800/506/139 799/509/139 797/507/138
f 802/508/140 801/511/140 799/509/139
f 804/510/141 803/513/141 801/511/140
f 806/512/142 805/515/142 803/513/141
f 808/514/143 807/517/143 805/515/142
f 810/516/144 809/519/144 807/517/143
f 812/518/145 811/521/145 809/519/144
f 814/520/146 813/523/146 811/521/145
f 816/522/147 815/525/147 813/523/146
f 818/524/148 817/527/148 815/525/147
f 820/526/149 819/529/149 817/527/148
f 822/528/150 821/531/150 819/529/149
f 824/530/151 823/533/151 821/531/150
f 826/532/152 825/535/152 823/533/151
f 828/534/153 827/537/153 825/535/152
f 830/536/154 829/539/154 827/537/153
f 832/538/155 831/541/155 829/539/154
f 834/540/156 833/543/156 831/541/155
f 836/542/157 835/545/157 833/543/156
f 838/544/158 837/547/158 835/545/157
f 840/546/159 839/549/159 837/547/158
f 842/548/160 841/551/160 839/549/159
f 844/550/161 843/553/161 841/551/160
f 846/552/162 845/555/162 843/553/161
f 848/554/163 847/557/163 845/555/162
f 850/556/164 849/559/164 847/557/163
f 852/558/165 851/561/165 849/559/164
f 854/560/166 853/563/166 851/561/165
f 856/562/167 855/565/167 853/563/166
f 858/564/168 857/566/168 855/565/167
f 860/268/169 859/35/169 857/566/168
f 862/567/170 861/569/170 859/35/169
f 864/568/171 863/571/171 861/569/170
f 866/570/172 865/573/172 863/571/171
f 868/572/173 867/575/173 865/573/172
f 870/574/174 869/577/174 867/575/173
f 872/576/175 871/579/175 869/577/174
f 874/578/176 873/581/176 871/579/175
f 876/580/177 875/583/177 873/581/176
f 878/582/178 877/585/178 875/583/177
f 880/584/179 879/587/179 877/585/178
f 882/586/180 881/589/180 879/587/179
f 884/588/181 883/591/181 881/589/180
f 886/590/182 885/593/182 883/591/181
f 888/592/183 887/595/183 885/593/182
f 890/594/184 889/597/184 887/595/183
f 892/596/185 891/599/185 889/597/184
f 894/598/186 893/601/186 891/599/185
f 896/600/187 895/603/187 893/601/186
f 898/602/188 897/605/188 895/603/187
f 900/604/189 899/607/189 897/605/188
f 902/606/190 901/609/190 899/607/189
f 904/608/191 903/611/191 901/609/190
f 906/610/192 905/613/192 903/611/191
f 908/612/193 907/615/193 905/613/192
f 910/614/194 909/617/194 907/615/193
f 912/616/195 911/619/195 909/617/194
f 914/618/196 913/621/196 911/619/195
f 916/620/197 915/623/197 913/621/196
f 918/622/198 917/625/198 915/623/197
f 920/624/199 919/627/201 917/625/198
f 922/626/200 921/629/200 919/627/201
f 924/628/202 923/631/202 921/629/200
f 926/630/203 925/633/203 923/631/202
f 928/632/204 927/635/204 925/633/203
f 930/634/205 929/637/205 927/635/204
f 932/636/206 931/639/206 929/637/205
f 934/638/207 933/641/207 931/639/206
f 936/640/208 935/643/208 933/641/207
f 938/642/209 937/645/209 935/643/208
f 940/644/210 939/647/210 937/645/209
f 942/646/211 941/649/211 939/647/210
f 944/648/212 943/651/212 941/649/211
f 946/650/213 945/653/213 943/651/212
f 948/652/214 947/655/214 945/653/213
f 950/654/215 949/657/215 947/655/214
f 952/656/216 951/659/216 949/657/215
f 954/658/217 953/661/217 951/659/216
f 956/660/218 955/663/218 953/661/217
f 958/662/219 957/665/219 955/663/218
f 960/664/220 959/667/220 957/665/219
f 962/666/221 961/669/221 959/667/220
f 964/668/32 963/671/32 961/669/221
f 966/670/32 965/673/32 963/671/32
f 968/672/33 967/675/33 965/673/32
f 970/674/35 969/677/35 967/675/33
f 972/676/222 971/678/222 969/677/35
f 746/293/113 745/117/113 971/678/222
